<svg id="Layer_1" data-name="Layer 1" xmlns="http://www.w3.org/2000/svg" width="83.62" height="85.78" viewBox="0 0 83.62 85.78"><defs><style>.cls-1{fill:#fff;stroke:#000;stroke-miterlimit:10;}</style></defs><rect class="cls-1" x="0.5" y="0.5" width="82.62" height="82.62"/><path d="M37.9,27.64a10.06,10.06,0,0,1-3.39,7.23,11.87,11.87,0,0,1-8,2.64,10.72,10.72,0,0,1-8.61-3.68q-3.14-3.69-3.13-10.11V22a17.15,17.15,0,0,1,1.44-7.23A10.88,10.88,0,0,1,20.3,10a11.51,11.51,0,0,1,6.24-1.67,11.6,11.6,0,0,1,7.93,2.64,10.79,10.79,0,0,1,3.47,7.4H32.08a5.93,5.93,0,0,0-1.53-4,5.71,5.71,0,0,0-4-1.24,5,5,0,0,0-4.39,2.1q-1.45,2.1-1.49,6.52v2.14c0,3.08.46,5.32,1.39,6.74a4.89,4.89,0,0,0,4.41,2.13,5.76,5.76,0,0,0,4.05-1.24A5.58,5.58,0,0,0,32,27.64Z"/><path d="M51,64.93v10H45.17V46.51H56.26a12.86,12.86,0,0,1,5.64,1.17A8.61,8.61,0,0,1,65.64,51,9.32,9.32,0,0,1,67,55.92a8.17,8.17,0,0,1-2.86,6.59q-2.87,2.42-7.92,2.42Zm0-4.75h5.23a5.22,5.22,0,0,0,3.55-1.09A4,4,0,0,0,61,56a4.7,4.7,0,0,0-1.23-3.38,4.61,4.61,0,0,0-3.4-1.33H51Z"/><path d="M59.65,31.66H49.38l-2,5.86H41.19L51.78,9.08h5.43L67.85,37.52H61.62ZM51,26.91h7.11L54.49,16.27Z"/><path d="M26.58,70.24H39v4.7H20.72V46.51h5.86Z"/></svg>