<svg xmlns="http://www.w3.org/2000/svg" xmlns:xlink="http://www.w3.org/1999/xlink" viewBox="0 0 700 700"><defs><style>.cls-1,.cls-12,.cls-13,.cls-14,.cls-15,.cls-16,.cls-17,.cls-18,.cls-19,.cls-20,.cls-21,.cls-22,.cls-23,.cls-24,.cls-25,.cls-26,.cls-27,.cls-28,.cls-51{fill:none;}.cls-2{fill:#3d2c22;}.cls-3{fill:#c7b299;}.cls-4{fill:#634237;}.cls-4,.cls-6{opacity:0.72;}.cls-5,.cls-6{fill:#31261a;}.cls-7{fill:#d1de5b;}.cls-8{fill:#fbf9df;}.cls-9{opacity:0.65;}.cls-10{fill:#f9f57d;}.cls-11{clip-path:url(#clip-path);}.cls-12,.cls-13,.cls-14,.cls-15,.cls-16,.cls-17,.cls-18,.cls-19,.cls-20,.cls-21,.cls-22,.cls-23,.cls-24,.cls-25,.cls-26,.cls-27,.cls-28,.cls-51,.cls-56{stroke-miterlimit:10;}.cls-12,.cls-13,.cls-14,.cls-15,.cls-16,.cls-17,.cls-18,.cls-19,.cls-20,.cls-21,.cls-22,.cls-23,.cls-24,.cls-25,.cls-26,.cls-27,.cls-28{stroke-width:0.75px;}.cls-12{stroke:url(#linear-gradient);}.cls-13{stroke:url(#linear-gradient-2);}.cls-14{stroke:url(#linear-gradient-3);}.cls-15{stroke:url(#linear-gradient-4);}.cls-16{stroke:url(#linear-gradient-5);}.cls-17{stroke:url(#linear-gradient-6);}.cls-18{stroke:url(#linear-gradient-7);}.cls-19{stroke:url(#linear-gradient-8);}.cls-20{stroke:url(#linear-gradient-9);}.cls-21{stroke:url(#linear-gradient-10);}.cls-22{stroke:url(#linear-gradient-11);}.cls-23{stroke:url(#linear-gradient-12);}.cls-24{stroke:url(#linear-gradient-13);}.cls-25{stroke:url(#linear-gradient-14);}.cls-26{stroke:url(#linear-gradient-15);}.cls-27{stroke:url(#linear-gradient-16);}.cls-28{stroke:url(#linear-gradient-17);}.cls-29{fill:url(#linear-gradient-18);}.cls-30{font-size:95.6265px;fill:#f8fcfc;font-family:Roboto-Regular, Roboto;}.cls-31{fill:url(#linear-gradient-19);}.cls-32{fill:url(#linear-gradient-20);}.cls-33{fill:url(#linear-gradient-21);}.cls-34{fill:url(#linear-gradient-22);}.cls-35{fill:url(#linear-gradient-23);}.cls-36{fill:url(#linear-gradient-24);}.cls-37{fill:url(#linear-gradient-25);}.cls-38{opacity:0.76;}.cls-39{fill:url(#linear-gradient-26);}.cls-40{fill:url(#linear-gradient-27);}.cls-41{fill:url(#linear-gradient-28);}.cls-42{fill:url(#linear-gradient-29);}.cls-43{fill:url(#linear-gradient-30);}.cls-44{fill:url(#linear-gradient-31);}.cls-45{fill:url(#linear-gradient-32);}.cls-46{fill:url(#linear-gradient-33);}.cls-47{fill:url(#linear-gradient-34);}.cls-48{fill:url(#linear-gradient-35);}.cls-49{opacity:0.56;}.cls-50{clip-path:url(#clip-path-2);}.cls-51{stroke:#fff;}.cls-52{fill:#98bfe6;}.cls-53{fill:#c13a9b;}.cls-53,.cls-54{opacity:0.94;}.cls-54{fill:#f194c3;}.cls-55,.cls-56{fill:#442644;}.cls-56{stroke:#48314c;}.cls-57{opacity:0.19;}.cls-58{fill:#e7c7e0;}.cls-59{fill:#fddce8;}.cls-59,.cls-63{opacity:0.71;}.cls-60{opacity:0.68;}.cls-61{fill:#df0051;}.cls-62{fill:#fbef83;}.cls-64{fill:#fffb73;}.cls-65{fill:#1f1f1f;}.cls-66{fill:#97bee5;}.cls-67{fill:#979797;}</style><clipPath id="clip-path"><path class="cls-1" d="M284.5123,569.0909a97.0346,97.0346,0,0,0-22.4742,3.55c-13.1625,3.6858-28.6346,10.66-35.7657,9.5287-19.6594-3.1194-34.0305-11.8916-49.09-13.2823-10.885-1.0051-23.1273,4.166-33.2263,7.0516-11.114,3.1756-49.9151-4.1-49.9151-4.1l15.9377-112.9179,159.3962,0Z"/></clipPath><linearGradient id="linear-gradient" x1="5726.9688" y1="991.7726" x2="5754.4348" y2="991.7726" gradientTransform="matrix(-1.1388, 0.1551, -0.1696, -1.0977, 6814.7894, 707.9796)" gradientUnits="userSpaceOnUse"><stop offset="0.0166" stop-color="#4c4e5d"/><stop offset="0.1295" stop-color="#626e84"/><stop offset="0.2714" stop-color="#7991ae"/><stop offset="0.3997" stop-color="#8aaacd"/><stop offset="0.5087" stop-color="#94b9df"/><stop offset="0.5854" stop-color="#98bfe6"/><stop offset="0.7186" stop-color="#a0c5e9" stop-opacity="0.9797"/><stop offset="0.8384" stop-color="#bad9f0" stop-opacity="0.9176"/><stop offset="0.9529" stop-color="#e4fbfd" stop-opacity="0.8137"/><stop offset="0.965" stop-color="#eaffff" stop-opacity="0.8"/></linearGradient><linearGradient id="linear-gradient-2" x1="5702.714" y1="1000.5108" x2="5741.4327" y2="1000.5108" gradientTransform="matrix(-1.1346, 0.1492, -0.193, -1.0043, 6815.1803, 674.7547)" xlink:href="#linear-gradient"/><linearGradient id="linear-gradient-3" x1="5694.1395" y1="1006.7075" x2="5727.4678" y2="1006.7075" gradientTransform="matrix(-1.1346, 0.1492, -0.193, -1.0043, 6815.1803, 674.7547)" xlink:href="#linear-gradient"/><linearGradient id="linear-gradient-4" x1="5657.864" y1="1053.3532" x2="5689.0186" y2="1053.3532" gradientTransform="matrix(-1.1333, 0.1681, -0.2029, -1.0231, 6817.0111, 626.7009)" xlink:href="#linear-gradient"/><linearGradient id="linear-gradient-5" x1="5657.8517" y1="1015.0571" x2="5687.8855" y2="1015.0571" gradientTransform="matrix(-1.1346, 0.1492, -0.193, -1.0043, 6815.1803, 674.7547)" xlink:href="#linear-gradient"/><linearGradient id="linear-gradient-6" x1="5614.6568" y1="1025.568" x2="5640.3778" y2="1025.568" gradientTransform="matrix(-1.138, 0.1903, -0.1791, -1.1714, 6817.5359, 646.3536)" xlink:href="#linear-gradient"/><linearGradient id="linear-gradient-7" x1="5677.2602" y1="997.6601" x2="5711.4827" y2="997.6601" gradientTransform="matrix(-1.1346, 0.1492, -0.193, -1.0043, 6815.1803, 674.7547)" xlink:href="#linear-gradient"/><linearGradient id="linear-gradient-8" x1="5639.0306" y1="1007.9425" x2="5677.7492" y2="1007.9425" gradientTransform="matrix(-1.1346, 0.1492, -0.193, -1.0043, 6815.1803, 674.7547)" xlink:href="#linear-gradient"/><linearGradient id="linear-gradient-9" x1="5634.385" y1="999.7147" x2="5667.7132" y2="999.7147" gradientTransform="matrix(-1.1346, 0.1492, -0.193, -1.0043, 6815.1803, 674.7547)" xlink:href="#linear-gradient"/><linearGradient id="linear-gradient-10" x1="5604.3334" y1="994.4104" x2="5635.8445" y2="994.4104" gradientTransform="matrix(-1.1346, 0.1492, -0.193, -1.0043, 6815.1803, 674.7547)" xlink:href="#linear-gradient"/><linearGradient id="linear-gradient-11" x1="5587.4826" y1="1041.5174" x2="5611.7255" y2="1041.5174" gradientTransform="matrix(-1.1369, 0.1993, -0.1858, -1.1802, 6817.8966, 621.8159)" xlink:href="#linear-gradient"/><linearGradient id="linear-gradient-12" x1="5588.6377" y1="993.598" x2="5614.4005" y2="993.598" gradientTransform="matrix(-1.1328, 0.1977, -0.2068, -1.1121, 6816.8672, 498.7411)" xlink:href="#linear-gradient"/><linearGradient id="linear-gradient-13" x1="5724.2784" y1="949.7206" x2="5754.6337" y2="949.7206" gradientTransform="matrix(-1.137, 0.1256, -0.1752, -0.9981, 6811.8727, 745.4787)" xlink:href="#linear-gradient"/><linearGradient id="linear-gradient-14" x1="5687.1859" y1="1007.6365" x2="5714.973" y2="1007.6365" gradientTransform="matrix(-1.1346, 0.1492, -0.193, -1.0043, 6815.1803, 674.7547)" xlink:href="#linear-gradient"/><linearGradient id="linear-gradient-15" x1="5626.3237" y1="1010.2068" x2="5654.1108" y2="1010.2068" gradientTransform="matrix(-1.1346, 0.1492, -0.193, -1.0043, 6815.1803, 674.7547)" xlink:href="#linear-gradient"/><linearGradient id="linear-gradient-16" x1="5651.6738" y1="1013.9725" x2="5679.4609" y2="1013.9725" gradientTransform="matrix(-1.1346, 0.1492, -0.193, -1.0043, 6815.1803, 674.7547)" xlink:href="#linear-gradient"/><linearGradient id="linear-gradient-17" x1="5606.9408" y1="1024.3143" x2="5632.6617" y2="1024.3143" gradientTransform="matrix(-1.138, 0.1903, -0.1791, -1.1714, 6817.5359, 646.3536)" xlink:href="#linear-gradient"/><linearGradient id="linear-gradient-18" x1="6104.0772" y1="473.4028" x2="6105.7013" y2="383.8654" gradientTransform="matrix(-1, 0, 0, 1, 6291.3519, 0)" gradientUnits="userSpaceOnUse"><stop offset="0.0166" stop-color="#4c4e5d"/><stop offset="0.1371" stop-color="#4e5160"/><stop offset="0.2435" stop-color="#545a6b"/><stop offset="0.3446" stop-color="#5e697d"/><stop offset="0.4425" stop-color="#6c7e97"/><stop offset="0.538" stop-color="#7e99b8"/><stop offset="0.6306" stop-color="#94b9df"/><stop offset="0.6446" stop-color="#98bfe6"/><stop offset="0.76" stop-color="#accfec" stop-opacity="0.9254"/><stop offset="0.9721" stop-color="#e2f9fd" stop-opacity="0.7289"/><stop offset="1" stop-color="#eaffff" stop-opacity="0.7"/></linearGradient><linearGradient id="linear-gradient-19" x1="194.1067" y1="479.9586" x2="193.7463" y2="534.7391" gradientUnits="userSpaceOnUse"><stop offset="0.0166" stop-color="#4c4e5d"/><stop offset="0.1232" stop-color="#4e5161"/><stop offset="0.2291" stop-color="#555b6d"/><stop offset="0.3347" stop-color="#606c81"/><stop offset="0.4402" stop-color="#6f839d"/><stop offset="0.5447" stop-color="#83a0c0"/><stop offset="0.6359" stop-color="#98bfe6"/><stop offset="0.7513" stop-color="#a0c5e9" stop-opacity="0.9797"/><stop offset="0.8553" stop-color="#bad9f0" stop-opacity="0.9176"/><stop offset="0.9545" stop-color="#e4fbfd" stop-opacity="0.8137"/><stop offset="0.965" stop-color="#eaffff" stop-opacity="0.8"/></linearGradient><linearGradient id="linear-gradient-20" x1="97.7421" y1="551.6281" x2="124.4287" y2="551.6281" gradientTransform="matrix(1, 0.0001, 0.0001, 1.0127, 0.0267, 2.9566)" gradientUnits="userSpaceOnUse"><stop offset="0.0076" stop-color="#4c4e5d"/><stop offset="1" stop-color="#4c4e5d"/></linearGradient><linearGradient id="linear-gradient-21" x1="128.2663" y1="557.5558" x2="156.1708" y2="557.5558" xlink:href="#linear-gradient-20"/><linearGradient id="linear-gradient-22" x1="154.7274" y1="560.9238" x2="184.7743" y2="560.9238" xlink:href="#linear-gradient-20"/><linearGradient id="linear-gradient-23" x1="191.2666" y1="561.881" x2="222.2101" y2="561.881" xlink:href="#linear-gradient-20"/><linearGradient id="linear-gradient-24" x1="220.6682" y1="560.4104" x2="260.7056" y2="560.4104" xlink:href="#linear-gradient-20"/><linearGradient id="linear-gradient-25" x1="254.4879" y1="551.4446" x2="279.5678" y2="551.4446" xlink:href="#linear-gradient-20"/><linearGradient id="linear-gradient-26" x1="95.0875" y1="622.4236" x2="84.208" y2="642.3236" gradientTransform="matrix(0.997, 0, 0, 1, 8.5127, -0.0726)" xlink:href="#linear-gradient-19"/><linearGradient id="linear-gradient-27" x1="129.7601" y1="640.3875" x2="116.4957" y2="671.771" gradientTransform="matrix(0.997, 0, 0, 1, 8.5127, -0.0726)" xlink:href="#linear-gradient-19"/><linearGradient id="linear-gradient-28" x1="160.9049" y1="641.6758" x2="160.7923" y2="685.4134" gradientTransform="matrix(0.997, 0, 0, 1, 8.5127, -0.0726)" xlink:href="#linear-gradient-19"/><linearGradient id="linear-gradient-29" x1="200.1389" y1="639.3617" x2="202.2502" y2="688.0581" gradientTransform="matrix(0.997, 0, 0, 1, 8.5127, -0.0726)" xlink:href="#linear-gradient-19"/><linearGradient id="linear-gradient-30" x1="237.3795" y1="628.6238" x2="248.3305" y2="676.147" gradientTransform="matrix(0.997, 0, 0, 1, 8.5127, -0.0726)" xlink:href="#linear-gradient-19"/><linearGradient id="linear-gradient-31" x1="273.8791" y1="621.8269" x2="276.8334" y2="641.9464" gradientTransform="matrix(0.997, 0, 0, 1, 8.5127, -0.0726)" xlink:href="#linear-gradient-19"/><linearGradient id="linear-gradient-32" x1="111.2359" y1="429.3563" x2="147.3291" y2="429.3563" gradientTransform="matrix(1, 0, 0, 1, 0, 0)" xlink:href="#linear-gradient-20"/><linearGradient id="linear-gradient-33" x1="149.0143" y1="429.3563" x2="189.2769" y2="429.3563" gradientTransform="matrix(1, 0, 0, 1, 0, 0)" xlink:href="#linear-gradient-20"/><linearGradient id="linear-gradient-34" x1="194.8702" y1="429.3723" x2="228.4603" y2="429.3723" gradientTransform="matrix(1, 0, 0, 1, 0, 0)" xlink:href="#linear-gradient-20"/><linearGradient id="linear-gradient-35" x1="229.5351" y1="429.4895" x2="268.7795" y2="429.4895" gradientTransform="matrix(1, 0, 0, 1, 0, 0)" xlink:href="#linear-gradient-20"/><clipPath id="clip-path-2"><path class="cls-1" d="M102.4537,585.407s-3.5037-.0415-6.0047,6.7267c-2.1052,5.6974-9.9661,50.6725,28.0647,73.3548,28.6128,17.0653,93.124,19.3835,113.7274,8.8658,20.2674-10.3462,51-25.4664,55.417-40.6216,5.6721-19.4617-12.0874-41.247-15.53-38.9959-3.7932,2.4807-27.3007,16.3778-82.1038,16.3778C132.64,611.1146,102.4537,585.407,102.4537,585.407Z"/></clipPath></defs><g id="finished"><g id="expressoments"><path class="cls-2" d="M442.361,396.1748c-5.1458-.2241-7.7062-.3738-12.7666-.8127.1811,4.52.3111,6.77.6281,10.8984,5.8651.7421,8.8594.96,14.8887,1.2569.1583,2.6705.2469,3.9676.439,6.4212a117.33,117.33,0,0,1-21.1559-2.85,241.4662,241.4662,0,0,1-1.4528-39.0288c8.6132.0307,12.9221.0963,21.5415.2436-.0871,2.6123-.1147,3.9784-.1426,6.7647-6.0037-.173-9.0011-.2694-14.97-.4924-.0633,3.8457-.0558,5.8817.0211,9.9329,5.0853.3444,7.65.4706,12.7965.6719C442.2338,391.98,442.269,393.3912,442.361,396.1748Z"/><path class="cls-2" d="M465.8411,403.9147a5.3415,5.3415,0,0,0-1.5149-3.7914,17.7189,17.7189,0,0,0-4.9784-2.8564,30.3541,30.3541,0,0,1-5.6581-3.0355,12.9421,12.9421,0,0,1-5.7453-10.8726,11.7147,11.7147,0,0,1,1.5032-6.0533,9.93,9.93,0,0,1,4.3-3.9522,13.2109,13.2109,0,0,1,6.2078-1.311,12.092,12.092,0,0,1,6.1446,1.6866,11.3236,11.3236,0,0,1,4.2443,4.6027,15.361,15.361,0,0,1,1.6349,6.7966c-2.6882-.0427-4.0336-.0643-6.7249-.1117a6.9145,6.9145,0,0,0-1.4765-4.5591,5.9033,5.9033,0,0,0-7.7741-.4348,4.96,4.96,0,0,0,.3011,7.0941,16.7457,16.7457,0,0,0,4.7852,2.7542q5.814,2.3721,8.5673,5.7227a13.6378,13.6378,0,0,1,2.9617,8.2658c.1611,3.6236-.7663,6.4025-2.7973,8.37-2.0329,1.9688-4.8554,2.8927-8.4813,2.83a15.067,15.067,0,0,1-6.9825-1.786,12.665,12.665,0,0,1-5.0058-4.721,14.911,14.911,0,0,1-1.9833-7.109c2.6989.09,4.0528.122,6.7641.17.1985,4.684,2.4944,6.9425,6.8219,6.9769a5.1,5.1,0,0,0,3.7-1.2057A4.2726,4.2726,0,0,0,465.8411,403.9147Z"/><path class="cls-2" d="M483.7273,400.18c.2278,5.9287.3547,8.8825.6244,14.6116-2.6466-.06-3.9788-.0782-6.6531-.1073q-1.1116-20.8809-1.4211-41.7955c5.0264.0779,7.5394.1115,12.5642.1507a12.0166,12.0166,0,0,1,6.4284,1.7718,11.6956,11.6956,0,0,1,4.3554,4.9968,17.8954,17.8954,0,0,1,1.6524,7.3758c.1019,4.1759-.8833,7.4436-2.9343,9.7583s-4.9649,3.3938-8.7811,3.32C487.2382,400.2179,486.07,400.2029,483.7273,400.18Zm-.2558-7.0416c2.3919.03,3.585.0478,5.9623.0927a4.7453,4.7453,0,0,0,3.9648-1.5355,6.6856,6.6856,0,0,0,1.2435-4.6067,8.63,8.63,0,0,0-1.5435-5.0427,4.9,4.9,0,0,0-3.9135-2.0307c-2.4413-.0407-3.6635-.0613-6.11-.1034C483.2092,385.1648,483.29,387.8323,483.4715,393.1387Z"/><path class="cls-2" d="M517.7087,400.5664c-2.0681-.0395-3.1023-.0627-5.17-.1161.0974,6.321.146,9.4815.2432,15.8025-2.5643-.1049-3.846-.1659-6.4089-.305q-.4425-21.4329-.8853-42.8656c4.7816.0034,7.1726.0047,11.9543.0066q5.7015.0023,8.8126,3.44,3.1,3.44,3.1079,9.7243a17.3674,17.3674,0,0,1-1.3864,7.4278,10.7994,10.7994,0,0,1-4.2227,4.7082c2.7786,7.1365,4.1492,10.7127,6.8538,17.843,0,.1677,0,.2515,0,.4192-2.7532-.01-4.13-.0257-6.8826-.0756C521.3474,410.1659,520.144,406.9588,517.7087,400.5664Zm-5.2809-7.32c2.1056.04,3.1587.0576,5.2647.0872a4.4561,4.4561,0,0,0,3.7942-1.6684,7.3772,7.3772,0,0,0,1.3161-4.72,8.1305,8.1305,0,0,0-1.3187-4.8431,4.6268,4.6268,0,0,0-3.96-1.7779c-2.1181-.0111-3.1774-.0176-5.2954-.0326Z"/><path class="cls-2" d="M553.3323,397.5242c-4.9951.1206-7.4936.1628-12.49.2112-.03,4.66-.0448,6.99-.0748,11.65,5.8128-.083,8.7189-.1609,14.5283-.3892l-.1276,7.1229c-8.34.394-12.5141.5-20.8609.5326q.0318-21.78.0628-43.56c8.6093,0,12.9142-.0018,21.5232-.0072-.051,2.8732-.0766,4.31-.1278,7.1828-5.9244.0484-8.8867.0649-14.8119.0825-.0265,4.1462-.04,6.2193-.0662,10.3654,5.0235-.0349,7.5354-.0654,12.5577-.1525C553.4,393.3473,553.3773,394.74,553.3323,397.5242Z"/><path class="cls-2" d="M575.4241,403.8268a4.6858,4.6858,0,0,0-1.1632-3.6651,14.2542,14.2542,0,0,0-4.5825-2.5368,25.5825,25.5825,0,0,1-5.2753-2.6874,11.8068,11.8068,0,0,1-5.1646-10.4627,13.0956,13.0956,0,0,1,1.59-6.2074,10.7246,10.7246,0,0,1,4.31-4.2548,12.7421,12.7421,0,0,1,6.2178-1.52,11.48,11.48,0,0,1,6.0879,1.6155,10.2891,10.2891,0,0,1,4.0024,4.5032,13.8374,13.8374,0,0,1,1.21,6.5839c-2.6235.08-3.9352.117-6.5594.1863a6.2942,6.2942,0,0,0-1.2258-4.43,4.6654,4.6654,0,0,0-3.8372-1.544,5.2337,5.2337,0,0,0-3.7941,1.3968,5.0447,5.0447,0,0,0-1.4345,3.592,4.2476,4.2476,0,0,0,1.471,3.4343,14.3222,14.3222,0,0,0,4.5135,2.4766c3.6708,1.361,6.3061,3.059,7.912,5.1286a11.6165,11.6165,0,0,1,2.2,7.88,12.8439,12.8439,0,0,1-3.401,8.653,12.4258,12.4258,0,0,1-8.3222,3.7824,11.2182,11.2182,0,0,1-6.4826-1.3224,10.4341,10.4341,0,0,1-4.3936-4.6934,15.7089,15.7089,0,0,1-1.4092-7.2383c2.6-.0929,3.8992-.1453,6.498-.2619-.1192,4.6943,1.8811,6.937,5.9987,6.6624a5.4154,5.4154,0,0,0,3.6229-1.4983A5.1219,5.1219,0,0,0,575.4241,403.8268Z"/><path class="cls-2" d="M602.4758,401.5024a3.9042,3.9042,0,0,0-1.0661-3.341,13.6542,13.6542,0,0,0-4.5025-2.1857,23.6861,23.6861,0,0,1-5.1946-2.3447,10.3676,10.3676,0,0,1-4.9135-9.7669,12.2164,12.2164,0,0,1,1.73-5.9021,10.7931,10.7931,0,0,1,4.4068-4.0383,13.5475,13.5475,0,0,1,6.2532-1.4314,12.021,12.021,0,0,1,6.0474,1.4934,9.4045,9.4045,0,0,1,3.8852,4.1254,11.5262,11.5262,0,0,1,1.0368,6.0178c-2.6192.1235-3.9293.1826-6.55.2957a5.3612,5.3612,0,0,0-1.1132-4.0843,4.6879,4.6879,0,0,0-3.7951-1.3946,5.5919,5.5919,0,0,0-3.8237,1.3467,4.7733,4.7733,0,0,0-1.5173,3.3925,3.7051,3.7051,0,0,0,1.3874,3.1964,13.5248,13.5248,0,0,0,4.4436,2.2093c3.6281,1.1743,6.2111,2.662,7.757,4.5078a9.53,9.53,0,0,1,1.9846,7.1311,12.3813,12.3813,0,0,1-3.604,8.1117,14.1632,14.1632,0,0,1-8.3609,4.007,11.1567,11.1567,0,0,1-6.4134-.8475,8.9065,8.9065,0,0,1-4.2651-4.1923,13.72,13.72,0,0,1-1.24-6.8012c2.5939-.1921,3.89-.2941,6.4821-.51-.2286,4.42,1.7107,6.4279,5.8129,5.9573a6.0711,6.0711,0,0,0,3.64-1.5785A4.9528,4.9528,0,0,0,602.4758,401.5024Z"/><path class="cls-2" d="M639.7051,389.6981a24.8516,24.8516,0,0,1-2.6956,8.5831,21.0022,21.0022,0,0,1-5.2873,6.5068,16.0791,16.0791,0,0,1-7.063,3.4231,9.21,9.21,0,0,1-6.6222-.8554,9.6984,9.6984,0,0,1-4.15-5.5071,23.1622,23.1622,0,0,1-.94-9.2472l.1448-1.8348a27.0763,27.0763,0,0,1,2.4569-9.7106,15.5959,15.5959,0,0,1,5.3464-6.3979,12.9871,12.9871,0,0,1,7.3454-2.1658A12.01,12.01,0,0,1,635.16,374.5a10.7409,10.7409,0,0,1,4.1224,5.5318,17.8522,17.8522,0,0,1,.61,8.2339C639.8171,388.8388,639.78,389.1253,639.7051,389.6981Zm-6.37-.783c.4039-3.506.1184-6.1217-.87-7.9036a4.9277,4.9277,0,0,0-4.8247-2.5962,6.5311,6.5311,0,0,0-5.3779,3.0372c-1.3726,1.9732-2.2283,4.8554-2.5754,8.5983l-.1568,1.7566c-.3285,3.6766.0053,6.4681.9868,8.3152a4.1076,4.1076,0,0,0,4.7383,2.2147,7.7171,7.7171,0,0,0,5.2317-3.58,18.55,18.55,0,0,0,2.66-8.2113C633.2225,389.8934,633.26,389.5673,633.3353,388.9151Z"/><path class="cls-3" d="M434.5605,417.4516c4.2814,11.5668,10.8357,22.2673,18.0978,32.1833-2.19-9.4449-1.4245-21.3986,1.4071-30.6069,4.1559.42,6.2406.647,10.3976,1.0616.6658,15.6385,4.7153,31.3194,10.3731,45.8394-2.5278-.8021-3.7865-1.2248-6.293-2.1135a89.3748,89.3748,0,0,1-4.987-11.3778,93.1208,93.1208,0,0,1-5.0194-21.4584c-.6914,10.205-1.5,20.2518,2.492,30-1.6957-.6795-2.5407-1.0293-4.2239-1.7489a156.5916,156.5916,0,0,1-23.9766-31.7164c2.2533,7.7935,4.2548,12.0241,9.1244,19.1662a44.8165,44.8165,0,0,0,7.5085,9.2342c-2.4175-1.1507-3.6187-1.7471-6.0051-2.9822-10.2265-10.154-18.2716-20.5851-18.9016-35.6785C428.508,417.2046,430.5145,417.2585,434.5605,417.4516Z"/><path class="cls-3" d="M496.73,461.4652c-4.8837-.5578-7.33-.92-12.2114-1.7757-.1277,3.7333-.134,5.5612-.01,9.0389-2.7085-.7094-4.0584-1.0888-6.747-1.8962-.4385-15.6718,1.4863-29.9585,4.5427-45.32,2.8807.1418,4.3133.19,7.1537.2183,6.3791,17.0306,12.2447,34.0632,17.4588,51.4853-2.7531-.3847-4.1278-.602-6.8707-1.0863C498.7765,467.8183,498.1205,465.6874,496.73,461.4652Zm-11.7654-9.4769c3.5606.4637,5.34.6625,8.887.9725-2.6582-7.5986-4.0848-11.3809-6.778-18.8832C485.9963,441.3446,485.5182,444.9708,484.9641,451.9883Z"/><path class="cls-3" d="M521.0608,455.0446c-2.1958-.0584-3.2937-.0966-5.4882-.191.307,7.7773.4605,11.6661.7672,19.4433-2.5982-.233-3.8963-.3718-6.4891-.6935q-1.5891-26.11-3.1783-52.22c5.4609-.1418,8.1915-.214,13.6532-.3589,4.3405-.1151,7.7131,1.2174,10.0323,4.019s3.4072,6.8278,3.3414,12.0579a25.1905,25.1905,0,0,1-1.6368,9.3045,13.5083,13.5083,0,0,1-4.5781,5.9227c2.9591,8.8615,4.3477,13.3223,6.9387,22.2022-.0034.2095-.0051.3143-.0084.5238-2.7915.0168-4.1881-.0008-6.981-.0875C525.0266,466.9676,523.7521,462.97,521.0608,455.0446Zm-5.8379-9.0541c2.2806.0535,3.421.0734,5.7028.1a4.597,4.597,0,0,0,4.1022-2.1039,10.2429,10.2429,0,0,0,1.4275-5.8874,10.8051,10.8051,0,0,0-1.4771-5.9962,4.9065,4.9065,0,0,0-4.4471-2.1209c-2.375.0321-3.5627.0457-5.9373.0678C514.8455,436.426,514.9712,439.6141,515.2229,445.9905Z"/><path class="cls-3" d="M565.4112,428.5934c-4.7354.3834-6.8216.3917-11.2163.55q-1.5336,22.53-3.067,45.0606c-2.5865.249-3.8819.3506-6.4759.5087q1.0755-22.6605,2.1511-45.321c-4.3359.1353-6.5048.1955-10.8418.3l.1666-9.0872c10-.267,20.0019-.5014,30.0008-.8159C565.8573,423.3,565.7135,425.062,565.4112,428.5934Z"/><path class="cls-3" d="M572.7352,469.6359c-3.0755,1.052-4.5829,1.5165-7.4712,2.271,2.5834-17.44,4.594-34.82,5.8739-52.401,3.211-.2126,4.8532-.3468,8.1788-.645C578.9213,435.9949,576.0673,452.87,572.7352,469.6359Z"/><path class="cls-3" d="M610.727,451.9188c-2.8454,1.61-4.3353,2.429-7.382,4.0448-.2563-7.813-2.5525-13.048-8.1807-23.6172-1.0834,10.77-4.0305,20.87-7.17,31.172-3.2114,1.45-4.825,2.143-8.0028,3.4151,3.9654-16.0019,7.3538-32.243,7.1169-48.8278,3.3957-.3493,5.1109-.5366,8.5434-.91,5.3388,7.1515,10.8395,15.7776,13.7684,24.3018,3.6116-11.24,4.4391-17.0531,2.9177-26.0663,3.3756-.3289,5.0515-.4828,8.3457-.7431C623.2217,428.4427,617.0128,440.2385,610.727,451.9188Z"/><path class="cls-3" d="M623.1342,444.4872c-2.2294,1.421-3.45,2.1761-6.035,3.724,6.6879-10.189,14.1858-21.1231,11.2-34.0313,3.1932-.1679,4.7579-.2258,7.7908-.2632C639.3615,425.9359,630.05,436.0468,623.1342,444.4872Z"/><g id="bean"><path class="cls-2" d="M613.6023,386.584c3.9457-11.4677,12.8578-17.8479,20.2665-15.2988s10.5083,13.0622,6.5626,24.53-12.5387,16.92-19.9474,14.3713S609.6566,398.0518,613.6023,386.584Z"/><path class="cls-4" d="M628.76,390.3426c.9973-9.713.7688-17.6934,1.8058-17.587s1.7844,8.14.787,17.8532-3.3617,17.4272-4.3987,17.3207S627.7624,400.0556,628.76,390.3426Z"/></g><g id="bean-2" data-name="bean"><path class="cls-5" d="M531.2173,480.6755c-4.3081,4.6169-5.0633,10.2737-2.0805,13.057s8.5738,1.6388,12.8819-2.9782,4.7148-9.9,1.7321-12.6835S535.5254,476.0585,531.2173,480.6755Z"/><path class="cls-6" d="M536.65,486.7257c-4.2219,2.8325-7.9469,4.6779-7.6445,5.1287s4.1787-1.1692,8.4006-4.0017,7.1908-5.8049,6.8884-6.2557S540.8719,483.8932,536.65,486.7257Z"/></g><g id="bean-3" data-name="bean"><path class="cls-5" d="M519.4861,486.63c3.15,3.9151,7.5205,5.1491,10.05,3.1141s2.26-6.5684-.89-10.4834-7.2656-4.8324-9.7949-2.7974S516.3362,482.7149,519.4861,486.63Z"/><path class="cls-6" d="M524.8656,483.0343c1.7541,3.6456,2.7869,6.7882,3.1761,6.6009s-.4488-3.4236-2.2029-7.0692-3.76-6.32-4.1493-6.1326S523.1115,479.3887,524.8656,483.0343Z"/></g><g id="bean-4" data-name="bean"><path class="cls-5" d="M524.8954,503.146c3.15,3.9151,7.52,5.1491,10.05,3.1141s2.26-6.5684-.89-10.4834-7.2656-4.8324-9.7949-2.7974S521.7455,499.231,524.8954,503.146Z"/><path class="cls-6" d="M530.2749,499.55c1.7541,3.6456,2.7869,6.7882,3.1761,6.6009s-.4488-3.4236-2.2029-7.0692-3.76-6.32-4.1492-6.1326S528.5208,495.9048,530.2749,499.55Z"/></g><g id="bean-5" data-name="bean"><path class="cls-5" d="M527.7677,507.95c-2.1852,4.5249-1.425,9.0022,1.4983,10.414s6.9026-.7767,9.0878-5.3016,1.2482-8.6362-1.6751-10.0479S529.9529,503.4255,527.7677,507.95Z"/><path class="cls-6" d="M533.3234,511.2673c-2.54,3.1484-4.9362,5.4294-4.6,5.7007s2.9-1.8741,5.4406-5.0225,4.0958-6.1077,3.76-6.379S535.864,508.1188,533.3234,511.2673Z"/></g><g id="bean-6" data-name="bean"><path class="cls-5" d="M528.7817,526.1553c3.4665,2.0026,7.0687,1.6622,8.3624-.5773s-.2106-5.53-3.6771-7.5327-6.7882-1.5-8.082.7393S525.3152,524.1526,528.7817,526.1553Z"/><path class="cls-6" d="M531.7442,521.9363c2.3519,2.204,4.0232,4.2417,4.2585,3.9906s-1.3182-2.4144-3.67-4.6184-4.6115-3.6138-4.8468-3.3627S529.3923,519.7324,531.7442,521.9363Z"/></g><g id="bean-7" data-name="bean"><path class="cls-5" d="M529.9355,526.8459c-3.6424,1.6612-5.4552,4.7925-4.382,7.1456s4.6262,3.0372,8.2686,1.376,5.1606-4.6581,4.0874-7.0113S533.578,525.1846,529.9355,526.8459Z"/><path class="cls-6" d="M531.6527,531.7066c-3.16.6367-5.7891.8155-5.7211,1.1528s2.7314.3274,5.891-.3093,5.6192-1.659,5.5512-1.9963S534.8124,531.07,531.6527,531.7066Z"/></g><g id="bean-8" data-name="bean"><path class="cls-5" d="M524.3853,539.8527c.7294,4.4106,3.5766,7.2772,6.426,6.806s4.6221-4.1019,3.8927-8.5125-3.5176-6.92-6.367-6.4492S523.6559,535.4421,524.3853,539.8527Z"/><path class="cls-6" d="M530.1255,539.4181c-.2344,3.5916-.8079,6.4781-.4244,6.5032s1.1488-2.8491,1.3831-6.4407-.1509-6.5407-.5343-6.5657S530.36,535.8265,530.1255,539.4181Z"/></g><g id="bean-9" data-name="bean"><path class="cls-5" d="M535.25,549.6637c-2.7378,1.8865-5.5167,1.9387-6.4571.2888s.3138-4.3768,3.0517-6.2634,5.2952-1.786,6.2356-.1362S537.9873,547.7771,535.25,549.6637Z"/><path class="cls-6" d="M532.8728,546.286c-1.9217,1.8805-3.32,3.5574-3.48,3.405s1.1582-1.9055,3.08-3.786,3.7195-3.1764,3.8793-3.024S534.7946,544.4054,532.8728,546.286Z"/></g><g id="bean-10" data-name="bean"><path class="cls-5" d="M528.0169,558.9789c3.2514,3.0682,7.2531,3.6253,9.2353,1.5247s1.1943-6.0632-2.0571-9.1314-6.99-3.3771-8.9723-1.2766S524.7656,555.9107,528.0169,558.9789Z"/><path class="cls-6" d="M532.3217,555.1569c1.9885,3,3.28,5.6445,3.6,5.4322s-.811-2.9629-2.7995-5.963-4.081-5.1137-4.4013-4.9014S530.3333,552.1568,532.3217,555.1569Z"/></g><g id="bean-11" data-name="bean"><path class="cls-5" d="M531.63,566.5617c-2.55,2.1339-5.3117,2.4452-6.402.89s-.0961-4.387,2.4537-6.5209,5.1054-2.2726,6.1957-.7178S534.18,564.4278,531.63,566.5617Z"/><path class="cls-6" d="M528.9482,563.4207c-1.7378,2.0517-2.9732,3.8517-3.1466,3.7149s.9752-2.0053,2.713-4.057,3.4067-3.51,3.58-3.3729S530.686,561.3689,528.9482,563.4207Z"/></g><g id="bean-12" data-name="bean"><path class="cls-5" d="M530.4509,572.5092c2.1194,2.6094,5.0471,3.4213,6.7329,2.0521s1.4913-4.4013-.6282-7.0107-4.8757-3.21-6.5615-1.841S528.3314,569.9,530.4509,572.5092Z"/><path class="cls-6" d="M534.0386,570.087c1.1848,2.4334,1.8855,4.5326,2.1453,4.4061s-.3109-2.289-1.4957-4.7224-2.5351-4.2164-2.7949-4.09S532.8538,567.6535,534.0386,570.087Z"/></g><g id="bean-13" data-name="bean"><path class="cls-5" d="M535.6173,584.6886c-3.0939,3.227-7.0627,3.9835-9.1475,1.9847s-1.496-5.9959,1.5979-9.2229,6.8124-3.7225,8.8972-1.7237S538.7111,581.4616,535.6173,584.6886Z"/><path class="cls-6" d="M531.1267,581.0867c-1.8359,3.0958-2.9937,5.8015-3.3242,5.6054s.6619-3,2.4978-6.0955,3.82-5.3114,4.1507-5.1153S532.9627,577.9909,531.1267,581.0867Z"/></g><g id="bean-14" data-name="bean"><path class="cls-5" d="M527.6915,596.0072c3.5671,3.2183,7.88,3.7206,9.9592,1.4161s1.1372-6.5432-2.43-9.7615-7.5915-3.46-9.6707-1.1557S524.1244,592.7889,527.6915,596.0072Z"/><path class="cls-6" d="M532.2246,591.7973c2.2086,3.1755,3.66,5.9856,3.9991,5.75s-.9428-3.1639-3.1514-6.3394-4.5076-5.396-4.8467-5.16S530.016,588.6218,532.2246,591.7973Z"/></g><g id="bean-15" data-name="bean"><path class="cls-5" d="M536.8907,609.5238c3.0282-4.1823,3.0683-8.8487.3664-10.805s-7.1227-.4619-10.1509,3.72-2.8234,8.51-.1215,10.4667S533.8624,613.706,536.8907,609.5238Z"/><path class="cls-6" d="M531.87,605.1645c3.1389-2.7256,5.9745-4.6,5.6835-4.9352s-3.2722,1.3717-6.4111,4.0973-5.247,5.438-4.956,5.7731S528.7312,607.89,531.87,605.1645Z"/></g><g id="bean-16" data-name="bean"><path class="cls-5" d="M523.6786,620.2408c-2.9089,5.6048-2.116,11.2566,1.5049,13.1358s8.6989-.7256,11.6078-6.3305,1.8807-10.8032-1.74-12.6824S526.5874,614.636,523.6786,620.2408Z"/><path class="cls-6" d="M530.5374,624.6085c-3.3054,3.8629-6.3974,6.6415-5.985,6.9944s3.7108-2.2491,7.0162-6.112,5.3661-7.5239,4.9537-7.8768S533.8428,620.7456,530.5374,624.6085Z"/></g><g id="bean-17" data-name="bean"><path class="cls-5" d="M583.0182,669.6873c6.2717.7356,11.2765-2.0073,11.7517-6.0591s-3.7591-7.8782-10.0308-8.6138-10.7691,2.0667-11.2443,6.1185S576.7465,668.9517,583.0182,669.6873Z"/><path class="cls-6" d="M584.674,661.7263c4.7831,1.7233,8.4766,3.6309,8.6606,3.12s-3.4174-2.6739-8.2005-4.3972-8.9366-2.3541-9.1206-1.8434S579.891,660.003,584.674,661.7263Z"/></g><g id="bean-18" data-name="bean"><path class="cls-5" d="M538.61,633.8331c-3.9491-2.8544-8.3529-2.8887-10.197-.3374s-.43,6.7221,3.5189,9.5766,8.0334,2.6578,9.8775.1065S542.5591,636.6876,538.61,633.8331Z"/><path class="cls-6" d="M534.5,638.5744c-2.5746-2.96-4.3457-5.6346-4.6618-5.36s1.297,3.087,3.8716,6.0471,5.136,4.9473,5.452,4.6724S537.0746,641.5345,534.5,638.5744Z"/></g><g id="bean-19" data-name="bean"><path class="cls-5" d="M565.0032,670.8593c3.15,3.9151,7.52,5.1491,10.05,3.1141s2.26-6.5684-.89-10.4835-7.2657-4.8323-9.795-2.7973S561.8532,666.9442,565.0032,670.8593Z"/><path class="cls-6" d="M570.3827,667.2636c1.7541,3.6456,2.7868,6.7882,3.1761,6.601s-.4488-3.4236-2.2029-7.0692-3.76-6.32-4.1493-6.1327S568.6286,663.6181,570.3827,667.2636Z"/></g><g id="bean-20" data-name="bean"><path class="cls-5" d="M526.9846,650.3542c-4.7511,3.04-9.8425,2.79-11.8062-.2791s-.0562-7.7965,4.6948-10.8361,9.4582-2.5445,11.4219.5249S531.7357,647.3146,526.9846,650.3542Z"/><path class="cls-6" d="M522.5461,644.6054c-3.17,3.2519-5.3918,6.2265-5.739,5.8881s1.7013-3.4823,4.8709-6.7342,6.26-5.38,6.6071-5.042S525.7156,641.3535,522.5461,644.6054Z"/></g><g id="bean-21" data-name="bean"><path class="cls-5" d="M524.6553,658.8054c2.8767,1.1957,5.6217.57,6.3942-1.2886s-.72-4.2458-3.5968-5.4415-5.3891-.4731-6.1616,1.3854S521.7786,657.61,524.6553,658.8054Z"/><path class="cls-6" d="M526.5157,655.2514c2.037,1.4634,3.532,2.8672,3.6883,2.65s-1.2607-1.73-3.2976-3.1935-3.9227-2.3235-4.079-2.106S524.4787,653.788,526.5157,655.2514Z"/></g><g id="bean-22" data-name="bean"><path class="cls-5" d="M478.073,668.6966c-5.4319,1.5189-10.2283-.2072-11.2095-3.7165s2.2243-7.4727,7.6561-8.9915,9.7889.33,10.77,3.8394S483.5048,667.1778,478.073,668.6966Z"/><path class="cls-6" d="M475.5079,661.9018c-3.9814,2.1839-6.9758,4.3794-7.209,3.9543s2.6446-2.8332,6.626-5.0171,7.5588-3.3165,7.7919-2.8914S479.4893,659.718,475.5079,661.9018Z"/></g><g id="bean-23" data-name="bean"><path class="cls-5" d="M556.4912,675.9946c-3.9981-.2046-6.8359-2.4492-6.7037-5.0322s3.1843-4.5262,7.1824-4.3216,6.5125,2.4327,6.38,5.0157S560.4894,676.1992,556.4912,675.9946Z"/><path class="cls-6" d="M556.3,670.8431c-3.1723.57-5.6831,1.3716-5.744,1.0329s2.4194-1.3093,5.5917-1.88,5.8353-.5247,5.8962-.1861S559.4719,670.2726,556.3,670.8431Z"/></g><g id="bean-24" data-name="bean"><path class="cls-5" d="M552.99,658.1884c-2.9238,3.1233-3.4416,6.9551-1.4238,8.844s5.8071,1.12,8.7309-2.0037,3.2051-6.7024,1.1873-8.5913S555.9137,655.0651,552.99,658.1884Z"/><path class="cls-6" d="M556.664,662.2934c-2.8635,1.9145-5.3892,3.1607-5.1848,3.4664s2.8324-.7875,5.6959-2.702,4.8781-3.925,4.6737-4.2308S559.5275,660.379,556.664,662.2934Z"/></g><g id="bean-25" data-name="bean"><path class="cls-5" d="M553.4653,647.5209c-3.4314-4.5417-8.3374-6.09-11.2716-3.873s-2.7853,7.3592.6461,11.9009,8.06,5.7224,10.994,3.5056S556.8966,652.0626,553.4653,647.5209Z"/><path class="cls-6" d="M547.25,651.4064c-1.86-4.1883-2.9211-7.7823-3.3682-7.5837s.39,3.8919,2.25,8.08,4.0392,7.2857,4.4864,7.0871S549.11,655.5948,547.25,651.4064Z"/></g><g id="bean-26" data-name="bean"><path class="cls-5" d="M564.502,659.58c3.0386,1.2551,5.934.5882,6.7449-1.3748s-.77-4.479-3.8085-5.7341-5.6882-.4868-6.4991,1.4763S561.4634,658.3247,564.502,659.58Z"/><path class="cls-6" d="M566.457,655.8249c2.1531,1.54,3.7341,3.0176,3.8985,2.7877s-1.3344-1.8228-3.4875-3.3625-4.1451-2.4428-4.3094-2.213S564.304,654.2853,566.457,655.8249Z"/></g><g id="bean-27" data-name="bean"><path class="cls-5" d="M539.8422,668.5581c4.6751,1.8423,9.0834.7507,10.2735-2.27s-1.2885-6.8256-5.9636-8.6678-8.7051-.6016-9.8953,2.4186S535.1672,666.7159,539.8422,668.5581Z"/><path class="cls-6" d="M542.7362,662.7708c3.3288,2.2991,5.782,4.5183,6.0274,4.1629s-2.0848-2.7524-5.4137-5.0515-6.3957-3.63-6.6412-3.2743S539.4073,660.4717,542.7362,662.7708Z"/></g><g id="bean-28" data-name="bean"><path class="cls-5" d="M546.5767,677.1052c-2.9589,1.2734-5.691.5341-6.3727-1.5348s.9449-4.6841,3.9037-5.9575,5.4516-.4311,6.1334,1.6379S549.5355,675.8318,546.5767,677.1052Z"/><path class="cls-6" d="M544.887,673.1421c-2.1271,1.5839-3.7053,3.1112-3.8514,2.8679s1.359-1.8921,3.4861-3.476,4.0706-2.503,4.2167-2.26S547.0141,671.5582,544.887,673.1421Z"/></g><g id="bean-29" data-name="bean"><path class="cls-5" d="M530.157,651.6152c.3356,4.2651,2.8166,7.2308,5.572,7.014s4.742-3.5342,4.4063-7.7993-2.7894-6.8858-5.5449-6.6689S529.8214,647.35,530.157,651.6152Z"/><path class="cls-6" d="M535.6658,651.6691c-.5165,3.4056-1.2988,6.1111-.9352,6.1663s1.3278-2.6229,1.8443-6.0284.39-6.249.0262-6.3042S536.1824,648.2635,535.6658,651.6691Z"/></g><g id="bean-30" data-name="bean"><path class="cls-5" d="M487.1678,672.7736c-3.9949-.26-6.801-2.5443-6.6328-5.1252s3.247-4.4814,7.2419-4.2211,6.4779,2.5233,6.31,5.1042S491.1628,673.0339,487.1678,672.7736Z"/><path class="cls-6" d="M487.048,667.62c-3.18.5262-5.7016,1.2923-5.7578.9528s2.4374-1.2755,5.6174-1.8016,5.8421-.4434,5.8982-.1039S490.228,667.0937,487.048,667.62Z"/></g><g id="bean-31" data-name="bean"><path class="cls-5" d="M532.0333,677.7614c-5.8253.65-10.3608-1.519-10.6629-4.785s3.7437-6.3922,9.569-7.0421,9.89,1.5717,10.1916,4.8376S537.8585,677.1115,532.0333,677.7614Z"/><path class="cls-6" d="M530.7719,671.3509c-4.482,1.4337-7.9626,3.0065-8.1154,2.596s3.2513-2.1887,7.7333-3.6224,8.3447-1.98,8.4975-1.57S535.2539,669.9172,530.7719,671.3509Z"/></g><g id="bean-32" data-name="bean"><path class="cls-5" d="M529.44,667.44c-3.7151,1.4455-7.2086.5645-8.1424-1.8356s1.0456-5.41,4.7607-6.856,6.908-.4475,7.8419,1.9526S533.1551,665.9941,529.44,667.44Z"/><path class="cls-6" d="M527.164,662.8384c-2.6487,1.8126-4.6024,3.5647-4.796,3.2819s1.6634-2.1764,4.3121-3.9889,5.0863-2.8576,5.28-2.5749S529.8127,661.0259,527.164,662.8384Z"/></g><g id="bean-33" data-name="bean"><path class="cls-5" d="M508.0394,658.6854c4.8587-.37,8.2438-3.1868,8.0049-6.3257s-4.0113-5.4112-8.87-5.0414-7.8508,3.1569-7.6119,6.2958S503.1807,659.0552,508.0394,658.6854Z"/><path class="cls-6" d="M508.117,652.4113c3.8772.5982,6.9565,1.4972,7.02,1.0832s-2.9834-1.52-6.8606-2.1183-7.1162-.4622-7.18-.0482S504.24,651.813,508.117,652.4113Z"/></g><g id="bean-34" data-name="bean"><path class="cls-5" d="M516.9474,663.3539c3.6632-.2833,6.2153-2.4416,6.0352-4.8466s-3.0243-4.1459-6.6875-3.8626-5.919,2.4188-5.7389,4.8237S513.2842,663.6373,516.9474,663.3539Z"/><path class="cls-6" d="M517.0058,658.5469c2.9233.4583,5.2448,1.1471,5.293.83s-2.2493-1.1646-5.1726-1.623-5.3652-.3541-5.4134-.0369S514.0826,658.0885,517.0058,658.5469Z"/></g><g id="bean-35" data-name="bean"><path class="cls-5" d="M498.194,665.186c3.6632-.2833,6.2154-2.4416,6.0353-4.8466s-3.0243-4.1459-6.6875-3.8626-5.9191,2.4187-5.739,4.8237S494.5308,665.4693,498.194,665.186Z"/><path class="cls-6" d="M498.2525,660.3789c2.9232.4584,5.2448,1.1472,5.293.83s-2.2494-1.1646-5.1726-1.623-5.3652-.3541-5.4134-.0369S495.3293,659.9206,498.2525,660.3789Z"/></g><g id="bean-36" data-name="bean"><path class="cls-5" d="M509.0564,675.6631c6.0027,1.9605,11.4507.2607,12.7173-3.6173s-2.1281-8.4657-8.1308-10.4261-10.9651-.1022-12.2317,3.7758S503.0537,673.7027,509.0564,675.6631Z"/><path class="cls-6" d="M512.2528,668.1863c4.3482,2.6345,7.5919,5.2345,7.8731,4.77s-2.8216-3.2964-7.17-5.9309-8.2952-4.0737-8.5765-3.61S507.9046,665.5518,512.2528,668.1863Z"/></g><g id="bean-37" data-name="bean"><path class="cls-5" d="M491.55,661.0983c2.1835-2.2219,2.6282-5.0021,1.1927-6.4128s-4.2075-.9176-6.3911,1.3044-2.4515,4.8224-1.016,6.233S489.3668,663.32,491.55,661.0983Z"/><path class="cls-6" d="M488.9483,658.0452c2.1183-1.343,3.9789-2.2056,3.8355-2.4318s-2.0757.5233-4.194,1.8663-3.62,2.7711-3.477,2.9973S486.83,659.3882,488.9483,658.0452Z"/></g><g id="bean-38" data-name="bean"><path class="cls-5" d="M499.898,672.1741c2.1835-2.2219,2.6282-5.0021,1.1927-6.4128s-4.2075-.9176-6.3911,1.3043-2.4515,4.8224-1.016,6.2331S497.7144,674.3961,499.898,672.1741Z"/><path class="cls-6" d="M497.296,669.121c2.1182-1.3431,3.9788-2.2056,3.8354-2.4318s-2.0757.5233-4.194,1.8663-3.62,2.7711-3.4769,2.9972S495.1777,670.464,497.296,669.121Z"/></g><g id="bean-39" data-name="bean"><path class="cls-2" d="M542.0078,487.8055c-3.15,3.9151-7.52,5.1491-10.05,3.1141s-2.26-6.5684.89-10.4835,7.2657-4.8323,9.795-2.7973S545.1578,483.8905,542.0078,487.8055Z"/><path class="cls-4" d="M536.6283,484.21c-1.7541,3.6455-2.7869,6.7881-3.1761,6.6009s.4488-3.4236,2.2029-7.0692,3.76-6.32,4.1493-6.1327S538.3824,480.5643,536.6283,484.21Z"/></g><g id="bean-40" data-name="bean"><path class="cls-2" d="M533.7263,509.126c2.1852,4.5249,1.4249,9.0022-1.4984,10.414s-6.9026-.7767-9.0878-5.3016-1.2482-8.6362,1.6751-10.0479S531.541,504.6011,533.7263,509.126Z"/><path class="cls-4" d="M528.1705,512.4429c2.5406,3.1484,4.9363,5.4294,4.6,5.7007s-2.9-1.8741-5.4406-5.0225-4.0958-6.1077-3.76-6.379S525.63,509.2944,528.1705,512.4429Z"/></g><g id="bean-41" data-name="bean"><path class="cls-2" d="M531.5584,528.0215c3.6424,1.6612,5.4553,4.7925,4.382,7.1456s-4.6261,3.0372-8.2686,1.376-5.1606-4.6581-4.0874-7.0113S527.9159,526.36,531.5584,528.0215Z"/><path class="cls-4" d="M529.8413,532.8822c3.16.6367,5.789.8155,5.7211,1.1528s-2.7314.3274-5.8911-.3093-5.6191-1.659-5.5511-1.9963S526.6816,532.2455,529.8413,532.8822Z"/></g><g id="bean-42" data-name="bean"><path class="cls-2" d="M537.1086,541.0283c-.7294,4.4106-3.5765,7.2772-6.426,6.806s-4.622-4.1019-3.8926-8.5125,3.5175-6.92,6.3669-6.4492S537.838,536.6177,537.1086,541.0283Z"/><path class="cls-4" d="M531.3685,540.5937c.2344,3.5916.8078,6.4781.4244,6.5031s-1.1488-2.849-1.3832-6.4406.1509-6.5407.5344-6.5657S531.1341,537.002,531.3685,540.5937Z"/></g><g id="bean-43" data-name="bean"><path class="cls-2" d="M526.2444,550.8393c2.7379,1.8865,5.5168,1.9387,6.4572.2888s-.3139-4.3768-3.0517-6.2634-5.2953-1.7861-6.2357-.1362S523.5066,548.9527,526.2444,550.8393Z"/><path class="cls-4" d="M528.6211,547.4616c1.9217,1.88,3.32,3.5574,3.48,3.405s-1.1582-1.9055-3.08-3.786-3.7194-3.1764-3.8793-3.0241S526.6994,545.581,528.6211,547.4616Z"/></g><g id="bean-44" data-name="bean"><path class="cls-2" d="M531.0431,573.6848c-2.12,2.6093-5.0472,3.4213-6.733,2.0521s-1.4912-4.4013.6282-7.0107,4.8758-3.21,6.5615-1.841S533.1625,571.0754,531.0431,573.6848Z"/><path class="cls-4" d="M527.4554,571.2626c-1.1849,2.4334-1.8855,4.5326-2.1453,4.4061s.3108-2.289,1.4957-4.7224,2.535-4.2164,2.7949-4.09S528.64,568.8291,527.4554,571.2626Z"/></g><g id="bean-45" data-name="bean"><path class="cls-2" d="M525.8767,585.8642c3.0938,3.2269,7.0627,3.9835,9.1474,1.9847s1.496-5.9959-1.5978-9.2229-6.8125-3.7225-8.8972-1.7237S522.7828,582.6372,525.8767,585.8642Z"/><path class="cls-4" d="M530.3672,582.2623c1.8359,3.0958,2.9937,5.8014,3.3243,5.6054s-.6619-3-2.4979-6.0955-3.82-5.3114-4.1506-5.1154S528.5313,579.1665,530.3672,582.2623Z"/></g><g id="bean-46" data-name="bean"><path class="cls-2" d="M524.6033,610.6994c-3.0283-4.1823-3.0684-8.8487-.3665-10.8051s7.1227-.4618,10.1509,3.72,2.8234,8.51.1215,10.4667S527.6315,614.8816,524.6033,610.6994Z"/><path class="cls-4" d="M529.6238,606.34c-3.139-2.7256-5.9746-4.6-5.6836-4.9352s3.2722,1.3717,6.4112,4.0973,5.2469,5.438,4.9559,5.7731S532.7627,609.0658,529.6238,606.34Z"/></g><g id="bean-47" data-name="bean"><path class="cls-2" d="M478.4757,670.8629c-6.2717.7355-11.2764-2.0073-11.7516-6.0591s3.759-7.8782,10.0307-8.6138,10.7691,2.0667,11.2444,6.1185S484.7475,670.1273,478.4757,670.8629Z"/><path class="cls-4" d="M476.82,662.9019c-4.7831,1.7232-8.4766,3.6309-8.6605,3.12s3.4174-2.6739,8.2-4.3972,8.9365-2.3541,9.12-1.8435S481.603,661.1786,476.82,662.9019Z"/></g><g id="bean-48" data-name="bean"><path class="cls-2" d="M522.884,635.0087c3.9492-2.8545,8.3529-2.8887,10.197-.3374s.43,6.7221-3.5188,9.5766-8.0334,2.6578-9.8776.1065S518.9349,637.8632,522.884,635.0087Z"/><path class="cls-4" d="M526.9939,639.75c2.5747-2.96,4.3458-5.6346,4.6618-5.36s-1.2969,3.087-3.8716,6.0471-5.1359,4.9473-5.4519,4.6724S524.4193,642.71,526.9939,639.75Z"/></g><g id="bean-49" data-name="bean"><path class="cls-2" d="M536.8387,659.981c-2.8767,1.1957-5.6218.57-6.3943-1.2886s.72-4.2458,3.5969-5.4415,5.389-.4731,6.1615,1.3854S539.7153,658.7853,536.8387,659.981Z"/><path class="cls-4" d="M534.9782,656.427c-2.0369,1.4634-3.532,2.8672-3.6882,2.65s1.2606-1.73,3.2976-3.1935,3.9227-2.3235,4.0789-2.106S537.0152,654.9635,534.9782,656.427Z"/></g><g id="bean-50" data-name="bean"><path class="cls-2" d="M583.421,669.8722c5.4319,1.5188,10.2282-.2072,11.2094-3.7165s-2.2242-7.4727-7.6561-8.9915-9.7888.33-10.77,3.8394S577.9891,668.3534,583.421,669.8722Z"/><path class="cls-4" d="M585.9861,663.0774c3.9814,2.1839,6.9758,4.3794,7.2089,3.9543s-2.6445-2.8332-6.6259-5.0171-7.5588-3.3165-7.792-2.8914S582.0047,660.8935,585.9861,663.0774Z"/></g><g id="bean-51" data-name="bean"><path class="cls-2" d="M496.992,660.7554c-3.0386,1.2552-5.9341.5883-6.745-1.3748s.77-4.4789,3.8085-5.7341,5.6883-.4867,6.4992,1.4764S500.0306,659.5,496.992,660.7554Z"/><path class="cls-4" d="M495.0369,657.0005c-2.1531,1.54-3.7341,3.0176-3.8985,2.7877s1.3344-1.8228,3.4875-3.3625,4.1451-2.4428,4.31-2.213S497.19,655.4608,495.0369,657.0005Z"/></g><g id="bean-52" data-name="bean"><path class="cls-2" d="M521.6517,669.7337c-4.6751,1.8422-9.0833.7507-10.2735-2.27s1.2885-6.8256,5.9636-8.6678,8.7051-.6017,9.8953,2.4186S526.3268,667.8915,521.6517,669.7337Z"/><path class="cls-4" d="M518.7578,663.9464c-3.3289,2.2991-5.782,4.5183-6.0275,4.1629s2.0849-2.7524,5.4137-5.0515,6.3957-3.63,6.6412-3.2743S522.0866,661.6473,518.7578,663.9464Z"/></g><g id="bean-53" data-name="bean"><path class="cls-2" d="M529.4607,678.937c5.8252.65,10.3607-1.519,10.6628-4.785s-3.7437-6.3922-9.569-7.0421-9.8895,1.5716-10.1916,4.8376S523.6354,678.2871,529.4607,678.937Z"/><path class="cls-4" d="M530.722,672.5265c4.482,1.4337,7.9626,3.0065,8.1154,2.596s-3.2512-2.1887-7.7332-3.6224-8.3448-1.98-8.4976-1.57S526.24,671.0928,530.722,672.5265Z"/></g><g id="bean-54" data-name="bean"><path class="cls-2" d="M553.4545,659.861c-4.8587-.37-8.2438-3.1868-8.0049-6.3257s4.0113-5.4112,8.87-5.0414,7.8507,3.1569,7.6118,6.2958S558.3132,660.2308,553.4545,659.861Z"/><path class="cls-4" d="M553.377,653.5869c-3.8773.5982-6.9565,1.4972-7.02,1.0832s2.9834-1.52,6.8607-2.1183,7.1162-.4622,7.18-.0482S557.2542,652.9886,553.377,653.5869Z"/></g><g id="bean-55" data-name="bean"><path class="cls-2" d="M563.3,666.3616c-3.6632-.2833-6.2154-2.4416-6.0352-4.8466s3.0243-4.1459,6.6875-3.8626,5.919,2.4187,5.7389,4.8237S566.9631,666.6449,563.3,666.3616Z"/><path class="cls-4" d="M563.2415,661.5545c-2.9233.4584-5.2449,1.1472-5.293.83s2.2493-1.1646,5.1725-1.623,5.3653-.3541,5.4134-.0369S566.1647,661.0961,563.2415,661.5545Z"/></g><g id="bean-56" data-name="bean"><path class="cls-2" d="M552.4376,676.8387c-6.0027,1.9605-11.4508.2607-12.7173-3.6173s2.128-8.4657,8.1307-10.4261,10.9652-.1022,12.2317,3.7758S558.44,674.8782,552.4376,676.8387Z"/><path class="cls-4" d="M549.2412,669.3619c-4.3483,2.6345-7.5919,5.2345-7.8732,4.77s2.8217-3.2964,7.17-5.9309,8.2951-4.0737,8.5764-3.61S553.5894,666.7274,549.2412,669.3619Z"/></g></g><g id="dark_stormy" data-name="dark&amp;stormy"><g id="citrussun"><ellipse class="cls-7" cx="129.8612" cy="388.8531" rx="38.6299" ry="37.7441" transform="translate(-116.759 61.3639) rotate(-18.5148)"/><ellipse class="cls-8" cx="131.7586" cy="390.8029" rx="37.1073" ry="38.6393" transform="matrix(0.1526, -0.9883, 0.9883, 0.1526, -274.5747, 461.3755)"/><g class="cls-9"><path class="cls-10" d="M130.3289,425.5953s10.2144,1.2712,18.01-3.3841c9.35-5.5832,12.1322-9.313,12.1322-9.313l-27.1631-18.6713Z"/><path class="cls-10" d="M162.1951,411.044s5.7749-8.0887,5.9548-17.0221c.26-12.9024-3.5114-14.829-3.5114-14.829l-30.3479,13.1012Z"/><path class="cls-10" d="M98.2175,406.7379a41.6587,41.6587,0,0,0,12.2658,13.217c11.35,7.4368,16.9055,4.0886,16.9055,4.0886l3.6123-29.9039Z"/><path class="cls-10" d="M164.1452,377.2858s-3.8778-10.01-12.0869-14.7813c-9.8457-5.7228-14.7056-6.3713-14.7056-6.3713l-3.9566,34.4146Z"/><path class="cls-10" d="M100.337,374.0942s-5.9656,7.7633-5.3711,16.6218c.7129,10.6245,2.8177,14.8645,2.8177,14.8645l31.4039-13.3291Z"/><path class="cls-10" d="M133.6485,356.8316a28.8958,28.8958,0,0,0-16.6267,1.5655c-12.9354,5.178-16.0962,13.7622-16.0962,13.7622l30.0675,18.2766Z"/></g></g><g id="rain"><g class="cls-11"><line class="cls-12" x1="102.9304" y1="572.0326" x2="114.7953" y2="447.5989"/><line class="cls-13" x1="123.164" y1="604.4801" x2="136.2731" y2="442.7175"/><line class="cls-14" x1="135.6851" y1="585.0997" x2="146.9341" y2="446.2894"/><line class="cls-15" x1="168.2464" y1="565.2076" x2="179.0344" y2="440.5797"/><line class="cls-16" x1="177.6841" y1="564.0414" x2="187.7963" y2="439.2592"/><line class="cls-17" x1="224.4827" y1="578.4231" x2="234.5874" y2="453.7345"/><line class="cls-18" x1="156.5646" y1="596.9815" x2="166.8351" y2="447.6768"/><line class="cls-19" x1="193.9865" y1="587.5165" x2="207.0955" y2="425.7539"/><line class="cls-20" x1="204.8333" y1="583.2081" x2="216.0823" y2="444.3979"/><line class="cls-21" x1="241.2984" y1="580.0476" x2="251.9204" y2="448.9749"/><line class="cls-22" x1="253.6197" y1="567.6895" x2="262.4601" y2="449.3672"/><line class="cls-23" x1="262.418" y1="560.7299" x2="269.6033" y2="441.9237"/><line class="cls-24" x1="113.7125" y1="581.0364" x2="126.1383" y2="456.1935"/><line class="cls-25" x1="147.4952" y1="570.9189" x2="156.8321" y2="455.703"/><line class="cls-26" x1="216.0546" y1="559.2582" x2="225.3916" y2="444.0423"/><line class="cls-27" x1="186.5651" y1="559.2582" x2="195.9021" y2="444.0423"/><line class="cls-28" x1="233.4884" y1="578.4231" x2="243.593" y2="453.7345"/></g></g><path class="cls-29" d="M250.7258,391.5634c6.7351,1.66,10.7989,4.2893,7.2755,13.2928a5.42,5.42,0,0,0-.3594,1.6573,6.0126,6.0126,0,0,0,4.2041,5.9c3.5046,1.1632,6.4574,1.692,7.5524,4.6375,2.2859,6.149.4187,7.4271-.762,10.5045-2.336,6.0885,5.5824,8.1676,6.96,13.515.9865,3.83.7095,12.4556-2.6691,13.7666-4.2731,1.658-1.6293,7.0776-3.7827,10.82-5.3506,9.2986-18.9028,10.3651-24.28,5.8-1.2227-1.038-3.5515-.53-5.3607,1.2493a36.0221,36.0221,0,0,1-20.8623,10.3773c-8.2192.939-15.2019-.2462-19.0625-6.5077-.63-1.0208-1.4425-2.5356-2.4445-2.6471-6.0244-.67-15.8089,2.99-21.6782,5.4152-6.77,2.7972-13.09,6.6626-22.4007,5.8868-5.753-.4792-12.5356-2.6207-16.275-7.798-1.4375-1.99-3.4916-4.1579-5.662-3.69-4.1353.8909-7.7741,3.5624-12.2856,3.3262-8.988-.47-13.9265-12.3678-9.7812-18.8273a3.7059,3.7059,0,0,0,.8656-2.4723,3.2716,3.2716,0,0,0-2.0091-2.2955c-6.3392-3.1317-12.0936-11.9967-10.3-20.6665,2.29-11.0728,15.7-9.63,17.7149-26.0591,1.2011-9.7928,11.2317-18.8629,24.5791-19.0356,11.0328-.1427,17.6277,6.6414,29.262,4.1176,4.5637-.99,10.1093-12.5836,19.6231-9.2853,4.1326,1.4328,10.38,8.5038,14.3447,8.1941,2.9267-.2286,7.6125-6.6065,10.7912-6.604,4.4744.002,10.3731,4.01,11.83,5.2508a9.7156,9.7156,0,0,0,4.0342,1.3559C237.2815,391.7829,241.6381,389.3233,250.7258,391.5634Z"/><text class="cls-30" transform="translate(168.3518 540.4073) scale(0.7998 1)">&amp;</text><path class="cls-31" d="M185.0335,504.2669a44.8092,44.8092,0,0,1-4.1641-8.2324,21.1356,21.1356,0,0,1-1.298-7.1783q0-6.7166,2.9946-10.6281a9.5986,9.5986,0,0,1,8.03-3.9071,9.0351,9.0351,0,0,1,7.4048,3.5369,13.9156,13.9156,0,0,1,2.8313,8.9772q0,6.3246-5.4643,12.4271l-5.2661,5.4447,13.1653,20.459a34.3458,34.3458,0,0,0,2.9946-14.6223h3.6523q0,10.8916-4.2121,18.3988l6.5489,10.1881h-4.739l-4.1467-6.4117a19.8409,19.8409,0,0,1-6.0066,5.3576,14.38,14.38,0,0,1-7.1892,1.93,13.5705,13.5705,0,0,1-10.8611-4.6737q-4.0182-4.6782-4.0161-12.4924a19.5541,19.5541,0,0,1,2.0581-8.803,37.7793,37.7793,0,0,1,7.2241-9.33Zm5.1355,31.3049a11.1314,11.1314,0,0,0,5.8084-1.69,17.0659,17.0659,0,0,0,5.0505-4.8088l-13.394-20.7247-.4617-.6577-1.5136,1.5376q-6.4488,7.0236-6.4509,13.6117a13.8119,13.8119,0,0,0,2.9619,9.243A9.9518,9.9518,0,0,0,190.169,535.5718ZM183.52,488.6776q0,5.3577,4.4429,12.6492l4.3122-4.3906a18.9255,18.9255,0,0,0,3.4541-4.4386,11.4038,11.4038,0,0,0,1.35-5.6625,9.0933,9.0933,0,0,0-1.7772-5.7278,5.6826,5.6826,0,0,0-4.739-2.3086,5.9453,5.9453,0,0,0-5.1355,2.766A12.2737,12.2737,0,0,0,183.52,488.6776Z"/><g id="stormy"><path class="cls-32" d="M114.9529,576.6516a11.96,11.96,0,0,0-.788-6.552,22.2712,22.2712,0,0,0-4.8212-6.0028,31.8539,31.8539,0,0,1-5.3531-6.4126,17.53,17.53,0,0,1-2.5154-12.242,15.9642,15.9642,0,0,1,4.6059-9.312,12.4853,12.4853,0,0,1,8.8784-3.9334,7.8655,7.8655,0,0,1,5.7723,2.1851,12.6059,12.6059,0,0,1,3.2733,6.687,28.7738,28.7738,0,0,1,.1752,9.81c-2.3525-.3248-3.5208-.4951-5.8244-.8527.4394-3.0695.2563-5.5391-.5655-7.3448a4.68,4.68,0,0,0-4.21-2.8871,5.63,5.63,0,0,0-4.557,1.5685,8.5938,8.5938,0,0,0-2.3046,5.07,7.7182,7.7182,0,0,0,.8764,5.1212,20.2778,20.2778,0,0,0,4.7673,5.2039,25.5,25.5,0,0,1,5.5226,6.1684,20.1174,20.1174,0,0,1,2.6834,7.1309,30.1927,30.1927,0,0,1,.1076,8.6648c-.6094,5.1815-2.1555,8.9187-4.5626,10.9042-2.4069,1.9828-5.32,1.8856-8.61-.237a18.2438,18.2438,0,0,1-5.5955-6.1668,29.39,29.39,0,0,1-3.3642-8.46,26.6134,26.6134,0,0,1-.5678-8.8931c1.9056,1.129,2.8933,1.6706,4.9238,2.7111a15.8919,15.8919,0,0,0,.8969,7.8013,10.1535,10.1535,0,0,0,4.5514,5.2991c1.845,1.0157,3.3537,1.0389,4.4825.0623C113.96,580.7641,114.6736,579.0442,114.9529,576.6516Z"/><path class="cls-33" d="M155.2347,543.0164c-4.0564-.1512-6.1537-.2359-10.386-.4279-2.9234,23.8471-4.1383,35.8557-6.692,59.8308-2.4443-.7739-3.66-1.1828-6.0654-2.0487,2.5871-23.2819,3.8-34.9508,6.8737-58.0641-4.2407-.2149-6.383-.3333-10.6143-.5961.521-3.5192.79-5.276,1.3514-8.7813,10.8287-.0234,16.4849-.0449,26.5522-.088C155.8417,536.91,155.638,538.9448,155.2347,543.0164Z"/><path class="cls-34" d="M184.7874,573.8722a86.3575,86.3575,0,0,1-2.3194,19.9938c-1.4584,5.683-3.523,9.9716-6.1549,12.8047-2.6321,2.8366-5.62,4.0276-8.8088,3.5711-3.1554-.4518-5.79-2.4416-7.87-5.8456-2.08-3.4-3.4529-7.9456-4.2053-13.5843a87.0446,87.0446,0,0,1-.1955-18.9593c.1474-1.6549.2209-2.4825.3688-4.1371a98.9643,98.9643,0,0,1,3.3831-18.8676c1.5862-5.45,3.4244-9.66,5.5619-12.6183,2.1373-2.9549,4.46-4.4785,7.07-4.479,2.6079,0,4.9155,1.51,6.9425,4.5582q3.04,4.5777,4.7228,13.2a99.6174,99.6174,0,0,1,1.569,20.0255Zm-6.4263-4.3309c.265-8.5839-.2986-15.1953-1.5883-19.7985-1.2919-4.6069-3.2048-6.9128-5.7407-6.9726-2.4777-.0586-4.4812,2.1336-6.142,6.5-1.6618,4.3689-2.8237,10.538-3.4577,18.586-.13,1.7279-.1946,2.5921-.3241,4.32-.617,8.2229-.38,14.6766.8315,19.4213,1.209,4.7442,3.2558,7.3662,6.1425,7.731,2.9189.3689,5.3461-1.6517,7.1189-6.0434,1.77-4.3883,2.766-10.9788,3.0352-19.7008Z"/><path class="cls-35" d="M205.7254,580.8773c-2.9845.1046-4.4947.1359-7.5181.1588.2117,12.0195.3177,18.0295.5291,30.0489-2.9066.0439-4.3673.04-7.2767-.0178q-.0545-39.0753-.11-78.1506c4.8624.0365,7.3207.0561,12.1276.0811,3.9434.02,7.0025,2.041,9.3359,6.002,2.3345,3.9627,3.7742,9.6507,4.2817,17.1485a40.6464,40.6464,0,0,1-.8556,12.97,17.56,17.56,0,0,1-4.4892,8.32c4.0163,12.6852,6.1339,18.9469,10.5028,31.1314.0195.2717.0291.4076.0486.6793-2.8743.4289-4.3478.6113-7.3372.9147C211.1006,598.6223,209.2416,592.7388,205.7254,580.8773Zm-7.7108-10.7856c2.7142-.0126,4.07-.0319,6.7533-.0989,2.2037-.0549,3.8613-1.2686,4.9631-3.6026,1.0993-2.33,1.5269-5.4764,1.3227-9.4367-.214-4.1412-.9144-7.3251-2.0871-9.5779-1.17-2.2527-2.7965-3.4108-4.9227-3.4706-2.5791.0116-3.8818.0119-6.49.0034C197.738,554.3817,197.83,559.6184,198.0146,570.0917Z"/><path class="cls-36" d="M227.5379,532.9281c5.8093,22.5394,9.0429,33.4485,15.3637,54.3979,1.1107-22.8021,1.5638-33.9309,1.776-54.6306,2.67-.0386,4.0043-.0584,6.6725-.0991,3.6776,21.6555,6.6542,43.4786,9.446,65.2618-2.044.9633-3.082,1.42-5.1954,2.2882-1.1588-8.9494-1.7338-13.4267-2.9186-22.3592-1.3752-12.0078-2.0752-17.9865-3.6119-29.8184-.5121,21.04-1.0225,32.31-2.2065,55.3892-1.6083.5271-2.4229.78-4.0753,1.2689-6.4639-21.0043-9.7335-31.9689-15.6519-54.5764,1.4866,13.07,2.237,19.5936,3.7491,32.6209.9582,9.785,1.4363,14.678,2.3929,24.4642-2.45.5757-3.6986.8526-6.2819,1.3307q-3.1224-37.7322-6.2448-75.4645C223.5443,532.9822,224.8544,532.9624,227.5379,532.9281Z"/><path class="cls-37" d="M271.6846,558.99c1.0406-11.6705,1.57-17.14,2.266-26.7756,2.2807-.0427,3.4207-.0645,5.7007-.1095-1.3629,11.7428-2.3934,19.0144-4.2166,34.82,1.13,8.2037,1.6445,12.3383,2.6988,20.5913-1.864,1.3791-2.8067,2.0355-4.7175,3.2888-1.1428-8.71-1.7033-13.0722-2.913-21.7384-5.9033-13.303-9.1453-20.746-15.9316-36.52,2.292-.0359,3.4377-.0544,5.7286-.0922C265.1463,543.6909,267.4359,549.0526,271.6846,558.99Z"/><g class="cls-38"><path class="cls-39" d="M110.2513,598.9322a8.8289,8.8289,0,0,0-3.361-4.6121c-1.8971-1.3935-3.4411-1.73-4.6-.9779-1.1582.75-1.8612,2.4983-2.1694,5.3856-1.6545-1.7182-2.4519-2.6062-3.9823-4.4414.315-2.9627.93-5.1333,1.9762-6.6162a5.1,5.1,0,0,1,4.3391-2.2632,11.5612,11.5612,0,0,1,6.195,1.9648,14.0537,14.0537,0,0,1,6.5536,8.3874c1.0461,3.6971.9753,7.9391.3882,12.9661-.3612,3.0941-.6184,5.8424-1.0959,7.9989-.4791,2.1582-1.3588,3.7387-2.6939,4.5673s-3.2109.92-5.55.04c-2.3373-.88-4.0213-1.3732-5.095-1.1733-1.0734.1976-1.7747,1.1247-2.0659,3.0028a17.0239,17.0239,0,0,0,.43,7.0226,18.6289,18.6289,0,0,0,3.4657,6.9618c1.83,2.2925,3.5192,3.2143,4.9411,2.7285s2.4272-2.2994,2.82-5.4286c2.2987,2.1424,3.4823,3.155,5.9067,5.0751-.408,3.6523-1.578,6.3749-3.3926,7.9982a6.0659,6.0659,0,0,1-6.2354,1.2277c-2.2181-.7392-4.278-2.4716-6.1857-5.1292a36.2537,36.2537,0,0,1-5.687-13.9307,38.6775,38.6775,0,0,1-.8078-13.6933c.6773-4.3493,2.2751-6.0427,4.8648-6.22a15.9044,15.9044,0,0,1,5.2856.9531c2.1917.6734,3.7128.4311,4.5331-.3862s1.3531-2.5461,1.6564-5.0742A15.1212,15.1212,0,0,0,110.2513,598.9322Z"/><path class="cls-40" d="M143.8881,676.9642c-12.8684-5.6542-18.8412-9.2574-29.2984-18.8035a20.2826,20.2826,0,0,0,3.2591-7.1033,85.5652,85.5652,0,0,0,11.4785,8.0186c6.6462-21.01-9.8415-39.37,2.764-58.7054,2.3727.8531,3.6533,1.285,6.0654,2.0487-12.3124,19.3,2.1534,39.5786-2.0345,60.4332a103.9877,103.9877,0,0,0,12.9,5.68A16.6809,16.6809,0,0,1,143.8881,676.9642Z"/><path class="cls-41" d="M185.6587,650.86c4.0746,7.7775,6.1557,14.4128,4.51,20.0169s-6.4323,9.7119-11.7695,12.064c-5.3342,2.3491-10.4916,2.8378-14.2013,1.9507-3.7065-.8864-5.27-2.8959-6.1846-6.1745-.9152-3.2806-1.2419-7.72-2.2024-13.6682-.961-5.9455-3.0662-13.116-5.4081-21.18-.5406-1.8612-.8145-2.7918-1.3408-4.6435-2.2216-7.8638-2.5981-14.174-.7695-19.0352a19.3341,19.3341,0,0,1,9.07-10.2649,18.702,18.702,0,0,1,11.048-2.5228c3.166.4386,4.5366,2.0822,5.024,5.1637.4858,3.0845.2477,7.399,1.4885,13.2076s4.3773,12.7778,8.41,20.6358C184.2482,648.1941,184.7243,649.0852,185.6587,650.86Zm-9.99-5.2243a144.7954,144.7954,0,0,1-8.0078-20.7961c-1.378-4.6826-2.606-7.0875-5.3872-7.623-2.7483-.5293-5.69,1.0512-7.5933,5.0469s-1.84,10.3167,1.08,19.4214c.62,1.9136.9455,2.8748,1.59,4.7932,3.0425,8.9613,5.2229,15.813,6.87,20.6765,1.6472,4.86,3.4364,7.5311,7.0606,8.1616,3.71.6457,7.7477-1.1333,9.8308-5.4684s.9216-10.9545-3.4162-19.9635C176.8792,648.1878,176.4659,647.3369,175.6691,645.6359Z"/><path class="cls-42" d="M215.1258,610.0316c3.0152-.2877,4.2724-.3689,7.1761-.7826-.1791.2969-.0366.3514-.207.6469-11.4912,14.2978-11.9712,20.4889-8.946,32.9912a40.2033,40.2033,0,0,1,10.3915,6.5251c3.335,2.8407,6.8478,6.257,8.2127,10.9911,2,6.9394.0568,13.28-4.3965,18.2907a26.4987,26.4987,0,0,1-16.3528,8.6653,118.8775,118.8775,0,0,1-17.09.6773c30.563-24.8223-30.2274-50.2891-2.0646-77.1471,2.8779.0705,4.0167.01,6.9377-.0192-11.0284,11.9831-8.9332,17.7858-3.1685,29.6949,3.47.02,5.2125-.0123,8.6772-.1679C201.9755,628.6357,202.9728,622.9813,215.1258,610.0316Zm-5.7946,66.6861c3.33-.2868,4.98-.4779,8.2239-.9568a8.8342,8.8342,0,0,0,6.3445-4.5793c1.3624-2.5179,1.7185-5.7652.4727-9.62a16.3154,16.3154,0,0,0-6.6267-8.1835,12.3543,12.3543,0,0,0-8.0569-2.5229c-3.1956.2613-4.8119.3509-8.0532.45C207.7113,661.4666,211.8953,666.16,209.3312,676.7177Z"/><path class="cls-43" d="M234.6823,681.96c18.0113-28.1942-24.4815-44.5545-7.6857-73.494,2.6117-.4638,3.8087-.7632,6.2819-1.3307-4.9632,11.0342-5.9465,15.7335-1.9159,24.74,5.1065,12.0954,11.89,16.2371,13.1419,29.0027,1.5494-23.8475-14.2908-30.5017-1.6676-56.8062,1.6675-.4822,2.4894-.7322,4.1124-1.2529-3.6433,23.6008,13.8319,27.7678,19.7768,45.5016-1.7418-11.4405-6.2259-14.6493-10.6326-25.2489-3.1245-8.0082-2.5171-13.2273-.3263-23.43,2.1325-.86,2.9666-1.3123,5.0289-2.2678-4.0994,23.5269,13.6728,40.5816,10.2216,64.02a68.3027,68.3027,0,0,1-6.7651,5.6639c1.5994-23.9407-14.5278-25.2257-21.1295-45.8143-1.8328,23.367,17.9859,26.7768.8309,57.2626A91.1981,91.1981,0,0,1,234.6823,681.96Z"/><path class="cls-44" d="M279.2615,652.5184a73.5056,73.5056,0,0,1-5.1743,5.8584c5.448-24.1208,4.5938-32.14,4.4707-48.7385-2.2827-7.713-5.6481-9.6789-5.2054-19.3172,1.9273-1.2475,2.9012-1.43,4.781-2.8047.0222,8.2988,7.7295,11.6818,10.22,18.1938a15.1451,15.1451,0,0,0,1.837,3.3544c5.4653,7.6608,3.9284,14.3087,2.7287,21.84-1.6489,3.4953-2.0958,5.2443-3.8254,8.4108-3.44-6.862-.7341-20.9611-5.8521-27.6885C283.7852,623.4388,282.015,635.393,279.2615,652.5184Z"/></g></g><g id="dark"><path class="cls-45" d="M111.2359,463.5763q4.4984-34.22,8.9947-68.44h11.4551a11.9094,11.9094,0,0,1,8.9993,3.9481q3.7332,3.95,5.4226,11.2344a56.0583,56.0583,0,0,1,1.0253,16.7337c-.134,1.7489-.2012,2.6234-.3354,4.3721a55.2431,55.2431,0,0,1-3.7386,16.969,26.9812,26.9812,0,0,1-7.991,11.1877,18.1113,18.1113,0,0,1-11.1641,3.9953Zm13.4514-61.0608c-2.6066,21.4715-3.9115,32.209-6.5189,53.6812h6.27c4.594,0,8.4-2.1634,11.3291-6.4923,2.9314-4.3279,4.699-10.4918,5.3916-18.49.1386-1.5992.2077-2.3989.3463-3.9985.6732-7.7785.06-13.8241-1.7611-18.1368s-4.7053-6.5-8.729-6.5632Z"/><path class="cls-46" d="M179.071,445.667H160.4659c-2.04,7.1639-3.085,10.7458-5.2272,17.9094h-6.2244c7.389-22.5689,14.1639-45.4763,20.2154-68.44h4.6827c4.4143,22.9178,9.562,45.8343,15.3645,68.44h-6.1931C181.4278,456.4128,180.6247,452.8309,179.071,445.667Zm-16.4779-7.38h14.9063c-2.6959-12.8044-3.9608-19.207-6.3265-32.0109C167.9055,419.08,166.19,425.4829,162.5931,438.2872Z"/><path class="cls-47" d="M211.2329,435.8905H200.9767c.1969,11.0744.2976,16.6118.4933,27.6859h-6.067q-.2671-34.22-.5328-68.44h13.4343A12.6809,12.6809,0,0,1,219.0673,400.4c2.6176,3.51,4.1949,8.6182,4.6542,15.324a25.0354,25.0354,0,0,1-1.4521,11.141,14.2823,14.2823,0,0,1-5.7243,7.0969c4.6209,11.6181,6.9324,17.4477,11.8779,29.0826.0149.2256.0223.3383.0373.5637-2.5217-.0133-3.789-.0188-6.3445-.0254C217.5907,452.5046,215.4175,446.9649,211.2329,435.8905ZM200.8458,428.51h8.7325a7.486,7.486,0,0,0,6.5813-3.4835c1.5566-2.3238,2.2217-5.4319,2.0211-9.325-.2187-4.2387-1.1511-7.4869-2.7717-9.7474a7.9244,7.9244,0,0,0-6.7207-3.4382h-8.3061C200.5678,412.9127,200.66,418.1116,200.8458,428.51Z"/><path class="cls-48" d="M243.7346,431.7566c-1.8286,3.4843-2.7844,5.2317-4.7015,8.7208.5613,9.2919.7073,13.9643,1.4869,23.2131-2.3221-.0181-3.4832-.0271-5.8144-.0434-1.1785-22.8436-2.8595-45.7533-5.1705-68.511h5.04c1.11,13.5369,2.51,20.3058,3.6436,33.8444,6.5331-13.5386,8.111-20.3075,13.428-33.8444h6.3317c-4.7715,12.0892-5.895,18.1339-11.1132,30.2244,9.1621,15.2869,12.1354,23.1968,21.9139,38.4824-2.8909,0-4.32-.0031-7.1582-.0134C253.7744,451.0692,250.9265,444.5115,243.7346,431.7566Z"/></g><g class="cls-49"><g class="cls-50"><path class="cls-51" d="M89.8713,583.7917C122.4082,597.908,157.6,616.5646,194.91,615.1357c36.891-1.4128,69.5491-20.1777,102.5908-32.9974"/><path class="cls-51" d="M81.35,588.59c35.5085,16.9368,71.4969,39.3768,113.12,38.0381,41.8947-1.3474,74.5431-24.1348,109.6748-41.8987"/><path class="cls-51" d="M73.5834,591.65c37.1683,20.5854,74.5181,48.5788,120.3855,46.8232,47.2606-1.8088,80.2019-28.3928,116-52.7822"/><path class="cls-51" d="M67.5207,593.6492c38.1557,25.5308,75.0474,58.438,125.9954,56.9919,52.4243-1.488,86.8-33.2211,120.8513-64.8439"/><path class="cls-51" d="M62.3664,594.4913c38.2959,31.6325,73.8479,69.6609,130.7429,67.7291,59.16-2.0088,93.3084-37.1705,125.1434-77.2068"/><path class="cls-51" d="M58.5743,595.1579c36.9755,38.19,71.2229,81.3738,134.197,79.86,65.9043-1.5838,100.6675-43.5219,128.7814-90.627"/><path class="cls-51" d="M54.6822,595.0008c35.4132,45.1618,67.2892,94.4463,137.9063,92.8461,74.2788-1.6831,108.035-50.2792,132.9649-104.8065"/></g></g></g><g id="bramble"><rect id="glassbottom" class="cls-52" x="480.9141" y="280.8159" width="86.5189" height="13.1542"/><g id="stick"><path class="cls-52" d="M443.6925,47.25a32.35,32.35,0,0,0,1.3432-7.7437,5.72,5.72,0,0,0-.5442-3.0671,4.9433,4.9433,0,0,0-.9058-1.2351,5.03,5.03,0,0,0-.5133-.4286c-.0678-.0509-.6141-.5351-.5574-.291l-.126.9632c.5051-1.1,2.6445-1.772,3.6606-1.9733a1.9219,1.9219,0,0,0,.28-.0094c-.0481.0845-.5194-.4136-.6135-.6071-.0683-.14.0766-.366-.0215-.3528.0376-.0051-.0812.0249-.0008-.0045-.0748.0273-.2461.3651-.3113.4466a13.5,13.5,0,0,1-3.6268,3.0806c-5.0341,2.9066-8.4947-3.2437-9.6564-7.3083-.5876-2.0557-1.4213-5.8788,1.6912-6.333a2.1564,2.1564,0,0,1,1.5084.3711c.0921.0576.4638.332.35.2451.0251.0191.5615.4765.7754.68a20.9087,20.9087,0,0,1,3.3914,4.3057,97.9712,97.9712,0,0,1,7.6369,15.3856c3.0267,7.2673,5.7022,14.68,8.2717,22.119,3.0454,8.8171,5.92,17.6927,8.7467,26.582,3.0342,9.5413,6.0067,19.1021,9.0019,28.6557,2.9624,9.4489,5.9429,18.8926,9.0324,28.3009,2.8527,8.6874,5.7912,17.35,8.9672,25.9249,2.6577,7.1759,5.4632,14.3166,8.7233,21.2431a70.3507,70.3507,0,0,0,8.2942,14.1965,23.7068,23.7068,0,0,0,1.9237,2.1426c1.1513,1.1255,2.9207-.6407,1.7677-1.7678-3.7307-3.6471-6.3428-8.716-8.7116-13.5172a237.0431,237.0431,0,0,1-9.3362-22.2872c-3.4805-9.3522-6.6731-18.81-9.7729-28.2944-3.3656-10.2976-6.6092-20.6346-9.845-30.9735-3.2322-10.3272-6.45-20.6591-9.7683-30.9591-3.0036-9.3242-6.0779-18.6293-9.4134-27.8408-2.67-7.3728-5.4754-14.728-8.8393-21.8166-2.1423-4.5145-4.5091-9.4143-8.1073-12.9772a8.206,8.206,0,0,0-2.7114-1.95c-2.9247-1.1045-6.0683,1.1435-6.6084,4.077-.4865,2.6424.6838,5.84,1.756,8.2123a12.5621,12.5621,0,0,0,4.993,5.9936,7.33,7.33,0,0,0,7.6312-.5173,17.1955,17.1955,0,0,0,3.7793-3.2958,2.8087,2.8087,0,0,0,.8995-2.4316c-.5509-1.9245-3.1012-1.13-4.3742-.603-1.51.6246-5.1918,2.5859-3.0782,4.563.649.6072,1.4045.8234,1.739,1.7322a5.6,5.6,0,0,1,.07,2.3643,28.6814,28.6814,0,0,1-1.2013,6.3356c-.4842,1.5382,1.9285,2.1964,2.4107.6646Z"/></g><path id="glass" class="cls-53" d="M556.7952,282.09l-62.1086.592c-32.2073,0-48.4373-21.026-53.3913-49.0276-1.7684-9.9958-.9022-19.9433.5051-29.99,0,0,11.6111,16.98,28.2485,7.57C499.9,194.35,530.9762,200.1715,546.17,213.846c26.12,23.508,59.9218-11.2073,59.9218-11.2073,1.6778,10.0231,2.7063,20.2365,1.2686,30.2929C603.33,261.1241,589.2594,282.09,556.7952,282.09Z"/><path id="drink" class="cls-54" d="M439.955,219.2093l8.0234-79.06s19.2966-24.394,75.2666,7.4682c28.2693,16.0928,73.6719-8.8954,73.6719-8.8954s6.1221,47.4984,9.1183,63.1709c.757,3.9594,2.0081,16.1868,2.0081,16.1868s-14.9524,29.3826-49.432,20.7024c-17.9962-4.5305-20.736,10.6091-45.0887,16.637C462.9255,267.9438,439.955,219.2093,439.955,219.2093Z"/><g id="brombr"><ellipse class="cls-55" cx="460.6438" cy="70.9681" rx="13.1683" ry="15.5231" transform="translate(-4.7112 96.9274) rotate(-11.9512)"/><circle class="cls-56" cx="463.3025" cy="64.0614" r="4.4983"/><circle class="cls-56" cx="453.281" cy="52.0241" r="4.4983"/><circle class="cls-56" cx="459.7012" cy="55.087" r="4.4983"/><circle class="cls-56" cx="449.9685" cy="58.4584" r="4.4983"/><circle class="cls-56" cx="464.6123" cy="58.7303" r="4.4983"/><circle class="cls-56" cx="449.8141" cy="66.1344" r="4.4983"/><circle class="cls-56" cx="457.0726" cy="63.1231" r="4.4983"/><circle class="cls-56" cx="449.8586" cy="73.4635" r="4.4983"/><circle class="cls-56" cx="470.1788" cy="63.4241" r="4.4983"/><circle class="cls-56" cx="456.5011" cy="72.099" r="4.4983"/><circle class="cls-56" cx="463.2554" cy="68.5042" r="4.4983"/><circle class="cls-56" cx="474.4086" cy="70.6928" r="4.4983"/><circle class="cls-56" cx="450.8343" cy="80.3663" r="4.4983"/><circle class="cls-56" cx="458.69" cy="79.4343" r="4.4983"/><circle class="cls-56" cx="466.4417" cy="75.9609" r="4.4983"/><circle class="cls-56" cx="476.5942" cy="77.0359" r="4.4983"/><circle class="cls-56" cx="453.4215" cy="87.3667" r="4.4983"/><circle class="cls-56" cx="461.7715" cy="85.2989" r="4.4983"/><circle class="cls-56" cx="469.351" cy="81.7996" r="4.4983"/><g class="cls-57"><circle class="cls-58" cx="451.597" cy="50.4521" r="1.8359"/><circle class="cls-58" cx="457.3842" cy="54.5177" r="1.8359"/><circle class="cls-58" cx="448.074" cy="57.7044" r="1.8359"/><circle class="cls-58" cx="462.2019" cy="58.989" r="1.8359"/><circle class="cls-58" cx="447.9233" cy="65.4038" r="1.8359"/><circle class="cls-58" cx="454.8484" cy="62.651" r="1.8359"/><circle class="cls-58" cx="447.3494" cy="73.2533" r="1.8359"/><circle class="cls-58" cx="467.9219" cy="63.5364" r="1.8359"/><circle class="cls-58" cx="454.6836" cy="71.6986" r="1.8359"/><circle class="cls-58" cx="461.2307" cy="67.7156" r="1.8359"/><circle class="cls-58" cx="472.6556" cy="70.1324" r="1.8359"/><circle class="cls-58" cx="448.4306" cy="80.3493" r="1.8359"/><circle class="cls-58" cx="456.4921" cy="78.4526" r="1.8359"/><circle class="cls-58" cx="464.7711" cy="75.3316" r="1.8359"/><circle class="cls-58" cx="474.5162" cy="76.5716" r="1.8359"/><circle class="cls-58" cx="451.0153" cy="86.6286" r="1.8359"/><circle class="cls-58" cx="459.372" cy="84.355" r="1.8359"/><circle class="cls-58" cx="467.0924" cy="81.3214" r="1.8359"/></g></g><path id="drink-2" data-name="drink" class="cls-59" d="M443.8265,181.0611l7.5759-78.4185a38.0839,38.0839,0,0,1,31.711-20.3016c45.4233-3.05,38.8514,26.9045,68.1343,33.44,28.46,6.3515,40.3244-15.9585,40.3244-15.9585l11.0277,78.49s-37.1878-3.742-73.8869,7.6153C478.0785,201.5975,443.8265,181.0611,443.8265,181.0611Z"/><g id="lips" class="cls-60"><path class="cls-61" d="M504.1171,236.9979l.9593.5c-.8008,1.0955-2.508.0958-3.5772-.4806a.513.513,0,0,1-.2581-.5667l.0945-.4236a.5378.5378,0,0,0-.4376-.66,4.5226,4.5226,0,0,1-3.2237-3.0888c-.0066-.9294.28.3479-1.1558-.2578-.6878-.3054-1.0018-.62-1.0409-.97a.5043.5043,0,0,0-.39-.43c-.7667-.1884-3.0905-.3526.5279-2.6081.6608-.4119-2.5486,1.24-2.45.4766s-2.1666.89-.68-.794c2.6567-3.009-.6926.2639-2.1326.105-1.3115-.1448-.9115-.2407-.9648-.2787-1.1719-.8348-1.0489-1.6493-.5164-1.96,4.1307-2.4087-.54-.4878-.896-.4673-1.1447.0662-2.2869-.0091-2.5182-1.5622a2.0036,2.0036,0,0,1,.3859-.9433c.5681-.4631,7.1272-4.8378,7.1272-4.8378-7.0414,2.6509-8.1134,6.51-12.2774,4.1826-2.8892-1.6148-.9917-5.0514-1.1961-11.6944.0858,2.7872-1.86,12.0669-4.0374,7.8009-3.0195-5.9149-.4561-.2676-.6926-.1365-.7869.4364-1.4969-.21-1.7157-.9427-.1276-.4268-.1032-4.036-.5364-.0272-.1463,1.3541-2.5542.1236-3.2138-1.04a.5209.5209,0,0,0-.5874-.2655,5.21,5.21,0,0,1-3.6926-1.2085.5221.5221,0,0,0-.5072-.127c-.6576.161-2.3384-.4182-2.0986-.8l-.5476.0924c-.31-.9559-.5195-1.0325-1.3826-.5222-.1041-.7676-.8247-.2393-1.2545-.1372-.8493.4069-3.0173-2.81-.46-1.4589-.1771-1.457,2.128-2.1078,3.3689-1.92a.52.52,0,0,0,.5648-.411c.179-.75.4758-1.2439,1.37-1.2273a.5109.5109,0,0,0,.416-.21c.4367-.5989.87-.4975,1.392-.2085a.5163.5163,0,0,0,.7538-.3406c.1815-.86.2981-1.9141,1.1838-1.6674a.5328.5328,0,0,0,.6152-.228l1.0146-1.7457c.1919-.33.3771-.4234.5754-.4134.7343.037,2.1209-.1038,2.6988.3492a.5118.5118,0,0,0,.7244-.1335,3.3316,3.3316,0,0,1,2.6963-1.4334.5224.5224,0,0,1,.52.69h0a.5171.5171,0,0,0,.8305.5553c3.7058-3.1888,8.55.0232,3.5275,3.3133l2.9279-3.0189a.5255.5255,0,0,1,.7578.0073,1.5317,1.5317,0,0,1,.2064,1.6347.5172.5172,0,0,0,.7673.5967c.88-.5673,1.0244-.0718.6432.8631a.5214.5214,0,0,0,.6281.7091c.8828-.3326.6926.85-.5078,3.0586.6792-1.3511,3.7376-2.9689,5.618-3.5111,2.8957-.835-1.6746,4.8248,1.616.8408,1.5094-1.8275,6.071,4.5151,5.9624,5.6035a.3629.3629,0,0,1-.0608.147c-.3126.5248-2.3327,3.8713-3.1961,4.2048-.9374.362,3.6887-1.1761,3.4632-2.7254-.1807-1.2563,2.3334.5238,2.047,2.1735a.5191.5191,0,0,0,.43.6064c1.332.2048.4314,1.4985.0466,2.6125a.4909.4909,0,0,0,.3241.62c.5063.1841.0587.7927-.3224,1.3348a.5191.5191,0,0,0,.3459.8108l1.0133.1583a.5165.5165,0,0,1,.4362.4548c.1027.9754-1.13,3.9239-2.4113,4.551-1.1368.5566,1.1974.0491,1.86-.0271a.5138.5138,0,0,1,.5652.4136c.4057,2.2256,1.37,3.1688-.91,4.5444,1.6751-1.1942,3.5351,1.5662.0818,1.8742l1.4625.0322a.5236.5236,0,0,1,.4262.2489C505.6568,235.8887,506.6591,236.0218,504.1171,236.9979Z"/><path class="cls-61" d="M499.9767,239.2631c-.5587,4.1276-3.5189,1.5341-2.2085-1.3859-1.0965,2.6482-2.3381,7.9794-6.2133,4.79-3.1614,4.1115-5.1708,2.4614-4.0706-2.186-1.8738,7.3175-3.5005,2.9466-8.2882,4.5667-3.3177-.3636.8459-2.8876.15-4.93-1.3746,3.1843-3.6328,5.5356-6.858,2.3044a3.0127,3.0127,0,0,1-3.9449-1.7427c-3.5918.1453-3.6693-3.1152-1.5863-5.3838-4.9013,6.5164-5.86-1.2257-2.8183-5.1169-1.4362.56-.8148,2.1664-2.1382,2.9554-1.7795.0286-1.92-2.3787-1.2278-3.6479-2.5832-2.624-3.5-5.8514,1.0345-6.85-4.3765,3.1088-4.7106-2.3607-1.6192-4.5732-.65,1.4292-2.5062.0667-1.9248-1.2021.6185-3.2708,7.7269-2.7919,2.85-.4876,5.9983-.7245,4.032,1.484.3044,3.9127,1.4628-1.0657,7.2585-4.4871,6.1831-.4235,5.5985-1.7458,4.682,2.807.611,4.52,1.4887-.4708,6.14-3.3773,5.7008-.0935,3.7048-1.428-1.7555,4.7275-2.1429,6.1172,1.7877-1.6959,6.9236-8.538,6.7084-3.3873,1.5328-1.3223,1.7529-.8421,1.811,1.0817,1.1472-.4737,1.5552-1.1234,1.5466.59,1.6113-2.5019,3.7712,3.6821,3.997,5.9348-.5878-5.863,3.8208-5.5562,3.1941-3.6433,2.84-5.7642,6.5038,4.0087,6.1605,7.4006-.4432-5.3787,1.493-7.428,2.7795-1.0765C498.1783,233.6664,500.6759,237.4043,499.9767,239.2631Z"/></g><g id="sun"><ellipse class="cls-62" cx="558.9293" cy="75.9609" rx="35.8665" ry="37.5627"/><g id="citrus" class="cls-63"><ellipse class="cls-8" cx="559.1374" cy="76.1195" rx="34.2407" ry="35.9569" transform="translate(-4.2737 44.5476) rotate(-4.5451)"/><path class="cls-62" d="M527.8988,83.7373s1.44,9.4675,7.5324,15.2547c7.3065,6.9409,11.3164,8.4773,11.3164,8.4773l9.74-29.0872Z"/><path class="cls-62" d="M548.8267,108.538s8.6311,3.1,16.6049.9769C576.9483,106.448,577.71,102.58,577.71,102.58L558.4506,78.7672Z"/><path class="cls-62" d="M536.56,50.1736a38.9336,38.9336,0,0,0-8.6459,14.3585c-3.7462,12.061.6224,16.1768.6224,16.1768l27.4488-4.414Z"/><path class="cls-62" d="M579.2783,101.6505S587.187,95.62,589.3576,87.052c2.6033-10.2758,1.9567-14.7915,1.9567-14.7915l-31.5388,5.26Z"/><path class="cls-62" d="M566.0653,43.7227s-8.39-3.3542-16.103-.5568c-9.25,3.3551-12.484,6.3233-12.484,6.3233l19.7269,24.7Z"/><path class="cls-62" d="M589.763,69.1237a27.0051,27.0051,0,0,0-5.5705-14.4815c-7.8485-10.2537-16.262-10.8875-16.262-10.8875l-8.66,31.5859Z"/></g></g></g><g id="gin-tonic-bold"><path class="cls-64" d="M115.8311,111.82c-.4438,2.1988-.6731,3.3532-1.1383,5.8582-14.5249,6.7722-23.8021,5.5936-33.8348-9.2409-1.1666-5.938-1.814-8.4854-3.0787-13.05C89.3926,111.8178,100.9436,114.2153,115.8311,111.82Z"/><path class="cls-64" d="M118.8672,99.357c-.47,2.5493-2.0912,4.3279-5.0086,5.7952a14.8851,14.8851,0,0,1-11.2379.95c-.321-.0919-.4821-.139-.8037-.236a21.9682,21.9682,0,0,1-8.55-5.0566,35.7381,35.7381,0,0,1-6.51-8.172A22.0242,22.0242,0,0,1,83.6134,84.59c-.448-3.6,1.0415-5.3179,4.4759-5.5429s8.5582,1.225,14.5418,4.077c1.6478.7856,2.46,1.1691,4.0395,1.921a109.6262,109.6262,0,0,0-1.7356,14.7593,8.7943,8.7943,0,0,0,5.331-.121,3.4782,3.4782,0,0,0,2.39-2.829c.33-2.1047-.5429-4.1982-2.8892-6.6,2.1991-.2809,3.2789-.41,5.2484-.6042a16.5627,16.5627,0,0,1,3.2816,5.1157A8.2275,8.2275,0,0,1,118.8672,99.357ZM91.2566,89.0415a7.3217,7.3217,0,0,0,2.0952,4.3139,18.3627,18.3627,0,0,0,5.4089,4.0711,88.0666,88.0666,0,0,1,.2923-9.1511c-.32-.1444-.4809-.2172-.8023-.3638-2.2379-.9883-4.0147-1.4441-5.2465-1.2793S91.1909,87.5877,91.2566,89.0415Z"/><path class="cls-64" d="M87.505,60.84c1.6638,1.02,2.5108,1.5278,4.2075,2.5384-2.1246-4.63-1.616-9.3042,1.1746-12.2375,2.9764-3.129,6.7331-2.6385,10.344.3878-.909-4.5363.8083-7.6383,4.3993-8.459a7.8906,7.8906,0,0,1,7.8645,2.6324c2.13,2.3366,3.6766,6.1379,4.98,11.1885,2.6238,10.1681,3.7607,15.4943,7.4748,22.4833a11.1744,11.1744,0,0,0-2.5307.1432c-3.9909-7.2864-5.9426-12.3216-10.04-22.13a14.4294,14.4294,0,0,0-2.7406-4.6569,3.1765,3.1765,0,0,0-3.3353-.8107c-1.8048.5694-2.1825,2.5841-.96,5.63,6.4869,9.8619,9.7713,14.8619,14.57,22.79a4.202,4.202,0,0,0-1.5673,1.3354c-4.84-6.989-8.6793-10.93-16.2214-19.0216-1.7136-1.8384-3.1624-3.001-4.36-3.3732a2.7388,2.7388,0,0,0-3.2372,1.388c-1.2577,1.8693-.93,4.4272.993,6.94,10.4128,6.9154,16.0691,10.0578,21.8085,16.51-.1705,1-.21,2.4907-.4329,4.64-9.2377-7.0979-19.9339-10.3393-35.0028-19.5387A33.11,33.11,0,0,1,87.505,60.84Z"/><path class="cls-64" d="M124.4259,62.0924a39.6,39.6,0,0,1-.7511-10.7042,14.6542,14.6542,0,0,1,2.4029-7.36c1.2686-1.7641,4.3082-2.0711,6.8282-1.6313,3.5855.6258,5.71,2.8529,7.4327,6.7432a40.3733,40.3733,0,0,1,2.9872,14.1382c.0308,1.0312.0442,1.5407.07,2.5469.0685,5.6245-.692,9.5738-1.9457,12.2818s-2.7221,3.6054-5.1737,3.1137a10.47,10.47,0,0,1-6.8258-4.9254c-1.97-3.0218-3.7285-7.4765-4.9337-13.7314C124.48,62.3756,124.462,62.2813,124.4259,62.0924Zm4.0129,1.1038c.3568,3.8487,1.1547,6.63,2.3345,8.5494,1.1788,1.9159,2.4814,2.8874,3.8675,3.0759,1.3475.1833,2.2183-.4972,2.8336-2.1337.6146-1.6332.8951-4.4113.8659-8.6454a27.7948,27.7948,0,0,0-1.2155-8.9076c-.8179-2.2785-1.9869-3.6009-3.6961-3.9362-1.6932-.3319-3.172.4563-4.1615,2.3993C128.2775,55.5451,128.0375,58.8714,128.4388,63.1962Z"/><path class="cls-64" d="M148.1593,49.1619c.461,1.9729.6671,2.9246,1.04,4.7668.5771-2.7215,1.5847-3.4424,4.3012-1.4094a34.9266,34.9266,0,0,1,7.2809,8.0017c2.1588,3.1992,3.7291,6.46,4.0126,9.2988.5079,5.8786-.1111,7.1427-3.0534,13.2065-2.14-.0372-3.1479-.0606-5.0913-.1269,1.4007-6.8909,1.6877-9.2862.7243-16.6621a10.6612,10.6612,0,0,0-1.475-4.247,9.075,9.075,0,0,0-2.9044-2.9073c-1.5192-.9337-2.2812-.34-2.6818,1.59,1.1857,9.9859.8972,13.7777.6162,21.9478-1.7885-.1181-2.6561-.1885-4.39-.362-.6251-11.6677.6569-18.5868-2.0228-35.4917A34.1679,34.1679,0,0,1,148.1593,49.1619Z"/><path class="cls-65" d="M167.892,285.3508a23.5088,23.5088,0,0,1-11.5531,6.5584,31.1525,31.1525,0,0,1-15.591-.4322,44.5959,44.5959,0,0,1-15.9948-8.196,63.9277,63.9277,0,0,1-12.411-12.7232,51.6278,51.6278,0,0,1-7.9445-15.0782c-.464-1.5094-.6972-2.2641-1.1614-3.7736-1.7041-5.5395-1.8893-10.1707-.2911-14.1406s4.8778-7.0709,9.81-9.3021c4.9316-2.23,11.2025-3.4542,18.5007-3.4482,10.1619.0083,18.0854,1.87,23.7309,5.68,5.6445,3.8114,9.0858,9.3875,10.5307,16.7925-6.3739-.0091-9.5408.0067-15.93-.2229-1.0594-3.9012-2.928-6.7653-5.6605-8.61-2.733-1.843-6.4054-2.8049-10.9822-2.96-5.8355-.1971-10.0666,1.2959-12.4647,4.3469s-2.8445,7.6188-1.4919,13.9026c.3413,1.546.5126,2.3191.8537,3.8651a34.4773,34.4773,0,0,0,7.3271,15.4167,23.42,23.42,0,0,0,13.2253,7.9579c5.5041,1.15,9.379.588,11.6022-1.373-.3731-4.6388-.5758-6.9727-.9877-11.6464-5.64-.458-8.4619-.8285-14.0729-1.694-.5517-3.9482-.8373-5.9261-1.4-9.8788a233.4644,233.4644,0,0,0,30.67,1.6513C166.9187,269.0233,167.3031,274.5549,167.892,285.3508Z"/><path class="cls-65" d="M196.5579,293.5535c-5.8017.08-8.6959.1517-14.7059.231-.7629-22.7073-2.3631-45.37-3.1247-68.0772,6.5811-.0207,9.8606-.0343,16.4382-.0552C195.2624,248.2963,196.46,270.9093,196.5579,293.5535Z"/><path class="cls-65" d="M258.8286,285.45A78.0094,78.0094,0,0,1,247.09,290.665c3.5831-13.4737-5.154-23.7861-19.4174-41.8559.2588,18.09.4767,27.4554-2.421,44.9221-5.5406.0106-9.3737-.1815-15.233-.2345.5883-22.6276-.1677-45.2524.4219-67.88,6.6167-.0074,9.9652-.0013,16.7885-.007,13.5405,17.5355,23.856,27.6031,30.5533,43.1277,5.0667-17.3923,4.1519-26.6491,3.0134-43.2053,6.8384-.0269,10.2408-.0432,16.8994-.0825C282.8935,250.5915,272.7009,266.3028,258.8286,285.45Z"/><path class="cls-66" d="M129.8751,138.5c-6.3205,1.097-9.4565,1.74-15.6565,3.2461,3.756-18.4087,8.66-36.634,11.4432-55.2416,5.2218-.0595,7.8927-.0875,13.3151-.1406C133.4839,112.1779,135.0038,119.0287,129.8751,138.5Z"/><path class="cls-66" d="M206.2238,116.7718A17.1636,17.1636,0,0,1,197.25,130.323c-5.6825,3.2169-13.41,4.4544-22.6911,4.6591-10.1517.224-17.7031-1.1044-22.7776-5.1751s-7.2029-10.05-5.9162-16.8493c.2087-1.1035.3357-1.7355.5968-2.9507a32.3814,32.3814,0,0,1,5.3749-12.4421,27.7644,27.7644,0,0,1,10.839-8.9835,36.3528,36.3528,0,0,1,15.6185-3.2144c8.0119-.0192,14.2829,1.2686,19.3063,4.3384a20.1651,20.1651,0,0,1,9.3015,13.9308c-6.0125-.1747-9.031-.2441-15.0587-.3363a9.4416,9.4416,0,0,0-3.95-7.1885q-3.374-2.268-10.1216-2.14c-4.8964.09-8.56,1.4637-11.0771,3.9515-2.5189,2.4924-3.9733,6.197-4.9714,10.872-.2722,1.3646-.4147,2.05-.6146,3.2876-.7146,4.4236.2365,8.2274,2.54,10.732s6.1967,3.644,11.654,3.4741c4.9244-.1534,8.6441-.9829,11.0885-2.5855a9.71,9.71,0,0,0,4.2167-7.041C196.8568,116.6243,199.9857,116.65,206.2238,116.7718Z"/><path class="cls-66" d="M260.1825,114.9262c-11.1935-.7908-16.9558-1.1511-28.6013-1.6792.2382,3.9317.6242,7.5414,1.1948,13.9925,14.1887,1.0774,21.2175,1.8145,34.857,3.3964.7294,4.4262,1.1036,6.7819,1.6092,10.9422-20.2955-3.029-30.8536-4.44-52.0185-6.0192.2043-21.0839-1.5081-33.4455-1.71-49.7375,18.5227-.0995,27.7244-.141,44.6847-.227a82.4377,82.4377,0,0,1,1.852,9.16c-12.1541-.1989-18.5332-.2879-31.4886-.3826.62,5.7509,1.0371,9.3532,1.079,13.398,11.4275.6264,17.0743,1.0091,28.0064,1.8245C259.9444,112.4394,259.8114,112.3138,260.1825,114.9262Z"/><path class="cls-67" d="M142.3749,154.9138c-5.1555.522-7.7281.8273-12.8488,1.5407a586.0092,586.0092,0,0,0-14.9951,62.2218c-3.8078.0192-5.7.029-9.4526.0489,3.0822-20.5536,9.3156-41.313,15.8636-60.956-5.0188.84-7.5159,1.31-12.472,2.3636,1.82-5.1206,2.7452-7.7355,3.8106-11.2383a213.5819,213.5819,0,0,1,32.9416-6.2093C144.44,146.7405,143.7493,149.483,142.3749,154.9138Z"/><path class="cls-67" d="M177.5853,179.7309a101.3118,101.3118,0,0,1-5.6656,22.2837c-2.5381,6.4818-5.3875,10.9049-8.6971,13.5941a16.2968,16.2968,0,0,1-10.87,3.6148c-3.9757.0042-7.5655-.8542-10.438-3.3207s-4.6842-6.606-5.0859-13.0356.7106-14.7644,2.2956-22.0052c.33-1.49.4855-2.1974.7615-3.5a81.8109,81.8109,0,0,1,6.5663-18.6549c3.0108-6.32,6.112-11.0572,9.3052-14.0937,3.1893-3.0328,6.32-4.4,9.7067-4.6039a9.5884,9.5884,0,0,1,8.5492,3.6212c2.2761,2.7986,3.6937,7.3485,4.2695,13.56a89.0524,89.0524,0,0,1-.2777,19.2432C177.8553,177.6925,177.77,178.3561,177.5853,179.7309Zm-8.9394-3.3c1.03-7.2879,1.1106-12.9139.302-17.396s-2.648-6.646-5.5795-6.5043c-2.9125.1408-5.5992,2.5-8.1741,7.0554a55.4856,55.4856,0,0,0-5.9437,17.0586c-.2425,1.2948-.38,1.9942-.6737,3.464-1.5377,7.6944-2.3451,15.4865-1.5164,20.4591s3.0734,7.17,6.4223,7.1046c3.2833-.0646,6.1092-2.2939,8.62-7.126,2.5075-4.825,4.7291-12.5133,6.0055-20.5324C168.3446,178.5089,168.4541,177.7866,168.6459,176.4308Z"/><path class="cls-67" d="M219.3348,218.316c-3.9488.006-5.93.0094-9.9006.0171-7.7173-16.4342-9.7972-31.3593-14.7688-51.2289-2.0193,19.8028-4.441,35.4285-4.6157,51.274-3.9911.0108-5.9884.0165-9.98.0288,1.9816-26.1081,5.8188-52.109,8.6242-78.1392,3.32.016,4.9757.0412,8.2731.1214,5.7818,17.6546,8.1873,28.7006,13.932,51.12,1.6166-22.2762,2.2563-32.8527,2.0054-50.4586,3.2272.187,4.8323.2932,8.0218.5259C221.2217,167.213,219.98,192.7015,219.3348,218.316Z"/><path class="cls-67" d="M238.316,218.2964c-3.8873.0022-5.8413.0038-9.7637.0079.3053-25.4253.9055-50.7154-.1782-76.1356,3.16.2711,4.7294.4164,7.8418.7217C238.1579,168.0323,238.2516,193.0954,238.316,218.2964Z"/><path class="cls-67" d="M280.3962,194.4046c.7467,7.8232-.2425,14.039-3.072,18.4232s-7.0288,6.4006-12.3672,6.3892c-5.8389-.0124-10.6247-2.6675-14.1794-9.0982-3.5519-6.4255-5.2144-16.4927-5.654-27.8244-.0715-1.8394-.1127-2.7413-.2148-4.49a86.8623,86.8623,0,0,1,.8227-18.5563c.8666-5.5478,2.2333-9.4462,4.1929-11.8917a7.5774,7.5774,0,0,1,7.3542-2.9822c4.1181.5173,7.7281,2.9095,11.1692,7.4646s6.5468,11.399,8.3666,19.1294c-3.1465-.2416-4.7388-.3622-7.9561-.6-.8638-4.5217-2.2053-8.2732-3.744-10.5307a7.835,7.835,0,0,0-5.8384-3.7268c-2.5807-.26-4.2575,1.3445-5.15,4.9863-.8946,3.6481-1.1031,9.2017-.5035,16.5407.186,2.144.2663,3.2518.4128,5.5085.5241,8.0693,1.456,14.47,3.1,18.3567s4.0737,5.7547,7.2225,5.7776c2.8422.0207,4.8746-1.04,6.0659-3.1922,1.1886-2.1474,1.6419-5.5153,1.3617-10.0456C275.264,194.1859,276.9873,194.2586,280.3962,194.4046Z"/></g></g></svg>