<svg id="Layer_1" data-name="Layer 1" xmlns="http://www.w3.org/2000/svg" width="1491" height="397" viewBox="0 0 1491 397"><defs><style>.cls-1{fill:none;}.cls-2{fill:#ffde5b;}.cls-3{fill:#fbf9df;}.cls-4{fill:#fbef83;}.cls-5{opacity:0.71;}.cls-6,.cls-7{fill:#442644;}.cls-7{stroke:#48314c;stroke-miterlimit:10;}.cls-8{opacity:0.19;}.cls-9{fill:#e7c7e0;}.cls-10{fill:#ff8612;}.cls-11{fill:#f9b630;}.cls-12{fill:#52a546;}.cls-13{fill:#b0ff8d;}</style></defs><g id="citrus"><path class="cls-1" d="M268.74,300.28a88.91,88.91,0,0,0,31.54,9.19A104.93,104.93,0,0,1,268.74,300.28Z"/><path class="cls-1" d="M406.9,257c-.5.86-1,1.7-1.52,2.54C405.9,258.65,406.41,257.8,406.9,257Z"/><path class="cls-1" d="M404.47,260.94c0,.07-.09.12-.13.19Z"/><path class="cls-1" d="M411.27,155.14l-1.58.64a103.36,103.36,0,0,1,5.87,13.44A119.53,119.53,0,0,0,411.27,155.14Z"/><path class="cls-1" d="M211.18,235.69h0s.09.23.27.65C211.35,236.13,211.27,235.91,211.18,235.69Z"/><path class="cls-2" d="M405.7,246c-25.69,50.89-89.21,71.55-141.88,46.13a106.25,106.25,0,0,1-39-31.93c9.4,13.69,23.85,29.95,43.89,40a104.93,104.93,0,0,0,31.54,9.19c15.41,1.52,33-.72,52.85-8.73,24.94-10.05,41.06-24.14,51.21-39.61,0-.07.09-.12.13-.19.31-.48.6-1,.91-1.45.52-.84,1-1.68,1.52-2.54,18.41-31.73,13.47-68.21,8.66-87.73a103.36,103.36,0,0,0-5.87-13.44l-3.32,1.34A100,100,0,0,1,405.7,246Z"/><path class="cls-3" d="M224.85,260.23a106.25,106.25,0,0,0,39,31.93C316.49,317.58,380,296.92,405.7,246a100,100,0,0,0,.67-88.91l-181.5,73.06-5,2.16-.16-.1-8.58,3.45c.09.22.17.44.25.66A144.64,144.64,0,0,0,224.85,260.23ZM403.78,158.9s5.77,11.75,7.69,41.2c1.6,24.57-14.83,46.12-14.83,46.12L317.41,196ZM395,251.59s-8.72,23.81-44.29,38.23c-24.63,10-45.71,4.41-45.71,4.41l7.43-93.2Zm-89.17-50.86-11,95.45s-13.36-1.78-40.39-17.61c-22.55-13.2-33.17-40.94-33.17-40.94Z"/><path class="cls-4" d="M224.87,230.18l-5.11,2.06.16.1Z"/><path class="cls-4" d="M254.44,278.57c27,15.83,40.39,17.61,40.39,17.61l11-95.45-84.57,36.9S231.89,265.37,254.44,278.57Z"/><path class="cls-4" d="M411.47,200.1c-1.92-29.45-7.69-41.2-7.69-41.2L317.41,196l79.23,50.23S413.07,224.67,411.47,200.1Z"/><path class="cls-4" d="M350.72,289.82C386.29,275.4,395,251.59,395,251.59L312.44,201,305,294.23S326.09,299.79,350.72,289.82Z"/></g><g id="sun"><ellipse class="cls-4" cx="206.23" cy="183.92" rx="92.55" ry="96.92"/><g id="citrus-2" data-name="citrus" class="cls-5"><ellipse class="cls-3" cx="206.77" cy="184.33" rx="88.35" ry="92.78" transform="translate(-13.96 16.97) rotate(-4.55)"/><path class="cls-4" d="M126.17,204s3.71,24.43,19.43,39.36c18.85,17.91,29.2,21.88,29.2,21.88l25.14-75.06Z"/><path class="cls-4" d="M180.17,268s22.27,8,42.84,2.52c29.72-7.91,31.68-17.89,31.68-17.89L205,191.17Z"/><path class="cls-4" d="M148.51,117.38s-15.61,15.51-22.3,37.05c-9.67,31.13,1.6,41.75,1.6,41.75l70.83-11.39Z"/><path class="cls-4" d="M258.74,250.21s20.41-15.56,26-37.67c6.72-26.51,5.05-38.16,5.05-38.16L208.42,188Z"/><path class="cls-4" d="M224.65,100.74S203,92.08,183.1,99.3c-23.87,8.66-32.22,16.32-32.22,16.32l50.91,63.73Z"/><path class="cls-4" d="M285.8,166.28a69.75,69.75,0,0,0-14.38-37.37c-20.25-26.45-42-28.09-42-28.09l-22.34,81.5Z"/></g></g><g id="brombær"><ellipse class="cls-6" cx="1086.85" cy="160.82" rx="57.4" ry="67.67" transform="translate(-9.74 228.55) rotate(-11.95)"/><circle class="cls-7" cx="1098.44" cy="130.71" r="19.61"/><circle class="cls-7" cx="1054.76" cy="78.24" r="19.61"/><circle class="cls-7" cx="1082.75" cy="91.59" r="19.61"/><circle class="cls-7" cx="1040.32" cy="106.29" r="19.61"/><circle class="cls-7" cx="1104.15" cy="107.47" r="19.61"/><circle class="cls-7" cx="1039.64" cy="139.75" r="19.61"/><circle class="cls-7" cx="1071.29" cy="126.62" r="19.61"/><circle class="cls-7" cx="1039.84" cy="171.7" r="19.61"/><circle class="cls-7" cx="1128.42" cy="127.93" r="19.61"/><circle class="cls-7" cx="1068.8" cy="165.75" r="19.61"/><circle class="cls-7" cx="1098.24" cy="150.08" r="19.61"/><circle class="cls-7" cx="1146.86" cy="159.62" r="19.61"/><circle class="cls-7" cx="1044.09" cy="201.79" r="19.61"/><circle class="cls-7" cx="1078.34" cy="197.73" r="19.61"/><circle class="cls-7" cx="1112.13" cy="182.59" r="19.61"/><circle class="cls-7" cx="1156.39" cy="187.27" r="19.61"/><circle class="cls-7" cx="1055.37" cy="232.31" r="19.61"/><circle class="cls-7" cx="1091.77" cy="223.29" r="19.61"/><circle class="cls-7" cx="1124.81" cy="208.04" r="19.61"/><g class="cls-8"><circle class="cls-9" cx="1047.42" cy="71.38" r="8"/><circle class="cls-9" cx="1072.64" cy="89.11" r="8"/><circle class="cls-9" cx="1032.06" cy="103" r="8"/><circle class="cls-9" cx="1093.65" cy="108.6" r="8"/><circle class="cls-9" cx="1031.4" cy="136.56" r="8"/><circle class="cls-9" cx="1061.59" cy="124.56" r="8"/><circle class="cls-9" cx="1028.9" cy="170.78" r="8"/><circle class="cls-9" cx="1118.58" cy="128.42" r="8"/><circle class="cls-9" cx="1060.87" cy="164" r="8"/><circle class="cls-9" cx="1089.41" cy="146.64" r="8"/><circle class="cls-9" cx="1139.22" cy="157.18" r="8"/><circle class="cls-9" cx="1033.61" cy="201.72" r="8"/><circle class="cls-9" cx="1068.76" cy="193.45" r="8"/><circle class="cls-9" cx="1104.85" cy="179.84" r="8"/><circle class="cls-9" cx="1147.33" cy="185.25" r="8"/><circle class="cls-9" cx="1044.88" cy="229.09" r="8"/><circle class="cls-9" cx="1081.31" cy="219.18" r="8"/><circle class="cls-9" cx="1114.97" cy="205.95" r="8"/></g></g><g id="brombær-2" data-name="brombær"><ellipse class="cls-6" cx="1202.14" cy="185.72" rx="57.4" ry="67.67" transform="translate(375.41 1077.99) rotate(-55.97)"/><circle class="cls-7" cx="1214.73" cy="215.42" r="19.61"/><circle class="cls-7" cx="1282.61" cy="222.81" r="19.61"/><circle class="cls-7" cx="1253.2" cy="232.65" r="19.61"/><circle class="cls-7" cx="1273.5" cy="192.6" r="19.61"/><circle class="cls-7" cx="1226.77" cy="236.1" r="19.61"/><circle class="cls-7" cx="1250.74" cy="168.07" r="19.61"/><circle class="cls-7" cx="1237.1" cy="199.49" r="19.61"/><circle class="cls-7" cx="1228.4" cy="145.23" r="19.61"/><circle class="cls-7" cx="1195.1" cy="238.25" r="19.61"/><circle class="cls-7" cx="1211.71" cy="169.62" r="19.61"/><circle class="cls-7" cx="1201.42" cy="201.35" r="19.61"/><circle class="cls-7" cx="1159.82" cy="228.27" r="19.61"/><circle class="cls-7" cx="1204.43" cy="126.54" r="19.61"/><circle class="cls-7" cx="1182.62" cy="153.26" r="19.61"/><circle class="cls-7" cx="1168.84" cy="187.63" r="19.61"/><circle class="cls-7" cx="1133.76" cy="215.01" r="19.61"/><circle class="cls-7" cx="1175.11" cy="112.43" r="19.61"/><circle class="cls-7" cx="1155.2" cy="144.2" r="19.61"/><circle class="cls-7" cx="1142.04" cy="178.13" r="19.61"/><g class="cls-8"><circle class="cls-9" cx="1292.65" cy="222.63" r="8"/><circle class="cls-9" cx="1262.19" cy="227.42" r="8"/><circle class="cls-9" cx="1281.73" cy="189.23" r="8"/><circle class="cls-9" cx="1233.54" cy="227.99" r="8"/><circle class="cls-9" cx="1258.88" cy="164.63" r="8"/><circle class="cls-9" cx="1245.51" cy="194.24" r="8"/><circle class="cls-9" cx="1236.9" cy="138.28" r="8"/><circle class="cls-9" cx="1201.84" cy="231.06" r="8"/><circle class="cls-9" cx="1218.62" cy="165.37" r="8"/><circle class="cls-9" cx="1210.16" cy="197.69" r="8"/><circle class="cls-9" cx="1167.02" cy="224.72" r="8"/><circle class="cls-9" cx="1212.02" cy="119.31" r="8"/><circle class="cls-9" cx="1192.49" cy="149.68" r="8"/><circle class="cls-9" cx="1175.99" cy="184.54" r="8"/><circle class="cls-9" cx="1141.68" cy="210.17" r="8"/><circle class="cls-9" cx="1184.89" cy="107.46" r="8"/><circle class="cls-9" cx="1165.58" cy="139.9" r="8"/><circle class="cls-9" cx="1150.57" cy="172.79" r="8"/></g></g><g id="brombær-3" data-name="brombær"><ellipse class="cls-6" cx="1139.06" cy="329.27" rx="41.79" ry="49.26" transform="matrix(0.56, -0.83, 0.83, 0.56, 228.67, 1088.92)"/><circle class="cls-7" cx="1148.22" cy="350.89" r="14.28"/><circle class="cls-7" cx="1197.64" cy="356.27" r="14.28"/><circle class="cls-7" cx="1176.23" cy="363.44" r="14.28"/><circle class="cls-7" cx="1191.01" cy="334.28" r="14.28"/><circle class="cls-7" cx="1156.99" cy="365.95" r="14.28"/><circle class="cls-7" cx="1174.44" cy="316.42" r="14.28"/><circle class="cls-7" cx="1164.51" cy="339.3" r="14.28"/><circle class="cls-7" cx="1158.17" cy="299.79" r="14.28"/><circle class="cls-7" cx="1133.93" cy="367.51" r="14.28"/><circle class="cls-7" cx="1146.02" cy="317.55" r="14.28"/><circle class="cls-7" cx="1138.53" cy="340.65" r="14.28"/><circle class="cls-7" cx="1108.25" cy="360.25" r="14.28"/><circle class="cls-7" cx="1140.73" cy="286.19" r="14.28"/><circle class="cls-7" cx="1124.85" cy="305.64" r="14.28"/><circle class="cls-7" cx="1114.82" cy="330.66" r="14.28"/><circle class="cls-7" cx="1089.28" cy="350.59" r="14.28"/><circle class="cls-7" cx="1119.38" cy="275.91" r="14.28"/><circle class="cls-7" cx="1104.89" cy="299.05" r="14.28"/><circle class="cls-7" cx="1095.3" cy="323.75" r="14.28"/><g class="cls-8"><circle class="cls-9" cx="1204.95" cy="356.14" r="5.83"/><circle class="cls-9" cx="1182.78" cy="359.63" r="5.83"/><circle class="cls-9" cx="1197" cy="331.82" r="5.83"/><circle class="cls-9" cx="1161.92" cy="360.04" r="5.83"/><circle class="cls-9" cx="1180.36" cy="313.92" r="5.83"/><circle class="cls-9" cx="1170.63" cy="335.47" r="5.83"/><circle class="cls-9" cx="1164.36" cy="294.74" r="5.83"/><circle class="cls-9" cx="1138.84" cy="362.28" r="5.83"/><circle class="cls-9" cx="1151.05" cy="314.46" r="5.83"/><circle class="cls-9" cx="1144.89" cy="337.99" r="5.83"/><circle class="cls-9" cx="1113.49" cy="357.66" r="5.83"/><circle class="cls-9" cx="1146.25" cy="280.92" r="5.83"/><circle class="cls-9" cx="1132.03" cy="303.03" r="5.83"/><circle class="cls-9" cx="1120.02" cy="328.41" r="5.83"/><circle class="cls-9" cx="1095.04" cy="347.07" r="5.83"/><circle class="cls-9" cx="1126.5" cy="272.29" r="5.83"/><circle class="cls-9" cx="1112.44" cy="295.91" r="5.83"/><circle class="cls-9" cx="1101.51" cy="319.86" r="5.83"/></g></g><path class="cls-1" d="M743.82,327.29a106.1,106.1,0,0,0,37.5,10.93A125.13,125.13,0,0,1,743.82,327.29Z"/><path class="cls-1" d="M908.1,275.77c-.59,1-1.2,2-1.82,3C906.91,277.78,907.52,276.78,908.1,275.77Z"/><path class="cls-1" d="M905.2,280.51l-.14.22Z"/><path class="cls-1" d="M675.38,250.49h0l.32.77Z"/><path class="cls-10" d="M906.67,262.78C876.13,323.29,800.6,347.85,738,317.63a126.38,126.38,0,0,1-46.34-38c11.18,16.27,28.36,35.6,52.19,47.62a125.13,125.13,0,0,0,37.5,10.93c18.32,1.8,39.21-.87,62.84-10.39,29.66-11.95,48.83-28.7,60.9-47.1l.14-.22c.38-.57.72-1.15,1.08-1.73.62-1,1.23-2,1.82-3,21.89-37.74,16-81.1,10.29-104.32a123,123,0,0,0-7-16l-3.95,1.59A119,119,0,0,1,906.67,262.78Z"/><path class="cls-3" d="M691.63,279.67a126.38,126.38,0,0,0,46.34,38c62.63,30.22,138.16,5.66,168.7-54.85a119,119,0,0,0,.8-105.72L691.66,243.94l-5.88,2.57-.2-.13-10.2,4.11.3.78A171.38,171.38,0,0,0,691.63,279.67ZM904.39,159.18s6.86,14,9.14,49C915.43,237.38,895.9,263,895.9,263l-94.21-59.73ZM894,269.39s-10.37,28.32-52.67,45.45C812,326.71,787,320.09,787,320.09l8.83-110.82Zm-106-60.48-13.09,113.5s-15.88-2.12-48-20.94c-26.8-15.69-39.43-48.68-39.43-48.68Z"/><path class="cls-4" d="M691.66,243.94l-6.08,2.44.2.13Z"/><path class="cls-11" d="M726.81,301.47c32.15,18.82,48,20.94,48,20.94l13.09-113.5L687.38,252.79S700,285.78,726.81,301.47Z"/><path class="cls-11" d="M913.53,208.17c-2.28-35-9.14-49-9.14-49l-102.7,44.1L895.9,263S915.43,237.38,913.53,208.17Z"/><path class="cls-11" d="M841.29,314.84c42.3-17.13,52.67-45.45,52.67-45.45l-98.18-60.12L787,320.09S812,326.71,841.29,314.84Z"/><g id="citrus-3" data-name="citrus"><path class="cls-1" d="M664.46,220.24A88.94,88.94,0,0,0,677,189.88,104.81,104.81,0,0,1,664.46,220.24Z"/><path class="cls-1" d="M636.28,78.22c.8.59,1.58,1.18,2.36,1.79C637.86,79.4,637.07,78.8,636.28,78.22Z"/><path class="cls-1" d="M640,81.07l.16.14Z"/><path class="cls-1" d="M535.54,62.9l.46,1.64a103.69,103.69,0,0,1,14-4.38A118.59,118.59,0,0,0,535.54,62.9Z"/><path class="cls-1" d="M594.05,270.51v0l.68-.2Z"/><path class="cls-12" d="M625.29,78.23c47.83,31,61.51,96.41,30.57,146a106.38,106.38,0,0,1-35.94,35.31c14.61-7.88,32.34-20.49,44.54-39.33A104.81,104.81,0,0,0,677,189.88c3.17-15.15,2.83-32.86-3-53.48-7.3-25.88-19.56-43.43-33.86-55.19l-.16-.14L638.64,80c-.78-.61-1.56-1.2-2.36-1.79C606.71,56.5,569.92,57.47,550,60.16a103.69,103.69,0,0,0-14,4.38L537,68A100,100,0,0,1,625.29,78.23Z"/><path class="cls-3" d="M619.92,259.57a106.38,106.38,0,0,0,35.94-35.31c30.94-49.62,17.26-115-30.57-146A100,100,0,0,0,537,68L590,256.3l1.62,5.15-.12.16,2.51,8.9.68-.18A144.32,144.32,0,0,0,619.92,259.57ZM538.46,70.75s12.3-4.47,41.8-3.2c24.59,1.06,44.24,19.72,44.24,19.72L566,160.61Zm91.2,18.71s22.74,11.24,33.24,48.16c7.26,25.56-.55,45.91-.55,45.91L570.5,166.1Zm-60.17,83.17,93.7,21.24S660,207,641.33,232.13c-15.55,21-44.27,28.55-44.27,28.55Z"/><path class="cls-4" d="M590,256.3l1.5,5.31.12-.16Z"/><path class="cls-13" d="M641.33,232.13C660,207,663.19,193.87,663.19,193.87l-93.7-21.24,27.57,88.05S625.78,253.12,641.33,232.13Z"/><path class="cls-13" d="M580.26,67.55c-29.5-1.27-41.8,3.2-41.8,3.2L566,160.61,624.5,87.27S604.85,68.61,580.26,67.55Z"/><path class="cls-13" d="M662.9,137.62c-10.5-36.92-33.24-48.16-33.24-48.16L570.5,166.1l91.85,17.43S670.16,163.18,662.9,137.62Z"/></g><ellipse class="cls-12" cx="540.09" cy="241.47" rx="92.55" ry="96.92" transform="translate(241.81 752.38) rotate(-83.81)"/><ellipse class="cls-3" cx="541.66" cy="240.09" rx="88.35" ry="92.78" transform="translate(286.13 774.64) rotate(-88.36)"/><path class="cls-13" d="M552.62,321.35s24.69-1.06,41.23-15.08c19.84-16.81,24.89-26.67,24.89-26.67l-71.91-33.08Z"/><path class="cls-13" d="M622.06,274.57s10.36-21.28,7.13-42.33c-4.67-30.39-14.38-33.42-14.38-33.42L548.37,241.6Z"/><path class="cls-13" d="M468.93,289.8S482.66,307,503.36,316c29.89,13,41.67,2.91,41.67,2.91l-3.69-71.65Z"/><path class="cls-13" d="M612.86,194.53s-13.27-22-34.64-29.91c-25.64-9.54-37.4-9.14-37.4-9.14l4.72,82.37Z"/><path class="cls-13" d="M460.59,212.32s-10.94,20.59-5.91,41.15c6,24.66,12.75,33.78,12.75,33.78l68.85-43.73Z"/><path class="cls-13" d="M532.34,158.59a69.72,69.72,0,0,0-38.7,10.26c-28.49,17.28-32.45,38.69-32.45,38.69l78.62,31Z"/></svg>