<svg id="Layer_1" data-name="Layer 1" xmlns="http://www.w3.org/2000/svg" viewBox="0 0 1864.53 2518.73"><defs><style>.cls-1{fill:#111e71;}</style></defs><path class="cls-1" d="M996.25,748.26l45.92-62.21c11.48,22.53,25.51,35.76,46.88,35.76,12.43,0,22-4.41,22-19.1,0-9.31-3.83-13.72-16-19.59l-22.64-11.27c-30.29-15.18-41.45-43.59-41.45-81.3C1031,522.47,1073.1,471,1131.14,471c36,0,61.22,19.1,74.62,49l-45,63.18c-8.29-18.12-19.45-29.87-38.58-29.87-11.8,0-22.32,4.4-22.32,18.61,0,7.34,3.51,14.69,15.62,20.57l23,11.26c27.75,13.72,41.46,41.14,41.46,79.84,0,69.54-44.33,120.48-99.81,120.48C1041.85,804.09,1011.56,780.58,996.25,748.26Z" transform="translate(-67.52 -81.11)"/><path class="cls-1" d="M1313.35,475.94h68.88l-42.41,242h82.91l-14.35,81.3H1256.91Z" transform="translate(-67.52 -81.11)"/><path class="cls-1" d="M1489,920a260.87,260.87,0,0,1,14.36-43.42l69.57-163.84L1640,728.36,1568.16,897.7a132.54,132.54,0,0,0-8.15,23.75c-6.11,26.24.81,35.89,15.41,39.29,15.53,3.62,26.84-2.8,43.53-42.16L1694.34,741l67.09,15.62-72.37,170.22c-39.74,93.34-83.72,130.37-140.55,117.14C1498.19,1032.28,1472.87,989.17,1489,920Z" transform="translate(-67.52 -81.11)"/><path class="cls-1" d="M1825.79,1150.33l42.65,62.78c33.32,49.07,16.6,89-24.72,117-45.78,31.1-88.65,25.52-114.6-6.58l-1,.29c13.83,26.46,3.94,45.9-22.39,63.78-7.7,5.23-15.94,9.67-27.72,15l-6.8,3.07a153.77,153.77,0,0,0-23.31,12.75,83.82,83.82,0,0,0-19.1,17.22l-40-58.83c3.6-5.15,7.93-9.24,15.22-14.19,4.46-3,10.31-6.62,27.09-14.17l10-4.47a161.19,161.19,0,0,0,23.31-12.75c14.59-9.91,17.57-17.72,9.86-29.06l-4.83-7.12-104.12,47.21-38.7-57Zm-31.21,88.28-59.75,27.1,4.83,7.12c12.19,17.94,30.84,18.37,50.29,5.16,13.77-9.35,18.42-19.07,11.08-29.88Z" transform="translate(-67.52 -81.11)"/><path class="cls-1" d="M1791.77,1699.42l75.28,13.81c51.44,9.44,72.24,51.59,62.78,103.14-14.14,77.08-67.95,119.49-133.19,107.52l-14.74-2.7-36.21,98.43-67.75-12.43Zm41.29,84.26-24.38,65.74,7.21,1.32c20.39,3.74,34.24-8.16,39.63-37.54,2.83-15.42-2.08-25.78-14.94-28.14Z" transform="translate(-67.52 -81.11)"/><path class="cls-1" d="M1103.23,422.49s-701,101.61-1001.8,10.84c-32.51-9.81-44.55-49.47-23.21-75.88,98-121.23,422.6-393.23,1286.42-220.47,0,0-992.25-127.12-1232.61,243.9a1.93,1.93,0,0,0,.83,2.81C153.22,392.93,442,469.5,1103.23,422.49Z" transform="translate(-67.52 -81.11)"/><path class="cls-1" d="M73.07,410s-31,400,406.21,539.25c0,0-16.27,419,316.28,399.46,0,0,5.45-11-4.91-10.34-62,3.75-300.49-69.54-290-410.79,0,0-370.37-80.47-399.23-494.23Z" transform="translate(-67.52 -81.11)"/><path class="cls-1" d="M803.23,1337.86l-18.37.61s109.66,487.66-76.58,975.93l36.1-2.48c37.83-82.38,36.33-97.49,63.06-209.24C883.66,1784.15,844.06,1508.22,803.23,1337.86Z" transform="translate(-67.52 -81.11)"/><path class="cls-1" d="M991,1326.86c-10.16-.63-4.82,10.34-4.82,10.34,326.12,19.54,310.17-399.46,310.17-399.46a705.9,705.9,0,0,0,94.86-38.36c-32.89,6.1-69.19,11.35-107.75,14.62-5.21,1.44-8.08,2.07-8.08,2.07C1285.66,1257.32,1051.82,1330.61,991,1326.86Z" transform="translate(-67.52 -81.11)"/><path class="cls-1" d="M220.69,2431.4c0-37.1,124-75.15,315.41-102,54.08-7.57,117.9-13.19,186.57-17.19,22.72-14.2,29.07-26.79,29.07-26.79h0c-316.79,9.13-562.67,75.78-562.67,156.66,0,87.1,285.25,157.72,637.12,157.72,126.24,0,243.9-9.09,342.89-24.77-53.45,2.17-108.94,3.31-165.85,3.31C571.05,2578.39,220.69,2512.58,220.69,2431.4Z" transform="translate(-67.52 -81.11)"/></svg>