<svg xmlns="http://www.w3.org/2000/svg" xmlns:xlink="http://www.w3.org/1999/xlink" viewBox="0 0 190.9709 274.3164"><defs><style>.cls-1,.cls-10,.cls-11,.cls-12,.cls-13,.cls-14,.cls-15,.cls-16,.cls-17,.cls-18,.cls-19,.cls-20,.cls-21,.cls-22,.cls-23,.cls-46,.cls-7,.cls-8,.cls-9{fill:none;}.cls-2{fill:#ffde5b;}.cls-3{fill:#fbf9df;}.cls-4{opacity:0.78;}.cls-5{fill:#fbef83;}.cls-6{clip-path:url(#clip-path);}.cls-10,.cls-11,.cls-12,.cls-13,.cls-14,.cls-15,.cls-16,.cls-17,.cls-18,.cls-19,.cls-20,.cls-21,.cls-22,.cls-23,.cls-46,.cls-7,.cls-8,.cls-9{stroke-miterlimit:10;}.cls-10,.cls-11,.cls-12,.cls-13,.cls-14,.cls-15,.cls-16,.cls-17,.cls-18,.cls-19,.cls-20,.cls-21,.cls-22,.cls-23,.cls-7,.cls-8,.cls-9{stroke-width:0.75px;}.cls-7{stroke:url(#linear-gradient);}.cls-8{stroke:url(#linear-gradient-2);}.cls-9{stroke:url(#linear-gradient-3);}.cls-10{stroke:url(#linear-gradient-4);}.cls-11{stroke:url(#linear-gradient-5);}.cls-12{stroke:url(#linear-gradient-6);}.cls-13{stroke:url(#linear-gradient-7);}.cls-14{stroke:url(#linear-gradient-8);}.cls-15{stroke:url(#linear-gradient-9);}.cls-16{stroke:url(#linear-gradient-10);}.cls-17{stroke:url(#linear-gradient-11);}.cls-18{stroke:url(#linear-gradient-12);}.cls-19{stroke:url(#linear-gradient-13);}.cls-20{stroke:url(#linear-gradient-14);}.cls-21{stroke:url(#linear-gradient-15);}.cls-22{stroke:url(#linear-gradient-16);}.cls-23{stroke:url(#linear-gradient-17);}.cls-24{fill:url(#linear-gradient-18);}.cls-25{font-size:77.3364px;fill:#f8fcfc;font-family:Roboto-Regular, Roboto;}.cls-26{fill:url(#linear-gradient-19);}.cls-27{fill:url(#linear-gradient-20);}.cls-28{fill:url(#linear-gradient-21);}.cls-29{fill:url(#linear-gradient-22);}.cls-30{fill:url(#linear-gradient-23);}.cls-31{fill:url(#linear-gradient-24);}.cls-32{fill:url(#linear-gradient-25);}.cls-33{opacity:0.76;}.cls-34{fill:url(#linear-gradient-26);}.cls-35{fill:url(#linear-gradient-27);}.cls-36{fill:url(#linear-gradient-28);}.cls-37{fill:url(#linear-gradient-29);}.cls-38{fill:url(#linear-gradient-30);}.cls-39{fill:url(#linear-gradient-31);}.cls-40{fill:url(#linear-gradient-32);}.cls-41{fill:url(#linear-gradient-33);}.cls-42{fill:url(#linear-gradient-34);}.cls-43{fill:url(#linear-gradient-35);}.cls-44{opacity:0.67;}.cls-45{clip-path:url(#clip-path-2);}.cls-46{stroke:#fff;}</style><clipPath id="clip-path"><path class="cls-1" d="M165.6163,176.3693a78.477,78.477,0,0,0-18.1757,2.8708c-10.6449,2.9809-23.1577,8.6214-28.9249,7.7063-15.8992-2.5229-27.5217-9.6173-39.7-10.7419-8.803-.8129-18.7038,3.3691-26.8712,5.7028-8.9883,2.5682-40.368-3.316-40.368-3.316l12.8893-91.32,128.9091,0Z"/></clipPath><linearGradient id="linear-gradient" x1="516.5997" y1="1765.7215" x2="538.9518" y2="1765.7215" gradientTransform="matrix(-1.1388, 0.1551, -0.1696, -1.0977, 924.0838, 1984.8328)" gradientUnits="userSpaceOnUse"><stop offset="0.0166" stop-color="#4c4e5d"/><stop offset="0.1295" stop-color="#626e84"/><stop offset="0.2714" stop-color="#7991ae"/><stop offset="0.3997" stop-color="#8aaacd"/><stop offset="0.5087" stop-color="#94b9df"/><stop offset="0.5854" stop-color="#98bfe6"/><stop offset="0.7186" stop-color="#a0c5e9" stop-opacity="0.9797"/><stop offset="0.8384" stop-color="#bad9f0" stop-opacity="0.9176"/><stop offset="0.9529" stop-color="#e4fbfd" stop-opacity="0.8137"/><stop offset="0.965" stop-color="#eaffff" stop-opacity="0.8"/></linearGradient><linearGradient id="linear-gradient-2" x1="472.044" y1="1822.833" x2="503.4964" y2="1822.833" gradientTransform="matrix(-1.1346, 0.1492, -0.193, -1.0043, 945.631, 1897.4084)" xlink:href="#linear-gradient"/><linearGradient id="linear-gradient-3" x1="465.1095" y1="1827.8445" x2="492.2025" y2="1827.8445" gradientTransform="matrix(-1.1346, 0.1492, -0.193, -1.0043, 945.631, 1897.4084)" xlink:href="#linear-gradient"/><linearGradient id="linear-gradient-4" x1="437.2383" y1="1820.4825" x2="462.5728" y2="1820.4825" gradientTransform="matrix(-1.1333, 0.1681, -0.2029, -1.0231, 955.1364, 1909.7571)" xlink:href="#linear-gradient"/><linearGradient id="linear-gradient-5" x1="435.7623" y1="1834.5971" x2="460.191" y2="1834.5971" gradientTransform="matrix(-1.1346, 0.1492, -0.193, -1.0043, 945.631, 1897.4084)" xlink:href="#linear-gradient"/><linearGradient id="linear-gradient-6" x1="433.8266" y1="1709.058" x2="454.7673" y2="1709.058" gradientTransform="matrix(-1.138, 0.1903, -0.1791, -1.1714, 932.8932, 2050.987)" xlink:href="#linear-gradient"/><linearGradient id="linear-gradient-7" x1="451.4584" y1="1820.5275" x2="479.275" y2="1820.5275" gradientTransform="matrix(-1.1346, 0.1492, -0.193, -1.0043, 945.631, 1897.4084)" xlink:href="#linear-gradient"/><linearGradient id="linear-gradient-8" x1="420.541" y1="1828.8433" x2="451.9934" y2="1828.8433" gradientTransform="matrix(-1.1346, 0.1492, -0.193, -1.0043, 945.631, 1897.4084)" xlink:href="#linear-gradient"/><linearGradient id="linear-gradient-9" x1="416.7839" y1="1822.1891" x2="443.877" y2="1822.1891" gradientTransform="matrix(-1.1346, 0.1492, -0.193, -1.0043, 945.631, 1897.4084)" xlink:href="#linear-gradient"/><linearGradient id="linear-gradient-10" x1="392.4802" y1="1817.8994" x2="418.1037" y2="1817.8994" gradientTransform="matrix(-1.1346, 0.1492, -0.193, -1.0043, 945.631, 1897.4084)" xlink:href="#linear-gradient"/><linearGradient id="linear-gradient-11" x1="410.6917" y1="1704.229" x2="430.4371" y2="1704.229" gradientTransform="matrix(-1.1369, 0.1993, -0.1858, -1.1802, 939.067, 2054.9092)" xlink:href="#linear-gradient"/><linearGradient id="linear-gradient-12" x1="397.0005" y1="1671.6768" x2="417.9751" y2="1671.6768" gradientTransform="matrix(-1.1328, 0.1977, -0.2068, -1.1121, 957.9799, 1900.0812)" xlink:href="#linear-gradient"/><linearGradient id="linear-gradient-13" x1="493.6134" y1="1831.5288" x2="518.3021" y2="1831.5288" gradientTransform="matrix(-1.137, 0.1256, -0.1752, -0.9981, 928.6242, 1900.0551)" xlink:href="#linear-gradient"/><linearGradient id="linear-gradient-14" x1="459.4858" y1="1828.5958" x2="482.0975" y2="1828.5958" gradientTransform="matrix(-1.1346, 0.1492, -0.193, -1.0043, 945.631, 1897.4084)" xlink:href="#linear-gradient"/><linearGradient id="linear-gradient-15" x1="410.2645" y1="1830.6745" x2="432.8762" y2="1830.6745" gradientTransform="matrix(-1.1346, 0.1492, -0.193, -1.0043, 945.631, 1897.4084)" xlink:href="#linear-gradient"/><linearGradient id="linear-gradient-16" x1="430.766" y1="1833.72" x2="453.3777" y2="1833.72" gradientTransform="matrix(-1.1346, 0.1492, -0.193, -1.0043, 945.631, 1897.4084)" xlink:href="#linear-gradient"/><linearGradient id="linear-gradient-17" x1="427.5863" y1="1708.0441" x2="448.5271" y2="1708.0441" gradientTransform="matrix(-1.138, 0.1903, -0.1791, -1.1714, 932.8932, 2050.987)" xlink:href="#linear-gradient"/><linearGradient id="linear-gradient-18" x1="632.1885" y1="98.9831" x2="633.5021" y2="26.5712" gradientTransform="matrix(-1, 0, 0, 1, 719.1655, 0)" gradientUnits="userSpaceOnUse"><stop offset="0.0166" stop-color="#4c4e5d"/><stop offset="0.1371" stop-color="#4e5160"/><stop offset="0.2435" stop-color="#545a6b"/><stop offset="0.3446" stop-color="#5e697d"/><stop offset="0.4425" stop-color="#6c7e97"/><stop offset="0.538" stop-color="#7e99b8"/><stop offset="0.6306" stop-color="#94b9df"/><stop offset="0.6446" stop-color="#98bfe6"/><stop offset="0.76" stop-color="#accfec" stop-opacity="0.9254"/><stop offset="0.9721" stop-color="#e2f9fd" stop-opacity="0.7289"/><stop offset="1" stop-color="#eaffff" stop-opacity="0.7"/></linearGradient><linearGradient id="linear-gradient-19" x1="92.5021" y1="104.2851" x2="92.2107" y2="148.5879" gradientUnits="userSpaceOnUse"><stop offset="0.0166" stop-color="#4c4e5d"/><stop offset="0.1232" stop-color="#4e5161"/><stop offset="0.2291" stop-color="#555b6d"/><stop offset="0.3347" stop-color="#606c81"/><stop offset="0.4402" stop-color="#6f839d"/><stop offset="0.5447" stop-color="#83a0c0"/><stop offset="0.6359" stop-color="#98bfe6"/><stop offset="0.7513" stop-color="#a0c5e9" stop-opacity="0.9797"/><stop offset="0.8553" stop-color="#bad9f0" stop-opacity="0.9176"/><stop offset="0.9545" stop-color="#e4fbfd" stop-opacity="0.8137"/><stop offset="0.965" stop-color="#eaffff" stop-opacity="0.8"/></linearGradient><linearGradient id="linear-gradient-20" x1="14.6375" y1="170.0309" x2="36.2198" y2="170.0309" gradientTransform="matrix(1, 0.0001, 0.0001, 1.0127, -0.0171, -1.8695)" gradientUnits="userSpaceOnUse"><stop offset="0.0076" stop-color="#4c4e5d"/><stop offset="1" stop-color="#4c4e5d"/></linearGradient><linearGradient id="linear-gradient-21" x1="39.3234" y1="174.8249" x2="61.8908" y2="174.8249" xlink:href="#linear-gradient-20"/><linearGradient id="linear-gradient-22" x1="60.7234" y1="177.5487" x2="85.0234" y2="177.5487" xlink:href="#linear-gradient-20"/><linearGradient id="linear-gradient-23" x1="90.2739" y1="178.3229" x2="115.299" y2="178.3229" xlink:href="#linear-gradient-20"/><linearGradient id="linear-gradient-24" x1="114.052" y1="177.1335" x2="146.4316" y2="177.1335" xlink:href="#linear-gradient-20"/><linearGradient id="linear-gradient-25" x1="141.4032" y1="169.8825" x2="161.6861" y2="169.8825" xlink:href="#linear-gradient-20"/><linearGradient id="linear-gradient-26" x1="18.2843" y1="219.2668" x2="9.4857" y2="235.3606" xlink:href="#linear-gradient-19"/><linearGradient id="linear-gradient-27" x1="46.5132" y1="233.4969" x2="35.639" y2="259.225" xlink:href="#linear-gradient-19"/><linearGradient id="linear-gradient-28" x1="71.5131" y1="234.8367" x2="71.422" y2="270.2088" xlink:href="#linear-gradient-19"/><linearGradient id="linear-gradient-29" x1="102.809" y1="232.4812" x2="104.5182" y2="271.9059" xlink:href="#linear-gradient-19"/><linearGradient id="linear-gradient-30" x1="133.4485" y1="224.2867" x2="142.2994" y2="262.6963" xlink:href="#linear-gradient-19"/><linearGradient id="linear-gradient-31" x1="162.8573" y1="218.6356" x2="165.2592" y2="234.993" xlink:href="#linear-gradient-19"/><linearGradient id="linear-gradient-32" x1="25.4817" y1="63.3612" x2="54.6716" y2="63.3612" gradientTransform="matrix(1, 0, 0, 1, 0, 0)" xlink:href="#linear-gradient-20"/><linearGradient id="linear-gradient-33" x1="56.0344" y1="63.3612" x2="88.5961" y2="63.3612" gradientTransform="matrix(1, 0, 0, 1, 0, 0)" xlink:href="#linear-gradient-20"/><linearGradient id="linear-gradient-34" x1="93.1197" y1="63.3741" x2="120.2851" y2="63.3741" gradientTransform="matrix(1, 0, 0, 1, 0, 0)" xlink:href="#linear-gradient-20"/><linearGradient id="linear-gradient-35" x1="121.1543" y1="63.469" x2="152.8926" y2="63.469" gradientTransform="matrix(1, 0, 0, 1, 0, 0)" xlink:href="#linear-gradient-20"/><clipPath id="clip-path-2"><path class="cls-1" d="M15.6387,187.0455s-6.3709,4.2914-6.91,9.1739-7.1226,41.0981,23.6342,59.4421c23.14,13.8012,80.678,21.4278,97.3406,12.9218,16.391-8.3674,40.9262-27.3937,43.3089-39.9359s-4.1111-36.9363-7.4127-37.3413-38.7746,18.154-73.48,16.4684C47.2865,205.597,15.6387,187.0455,15.6387,187.0455Z"/></clipPath></defs><g id="finished"><g id="dark_stormy" data-name="dark&amp;stormy"><g id="citrussun"><ellipse class="cls-2" cx="40.5446" cy="30.6049" rx="31.2413" ry="30.525" transform="translate(-7.6201 14.459) rotate(-18.5148)"/><ellipse class="cls-3" cx="42.0791" cy="32.1818" rx="30.0099" ry="31.249" transform="translate(3.8524 68.8565) rotate(-81.2215)"/><g class="cls-4"><path class="cls-5" d="M40.9229,60.32s8.2607,1.028,14.5655-2.7368C63.05,53.0674,65.3,50.051,65.3,50.051l-21.9677-15.1Z"/><path class="cls-5" d="M66.6942,48.5514s4.67-6.5415,4.8159-13.7663c.21-10.4346-2.84-11.9927-2.84-11.9927L44.1269,33.3877Z"/><path class="cls-5" d="M14.9533,45.069a33.6914,33.6914,0,0,0,9.92,10.689c9.1795,6.0144,13.672,3.3066,13.672,3.3066L41.4666,34.88Z"/><path class="cls-5" d="M68.2713,21.25s-3.1361-8.0952-9.7751-11.9542C50.5337,4.6676,46.6033,4.1433,46.6033,4.1433l-3.2,27.8322Z"/><path class="cls-5" d="M16.6674,18.6689s-4.8245,6.2785-4.3438,13.4426c.5766,8.5924,2.2788,12.0214,2.2788,12.0214L40,33.3532Z"/><path class="cls-5" d="M43.6076,4.708A23.37,23.37,0,0,0,30.161,5.9741c-10.4613,4.1877-13.0176,11.13-13.0176,11.13L41.46,31.885Z"/></g></g><g id="rain"><g class="cls-6"><line class="cls-7" x1="18.7648" y1="178.7484" x2="28.3604" y2="78.1147"/><line class="cls-8" x1="35.1284" y1="204.9898" x2="45.7302" y2="74.1669"/><line class="cls-9" x1="45.2546" y1="189.3162" x2="54.3521" y2="77.0556"/><line class="cls-10" x1="71.5881" y1="173.2288" x2="80.3127" y2="72.438"/><line class="cls-11" x1="79.2206" y1="172.2856" x2="87.3987" y2="71.37"/><line class="cls-12" x1="117.0683" y1="183.9167" x2="125.2403" y2="83.0767"/><line class="cls-13" x1="62.1406" y1="198.9254" x2="70.4467" y2="78.1776"/><line class="cls-14" x1="92.405" y1="191.2708" x2="103.0067" y2="60.4478"/><line class="cls-15" x1="101.1772" y1="187.7864" x2="110.2746" y2="75.5259"/><line class="cls-16" x1="130.6677" y1="185.2304" x2="139.2581" y2="79.2275"/><line class="cls-17" x1="140.6324" y1="175.236" x2="147.7819" y2="79.5447"/><line class="cls-18" x1="147.7478" y1="169.6075" x2="153.5588" y2="73.5249"/><line class="cls-19" x1="27.4846" y1="186.0301" x2="37.5338" y2="85.0654"/><line class="cls-20" x1="54.8058" y1="177.8477" x2="62.357" y2="84.6687"/><line class="cls-21" x1="110.2522" y1="168.4173" x2="117.8033" y2="75.2383"/><line class="cls-22" x1="86.403" y1="168.4173" x2="93.9542" y2="75.2383"/><line class="cls-23" x1="124.3515" y1="183.9167" x2="132.5235" y2="83.0767"/></g></g><path class="cls-24" d="M138.292,32.7968c5.4469,1.3426,8.7334,3.4689,5.8839,10.75a4.3821,4.3821,0,0,0-.2906,1.34,4.8627,4.8627,0,0,0,3.4,4.7714c2.8343.9406,5.2222,1.3683,6.1078,3.75,1.8487,4.9729.3387,6.0065-.6162,8.4953-1.8892,4.924,4.5146,6.6054,5.6284,10.93.7979,3.0974.5739,10.0732-2.1586,11.1335-3.4558,1.3409-1.3176,5.7239-3.0592,8.7507-4.3271,7.52-15.2873,8.3827-19.6363,4.69-.9888-.8394-2.8722-.4287-4.3353,1.01a29.1327,29.1327,0,0,1-16.8721,8.3925c-6.6471.7594-12.2943-.1992-15.4165-5.2631-.5092-.8255-1.1665-2.0506-1.977-2.1408-4.8721-.5419-12.7851,2.4183-17.5318,4.3795-5.4752,2.2622-10.5861,5.3883-18.1162,4.7609-4.6527-.3876-10.138-2.12-13.1622-6.3065-1.1626-1.61-2.8238-3.3627-4.5791-2.9845-3.3443.7206-6.2871,2.8811-9.9357,2.69-7.2689-.3806-11.2629-10.0023-7.91-15.2263a2.9966,2.9966,0,0,0,.7-1.9994A2.6459,2.6459,0,0,0,22.79,82.8657c-5.1267-2.5327-9.78-9.7021-8.33-16.7137,1.8524-8.9549,12.697-7.7882,14.3266-21.0748.9714-7.92,9.0835-15.2552,19.878-15.3948,8.9226-.1154,14.2561,5.3711,23.6652,3.33,3.6908-.8007,8.1757-10.1767,15.87-7.5093,3.3422,1.1587,8.3948,6.8773,11.601,6.6268,2.367-.1849,6.1565-5.3429,8.7273-5.3408,3.6186.0016,8.389,3.2427,9.5676,4.2464a7.8551,7.8551,0,0,0,3.2626,1.0966C127.4191,32.9744,130.9425,30.9852,138.292,32.7968Z"/><text class="cls-25" transform="translate(71.6748 153.1725) scale(0.7998 1)">&amp;</text><path class="cls-26" d="M85.1644,123.944a36.2424,36.2424,0,0,1-3.3677-6.6578,17.0937,17.0937,0,0,1-1.05-5.8054q0-5.4318,2.4218-8.5952a7.7627,7.7627,0,0,1,6.494-3.16,7.3072,7.3072,0,0,1,5.9885,2.86,11.254,11.254,0,0,1,2.29,7.26q0,5.115-4.4192,10.05L89.263,124.3,99.91,140.8457a27.7753,27.7753,0,0,0,2.4219-11.8255h2.9537q0,8.8083-3.4064,14.88l5.2963,8.2395h-3.8326L99.99,146.954a16.0456,16.0456,0,0,1-4.8577,4.3329,11.63,11.63,0,0,1-5.8142,1.56,10.9749,10.9749,0,0,1-8.7837-3.78q-3.25-3.7833-3.2479-10.103a15.814,15.814,0,0,1,1.6644-7.1193A30.5541,30.5541,0,0,1,84.7927,124.3Zm4.1532,25.3174a9.0036,9.0036,0,0,0,4.6975-1.3668,13.8038,13.8038,0,0,0,4.0845-3.889L87.2674,127.2447l-.3734-.5319L85.67,127.9563q-5.2154,5.68-5.2171,11.0083a11.17,11.17,0,0,0,2.3954,7.4751A8.0487,8.0487,0,0,0,89.3176,149.2614ZM83.94,111.3364q0,4.3329,3.5931,10.23l3.4874-3.5508a15.3052,15.3052,0,0,0,2.7935-3.59,9.2237,9.2237,0,0,0,1.092-4.5795,7.3549,7.3549,0,0,0-1.4372-4.6323,4.596,4.596,0,0,0-3.8327-1.867,4.808,4.808,0,0,0-4.1532,2.2369A9.9266,9.9266,0,0,0,83.94,111.3364Z"/><g id="stormy"><path class="cls-27" d="M28.4878,182.484a9.6728,9.6728,0,0,0-.6372-5.2988,18.0129,18.0129,0,0,0-3.8991-4.8548,25.7591,25.7591,0,0,1-4.3293-5.186,14.177,14.177,0,0,1-2.0343-9.9,12.9107,12.9107,0,0,1,3.725-7.5309,10.097,10.097,0,0,1,7.18-3.1811,6.3609,6.3609,0,0,1,4.6683,1.7671,10.1947,10.1947,0,0,1,2.6472,5.4081,23.2674,23.2674,0,0,1,.1417,7.9337c-1.9026-.2626-2.8474-.4-4.71-.69a10.8594,10.8594,0,0,0-.4573-5.94,3.7848,3.7848,0,0,0-3.4051-2.3349,4.553,4.553,0,0,0-3.6854,1.2684,6.9507,6.9507,0,0,0-1.8638,4.1007,6.241,6.241,0,0,0,.7088,4.1416,16.3965,16.3965,0,0,0,3.8555,4.2086,20.6279,20.6279,0,0,1,4.4663,4.9886,16.271,16.271,0,0,1,2.17,5.767,24.4209,24.4209,0,0,1,.0871,7.0075c-.4929,4.19-1.7433,7.2129-3.69,8.8187-1.9466,1.6035-4.3027,1.5249-6.9631-.1917a14.7549,14.7549,0,0,1-4.5253-4.9873,23.7689,23.7689,0,0,1-2.7207-6.842,21.5228,21.5228,0,0,1-.4592-7.1922c1.5411.9131,2.34,1.351,3.982,2.1925a12.8521,12.8521,0,0,0,.7254,6.3092,8.2113,8.2113,0,0,0,3.6809,4.2856c1.492.8214,2.7122.84,3.6251.05A6.275,6.275,0,0,0,28.4878,182.484Z"/><path class="cls-28" d="M61.0651,155.282c-3.2806-.1222-4.9767-.1908-8.4-.346-2.3642,19.2859-3.3468,28.9977-5.412,48.3872-1.9767-.6259-2.96-.9566-4.9053-1.6568,2.0923-18.8289,3.0728-28.266,5.559-46.9585-3.43-.1738-5.1621-.2695-8.5841-.4821.4213-2.8461.6391-4.2668,1.0929-7.1017,8.7575-.0189,13.3319-.0363,21.4737-.0712C61.556,150.3432,61.3912,151.9892,61.0651,155.282Z"/><path class="cls-29" d="M84.9654,180.2362a69.85,69.85,0,0,1-1.8758,16.17c-1.18,4.596-2.8492,8.0644-4.9777,10.3556-2.1287,2.2941-4.5455,3.2573-7.124,2.8881-2.5519-.3654-4.6823-1.9746-6.3648-4.7275a28.2966,28.2966,0,0,1-3.401-10.9861,70.3924,70.3924,0,0,1-.158-15.333c.1191-1.3384.1786-2.0077.2982-3.3459a80.0333,80.0333,0,0,1,2.736-15.2588,33.774,33.774,0,0,1,4.4981-10.2049c1.7285-2.39,3.6066-3.6219,5.7174-3.6223,2.1091,0,3.9754,1.221,5.6147,3.6863,1.6391,2.4681,2.92,6.0293,3.8194,10.6751a80.5648,80.5648,0,0,1,1.269,16.1953Zm-5.1972-3.5026c.2143-6.9421-.2415-12.2889-1.2845-16.0117-1.0448-3.7257-2.5918-5.5906-4.6427-5.639-2.0038-.0473-3.6241,1.7255-4.9673,5.2567-1.3439,3.5333-2.2836,8.5224-2.7963,15.0311-.105,1.3974-.1574,2.0964-.2622,3.4939-.499,6.65-.3072,11.87.6725,15.7067.9777,3.8368,2.6331,5.9573,4.9677,6.2523,2.3606.2984,4.3236-1.3358,5.7572-4.8875,1.4315-3.549,2.237-8.8789,2.4547-15.9327Z"/><path class="cls-30" d="M101.8986,185.9014c-2.4137.0846-3.635.11-6.08.1285.1712,9.7206.2569,14.581.4279,24.3015-2.3507.0355-3.532.0323-5.885-.0143q-.044-31.6017-.0885-63.2031c3.9323.0295,5.92.0453,9.808.0656,3.1891.0165,5.663,1.6506,7.55,4.854s3.0523,7.8049,3.4627,13.8685a32.8746,32.8746,0,0,1-.6919,10.4892,14.2022,14.2022,0,0,1-3.63,6.7289c3.2481,10.2589,4.9606,15.323,8.4939,25.177.0158.22.0235.33.0393.5494-2.3245.3468-3.5162.4944-5.9338.74C106.2457,200.2524,104.7423,195.4942,101.8986,185.9014Zm-6.236-8.7227c2.1951-.01,3.2912-.0258,5.4617-.08a4.437,4.437,0,0,0,4.0138-2.9135,16.1665,16.1665,0,0,0,1.07-7.6318,19.2523,19.2523,0,0,0-1.6879-7.746,4.5162,4.5162,0,0,0-3.9811-2.8068c-2.0859.0093-3.1394.01-5.2492.0027C95.4389,164.4735,95.5136,168.7086,95.6626,177.1787Z"/><path class="cls-31" d="M119.5392,147.1233c4.6981,18.2284,7.3133,27.0509,12.4251,43.9934.8982-18.4408,1.2647-27.4411,1.4363-44.1816,2.1592-.0312,3.2384-.0472,5.3962-.08,2.9743,17.5135,5.3816,35.1626,7.6393,52.78-1.653.779-2.4925,1.148-4.2016,1.8505-.9372-7.2377-1.4022-10.8586-2.36-18.0826-1.1121-9.7111-1.6783-14.5463-2.9211-24.1152-.4141,17.0156-.8269,26.13-1.7844,44.7952-1.3007.4262-1.9595.631-3.2959,1.0262-5.2276-16.9869-7.8718-25.8544-12.6582-44.1378,1.2023,10.57,1.8091,15.846,3.032,26.3816.7749,7.9135,1.1616,11.8706,1.9352,19.785-1.9811.4656-2.9911.6895-5.08,1.0762q-2.5252-30.5153-5.05-61.0307C116.3094,147.167,117.3689,147.151,119.5392,147.1233Z"/><path class="cls-32" d="M155.2421,168.2007c.8416-9.4383,1.2695-13.8613,1.8325-21.6543,1.8446-.0345,2.7665-.0521,4.61-.0885-1.1022,9.4968-1.9356,15.3775-3.41,28.16.9137,6.6346,1.33,9.9784,2.1826,16.6529-1.5075,1.1153-2.27,1.6462-3.8152,2.66-.9242-7.0441-1.3775-10.5719-2.3558-17.5806-4.7743-10.7586-7.3961-16.778-12.8845-29.5353,1.8537-.029,2.78-.0439,4.633-.0745C149.9543,155.8275,151.806,160.1637,155.2421,168.2007Z"/><g class="cls-33"><path class="cls-34" d="M23.9016,200.3251a7.14,7.14,0,0,0-2.7263-3.73c-1.5389-1.1269-2.7914-1.3991-3.7316-.7908s-1.51,2.0206-1.76,4.3556c-1.3422-1.39-1.989-2.1077-3.23-3.5919a11.3884,11.3884,0,0,1,1.6033-5.3507,4.1409,4.1409,0,0,1,3.52-1.83,9.3978,9.3978,0,0,1,5.0254,1.5888,11.3708,11.3708,0,0,1,5.3161,6.783c.8485,2.99.791,6.4206.3146,10.4862-.293,2.5023-.5017,4.725-.8891,6.469a5.5274,5.5274,0,0,1-2.1854,3.6938c-1.0831.67-2.6047.7445-4.5023.0326-1.8961-.7112-3.2621-1.11-4.1331-.9488-.8707.16-1.44.91-1.6759,2.4286a13.7253,13.7253,0,0,0,.3487,5.6793,15.05,15.05,0,0,0,2.8112,5.63c1.4842,1.854,2.8547,2.5995,4.0082,2.2066s1.969-1.86,2.2874-4.39c1.8646,1.7326,2.8248,2.5515,4.7914,4.1042-.3311,2.9538-1.28,5.1557-2.7523,6.4686a4.9319,4.9319,0,0,1-5.0582.9929,10.5875,10.5875,0,0,1-5.0177-4.148,29.2671,29.2671,0,0,1-4.6129-11.266,31.1872,31.1872,0,0,1-.6551-11.0743c.55-3.5175,1.8457-4.887,3.9465-5.03a12.9373,12.9373,0,0,1,4.2876.7707c1.778.5446,3.0119.3486,3.6774-.3125s1.0976-2.0591,1.3437-4.1036A12.1917,12.1917,0,0,0,23.9016,200.3251Z"/><path class="cls-35" d="M51.1862,263.4316c-10.4387-4.5726-15.2838-7.4864-23.7665-15.2065a16.38,16.38,0,0,0,2.644-5.7448,69.3921,69.3921,0,0,0,9.3112,6.4847c5.3918-16.992-7.5875-32.4749,2.6386-48.1126,1.9247.69,2.8974,1.0158,4.854,1.6334-9.9883,15.6087,1.417,32.6673-1.9807,49.5332a84.4778,84.4778,0,0,0,10.4647,4.5934A13.4856,13.4856,0,0,1,51.1862,263.4316Z"/><path class="cls-36" d="M85.0711,242.32c3.3052,6.29,4.9933,11.656,3.6583,16.1882s-5.2181,7.8545-9.5477,9.7568c-4.3272,1.9-8.5109,2.2953-11.52,1.5779-3.0066-.7168-4.275-2.3419-5.0167-4.9934-.7424-2.6531-1.0073-6.2431-1.7864-11.0539a156.9262,156.9262,0,0,0-4.3866-17.1288c-.4385-1.5052-.6606-2.2578-1.0876-3.7553-1.802-6.36-2.1073-11.4629-.6238-15.3944a15.6531,15.6531,0,0,1,7.3577-8.3017,15.2085,15.2085,0,0,1,8.9622-2.0406c2.5682.3547,3.68,1.6839,4.0753,4.176.3941,2.4945.2008,5.9838,1.2072,10.6814s3.5506,10.3337,6.8216,16.6887C83.927,240.1633,84.3132,240.884,85.0711,242.32Zm-8.1034-4.2249a116.8607,116.8607,0,0,1-6.4955-16.8184c-1.1178-3.7869-2.1139-5.7318-4.37-6.1648-2.2294-.428-4.6153.85-6.16,4.0817s-1.4927,8.3435.8758,15.7067c.5026,1.5477.7668,2.325,1.29,3.8764,2.4678,7.2473,4.2364,12.7885,5.5727,16.7217,1.3361,3.93,2.7874,6.0906,5.7274,6.6a7.4166,7.4166,0,0,0,7.9748-4.4227c1.69-3.5069.7479-8.8593-2.7707-16.1451C77.9492,240.1584,77.614,239.47,76.9677,238.0946Z"/><path class="cls-37" d="M108.6588,208.8523c2.4459-.2327,3.6523-.374,6.0078-.7087-.1453.24-.2163.36-.3545.5988-9.322,11.5633-9.7115,16.57-7.2577,26.6813a32.6291,32.6291,0,0,1,8.43,5.2768c2.7053,2.2973,5.5548,5.06,6.6619,8.8887a15.1692,15.1692,0,0,1-3.5668,14.7925,21.5187,21.5187,0,0,1-13.2657,7.0082,96.7254,96.7254,0,0,1-13.8632.5481c24.7933-20.0753-24.7821-40.728-1.9358-62.4495,2.3345.057,3.5209.0664,5.89.0424-8.9465,9.6914-7.247,14.3842-2.5709,24.0154,2.8146.0164,4.2283-.01,7.0389-.136C97.9908,223.8983,98.8,219.3254,108.6588,208.8523Zm-4.702,53.9314c2.7011-.232,4.04-.3866,6.6713-.7739a7.1659,7.1659,0,0,0,5.1466-3.7036,9.6655,9.6655,0,0,0,.3837-7.78,13.2017,13.2017,0,0,0-5.3754-6.6182,10.0425,10.0425,0,0,0-6.5357-2.04c-2.5923.2114-3.9034.2839-6.5327.3638C102.643,250.45,106.037,254.2452,103.9568,262.7837Z"/><path class="cls-38" d="M124.8385,267.47c14.6113-22.8019-19.949-36.5341-6.3237-59.9388,2.1187-.3752,3.1459-.5914,5.1522-1.05-4.0264,8.9239-4.79,13.2-1.52,20.4839,4.1421,9.7819,9.6446,13.1313,10.66,23.4552,1.2574-19.2863-11.5921-24.6674-1.3516-45.941,1.3527-.39,2.02-.5922,3.336-1.0134-2.9559,19.0868,11.22,22.4565,16.0421,36.7983-1.4128-9.2523-5.05-11.8472-8.6247-20.4194-2.5344-6.4765-2.0416-10.6973-.2642-18.9488,1.73-.6958,2.5795-1.0614,4.2524-1.8342-3.3259,19.0271,10.9176,32.82,8.1175,51.7751a55.3615,55.3615,0,0,1-5.4879,4.5807c1.2979-19.3616-11.7845-20.4005-17.1394-37.0511-1.4872,18.8977,14.59,21.655.6729,46.31A74.1127,74.1127,0,0,1,124.8385,267.47Z"/><path class="cls-39" d="M161.0018,243.6585a59.5118,59.5118,0,0,1-4.1975,4.738c4.42-19.5074,3.7271-25.9931,3.6276-39.4165-1.8516-6.2378-4.2691-7.79-3.91-15.5852,1.5634-1.0089,2.3344-1.5376,3.8593-2.6491.0179,6.7115,5.9766,9.7908,7.9968,15.0573a12.24,12.24,0,0,0,1.49,2.7127c4.4333,6.1955,3.1864,11.5719,2.2131,17.6624-1.3377,2.8269-1.7,4.2413-3.1034,6.8022-2.79-5.5494-.595-16.9519-4.7466-22.3925C164.672,220.1407,163.2358,229.8086,161.0018,243.6585Z"/></g></g><g id="dark"><path class="cls-40" d="M25.4817,91.0361q3.6381-27.6748,7.2743-55.35H42.02a9.6313,9.6313,0,0,1,7.278,3.193,19.3247,19.3247,0,0,1,4.3855,9.0856,45.3351,45.3351,0,0,1,.8291,13.5331c-.1083,1.4144-.1627,2.1217-.2712,3.5359a44.6768,44.6768,0,0,1-3.0235,13.7234,21.8214,21.8214,0,0,1-6.4626,9.0479,14.648,14.648,0,0,1-9.0288,3.2311ZM36.36,41.6541c-2.1081,17.3648-3.1634,26.0486-5.2721,43.4138h5.0711c3.7153,0,6.7932-1.7495,9.1622-5.25,2.3707-3.5,3.8-8.4851,4.36-14.9538.112-1.2933.168-1.94.28-3.2337.5445-6.2908.0489-11.18-1.4242-14.6679s-3.8054-5.2569-7.0594-5.3079Z"/><path class="cls-41" d="M80.3423,76.5522H65.2957c-1.6495,5.7937-2.4949,8.6906-4.2274,14.484H56.0344C62.01,72.784,67.4892,54.258,72.3833,35.6862H76.17c3.57,18.5344,7.7331,37.0677,12.4257,55.35H83.5876C82.2483,85.2428,81.5988,82.3459,80.3423,76.5522ZM67.0161,70.584H79.0713c-2.18-10.3554-3.2032-15.5334-5.1165-25.8884C71.3124,55.0506,69.9247,60.2287,67.0161,70.584Z"/><path class="cls-42" d="M106.3527,68.6456H98.0582c.1592,8.9563.2406,13.4346.3989,22.3906H93.5505q-.216-27.675-.4308-55.35h10.8647a10.2556,10.2556,0,0,1,8.7043,4.2573c2.1169,2.8389,3.3925,6.97,3.7639,12.393a20.2455,20.2455,0,0,1-1.1743,9.01,11.55,11.55,0,0,1-4.63,5.74c3.7371,9.3959,5.6066,14.1106,9.6061,23.52.0121.1824.0181.2736.03.4559-2.0394-.0108-3.0643-.0152-5.131-.0206C111.4945,82.0821,109.7369,77.6019,106.3527,68.6456Zm-8.4-5.9691h7.0623a6.0541,6.0541,0,0,0,5.3225-2.8173,12.1887,12.1887,0,0,0,1.6345-7.5414c-.1768-3.428-.9309-6.0549-2.2415-7.8831a6.4089,6.4089,0,0,0-5.4353-2.7806H97.5774C97.7275,50.0627,97.8019,54.2672,97.9523,62.6765Z"/><path class="cls-43" d="M132.6379,65.3024c-1.4788,2.8179-2.2518,4.2311-3.8022,7.0528.454,7.5147.572,11.2934,1.2025,18.7733-1.878-.0147-2.817-.0219-4.7023-.0352-.9531-18.4743-2.3126-37.0022-4.1816-55.4071h4.0764c.8978,10.9478,2.03,16.422,2.9467,27.3711,5.2835-10.9491,6.56-16.4233,10.86-27.3711h5.1206C140.2988,45.4631,139.39,50.3517,135.17,60.13c7.41,12.363,9.8143,18.76,17.7225,31.1221-2.338,0-3.4936-.0026-5.7891-.0109C140.7575,80.9212,138.4543,75.6178,132.6379,65.3024Z"/></g><g class="cls-44"><g class="cls-45"><path class="cls-46" d="M6.818,186.0045c57.2494,30.3793,118.9571,30.3628,176.1768,0"/><path class="cls-46" d="M2.3812,193.89c60.133,31.9094,124.9487,31.8922,185.0506,0"/><path class="cls-46" d="M-2.0323,201.788c62.9014,33.5263,130.9636,33.5322,193.8774,0"/><path class="cls-46" d="M-5.5012,210.229c65.027,34.38,135.7971,34.375,200.8151,0"/><path class="cls-46" d="M-8.62,218.8608c67.1369,34.9455,139.9251,34.94,207.0528,0"/><path class="cls-46" d="M-10.7951,228.0012c68.5259,34.8955,142.8674,34.9,211.4027,0"/><path class="cls-46" d="M-13.2038,236.9879c70.2073,35.0005,146.0037,35.0046,216.22,0"/></g></g></g></g></svg>