<svg xmlns="http://www.w3.org/2000/svg" viewBox="0 0 233.44 327.99"><defs><style>.cls-1{fill:#3d2c22;}.cls-2{fill:#c7b299;}.cls-3{fill:#634237;}.cls-3,.cls-5{opacity:0.72;}.cls-4,.cls-5{fill:#31261a;}</style></defs><g id="workspace"><g id="expressoments"><path class="cls-1" d="M20.9,27.07c-5.47-.24-8.19-.4-13.58-.86.2,4.8.34,7.2.67,11.59,6.24.79,9.43,1,15.84,1.34.17,2.84.26,4.22.47,6.83a124.54,124.54,0,0,1-22.51-3A257,257,0,0,1,.25,1.42c9.16,0,13.74.1,22.91.26C23.07,4.45,23,5.91,23,8.87c-6.39-.18-9.57-.28-15.92-.52C7,12.44,7,14.61,7.11,18.91c5.41.37,8.14.51,13.61.72C20.77,22.61,20.81,24.11,20.9,27.07Z"/><path class="cls-1" d="M45.88,35.3a5.68,5.68,0,0,0-1.61-4,18.85,18.85,0,0,0-5.3-3A31.54,31.54,0,0,1,33,25a13.77,13.77,0,0,1-6.12-11.56A12.56,12.56,0,0,1,28.44,7,10.56,10.56,0,0,1,33,2.79a14,14,0,0,1,6.6-1.39,12.88,12.88,0,0,1,6.54,1.79,12,12,0,0,1,4.51,4.9,16.21,16.21,0,0,1,1.74,7.23l-7.15-.12a7.36,7.36,0,0,0-1.57-4.85,5.45,5.45,0,0,0-4.22-1.79,5.39,5.39,0,0,0-4,1.33A4.92,4.92,0,0,0,34,13.66a5,5,0,0,0,1.76,3.77,17.42,17.42,0,0,0,5.09,2.93C45,22.05,48,24.07,49.94,26.45a14.49,14.49,0,0,1,3.15,8.79c.17,3.86-.81,6.82-3,8.91s-5.17,3.08-9,3a16.09,16.09,0,0,1-7.42-1.9,13.5,13.5,0,0,1-5.33-5,16,16,0,0,1-2.11-7.57c2.87.1,4.31.13,7.2.19.21,5,2.65,7.38,7.25,7.42A5.4,5.4,0,0,0,44.62,39,4.52,4.52,0,0,0,45.88,35.3Z"/><path class="cls-1" d="M64.91,31.33c.24,6.31.38,9.45.66,15.54-2.81-.06-4.23-.08-7.07-.11Q57.42,24.53,57,2.3c5.35.08,8,.12,13.37.16a12.85,12.85,0,0,1,6.84,1.88,12.43,12.43,0,0,1,4.63,5.32,19.07,19.07,0,0,1,1.76,7.85c.11,4.44-.94,7.91-3.12,10.38s-5.28,3.61-9.34,3.53C68.64,31.37,67.4,31.35,64.91,31.33Zm-.27-7.49c2.54,0,3.81.05,6.34.1a5.1,5.1,0,0,0,4.22-1.63,7.17,7.17,0,0,0,1.32-4.91A9.13,9.13,0,0,0,74.88,12a5.22,5.22,0,0,0-4.16-2.16l-6.5-.11C64.36,15.36,64.44,18.2,64.64,23.84Z"/><path class="cls-1" d="M101.06,31.74l-5.5-.12c.1,6.72.15,10.08.26,16.81-2.73-.11-4.09-.18-6.82-.33q-.47-22.8-.94-45.6h12.71q6.08,0,9.38,3.66c2.2,2.44,3.29,5.89,3.31,10.35a18.57,18.57,0,0,1-1.48,7.9,11.57,11.57,0,0,1-4.49,5c3,7.59,4.41,11.39,7.29,19v.44c-2.93,0-4.39,0-7.32-.08C104.93,42,103.65,38.54,101.06,31.74ZM95.44,24c2.24.05,3.36.07,5.6.1a4.75,4.75,0,0,0,4-1.78,7.93,7.93,0,0,0,1.4-5,8.67,8.67,0,0,0-1.41-5.15,4.92,4.92,0,0,0-4.21-1.89l-5.63,0C95.31,15.69,95.36,18.44,95.44,24Z"/><path class="cls-1" d="M139,28.51c-5.31.12-8,.17-13.28.22,0,5,0,7.44-.08,12.39,6.18-.09,9.27-.17,15.45-.41,0,3-.08,4.55-.13,7.58-8.88.42-13.32.53-22.2.56q0-23.16.07-46.34h22.9c-.06,3.05-.08,4.58-.14,7.64-6.3,0-9.45.07-15.76.09,0,4.41,0,6.61-.07,11,5.35,0,8-.07,13.36-.16Z"/><path class="cls-1" d="M162.45,35.21a5,5,0,0,0-1.23-3.9,15.25,15.25,0,0,0-4.88-2.7,27.3,27.3,0,0,1-5.61-2.86,12.55,12.55,0,0,1-5.49-11.13A13.93,13.93,0,0,1,146.93,8a11.54,11.54,0,0,1,4.58-4.53,13.6,13.6,0,0,1,6.62-1.61A12.17,12.17,0,0,1,164.6,3.6a10.85,10.85,0,0,1,4.26,4.79,14.69,14.69,0,0,1,1.29,7l-7,.2a6.71,6.71,0,0,0-1.3-4.71,5,5,0,0,0-4.09-1.65,5.56,5.56,0,0,0-4,1.49,5.35,5.35,0,0,0-1.53,3.82,4.51,4.51,0,0,0,1.57,3.65,15.11,15.11,0,0,0,4.8,2.64c3.9,1.45,6.71,3.25,8.42,5.45a12.41,12.41,0,0,1,2.34,8.39,13.66,13.66,0,0,1-3.62,9.2,13.29,13.29,0,0,1-8.85,4,12,12,0,0,1-6.9-1.41,11,11,0,0,1-4.67-5,16.67,16.67,0,0,1-1.5-7.7c2.76-.1,4.14-.16,6.91-.28-.13,5,2,7.38,6.38,7.08A5.69,5.69,0,0,0,161,39,5.4,5.4,0,0,0,162.45,35.21Z"/><path class="cls-1" d="M191.23,32.74a4.15,4.15,0,0,0-1.13-3.56,14.55,14.55,0,0,0-4.79-2.32,25.34,25.34,0,0,1-5.53-2.5A11,11,0,0,1,174.55,14a13.06,13.06,0,0,1,1.84-6.27,11.47,11.47,0,0,1,4.69-4.3,14.46,14.46,0,0,1,6.65-1.52,12.78,12.78,0,0,1,6.44,1.59,10,10,0,0,1,4.13,4.38,12.21,12.21,0,0,1,1.1,6.41l-7,.31a5.67,5.67,0,0,0-1.19-4.34,5,5,0,0,0-4-1.49,6,6,0,0,0-4.06,1.43,5.12,5.12,0,0,0-1.62,3.61,3.93,3.93,0,0,0,1.48,3.4,14.3,14.3,0,0,0,4.73,2.35c3.86,1.25,6.6,2.84,8.25,4.8a10.16,10.16,0,0,1,2.11,7.59,13.18,13.18,0,0,1-3.83,8.62,15.09,15.09,0,0,1-8.9,4.27,12,12,0,0,1-6.82-.9A9.5,9.5,0,0,1,174,39.45a14.72,14.72,0,0,1-1.32-7.24c2.76-.2,4.14-.31,6.9-.54-.25,4.7,1.82,6.84,6.18,6.34a6.52,6.52,0,0,0,3.87-1.68A5.23,5.23,0,0,0,191.23,32.74Z"/><path class="cls-1" d="M230.83,20.18A26.39,26.39,0,0,1,228,29.31a22.28,22.28,0,0,1-5.63,6.92,17,17,0,0,1-7.51,3.64,9.79,9.79,0,0,1-7.05-.91,10.34,10.34,0,0,1-4.41-5.85,24.83,24.83,0,0,1-1-9.84l.15-1.95A28.84,28.84,0,0,1,205.14,11a16.59,16.59,0,0,1,5.69-6.81,13.75,13.75,0,0,1,7.81-2.3A12.84,12.84,0,0,1,226,4a11.45,11.45,0,0,1,4.39,5.89,19,19,0,0,1,.64,8.76Zm-6.77-.83c.43-3.73.12-6.51-.93-8.41A5.22,5.22,0,0,0,218,8.18a6.93,6.93,0,0,0-5.72,3.23c-1.46,2.1-2.37,5.16-2.74,9.15-.07.74-.1,1.12-.17,1.86-.35,3.92,0,6.88,1,8.85a4.38,4.38,0,0,0,5,2.36A8.23,8.23,0,0,0,221,29.82a19.74,19.74,0,0,0,2.83-8.74Z"/><path class="cls-2" d="M12.61,49.7c4.61,12.47,11.77,23.35,19.25,34.24-2.59-11.17-.68-21.58,1.5-32.56,4.42.45,6.63.69,11.06,1.13.7,16.64,5,33.32,11,48.76-2.69-.85-4-1.3-6.69-2.25a95.72,95.72,0,0,1-5.31-12.1,99.19,99.19,0,0,1-5.34-22.83C37.38,75,36.52,85.64,40.76,96c-1.8-.73-2.7-1.1-4.49-1.86C26.69,83.59,17.81,72.87,10.76,60.41c2.4,8.29,4.53,12.79,9.71,20.39a48.13,48.13,0,0,0,8,9.82c-2.57-1.22-3.85-1.86-6.39-3.17C11.19,76.65,2.63,65.55,2,49.49,6.17,49.44,8.3,49.5,12.61,49.7Z"/><path class="cls-2" d="M78.74,96.52c-5.19-.59-7.8-1-13-1.88-.13,4-.14,5.91,0,9.61-2.88-.75-4.32-1.16-7.18-2C57.37,85.84,60.14,70,63.4,54c3.06.15,4.58.21,7.6.24C77.79,72.37,84,90.49,89.58,109c-2.93-.4-4.39-.64-7.31-1.15C80.92,103.28,80.22,101,78.74,96.52ZM66.23,86.44c3.78.5,5.68.71,9.45,1-2.83-8.09-4.35-12.11-7.21-20.09C67.32,75.12,66.81,79,66.23,86.44Z"/><path class="cls-2" d="M104.62,89.69c-2.33-.06-3.5-.1-5.83-.2.32,8.27.49,12.41.81,20.68-2.76-.24-4.14-.39-6.9-.73Q91,81.66,89.32,53.89l14.52-.39c4.62-.12,8.21,1.3,10.67,4.28s3.63,7.26,3.56,12.83a26.75,26.75,0,0,1-1.74,9.89,14.35,14.35,0,0,1-4.87,6.3c3.15,9.43,4.62,14.18,7.38,23.62,0,.23,0,.34,0,.56-3,0-4.46,0-7.43-.09C108.84,102.38,107.49,98.12,104.62,89.69Zm-6.21-9.63c2.43.06,3.64.08,6.07.11a4.88,4.88,0,0,0,4.36-2.24,10.85,10.85,0,0,0,1.52-6.26,11.52,11.52,0,0,0-1.57-6.38A5.21,5.21,0,0,0,104.06,63l-6.32.08C98,69.89,98.15,73.28,98.41,80.06Z"/><path class="cls-2" d="M151.8,61.56c-5,.4-7.25.41-11.93.58q-1.63,24-3.26,47.94c-2.75.26-4.13.37-6.89.54Q130.86,86.51,132,62.4c-4.61.15-6.92.21-11.54.32.08-3.86.11-5.8.18-9.66,10.64-.29,21.28-.54,31.92-.87C152.28,55.93,152.12,57.8,151.8,61.56Z"/><path class="cls-2" d="M159.59,105.22c-3.27,1.12-4.87,1.61-7.94,2.41,2.74-18.55,4.88-37,6.24-55.74,3.42-.23,5.17-.37,8.71-.69A378.07,378.07,0,0,1,159.59,105.22Z"/><path class="cls-2" d="M200,86.37c-3,1.71-4.61,2.58-7.85,4.3-.28-8.31-2.72-13.88-8.71-25.12a228.82,228.82,0,0,1-7.62,33.16c-3.42,1.54-5.14,2.28-8.52,3.63,4.22-17,7.83-34.3,7.57-51.94,3.62-.37,5.44-.57,9.09-1,5.53,8.2,11.4,16.4,14.65,25.85,2.93-8.21,4.58-19,3.1-27.73,3.59-.35,5.38-.51,8.88-.79C213.3,61.4,206.7,73.94,200,86.37Z"/><path class="cls-2" d="M213.21,78.46c-2.37,1.52-3.67,2.32-6.42,4C213.9,71.59,221.88,60,218.7,46.22c3.4-.18,5.06-.24,8.29-.28C230.47,58.73,220.56,69.48,213.21,78.46Z"/><g id="bean"><path class="cls-1" d="M203.07,16.87c4.19-12.2,13.68-19,21.56-16.28s11.17,13.9,7,26.1-13.34,18-21.22,15.29S198.87,29.07,203.07,16.87Z"/><path class="cls-3" d="M219.19,20.87C220.25,10.53,220,2,221.11,2.16s1.9,8.66.84,19-3.58,18.54-4.68,18.42S218.13,31.2,219.19,20.87Z"/></g><g id="bean-2" data-name="bean"><path class="cls-4" d="M115.43,117c-4.58,4.91-5.39,10.93-2.22,13.89s9.13,1.74,13.71-3.17,5-10.53,1.84-13.49S120,112.05,115.43,117Z"/><path class="cls-5" d="M121.21,123.4c-4.49,3-8.46,5-8.13,5.45s4.44-1.24,8.93-4.26,7.65-6.17,7.33-6.65S125.7,120.38,121.21,123.4Z"/></g><g id="bean-3" data-name="bean"><path class="cls-4" d="M103,123.29c3.35,4.17,8,5.48,10.69,3.32s2.4-7-1-11.16-7.73-5.14-10.42-3S99.6,119.13,103,123.29Z"/><path class="cls-5" d="M108.67,119.47c1.87,3.88,3,7.22,3.38,7s-.48-3.64-2.34-7.52-4-6.72-4.42-6.52S106.81,115.59,108.67,119.47Z"/></g><g id="bean-4" data-name="bean"><path class="cls-4" d="M108.7,140.86c3.35,4.17,8,5.48,10.69,3.32s2.41-7-.94-11.16-7.73-5.14-10.42-3S105.35,136.7,108.7,140.86Z"/><path class="cls-5" d="M114.43,137c1.86,3.88,3,7.22,3.37,7s-.47-3.64-2.34-7.52-4-6.72-4.41-6.52S112.56,133.16,114.43,137Z"/></g><g id="bean-5" data-name="bean"><path class="cls-4" d="M111.76,146c-2.33,4.82-1.52,9.58,1.59,11.08s7.35-.82,9.67-5.64,1.33-9.18-1.78-10.69S114.08,141.16,111.76,146Z"/><path class="cls-5" d="M117.67,149.5c-2.7,3.35-5.25,5.78-4.89,6.07s3.08-2,5.78-5.35,4.36-6.49,4-6.78S120.37,146.15,117.67,149.5Z"/></g><g id="bean-6" data-name="bean"><path class="cls-4" d="M112.84,165.34c3.68,2.13,7.52,1.77,8.89-.61s-.22-5.89-3.91-8-7.22-1.59-8.6.79S109.15,163.21,112.84,165.34Z"/><path class="cls-5" d="M116,160.85c2.5,2.35,4.28,4.51,4.53,4.25s-1.4-2.57-3.91-4.92-4.9-3.84-5.15-3.57S113.49,158.51,116,160.85Z"/></g><g id="bean-7" data-name="bean"><path class="cls-4" d="M114.06,166.07c-3.87,1.77-5.8,5.1-4.66,7.61s4.92,3.23,8.8,1.46,5.49-5,4.35-7.46S117.94,164.31,114.06,166.07Z"/><path class="cls-5" d="M115.89,171.25c-3.36.67-6.16.86-6.08,1.22s2.9.35,6.26-.33,6-1.76,5.91-2.12S119.25,170.57,115.89,171.25Z"/></g><g id="bean-8" data-name="bean"><path class="cls-4" d="M108.16,179.91c.78,4.69,3.81,7.74,6.84,7.24s4.91-4.36,4.14-9.05-3.74-7.37-6.78-6.86S107.38,175.22,108.16,179.91Z"/><path class="cls-5" d="M114.27,179.45c-.25,3.82-.86,6.89-.45,6.92s1.22-3,1.47-6.85-.16-7-.57-7S114.52,175.63,114.27,179.45Z"/></g><g id="bean-9" data-name="bean"><path class="cls-4" d="M119.72,190.35c-2.91,2-5.87,2.06-6.87.3s.33-4.65,3.24-6.66,5.64-1.9,6.64-.14S122.63,188.34,119.72,190.35Z"/><path class="cls-5" d="M117.19,186.75c-2,2-3.53,3.79-3.7,3.63s1.23-2,3.27-4,4-3.38,4.13-3.22S119.23,184.75,117.19,186.75Z"/></g><g id="bean-10" data-name="bean"><path class="cls-4" d="M112,200.26c3.46,3.26,7.72,3.85,9.83,1.62s1.27-6.45-2.19-9.71-7.44-3.6-9.54-1.36S108.57,197,112,200.26Z"/><path class="cls-5" d="M116.6,196.19c2.12,3.19,3.49,6,3.83,5.78s-.86-3.15-3-6.34-4.35-5.44-4.69-5.22S114.49,193,116.6,196.19Z"/></g><g id="bean-11" data-name="bean"><path class="cls-4" d="M115.87,208.32c-2.72,2.27-5.65,2.6-6.81,1s-.11-4.67,2.61-6.94,5.43-2.41,6.59-.76S118.58,206.05,115.87,208.32Z"/><path class="cls-5" d="M113,205c-1.84,2.18-3.16,4.1-3.34,4s1-2.13,2.88-4.31,3.63-3.74,3.81-3.59S114.86,202.8,113,205Z"/></g><g id="bean-12" data-name="bean"><path class="cls-4" d="M114.61,214.65c2.26,2.78,5.37,3.64,7.17,2.18s1.58-4.68-.67-7.45-5.19-3.42-7-2S112.36,211.87,114.61,214.65Z"/><path class="cls-5" d="M118.43,212.07c1.26,2.59,2,4.83,2.28,4.69s-.33-2.43-1.59-5-2.7-4.49-3-4.35S117.17,209.48,118.43,212.07Z"/></g><g id="bean-13" data-name="bean"><path class="cls-4" d="M120.11,227.61c-3.29,3.43-7.51,4.23-9.73,2.11s-1.59-6.38,1.7-9.81,7.24-4,9.46-1.84S123.4,224.17,120.11,227.61Z"/><path class="cls-5" d="M115.33,223.77c-2,3.3-3.18,6.18-3.53,6s.7-3.19,2.65-6.49,4.07-5.65,4.42-5.44S117.28,220.48,115.33,223.77Z"/></g><g id="bean-14" data-name="bean"><path class="cls-4" d="M111.68,239.65c3.79,3.42,8.38,3.95,10.59,1.5s1.21-7-2.58-10.38-8.08-3.68-10.29-1.23S107.88,236.22,111.68,239.65Z"/><path class="cls-5" d="M116.5,235.17c2.35,3.38,3.89,6.37,4.25,6.11s-1-3.36-3.35-6.74-4.79-5.74-5.15-5.49S114.15,231.79,116.5,235.17Z"/></g><g id="bean-15" data-name="bean"><path class="cls-4" d="M121.46,254c3.22-4.45,3.27-9.42.39-11.5s-7.57-.49-10.8,4-3,9-.12,11.13S118.24,258.47,121.46,254Z"/><path class="cls-5" d="M116.12,249.39c3.34-2.9,6.36-4.9,6-5.25s-3.48,1.46-6.82,4.36-5.58,5.78-5.27,6.14S112.78,252.29,116.12,249.39Z"/></g><g id="bean-16" data-name="bean"><path class="cls-4" d="M107.41,265.43c-3.1,6-2.25,12,1.6,14s9.25-.77,12.35-6.73,2-11.5-1.85-13.5S110.5,259.46,107.41,265.43Z"/><path class="cls-5" d="M114.7,270.07c-3.51,4.11-6.8,7.07-6.36,7.44s4-2.39,7.46-6.5,5.71-8,5.27-8.38S118.22,266,114.7,270.07Z"/></g><g id="bean-17" data-name="bean"><path class="cls-4" d="M170.53,318c6.67.78,12-2.14,12.5-6.45s-4-8.38-10.67-9.16-11.45,2.2-12,6.51S163.86,317.24,170.53,318Z"/><path class="cls-5" d="M172.29,309.56c5.09,1.83,9,3.86,9.22,3.32s-3.64-2.85-8.73-4.68-9.5-2.51-9.7-2S167.21,307.72,172.29,309.56Z"/></g><g id="bean-18" data-name="bean"><path class="cls-4" d="M123.29,279.88c-4.2-3-8.88-3.07-10.85-.35s-.45,7.15,3.75,10.18,8.54,2.83,10.51.12S127.49,282.92,123.29,279.88Z"/><path class="cls-5" d="M118.92,284.93c-2.74-3.15-4.62-6-5-5.7s1.38,3.28,4.12,6.43,5.46,5.26,5.8,5S121.66,288.08,118.92,284.93Z"/></g><g id="bean-19" data-name="bean"><path class="cls-4" d="M151.37,319.27c3.35,4.17,8,5.48,10.69,3.32s2.4-7-.95-11.16-7.73-5.14-10.42-3S148,315.11,151.37,319.27Z"/><path class="cls-5" d="M157.09,315.45c1.87,3.88,3,7.22,3.38,7s-.48-3.64-2.34-7.52-4-6.72-4.42-6.52S155.23,311.57,157.09,315.45Z"/></g><g id="bean-20" data-name="bean"><path class="cls-4" d="M110.93,297.46c-5.06,3.23-10.47,3-12.56-.3s-.06-8.29,5-11.52,10.06-2.71,12.15.55S116,294.23,110.93,297.46Z"/><path class="cls-5" d="M106.2,291.34c-3.37,3.46-5.73,6.63-6.1,6.27s1.81-3.71,5.18-7.17,6.66-5.72,7-5.36S109.58,287.88,106.2,291.34Z"/></g><g id="bean-21" data-name="bean"><path class="cls-4" d="M108.45,306.45c3.06,1.27,6,.61,6.8-1.37s-.77-4.52-3.83-5.79-5.73-.5-6.55,1.47S105.39,305.18,108.45,306.45Z"/><path class="cls-5" d="M110.43,302.67c2.16,1.56,3.75,3.05,3.92,2.82s-1.34-1.84-3.51-3.4-4.17-2.47-4.34-2.24S108.26,301.11,110.43,302.67Z"/></g><g id="bean-22" data-name="bean"><path class="cls-4" d="M58.89,317c-5.77,1.62-10.88-.22-11.92-4s2.37-7.95,8.14-9.57,10.42.35,11.46,4.09S64.67,315.36,58.89,317Z"/><path class="cls-5" d="M56.17,309.74c-4.24,2.33-7.42,4.66-7.67,4.21s2.81-3,7-5.34,8-3.52,8.28-3.07S60.4,307.42,56.17,309.74Z"/></g><g id="bean-23" data-name="bean"><path class="cls-4" d="M142.31,324.74c-4.25-.22-7.27-2.61-7.13-5.36s3.39-4.81,7.64-4.6,6.93,2.59,6.79,5.34S146.57,325,142.31,324.74Z"/><path class="cls-5" d="M142.11,319.26c-3.37.6-6.05,1.45-6.11,1.09s2.57-1.39,5.95-2,6.21-.55,6.27-.19S145.48,318.65,142.11,319.26Z"/></g><g id="bean-24" data-name="bean"><path class="cls-4" d="M138.59,305.79c-3.11,3.33-3.66,7.4-1.52,9.41s6.18,1.19,9.29-2.13,3.41-7.13,1.27-9.14S141.7,302.47,138.59,305.79Z"/><path class="cls-5" d="M142.5,310.16c-3.05,2-5.74,3.36-5.52,3.69S140,313,143,311s5.19-4.17,5-4.5S145.54,308.12,142.5,310.16Z"/></g><g id="bean-25" data-name="bean"><path class="cls-4" d="M139.1,294.45c-3.66-4.84-8.87-6.48-12-4.12s-3,7.82.69,12.66,8.58,6.08,11.7,3.72S142.75,299.28,139.1,294.45Z"/><path class="cls-5" d="M132.48,298.58c-2-4.46-3.1-8.28-3.58-8.07s.42,4.14,2.39,8.6,4.3,7.75,4.78,7.54S134.46,303,132.48,298.58Z"/></g><g id="bean-26" data-name="bean"><path class="cls-4" d="M150.84,307.27c3.23,1.34,6.31.63,7.17-1.46s-.82-4.76-4-6.1-6.05-.52-6.91,1.57S147.6,305.94,150.84,307.27Z"/><path class="cls-5" d="M152.92,303.28c2.29,1.64,4,3.21,4.14,3s-1.42-1.93-3.71-3.57-4.41-2.6-4.58-2.36S150.62,301.64,152.92,303.28Z"/></g><g id="bean-27" data-name="bean"><path class="cls-4" d="M124.6,316.82c5,2,9.67.8,10.93-2.41s-1.37-7.26-6.34-9.22-9.26-.64-10.53,2.57S119.63,314.86,124.6,316.82Z"/><path class="cls-5" d="M127.68,310.67c3.54,2.44,6.15,4.8,6.41,4.43s-2.21-2.93-5.76-5.38-6.8-3.86-7.06-3.48S124.14,308.22,127.68,310.67Z"/></g><g id="bean-28" data-name="bean"><path class="cls-4" d="M131.77,325.92c-3.15,1.35-6.06.56-6.78-1.64s1-5,4.15-6.33,5.8-.46,6.53,1.74S134.91,324.56,131.77,325.92Z"/><path class="cls-5" d="M130,321.7c-2.26,1.69-3.94,3.31-4.1,3.05s1.45-2,3.71-3.7,4.33-2.66,4.49-2.4S132.23,320,130,321.7Z"/></g><g id="bean-29" data-name="bean"><path class="cls-4" d="M114.3,298.8c.36,4.54,3,7.69,5.93,7.46s5-3.76,4.68-8.29-3-7.33-5.89-7.1S113.94,294.26,114.3,298.8Z"/><path class="cls-5" d="M120.16,298.86c-.55,3.62-1.38,6.5-1,6.56s1.41-2.79,2-6.41.41-6.65,0-6.71S120.71,295.24,120.16,298.86Z"/></g><g id="bean-30" data-name="bean"><path class="cls-4" d="M68.57,321.31c-4.25-.28-7.24-2.71-7.06-5.45s3.46-4.77,7.71-4.49,6.89,2.68,6.71,5.43S72.82,321.59,68.57,321.31Z"/><path class="cls-5" d="M68.44,315.83c-3.38.56-6.06,1.37-6.12,1s2.59-1.36,6-1.92,6.22-.47,6.28-.11S71.82,315.27,68.44,315.83Z"/></g><g id="bean-31" data-name="bean"><path class="cls-4" d="M116.3,326.61c-6.2.7-11-1.61-11.35-5.09s4-6.8,10.18-7.49,10.52,1.68,10.84,5.15S122.49,325.92,116.3,326.61Z"/><path class="cls-5" d="M115,319.8c-4.76,1.52-8.47,3.19-8.63,2.76s3.46-2.33,8.23-3.86,8.87-2.1,9-1.67S119.72,318.27,115,319.8Z"/></g><g id="bean-32" data-name="bean"><path class="cls-4" d="M113.54,315.63c-4,1.54-7.67.61-8.66-1.95s1.11-5.75,5.06-7.29,7.35-.48,8.34,2.08S117.49,314.1,113.54,315.63Z"/><path class="cls-5" d="M111.12,310.74c-2.82,1.93-4.9,3.79-5.11,3.49s1.77-2.31,4.59-4.24,5.41-3,5.62-2.74S113.93,308.81,111.12,310.74Z"/></g><g id="bean-33" data-name="bean"><path class="cls-4" d="M90.77,306.32c5.17-.39,8.77-3.39,8.52-6.73s-4.27-5.75-9.44-5.36-8.35,3.36-8.1,6.7S85.6,306.72,90.77,306.32Z"/><path class="cls-5" d="M90.85,299.65c4.13.63,7.4,1.59,7.47,1.15s-3.17-1.62-7.3-2.25-7.57-.49-7.63-.05S86.73,299,90.85,299.65Z"/></g><g id="bean-34" data-name="bean"><path class="cls-4" d="M100.25,311.29c3.9-.3,6.61-2.6,6.42-5.16s-3.22-4.41-7.12-4.11-6.29,2.58-6.1,5.14S96.35,311.59,100.25,311.29Z"/><path class="cls-5" d="M100.31,306.17c3.11.49,5.58,1.23,5.63.89s-2.39-1.24-5.5-1.73-5.71-.38-5.76,0S97.2,305.69,100.31,306.17Z"/></g><g id="bean-35" data-name="bean"><path class="cls-4" d="M80.3,313.24c3.9-.3,6.61-2.6,6.42-5.16s-3.22-4.41-7.11-4.11-6.3,2.58-6.11,5.13S76.4,313.54,80.3,313.24Z"/><path class="cls-5" d="M80.36,308.12c3.11.49,5.58,1.22,5.63.89s-2.39-1.24-5.5-1.73-5.71-.38-5.76,0S77.25,307.64,80.36,308.12Z"/></g><g id="bean-36" data-name="bean"><path class="cls-4" d="M91.85,324.38c6.39,2.09,12.19.28,13.53-3.85s-2.26-9-8.65-11.09-11.66-.11-13,4S85.47,322.3,91.85,324.38Z"/><path class="cls-5" d="M95.25,316.43c4.63,2.8,8.08,5.57,8.38,5.07s-3-3.5-7.63-6.31-8.82-4.33-9.12-3.84S90.63,313.63,95.25,316.43Z"/></g><g id="bean-37" data-name="bean"><path class="cls-4" d="M73.23,308.89c2.32-2.36,2.8-5.32,1.27-6.82s-4.48-1-6.8,1.38-2.61,5.13-1.08,6.64S70.91,311.25,73.23,308.89Z"/><path class="cls-5" d="M70.46,305.64c2.26-1.43,4.24-2.35,4.08-2.59s-2.2.56-4.46,2-3.85,2.95-3.7,3.19S68.21,307.07,70.46,305.64Z"/></g><g id="bean-38" data-name="bean"><path class="cls-4" d="M82.11,320.67c2.32-2.36,2.8-5.32,1.27-6.82s-4.48-1-6.8,1.39-2.61,5.13-1.08,6.63S79.79,323,82.11,320.67Z"/><path class="cls-5" d="M79.34,317.42c2.26-1.43,4.24-2.34,4.08-2.58s-2.2.55-4.46,2-3.85,2.95-3.7,3.19S77.09,318.85,79.34,317.42Z"/></g><g id="bean-39" data-name="bean"><path class="cls-1" d="M126.91,124.54c-3.35,4.17-8,5.48-10.69,3.32s-2.41-7,.94-11.15,7.73-5.15,10.42-3S130.26,120.38,126.91,124.54Z"/><path class="cls-3" d="M121.18,120.72c-1.86,3.88-3,7.22-3.37,7s.47-3.64,2.34-7.52,4-6.72,4.41-6.52S123.05,116.84,121.18,120.72Z"/></g><g id="bean-40" data-name="bean"><path class="cls-1" d="M118.1,147.22c2.32,4.82,1.51,9.58-1.6,11.08s-7.34-.82-9.66-5.64-1.33-9.18,1.78-10.69S115.77,142.41,118.1,147.22Z"/><path class="cls-3" d="M112.19,150.75c2.7,3.35,5.25,5.78,4.89,6.07s-3.08-2-5.79-5.35-4.35-6.49-4-6.78S109.48,147.4,112.19,150.75Z"/></g><g id="bean-41" data-name="bean"><path class="cls-1" d="M115.79,167.33c3.88,1.76,5.8,5.09,4.66,7.6s-4.92,3.23-8.79,1.46-5.49-4.95-4.35-7.46S111.92,165.56,115.79,167.33Z"/><path class="cls-3" d="M114,172.5c3.37.67,6.16.86,6.09,1.22s-2.91.35-6.27-.33-6-1.76-5.9-2.12S110.6,171.82,114,172.5Z"/></g><g id="bean-42" data-name="bean"><path class="cls-1" d="M121.7,181.16c-.78,4.69-3.81,7.74-6.84,7.24s-4.92-4.36-4.14-9.05,3.74-7.37,6.77-6.86S122.47,176.47,121.7,181.16Z"/><path class="cls-3" d="M115.59,180.7c.25,3.82.86,6.89.45,6.92s-1.22-3-1.47-6.85.16-7,.57-7S115.34,176.88,115.59,180.7Z"/></g><g id="bean-43" data-name="bean"><path class="cls-1" d="M110.14,191.6c2.91,2,5.87,2.06,6.87.31s-.34-4.66-3.25-6.67-5.63-1.9-6.63-.14S107.23,189.59,110.14,191.6Z"/><path class="cls-3" d="M112.67,188c2,2,3.53,3.78,3.7,3.62s-1.23-2-3.28-4-4-3.38-4.13-3.22S110.62,186,112.67,188Z"/></g><g id="bean-44" data-name="bean"><path class="cls-1" d="M115.24,215.9c-2.25,2.78-5.37,3.64-7.16,2.18s-1.59-4.68.67-7.45,5.19-3.42,7-2S117.5,213.12,115.24,215.9Z"/><path class="cls-3" d="M111.43,213.32c-1.26,2.59-2,4.83-2.29,4.69s.33-2.43,1.6-5,2.69-4.49,3-4.35S112.69,210.74,111.43,213.32Z"/></g><g id="bean-45" data-name="bean"><path class="cls-1" d="M109.75,228.86c3.29,3.43,7.51,4.23,9.73,2.11s1.59-6.38-1.7-9.81-7.25-4-9.47-1.84S106.46,225.42,109.75,228.86Z"/><path class="cls-3" d="M114.52,225c2,3.29,3.19,6.17,3.54,6s-.7-3.19-2.66-6.49-4.06-5.65-4.41-5.44S112.57,221.73,114.52,225Z"/></g><g id="bean-46" data-name="bean"><path class="cls-1" d="M108.39,255.28c-3.22-4.45-3.26-9.42-.39-11.5s7.58-.49,10.8,4,3,9.05.13,11.13S111.61,259.72,108.39,255.28Z"/><path class="cls-3" d="M113.73,250.64c-3.34-2.9-6.35-4.89-6-5.25s3.48,1.46,6.82,4.36,5.58,5.78,5.27,6.14S117.07,253.54,113.73,250.64Z"/></g><g id="bean-47" data-name="bean"><path class="cls-1" d="M59.32,319.28c-6.67.78-12-2.14-12.5-6.45s4-8.38,10.67-9.16,11.46,2.2,12,6.51S66,318.49,59.32,319.28Z"/><path class="cls-3" d="M57.56,310.81c-5.09,1.83-9,3.86-9.21,3.32s3.63-2.85,8.72-4.68,9.51-2.51,9.7-2S62.65,309,57.56,310.81Z"/></g><g id="bean-48" data-name="bean"><path class="cls-1" d="M106.56,281.14c4.2-3,8.89-3.08,10.85-.36s.46,7.15-3.74,10.18-8.55,2.83-10.51.12S102.36,284.17,106.56,281.14Z"/><path class="cls-3" d="M110.94,286.18c2.73-3.15,4.62-6,5-5.7s-1.38,3.28-4.11,6.43-5.47,5.26-5.8,5S108.2,289.33,110.94,286.18Z"/></g><g id="bean-49" data-name="bean"><path class="cls-1" d="M121.41,307.7c-3.06,1.27-6,.61-6.8-1.37s.76-4.52,3.82-5.79,5.74-.5,6.56,1.47S124.47,306.43,121.41,307.7Z"/><path class="cls-3" d="M119.43,303.92c-2.17,1.56-3.76,3.05-3.92,2.82s1.34-1.84,3.5-3.4,4.18-2.47,4.34-2.24S121.6,302.36,119.43,303.92Z"/></g><g id="bean-50" data-name="bean"><path class="cls-1" d="M171,318.22c5.78,1.62,10.88-.22,11.93-4s-2.37-7.95-8.15-9.57-10.41.36-11.46,4.09S165.18,316.61,171,318.22Z"/><path class="cls-3" d="M173.69,311c4.24,2.33,7.42,4.66,7.67,4.21s-2.81-3-7.05-5.34-8-3.52-8.29-3.07S169.45,308.67,173.69,311Z"/></g><g id="bean-51" data-name="bean"><path class="cls-1" d="M79,308.52c-3.23,1.34-6.31.63-7.17-1.46s.81-4.76,4.05-6.1,6-.52,6.91,1.57S82.25,307.19,79,308.52Z"/><path class="cls-3" d="M76.94,304.53c-2.29,1.64-4,3.21-4.15,3s1.42-1.94,3.71-3.58,4.41-2.6,4.59-2.36S79.23,302.89,76.94,304.53Z"/></g><g id="bean-52" data-name="bean"><path class="cls-1" d="M105.25,318.08c-5,1.95-9.66.79-10.93-2.42s1.37-7.26,6.35-9.22,9.26-.64,10.52,2.57S110.23,316.12,105.25,318.08Z"/><path class="cls-3" d="M102.17,311.92c-3.54,2.44-6.15,4.81-6.41,4.43s2.22-2.93,5.76-5.38,6.8-3.86,7.07-3.48S105.72,309.47,102.17,311.92Z"/></g><g id="bean-53" data-name="bean"><path class="cls-1" d="M113.56,327.87c6.2.69,11-1.62,11.34-5.09s-4-6.8-10.18-7.5-10.52,1.68-10.84,5.15S107.36,327.17,113.56,327.87Z"/><path class="cls-3" d="M114.9,321.05c4.77,1.52,8.47,3.19,8.63,2.76s-3.45-2.33-8.22-3.86-8.88-2.1-9-1.67S110.13,319.52,114.9,321.05Z"/></g><g id="bean-54" data-name="bean"><path class="cls-1" d="M139.08,307.57c-5.16-.39-8.77-3.39-8.51-6.73s4.27-5.75,9.43-5.36,8.36,3.36,8.1,6.7S144.25,308,139.08,307.57Z"/><path class="cls-3" d="M139,300.9c-4.12.63-7.4,1.59-7.47,1.15s3.18-1.62,7.3-2.25,7.57-.49,7.64-.05S143.13,300.26,139,300.9Z"/></g><g id="bean-55" data-name="bean"><path class="cls-1" d="M149.56,314.49c-3.9-.3-6.61-2.6-6.42-5.16s3.21-4.41,7.11-4.11,6.3,2.58,6.11,5.13S153.45,314.79,149.56,314.49Z"/><path class="cls-3" d="M149.49,309.37c-3.1.49-5.57,1.22-5.63.89s2.4-1.24,5.51-1.73,5.7-.38,5.76,0S152.6,308.89,149.49,309.37Z"/></g><g id="bean-56" data-name="bean"><path class="cls-1" d="M138,325.63c-6.38,2.09-12.18.28-13.53-3.84s2.27-9,8.65-11.1,11.67-.1,13,4S144.39,323.55,138,325.63Z"/><path class="cls-3" d="M134.6,317.68c-4.62,2.8-8.07,5.57-8.37,5.07s3-3.5,7.62-6.31,8.83-4.33,9.13-3.83S139.23,314.88,134.6,317.68Z"/></g></g></g></svg>