<svg xmlns="http://www.w3.org/2000/svg" xmlns:xlink="http://www.w3.org/1999/xlink" viewBox="0 0 209.89 353.43"><defs><style>.cls-1{opacity:0.76;}.cls-2{fill:url(#linear-gradient);}.cls-3{fill:#b8c9e8;opacity:0.78;}.cls-4{opacity:0.96;}.cls-5{fill:#fffb73;}.cls-6{fill:#ffff93;}.cls-7{opacity:0.87;}.cls-10,.cls-12,.cls-17,.cls-19,.cls-20,.cls-23,.cls-24,.cls-25,.cls-26,.cls-27,.cls-28,.cls-36,.cls-8,.cls-9{fill:#fff;}.cls-8{opacity:0.72;}.cls-9{opacity:0.75;}.cls-10{opacity:0.77;}.cls-11,.cls-18{fill:#98bfe6;}.cls-11{opacity:0.66;}.cls-12{opacity:0.19;}.cls-13{fill:none;}.cls-14{fill:#ffde5b;}.cls-15{fill:#fbf9df;}.cls-16{fill:#fbef83;}.cls-17{opacity:0.42;}.cls-18,.cls-28{opacity:0.57;}.cls-19{opacity:0.27;}.cls-20{stroke:#ffffeb;stroke-width:0.5px;}.cls-20,.cls-22{stroke-miterlimit:10;}.cls-21{fill:#fffffb;}.cls-22{fill:#fff367;stroke:#ffff2c;stroke-width:0.75px;opacity:0.63;}.cls-23{opacity:0.26;}.cls-24{opacity:0.39;}.cls-25{opacity:0.44;}.cls-26{opacity:0.47;}.cls-27{opacity:0.29;}.cls-29{opacity:0.9;}.cls-30{fill:#ffffeb;}.cls-31{fill:#fffff3;opacity:0.98;}.cls-32{opacity:0.16;}.cls-33{fill:#ffe961;}.cls-34{opacity:0.09;}.cls-35{opacity:0.17;}.cls-36{opacity:0.47;}</style><linearGradient id="linear-gradient" x1="33.07" y1="342.02" x2="187.09" y2="342.02" gradientUnits="userSpaceOnUse"><stop offset="0.01" stop-color="#b9d0ed"/><stop offset="0.07" stop-color="#cedef2"/><stop offset="0.15" stop-color="#e4edf8"/><stop offset="0.24" stop-color="#f3f7fc"/><stop offset="0.35" stop-color="#fcfdfe"/><stop offset="0.5" stop-color="#fff"/><stop offset="0.65" stop-color="#fcfdfe"/><stop offset="0.76" stop-color="#f3f7fc"/><stop offset="0.85" stop-color="#e3ecf8"/><stop offset="0.94" stop-color="#ccddf2"/><stop offset="1" stop-color="#b9d0ed"/></linearGradient></defs><g id="finished"><g id="freshmeup"><g id="glass" class="cls-1"><rect id="glassbottom" class="cls-2" x="33.07" y="331.17" width="154.02" height="21.71"/><rect id="glass-2" data-name="glass" class="cls-3" x="33.07" y="165.37" width="154.02" height="165.8"/></g><g id="drink" class="cls-4"><path class="cls-5" d="M166,328.6H54.2a14.9,14.9,0,0,1-14.74-15.06V275.18s53-4.29,70.62-4.29,70.62,4.29,70.62,4.29v38.36A14.9,14.9,0,0,1,166,328.6Z"/><path class="cls-5" d="M180.7,289.9s-53-5.69-70.62-5.69-70.62,5.69-70.62,5.69V231s53-4.74,70.62-4.74S180.7,231,180.7,231Z"/><path class="cls-6" d="M180.7,236.46s-53-4.48-70.62-4.48-70.62,4.48-70.62,4.48V190.13H180.7Z"/></g><g id="ice" class="cls-7"><path class="cls-8" d="M156.44,324.47l-22.39-1.39c-12.06-.69-11.94-5.92-11.48-12.27l1.49-20.94c.45-6.35-1.52-13.23,13.12-10.74l22.39,1.4c6.79.42,11.93,5.92,11.48,12.27l-1.49,20.94C168,324.5,163.23,324.9,156.44,324.47Z"/><path class="cls-9" d="M90.52,277.6l18.18,12.3c5.52,3.74,11,5,2.76,16.1L98.31,323a12.89,12.89,0,0,1-17.22,2.58l-18.18-12.3c-10.85-7.58-6.75-10.94-2.76-16.1l13.16-17A12.89,12.89,0,0,1,90.52,277.6Z"/><path class="cls-10" d="M131.51,252l9.59,19c2.91,5.76.27,12.63-5.88,15.35l-20.29,9c-6.16,2.72-13.51.26-16.41-5.5l-9.59-19c-2.91-5.75-.28-12.62,5.88-15.34l20.29-9C127.35,239.23,127.35,245.42,131.51,252Z"/></g><circle class="cls-11" cx="145.96" cy="124.53" r="27.11"/><circle class="cls-12" cx="149.59" cy="120.42" r="23.45"/><g id="citrus"><path class="cls-13" d="M133.31,141a20.55,20.55,0,0,0,7.26,2.11A24.28,24.28,0,0,1,133.31,141Z"/><path class="cls-13" d="M165.13,131.06l-.35.58Z"/><path class="cls-13" d="M164.57,132l0,0Z"/><path class="cls-13" d="M166.14,107.61l-.37.14a22.36,22.36,0,0,1,1.35,3.1A26.77,26.77,0,0,0,166.14,107.61Z"/><path class="cls-13" d="M120.05,126.16h0l.06.15Z"/><path class="cls-14" d="M164.85,128.54c-5.91,11.72-20.54,16.48-32.67,10.63a24.43,24.43,0,0,1-9-7.36A27.89,27.89,0,0,0,133.31,141a24.28,24.28,0,0,0,7.26,2.11,25.51,25.51,0,0,0,12.17-2c5.75-2.31,9.46-5.56,11.8-9.12l0,0,.21-.34.35-.58c4.24-7.31,3.1-15.71,2-20.21a22.36,22.36,0,0,0-1.35-3.1l-.76.31A23,23,0,0,1,164.85,128.54Z"/><path class="cls-15" d="M123.2,131.81a24.43,24.43,0,0,0,9,7.36c12.13,5.85,26.76,1.09,32.67-10.63a23,23,0,0,0,.16-20.48L123.2,124.89l-1.14.5,0,0-2,.8.06.15A32.76,32.76,0,0,0,123.2,131.81Zm41.21-23.34s1.33,2.71,1.77,9.49c.37,5.66-3.41,10.62-3.41,10.62L144.52,117Zm-2,21.35s-2,5.49-10.2,8.81a18.21,18.21,0,0,1-10.53,1l1.71-21.46Zm-20.54-11.71-2.53,22s-3.08-.41-9.31-4.05c-5.19-3-7.64-9.43-7.64-9.43Z"/><path class="cls-16" d="M123.2,124.89l-1.17.47,0,0Z"/><path class="cls-16" d="M130,136c6.23,3.64,9.31,4.05,9.31,4.05l2.53-22-19.48,8.5S124.82,133,130,136Z"/><path class="cls-16" d="M166.18,118c-.44-6.78-1.77-9.49-1.77-9.49L144.52,117l18.25,11.57S166.55,123.62,166.18,118Z"/><path class="cls-16" d="M152.19,138.63c8.19-3.32,10.2-8.81,10.2-8.81l-19-11.64-1.71,21.46A18.21,18.21,0,0,0,152.19,138.63Z"/></g><circle class="cls-12" cx="128.79" cy="130.69" r="8.44"/><circle class="cls-12" cx="132.15" cy="143.44" r="4.12"/><path class="cls-17" d="M163,105.65a10.11,10.11,0,0,1,2.06,3.29l2.31,5c1.91,4.15,3.86,8.73,2.7,13.14a24.18,24.18,0,0,0-5.42-10.5,6.64,6.64,0,0,0-1.58-1.41,6.33,6.33,0,0,0-2.22-.7c-2.53-.38-5.1-.11-7.66-.23s-5.24-.71-7.06-2.51-2.36-5-.58-6.88C149.69,100.63,159,101.86,163,105.65Z"/><circle class="cls-18" cx="19.62" cy="72.29" r="19.62"/><circle class="cls-19" cx="22.25" cy="69.31" r="16.97"/><g id="citrus-2" data-name="citrus"><path class="cls-13" d="M2.52,74.29a14.1,14.1,0,0,0,2.14,5A16.62,16.62,0,0,1,2.52,74.29Z"/><path class="cls-13" d="M23,87.05l-.5.08Z"/><path class="cls-13" d="M22.25,87.17h0Z"/><path class="cls-13" d="M37.09,76.64l-.25-.13a18.28,18.28,0,0,1-1.17,2.18A21.71,21.71,0,0,0,37.09,76.64Z"/><path class="cls-13" d="M5,60.07H5l-.06.11Z"/><path class="cls-14" d="M24.37,85.72A17.64,17.64,0,0,1,3.08,72.8a17.11,17.11,0,0,1,.1-8.36,19.57,19.57,0,0,0-.66,9.85,16.62,16.62,0,0,0,2.14,5A17.93,17.93,0,0,0,11.46,85a18.3,18.3,0,0,0,10.75,2.2h0l.29,0,.5-.08c6.2-1.1,10.54-5.65,12.63-8.36a18.28,18.28,0,0,0,1.17-2.18l-.54-.28A17.7,17.7,0,0,1,24.37,85.72Z"/><path class="cls-15" d="M3.18,64.44a17.11,17.11,0,0,0-.1,8.36A17.8,17.8,0,0,0,36.3,76.23l-29.11-15-.82-.4v0L5,60.07l-.06.11A23.92,23.92,0,0,0,3.18,64.44ZM35.79,76.1s-.95,2-4.68,5.4a13.91,13.91,0,0,1-7.73,3.1L21.62,69.2ZM22.49,85s-4.11,1.47-9.83-1.47A12.57,12.57,0,0,1,7.2,78.21l13.22-9.1ZM19.76,68.25,5.85,77.14s-1.19-1.88-2-7c-.65-4.27,1.92-8.6,1.92-8.6Z"/><path class="cls-16" d="M7.19,61.21l-.82-.43v0Z"/><path class="cls-16" d="M3.89,70.15c.77,5.11,2,7,2,7l13.91-8.89-14-6.7S3.24,65.88,3.89,70.15Z"/><path class="cls-16" d="M31.11,81.5c3.73-3.41,4.68-5.4,4.68-5.4L21.62,69.2l1.76,15.4A13.91,13.91,0,0,0,31.11,81.5Z"/><path class="cls-16" d="M12.66,83.5C18.38,86.44,22.49,85,22.49,85L20.42,69.11,7.2,78.21A12.57,12.57,0,0,0,12.66,83.5Z"/></g><circle class="cls-12" cx="7.19" cy="76.75" r="6.11"/><circle class="cls-12" cx="9.63" cy="85.98" r="2.98"/><path class="cls-17" d="M32,58.62A7.5,7.5,0,0,1,33.47,61l1.66,3.62c1.39,3,2.8,6.32,2,9.52a17.49,17.49,0,0,0-3.92-7.61,5,5,0,0,0-1.14-1A4.53,4.53,0,0,0,30.42,65a53.87,53.87,0,0,0-5.54-.17A7.71,7.71,0,0,1,19.76,63c-1.31-1.3-1.7-3.66-.42-5C22.32,55,29.07,55.89,32,58.62Z"/><g id="fizz1"><path class="cls-20" d="M40.08,191.64s0-15.2,0-20.41c0-17.54-12.87-7.13-9.09-24.35C33,137.5,51.74,135,51.56,141.06c.17-5.59,5.21-7.68,10.19-6,1.19.39,4.36-2.71,7-1.79,7.52,2.64,5.33,5.78,9,4.42,5.54-2.07,15,7.57,19.5,2.08,5.9-7.16,14.9-.42,16.44,3,1.12,2.51,4.71-3.9,8.43-4.25s7.08,4.23,8.87,4c11.77-1.32,11.75-3.26,18.49,3.24,1.6,1.55,8.71-4.78,13.2.88,2.56,3.22,1.46-1.19,6.18-3.45,5-2.38,14.88,3.45,16.64,11.55.75,3.43-.25,7.59-5.42,9.62v27.25Z"/><path class="cls-21" d="M39.51,201.13V178.72s-.14-13.45,11.46-7.59c-4.33-2.19,5.26-7.15,10.29-5.6,1.2.37,4.39-2.52,7-1.67,7.58,2.46,5.37,5.38,9,4.12,5.6-1.93,15.11,7,19.68,1.93,6-6.66,15-.39,16.6,2.81,1.13,2.34,4.75-3.63,8.51-3.95s7.94,5.47,8.95,3.74c2.77-4.74,4.14-12.74,17.06-3.75.88.62,2.72-8.41,10.22-2.15,3.86,3.22,5.87-2.23,10.39-5,8.71-5.23,17-4.14,13,5.91-1.17,3-1.1,14.51-1.13,25.27l.13,8.85s-16.44,4-22.83,2.62c-14.92-3.18-35.86-.23-42.68,1.36-17,4-32.09-2.19-47.47-2.92C60.65,202.41,39.51,201.13,39.51,201.13Z"/></g><g id="fresh_buble" data-name="fresh buble"><path d="M28.84,131.31c-3.06,1-5.13,1.93-7.28,2.45A71.07,71.07,0,0,0,32,151.32c-.74-.72-5.57-5.58-6.28-6.36-5.39-9.27-7.27-14-9.29-24.56-.39-7.68.17-11.28,2.28-17.72.6,1.52.91,2.27,1.52,3.79a34.14,34.14,0,0,0-3.07,13.41c1.74,4.52,2.09,7,3.83,11.52,1.86-1.22,3.6-2.14,6.45-3.69Z"/><path d="M41.84,130.61c-2.47.81-3.68,1.17-6,1.81l10.42,25.77c-.86-.25-1.29-.39-2.14-.7L20.32,98.4A36.75,36.75,0,0,1,24.51,91c1.58-2.26,3.74-2,6.38.77s5.49,7.86,8.36,14.86a65.33,65.33,0,0,1,4,13.35c.69,4,.61,7-.2,8.78C50.2,140.17,54,146.38,61.85,159.1l.28.68c-.91.08-1.36.11-2.28.14C52.3,147.56,48.64,141.57,41.84,130.61ZM34.08,128c2-.79,3-1.22,5.08-2.1,1.46-.61,2.08-2.53,1.77-5.91a44.27,44.27,0,0,0-3.39-12.27c-2.14-5.22-4.24-9-6.2-11.06s-3.6-2.32-4.86-.75a36.58,36.58,0,0,0-3.4,4.87Z"/><path d="M63.92,116c-4.23,1.9-6.41,2.85-10.65,4.68L66.56,153a41.65,41.65,0,0,0,12.36-5.35l2.35,5.66a36.09,36.09,0,0,1-14.46,5.82Q50.7,119.91,34.58,80.72A35.71,35.71,0,0,1,48.3,74.09l2.35,5.66a41.54,41.54,0,0,0-12,5.43C43.56,97.13,46,103.1,51,115.05c4.19-1.93,6.36-2.89,10.61-4.72Z"/><path d="M87.78,123.52a26.86,26.86,0,0,0-4.76-8,17.44,17.44,0,0,0-6.93-4.17,20.5,20.5,0,0,1-7.87-5c-3.06-3.11-5.91-7.82-8.47-14-2.48-6-3.76-11-3.77-15s1.23-5.84,3.67-5.76c1.66.06,3.53,1.14,5.57,3a38.79,38.79,0,0,1,6,7.49,67.66,67.66,0,0,1,5.16,9.93c-.73.08-1.09.12-1.84.23a46.49,46.49,0,0,0-6.28-11.09c-2.31-2.87-4.46-4.46-6.38-4.41S59,78.27,59,81.05s.9,6.34,2.66,10.57a31.77,31.77,0,0,0,5.38,9.1A18.22,18.22,0,0,0,74,105.47a21.13,21.13,0,0,1,11,8.71,46.15,46.15,0,0,1,4.13,7.9,47.49,47.49,0,0,1,3.79,14.15c.4,4.49-.11,8-1.85,10-1.19,1.38-2.75,1.64-4.67.71s-4-3-6.06-6.08a67.1,67.1,0,0,1-6-11.57l1.8-1c2.27,5.45,4.62,9.43,7,11.73s4.29,2.65,5.82,1.06c1.36-1.42,1.84-3.89,1.6-7.12A33.05,33.05,0,0,0,87.78,123.52Z"/><path d="M101.46,112.38c.06,1.08.08,1.62.08,2.68-2.54-5.75-2.11-9.25-4.65-15-2.32,1.39-5.63,2.89-9.38,4.8C92,115.48,94.29,120.78,98.8,131.4c-.32.87-.48,1.31-.84,2.15L73.21,75.2c.82.31,1.23.48,2.05.84l10.57,24.87c4-1.31,7.71-2.78,10.37-3.32-2.37-5.38-5.51-7.11-7.89-12.49.72.72,1.08,1.09,1.79,1.87C97.39,94.34,99.41,100,101.46,112.38Z"/><circle class="cls-22" cx="60.1" cy="116.28" r="44.38"/><circle class="cls-23" cx="65.12" cy="108.83" r="38.39"/><circle class="cls-24" cx="33.51" cy="129.89" r="13.81"/><circle class="cls-12" cx="41.67" cy="149.89" r="6.74"/><path class="cls-25" d="M83.82,82a17,17,0,0,1,4.05,4.92l4.79,7.64c4,6.33,8.12,13.35,7.16,20.77a39.69,39.69,0,0,0-11-15.91,11.37,11.37,0,0,0-2.87-2,10.13,10.13,0,0,0-3.75-.67c-4.19-.09-8.31.9-12.48,1.24s-8.66-.06-12-2.58-4.9-7.7-2.39-11C61.11,76.69,76.5,76.73,83.82,82Z"/></g><circle class="cls-18" cx="181.1" cy="26.76" r="17.35"/><circle class="cls-19" cx="182.8" cy="23.69" r="15"/><g id="citrus-3" data-name="citrus"><path class="cls-13" d="M178.1,40.65a12.45,12.45,0,0,0,4.73-.68A14.88,14.88,0,0,1,178.1,40.65Z"/><path class="cls-13" d="M193.73,26.09c0,.15,0,.29,0,.44C193.7,26.38,193.72,26.24,193.73,26.09Z"/><path class="cls-13" d="M193.65,26.79v0Z"/><path class="cls-13" d="M188.09,11.69l-.17.19a15.11,15.11,0,0,1,1.6,1.5A18,18,0,0,0,188.09,11.69Z"/><path class="cls-13" d="M166.54,35.25h0l.07.07Z"/><path class="cls-14" d="M192.91,24.65a15.61,15.61,0,0,1-16,15.17,15.17,15.17,0,0,1-7.11-2,17.56,17.56,0,0,0,8.26,2.84,14.88,14.88,0,0,0,4.73-.68,15.86,15.86,0,0,0,6.46-4.48,16.15,16.15,0,0,0,4.36-8.67v0l0-.26c0-.15,0-.29,0-.44.5-5.54-2.38-10.3-4.21-12.71a15.11,15.11,0,0,0-1.6-1.5l-.35.39A15.71,15.71,0,0,1,192.91,24.65Z"/><path class="cls-15" d="M169.84,37.81a15.17,15.17,0,0,0,7.11,2,15.73,15.73,0,0,0,10.62-27.55L168,33.64l-.52.6h0l-.92,1,.07.07A21.53,21.53,0,0,0,169.84,37.81Zm17.49-25.13s1.48,1.27,3.54,5.24a12.3,12.3,0,0,1,.85,7.31l-13.55-2.06Zm4.5,13.4s.3,3.84-3.53,8a11.14,11.14,0,0,1-5.77,3.44l-4.71-13.39Zm-14.9-1.54,4.37,13.92s-1.88.58-6.42.06c-3.79-.44-6.89-3.63-6.89-3.63Z"/><path class="cls-16" d="M168,33.64l-.55.6h0Z"/><path class="cls-16" d="M174.88,38.52c4.54.52,6.42-.06,6.42-.06l-4.37-13.92L168,34.89S171.09,38.08,174.88,38.52Z"/><path class="cls-16" d="M190.87,17.92c-2.06-4-3.54-5.24-3.54-5.24l-9.16,10.49,13.55,2.06A12.3,12.3,0,0,0,190.87,17.92Z"/><path class="cls-16" d="M188.3,34.12c3.83-4.2,3.53-8,3.53-8l-14-1.91,4.71,13.39A11.14,11.14,0,0,0,188.3,34.12Z"/></g><circle class="cls-12" cx="171.2" cy="32.95" r="5.4"/><circle class="cls-12" cx="175.04" cy="40.46" r="2.63"/><path class="cls-17" d="M189.2,12.63a6.86,6.86,0,0,1,1.74,1.78l2.12,2.82c1.76,2.33,3.6,4.93,3.47,7.85a15.38,15.38,0,0,0-4.81-5.83,4.44,4.44,0,0,0-1.18-.67,4.08,4.08,0,0,0-1.48-.13,44,44,0,0,0-4.82.9,6.83,6.83,0,0,1-4.76-.61c-1.38-.87-2.16-2.83-1.3-4.22C180.18,11.31,186.17,10.81,189.2,12.63Z"/><g id="me_bubble" data-name="me bubble"><path d="M115.11,12.3c-1.87,8.88,3.07,18.45,7.16,37.58,5.2-15.53,9-27.66,15.17-48.54a25.46,25.46,0,0,1,3.81.09c-1.31,23.55-2,35.33-3.28,58.88a28.47,28.47,0,0,1-2.91-.21c.59-10.24.88-15.36,1.46-25.6.69-10.49,1-15.74,1.72-26.24-6.23,20.67-10,33-15.16,47.9-.79-.46-1.18-.7-1.94-1.21-4-19-8.75-27.87-8.43-37.28-1.9,6.37-2,9.92-1.89,15.88a46.29,46.29,0,0,0,1.35,11.87,25.93,25.93,0,0,1-1.5-2.87c-2.31-4.21-4.92-14.59,2-26.82A25.24,25.24,0,0,1,115.11,12.3Z"/><path d="M166.11,32.94c-4.83,0-8.08-.06-15-.33-.47,8.78-.77,13.16-1.44,22,7.23-2.18,10.68-4.22,15.21-10.34-.34.84-.52,1.27-.89,2.13-5,8.25-9.09,10.79-17.4,12.94,1.19-22.4,1.77-33.6,2.95-56,7.81,3,11.5,5.9,15.47,14.4.38.93.55,1.38.86,2.28-3.81-6.4-7-8.74-13.8-11.64-.19,8.2-.35,12.27-.76,20.4,6.86.66,10.1,1.05,14.88,1.89C166.2,31.58,166.18,32,166.11,32.94Z"/><circle class="cls-22" cx="138.9" cy="30.84" r="30.46"/><circle class="cls-12" cx="142.34" cy="26.98" r="26.35"/><circle class="cls-12" cx="119.12" cy="36.22" r="9.48"/><circle class="cls-12" cx="121.77" cy="50.81" r="4.63"/><path class="cls-26" d="M159.67,11.18a11.48,11.48,0,0,1,2,3.87l2.14,5.81c1.77,4.81,3.56,10.11,1.87,15a27.22,27.22,0,0,0-5.14-12.24,7.66,7.66,0,0,0-1.65-1.71,6.8,6.8,0,0,0-2.43-1c-2.79-.66-5.7-.57-8.55-.93s-5.81-1.27-7.7-3.43-2.2-5.86,0-7.76C145.18,4.38,155.51,6.59,159.67,11.18Z"/></g><g id="up_bubble" data-name="up bubble"><path d="M192.8,53,182.73,78.12a20.3,20.3,0,0,1-3.51,6,6.51,6.51,0,0,1-4.08,2.47,4,4,0,0,1-3.62-1.89c-1.56-2.1-2.25-5-2.74-7.92a20.35,20.35,0,0,1-.3-7.44c1.29-5.81,2.49-8.52,7.7-13.34a18.79,18.79,0,0,1,1.93-1.11c-5,5.72-6.38,8.82-8.19,15.37a13.65,13.65,0,0,0-.11,6.27,11.91,11.91,0,0,0,2.44,5.86,3.29,3.29,0,0,0,4.55.8c1.57-1,3-3.1,4.22-6.11l9.82-24.47A18.79,18.79,0,0,1,192.8,53Z"/><path d="M191,77.52c-2.34,5.91-3.52,8.87-5.86,14.79a16,16,0,0,1-1.95-.4c5.86-14.79,8.8-22.18,14.66-37,3.39,1.87,6.93,2.81,10.25,10.84A16,16,0,0,1,209.21,74a5.88,5.88,0,0,1-3.61,4.92,11.65,11.65,0,0,1-7.75.69A56.39,56.39,0,0,1,191,77.52Zm1-2.6a63.1,63.1,0,0,0,6.83,2.35,7.74,7.74,0,0,0,5.74-.38,5.49,5.49,0,0,0,2.88-4.15,12.31,12.31,0,0,0-.5-6.16,11.28,11.28,0,0,0-3.14-5,15.44,15.44,0,0,0-5.34-3Z"/><circle class="cls-22" cx="188.33" cy="72.08" r="21.19"/><circle class="cls-27" cx="191.16" cy="68.86" r="18.32"/><circle class="cls-12" cx="174.9" cy="76.89" r="6.59"/><circle class="cls-12" cx="177.54" cy="86.85" r="3.22"/><path class="cls-28" d="M201.66,57.32a7.94,7.94,0,0,1,1.62,2.58l1.8,3.9c1.49,3.25,3,6.83,2.11,10.28A18.88,18.88,0,0,0,203,65.87a5.41,5.41,0,0,0-1.24-1.1,4.94,4.94,0,0,0-1.73-.55,59.74,59.74,0,0,0-6-.18,8.31,8.31,0,0,1-5.52-2c-1.42-1.4-1.84-3.94-.45-5.37C191.24,53.4,198.53,54.36,201.66,57.32Z"/></g><g id="fizz2" class="cls-29"><path class="cls-30" d="M180.7,201.11V173.53c0-15.52,13.42.43,9.57-19.15-1.66-8.4-20-8.08-19.86-2.74-.17-4.95-7.91-8-12.93-6.5-1.2.35-5.91-3.13-8.56-2.32-7.58,2.34-2.5,11.71-6.16,10.52-5.6-1.84-15.1,6.7-19.68,1.83-6-6.34-15-.37-16.59,2.68-1.13,2.22-4.75-3.45-8.51-3.76s-7.15,3.74-9,3.56c-11.88-1.17-11.86-2.88-18.66,2.87-1.62,1.37-8.94-7.15-13.47-2.14-2.58,2.85-2.21,3.28-6.09-.13-9-7.89-18.32-2-17.71,7.12l6.39-.68v45.22S58.75,204.78,66,205c16.54.52,49.3-7.31,66-7.69C143.19,197.05,180.7,201.11,180.7,201.11Z"/><path class="cls-31" d="M39.71,201.79s.36-26.26.36-30.56c0-15.12-13.4,1.54-9.58-15.31,2.09-9.19,21-11.61,20.85-5.71.17-5.47,5.27-7.51,10.31-5.89,1.21.39,4.41-2.65,7.07-1.75,7.61,2.58,5.39,5.66,9,4.33,5.62-2,15.16,7.41,19.75,2,6-7,15.09-.41,16.64,3,1.13,2.46,4.77-3.81,8.54-4.16s7.17,4.14,9,3.94c11.92-1.29,11.9-3.18,18.72,3.18,1.62,1.51,8.81-4.68,13.36.86,2.59,3.15,1.48-1.17,6.26-3.38,5-2.33,15.06,3.38,16.85,11.3.75,3.37-.93,3.35-6.17,5.35l-.1,31s-19.11,14.27-37.42,10.14c-54.33-12.24-32-.31-76.23,1.73C55.22,212.37,39.71,201.79,39.71,201.79Z"/></g><g id="bubles"><g id="bubbles" class="cls-32"><circle class="cls-33" cx="101.83" cy="178.78" r="1.59"/><circle class="cls-33" cx="47.29" cy="185.66" r="2.22"/><circle class="cls-33" cx="63.95" cy="179.31" r="1.59"/><circle class="cls-33" cx="95.63" cy="172.88" r="1.59"/><circle class="cls-33" cx="48.01" cy="197.31" r="1.59"/><circle class="cls-33" cx="56.81" cy="168.08" r="1.59"/><circle class="cls-33" cx="56" cy="192.2" r="2.22"/><circle class="cls-33" cx="54.42" cy="177.69" r="1.59"/><circle class="cls-33" cx="110.23" cy="200.52" r="1.65"/><circle class="cls-33" cx="72.92" cy="188.63" r="2.3"/><circle class="cls-33" cx="61.9" cy="198.08" r="1.65"/><circle class="cls-33" cx="72.28" cy="171.29" r="1.65"/><circle class="cls-33" cx="78.33" cy="180.74" r="1.65"/><circle class="cls-33" cx="142.47" cy="174.48" r="1.65"/><circle class="cls-33" cx="140.42" cy="201.19" r="2.3"/><circle class="cls-33" cx="151.57" cy="198.31" r="1.65"/><circle class="cls-33" cx="123.12" cy="189.36" r="1.57"/><circle class="cls-33" cx="176.69" cy="196.13" r="2.18"/><circle class="cls-33" cx="160.33" cy="189.88" r="1.57"/><circle class="cls-33" cx="129.2" cy="178.19" r="1.57"/><circle class="cls-33" cx="168.14" cy="193.01" r="1.57"/><circle class="cls-33" cx="167.34" cy="174.48" r="1.57"/><circle class="cls-33" cx="165.77" cy="200.52" r="2.18"/><circle class="cls-33" cx="171.31" cy="182.5" r="1.57"/><circle class="cls-33" cx="159.36" cy="177.12" r="1.59"/><circle class="cls-33" cx="121.48" cy="176.6" r="1.59"/><circle class="cls-33" cx="153.17" cy="183.02" r="1.59"/><circle class="cls-33" cx="113.53" cy="173.41" r="1.59"/><circle class="cls-33" cx="114.35" cy="187.83" r="1.59"/><circle class="cls-33" cx="101.23" cy="199.24" r="1.74"/><circle class="cls-33" cx="111.95" cy="178.21" r="1.59"/><circle class="cls-33" cx="127.51" cy="199.24" r="1.59"/><circle class="cls-33" cx="102.97" cy="189.42" r="2.22"/><circle class="cls-33" cx="72.92" cy="195.92" r="1.59"/><circle class="cls-33" cx="133.52" cy="185.66" r="1.59"/><circle class="cls-33" cx="89.89" cy="194.32" r="1.59"/><circle class="cls-33" cx="82.26" cy="166.48" r="1.59"/><circle class="cls-33" cx="144.94" cy="192.2" r="2.22"/><circle class="cls-33" cx="88.29" cy="182.5" r="1.59"/></g><g id="bubbles-2" data-name="bubbles" class="cls-34"><circle class="cls-33" cx="122.89" cy="156.57" r="1.59"/><circle class="cls-33" cx="177.44" cy="163.46" r="2.22"/><circle class="cls-33" cx="160.78" cy="157.1" r="1.59"/><circle class="cls-33" cx="129.09" cy="150.68" r="1.59"/><circle class="cls-33" cx="176.71" cy="175.1" r="1.59"/><circle class="cls-33" cx="167.91" cy="145.87" r="1.59"/><circle class="cls-33" cx="168.73" cy="169.99" r="2.22"/><circle class="cls-33" cx="170.31" cy="155.48" r="1.59"/><circle class="cls-33" cx="114.49" cy="178.32" r="1.65"/><circle class="cls-33" cx="151.8" cy="166.42" r="2.3"/><circle class="cls-33" cx="162.83" cy="175.87" r="1.65"/><circle class="cls-33" cx="152.45" cy="149.08" r="1.65"/><circle class="cls-33" cx="146.39" cy="158.53" r="1.65"/><circle class="cls-33" cx="82.25" cy="152.27" r="1.65"/><circle class="cls-33" cx="84.31" cy="178.98" r="2.3"/><circle class="cls-33" cx="73.15" cy="176.1" r="1.65"/><circle class="cls-33" cx="101.61" cy="167.16" r="1.57"/><circle class="cls-33" cx="48.03" cy="173.92" r="2.18"/><circle class="cls-33" cx="64.39" cy="167.68" r="1.57"/><circle class="cls-33" cx="95.52" cy="155.98" r="1.57"/><circle class="cls-33" cx="56.59" cy="170.81" r="1.57"/><circle class="cls-33" cx="57.39" cy="152.27" r="1.57"/><circle class="cls-33" cx="58.95" cy="178.32" r="2.18"/><circle class="cls-33" cx="53.42" cy="160.29" r="1.57"/><circle class="cls-33" cx="65.36" cy="154.92" r="1.59"/><circle class="cls-33" cx="103.24" cy="154.39" r="1.59"/><circle class="cls-33" cx="71.56" cy="160.81" r="1.59"/><circle class="cls-33" cx="111.19" cy="151.2" r="1.59"/><circle class="cls-33" cx="110.38" cy="165.62" r="1.59"/><circle class="cls-33" cx="123.49" cy="177.04" r="1.74"/><circle class="cls-33" cx="112.77" cy="156.01" r="1.59"/><circle class="cls-33" cx="97.21" cy="177.04" r="1.59"/><circle class="cls-33" cx="121.75" cy="167.21" r="2.22"/><circle class="cls-33" cx="151.8" cy="173.71" r="1.59"/><circle class="cls-33" cx="91.21" cy="163.46" r="1.59"/><circle class="cls-33" cx="134.83" cy="172.12" r="1.59"/><circle class="cls-33" cx="142.46" cy="144.28" r="1.59"/><circle class="cls-33" cx="79.79" cy="169.99" r="2.22"/><circle class="cls-33" cx="136.43" cy="160.29" r="1.59"/></g><g id="bubbles-3" data-name="bubbles" class="cls-35"><circle class="cls-33" cx="111.97" cy="138.59" r="1.59"/><circle class="cls-33" cx="166.51" cy="145.47" r="2.22"/><circle class="cls-33" cx="149.85" cy="139.12" r="1.59"/><circle class="cls-33" cx="118.17" cy="132.7" r="1.59"/><circle class="cls-33" cx="165.79" cy="157.12" r="1.59"/><circle class="cls-33" cx="156.99" cy="127.89" r="1.59"/><circle class="cls-33" cx="157.8" cy="152.01" r="2.22"/><circle class="cls-33" cx="159.38" cy="137.5" r="1.59"/><circle class="cls-33" cx="103.57" cy="160.33" r="1.65"/><circle class="cls-33" cx="140.87" cy="148.44" r="2.3"/><circle class="cls-33" cx="151.9" cy="157.89" r="1.65"/><circle class="cls-33" cx="141.52" cy="131.1" r="1.65"/><circle class="cls-33" cx="135.47" cy="140.55" r="1.65"/><circle class="cls-33" cx="71.33" cy="134.29" r="1.65"/><circle class="cls-33" cx="73.38" cy="161" r="2.3"/><circle class="cls-33" cx="62.23" cy="158.12" r="1.65"/><circle class="cls-33" cx="90.68" cy="149.17" r="1.57"/><circle class="cls-33" cx="37.11" cy="155.94" r="2.18"/><circle class="cls-33" cx="53.47" cy="149.69" r="1.57"/><circle class="cls-33" cx="84.6" cy="138" r="1.57"/><circle class="cls-33" cx="45.66" cy="152.83" r="1.57"/><circle class="cls-33" cx="46.46" cy="134.29" r="1.57"/><circle class="cls-33" cx="48.03" cy="160.33" r="2.18"/><circle class="cls-33" cx="42.49" cy="142.31" r="1.57"/><circle class="cls-33" cx="54.44" cy="136.94" r="1.59"/><circle class="cls-33" cx="92.32" cy="136.41" r="1.59"/><circle class="cls-33" cx="60.63" cy="142.83" r="1.59"/><circle class="cls-33" cx="100.27" cy="133.22" r="1.59"/><circle class="cls-33" cx="99.45" cy="147.64" r="1.59"/><circle class="cls-33" cx="112.57" cy="159.06" r="1.74"/><circle class="cls-33" cx="101.85" cy="138.02" r="1.59"/><circle class="cls-33" cx="86.29" cy="159.06" r="1.59"/><circle class="cls-33" cx="110.83" cy="149.23" r="2.22"/><circle class="cls-33" cx="140.87" cy="155.73" r="1.59"/><circle class="cls-33" cx="80.28" cy="145.47" r="1.59"/><circle class="cls-33" cx="123.91" cy="154.13" r="1.59"/><circle class="cls-33" cx="131.54" cy="126.3" r="1.59"/><circle class="cls-33" cx="68.86" cy="152.01" r="2.22"/><circle class="cls-33" cx="125.51" cy="142.31" r="1.59"/></g></g><rect id="reflection" class="cls-36" x="53.56" y="165.92" width="2.42" height="186.15" transform="translate(109.53 517.99) rotate(180)"/></g></g></svg>