<svg xmlns="http://www.w3.org/2000/svg" viewBox="0 0 218.75 267.64"><defs><style>.cls-1{fill:#f4db65;}.cls-2{fill:#1f1f1f;}.cls-3{fill:#97bee5;}.cls-4{fill:#979797;}</style></defs><g id="finished"><g id="gin-tonic-bold"><path class="cls-1" d="M40.59,72.7c-.47,2.3-.72,3.5-1.21,6.12C23.88,85.89,14,84.66,3.28,69.17,2,63,1.35,60.3,0,55.54,12.39,72.7,24.71,75.2,40.59,72.7Z"/><path class="cls-1" d="M43.83,59.68c-.5,2.67-2.23,4.52-5.34,6.06a16.23,16.23,0,0,1-12,1l-.86-.25a23.5,23.5,0,0,1-9.12-5.28,37.17,37.17,0,0,1-6.94-8.54,22.65,22.65,0,0,1-3.36-8.4C5.75,40.5,7.33,38.7,11,38.47s9.13,1.28,15.51,4.26l4.31,2A112,112,0,0,0,29,60.15,9.58,9.58,0,0,0,34.66,60a3.65,3.65,0,0,0,2.55-3c.35-2.2-.58-4.39-3.09-6.9,2.35-.29,3.5-.42,5.6-.63a17.13,17.13,0,0,1,3.5,5.35A8.31,8.31,0,0,1,43.83,59.68ZM14.38,48.91a7.55,7.55,0,0,0,2.23,4.5,19.54,19.54,0,0,0,5.77,4.26,93.21,93.21,0,0,1,.31-9.56l-.85-.38c-2.39-1-4.28-1.51-5.6-1.34S14.31,47.39,14.38,48.91Z"/><path class="cls-1" d="M10.38,19.45c1.77,1.07,2.67,1.6,4.48,2.65-2.26-4.83-1.72-9.72,1.26-12.78,3.17-3.27,7.18-2.76,11,.41-1-4.74.86-8,4.69-8.84a8.53,8.53,0,0,1,8.39,2.75c2.28,2.44,3.93,6.41,5.32,11.69,2.8,10.62,4,16.18,8,23.48a12.4,12.4,0,0,0-2.7.15c-4.26-7.61-6.34-12.87-10.71-23.12A15.17,15.17,0,0,0,37.19,11a3.46,3.46,0,0,0-3.56-.85c-1.93.6-2.33,2.7-1,5.88C39.52,26.31,43,31.54,48.15,39.82a4.44,4.44,0,0,0-1.67,1.39c-5.17-7.3-9.26-11.41-17.31-19.87-1.83-1.92-3.37-3.13-4.65-3.52a2.94,2.94,0,0,0-3.45,1.45c-1.35,1.95-1,4.63,1.06,7.25C33.23,33.74,39.27,37,45.39,43.76c-.18,1.05-.22,2.61-.46,4.85C35.07,41.2,23.66,37.81,7.59,28.2A34,34,0,0,1,10.38,19.45Z"/><path class="cls-1" d="M49.76,20.76A40.68,40.68,0,0,1,49,9.58a15.13,15.13,0,0,1,2.56-7.69C52.88.05,56.12-.27,58.81.19c3.82.65,6.09,3,7.93,7A41.52,41.52,0,0,1,69.92,22c0,1.08,0,1.61.08,2.66.07,5.87-.74,10-2.08,12.83S65,41.25,62.4,40.74a11.16,11.16,0,0,1-7.28-5.15c-2.1-3.15-4-7.8-5.26-14.34ZM54,21.91c.38,4,1.23,6.93,2.49,8.93s2.65,3,4.13,3.21,2.37-.51,3-2.22,1-4.61.93-9a28.62,28.62,0,0,0-1.3-9.31c-.87-2.38-2.12-3.76-3.94-4.11s-3.39.48-4.44,2.51S53.61,17.39,54,21.91Z"/><path class="cls-1" d="M75.08,7.25c.49,2.06.71,3.06,1.11,5,.61-2.84,1.69-3.59,4.59-1.47a36.74,36.74,0,0,1,7.76,8.36c2.31,3.34,4,6.75,4.29,9.71.54,6.14-.12,7.46-3.26,13.8-2.29,0-3.36-.07-5.43-.14,1.49-7.2,1.8-9.7.77-17.4a11.1,11.1,0,0,0-1.57-4.44,9.65,9.65,0,0,0-3.1-3c-1.62-1-2.44-.36-2.86,1.66,1.26,10.43,1,14.39.65,22.92-1.9-.12-2.83-.2-4.68-.38-.67-12.18.7-19.41-2.16-37.07A37.69,37.69,0,0,1,75.08,7.25Z"/><path class="cls-2" d="M98.48,258.83a25.17,25.17,0,0,1-12.32,6.85,33.88,33.88,0,0,1-16.64-.45,47.87,47.87,0,0,1-17.06-8.56,67.47,67.47,0,0,1-13.24-13.29,53.43,53.43,0,0,1-8.47-15.75c-.5-1.57-.75-2.36-1.24-3.94-1.82-5.79-2-10.62-.31-14.77s5.2-7.38,10.46-9.72,12-3.6,19.74-3.6c10.84,0,19.29,2,25.31,5.94s9.7,9.8,11.24,17.54c-6.8,0-10.18,0-17-.24-1.13-4.07-3.12-7.06-6-9s-6.83-2.93-11.71-3.09c-6.23-.21-10.74,1.35-13.3,4.54s-3,8-1.59,14.52c.36,1.62.55,2.42.91,4A35.75,35.75,0,0,0,55,246a25,25,0,0,0,14.11,8.31c5.87,1.2,10,.62,12.37-1.43-.39-4.85-.61-7.28-1-12.17-6-.47-9-.86-15-1.77-.59-4.12-.9-6.19-1.5-10.31a253.84,253.84,0,0,0,32.72,1.72C97.44,241.78,97.85,247.56,98.48,258.83Z"/><path class="cls-2" d="M129.06,267.4c-6.19.09-9.28.16-15.69.24-.81-23.72-2.52-47.39-3.33-71.11l17.53-.05C127.68,220.13,129,243.75,129.06,267.4Z"/><path class="cls-2" d="M195.49,258.94A84,84,0,0,1,183,264.38c3.82-14.07-5.5-24.84-20.72-43.71.28,18.89.51,28.67-2.58,46.92-5.91,0-10-.19-16.25-.25.63-23.63-.18-47.26.45-70.9h17.91c14.44,18.32,25.45,28.83,32.59,45,5.41-18.17,4.43-27.83,3.22-45.13l18-.08C221.16,222.53,210.29,238.94,195.49,258.94Z"/><path class="cls-3" d="M57.92,105.45c-6.74,1.14-10.08,1.81-16.7,3.39,4-19.23,9.24-38.27,12.21-57.7,5.57-.07,8.42-.1,14.2-.15C61.77,78,63.4,85.11,57.92,105.45Z"/><path class="cls-3" d="M139.37,82.75A17.9,17.9,0,0,1,129.8,96.9c-6.06,3.36-14.31,4.66-24.21,4.87-10.83.23-18.88-1.15-24.3-5.4S73.61,85.87,75,78.77c.22-1.16.36-1.82.64-3.09a33.34,33.34,0,0,1,5.73-13A29.49,29.49,0,0,1,92.92,53.3,39.45,39.45,0,0,1,109.58,50c8.54,0,15.23,1.32,20.59,4.53A21,21,0,0,1,140.1,69c-6.42-.18-9.64-.26-16.07-.35a9.81,9.81,0,0,0-4.21-7.51q-3.6-2.37-10.8-2.24c-5.22.1-9.13,1.53-11.82,4.13S93,69.54,91.9,74.42c-.29,1.42-.44,2.14-.66,3.43-.76,4.62.26,8.6,2.71,11.21s6.61,3.81,12.44,3.63c5.25-.16,9.22-1,11.82-2.7a10.08,10.08,0,0,0,4.5-7.35C129.38,82.6,132.72,82.62,139.37,82.75Z"/><path class="cls-3" d="M196.93,80.82c-11.94-.82-18.08-1.2-30.51-1.75.26,4.11.67,7.88,1.28,14.61,15.13,1.13,22.63,1.9,37.18,3.55.78,4.62,1.18,7.09,1.72,11.43-21.65-3.16-32.92-4.64-55.49-6.29.21-22-1.61-34.93-1.83-51.95L197,50.18a85.81,85.81,0,0,1,2,9.57c-13-.21-19.77-.3-33.6-.4a138.46,138.46,0,0,1,1.16,14c12.19.65,18.21,1.05,29.87,1.9C196.68,78.22,196.54,78.09,196.93,80.82Z"/><path class="cls-4" d="M71.26,122.59c-5.5.55-8.25.86-13.71,1.61a602.83,602.83,0,0,0-16,65l-10.09.05c3.29-21.47,9.94-43.15,16.92-63.67-5.35.88-8,1.37-13.3,2.47C37,122.69,38,120,39.15,116.3a233.17,233.17,0,0,1,35.15-6.48C73.46,114.05,72.73,116.92,71.26,122.59Z"/><path class="cls-4" d="M108.82,148.51a104.13,104.13,0,0,1-6,23.28c-2.71,6.77-5.75,11.39-9.28,14.2a17.6,17.6,0,0,1-11.6,3.77c-4.24,0-8.07-.89-11.13-3.47s-5-6.9-5.43-13.61.76-15.42,2.45-23c.35-1.55.52-2.29.81-3.65a84.67,84.67,0,0,1,7-19.49c3.21-6.6,6.52-11.55,9.93-14.72s6.74-4.59,10.35-4.81A10.36,10.36,0,0,1,105,110.8c2.43,2.93,3.94,7.68,4.55,14.17a90.65,90.65,0,0,1-.29,20.1C109.11,146.38,109,147.08,108.82,148.51Zm-9.54-3.45c1.1-7.61,1.19-13.48.33-18.17s-2.83-6.94-6-6.79-6,2.61-8.72,7.37a57.41,57.41,0,0,0-6.34,17.82c-.25,1.35-.4,2.08-.71,3.62-1.65,8-2.51,16.17-1.62,21.37s3.28,7.49,6.85,7.42,6.52-2.4,9.19-7.45,5-13.07,6.41-21.44C99,147.24,99.08,146.48,99.28,145.06Z"/><path class="cls-4" d="M153.36,188.81l-10.56,0c-8.24-17.16-10.46-32.75-15.76-53.51-2.15,20.69-4.74,37-4.92,53.56l-10.65,0c2.11-27.27,6.21-54.43,9.2-81.62,3.54,0,5.31,0,8.83.13,6.16,18.44,8.73,30,14.86,53.39,1.72-23.26,2.41-34.31,2.14-52.7,3.44.2,5.15.31,8.56.55C155.37,135.44,154.05,162.06,153.36,188.81Z"/><path class="cls-4" d="M173.61,188.79H163.19c.33-26.55,1-53-.19-79.52,3.37.28,5.05.43,8.37.75C173.44,136.29,173.54,162.47,173.61,188.79Z"/><path class="cls-4" d="M218.5,163.84c.79,8.17-.26,14.66-3.28,19.24s-7.5,6.69-13.19,6.68c-6.23,0-11.34-2.79-15.13-9.51s-5.56-17.22-6-29.06c-.08-1.92-.12-2.86-.23-4.69a88.28,88.28,0,0,1,.88-19.38c.92-5.8,2.38-9.87,4.47-12.42a8.18,8.18,0,0,1,7.85-3.12c4.39.54,8.24,3,11.91,7.8s7,11.9,8.93,20l-8.49-.63c-.92-4.72-2.35-8.64-4-11a8.36,8.36,0,0,0-6.22-3.89c-2.76-.27-4.55,1.41-5.5,5.21s-1.17,9.61-.54,17.28c.2,2.24.29,3.39.45,5.75.55,8.43,1.55,15.11,3.3,19.17s4.35,6,7.71,6c3,0,5.2-1.09,6.47-3.34s1.75-5.76,1.45-10.49Z"/></g></g></svg>