<svg xmlns="http://www.w3.org/2000/svg" xmlns:xlink="http://www.w3.org/1999/xlink" viewBox="0 0 209.89 353.43"><defs><style>.cls-1{fill:#439400;}.cls-16,.cls-2{fill:none;}.cls-2{stroke:#004717;}.cls-2,.cls-22{stroke-miterlimit:10;}.cls-3{fill:#437600;}.cls-4{opacity:0.76;}.cls-5{fill:url(#linear-gradient);}.cls-6{fill:#b8c9e8;opacity:0.78;}.cls-7{opacity:0.96;}.cls-8{fill:#00d1a7;}.cls-9{fill:#eaffd7;}.cls-10{opacity:0.87;}.cls-11,.cls-12,.cls-13,.cls-15,.cls-21,.cls-22,.cls-25,.cls-32{fill:#fff;}.cls-11{opacity:0.72;}.cls-12{opacity:0.75;}.cls-13{opacity:0.77;}.cls-14,.cls-24{fill:#98bfe6;}.cls-14{opacity:0.66;}.cls-15{opacity:0.19;}.cls-17{fill:#52a546;}.cls-18{fill:#fbf9df;}.cls-19{fill:#fbef83;}.cls-20{fill:#b0ff8d;}.cls-21{opacity:0.42;}.cls-22{stroke:#ffffeb;stroke-width:0.5px;}.cls-23{fill:#fffffb;}.cls-24{opacity:0.57;}.cls-25{opacity:0.27;}.cls-26{fill:#ffffeb;}.cls-27{fill:#fffff3;opacity:0.98;}.cls-28{opacity:0.16;}.cls-29{fill:#ffe961;}.cls-30{opacity:0.09;}.cls-31{opacity:0.17;}.cls-32{opacity:0.47;}</style><linearGradient id="linear-gradient" x1="33.07" y1="342.02" x2="187.09" y2="342.02" gradientUnits="userSpaceOnUse"><stop offset="0.01" stop-color="#b9d0ed"/><stop offset="0.07" stop-color="#cedef2"/><stop offset="0.15" stop-color="#e4edf8"/><stop offset="0.24" stop-color="#f3f7fc"/><stop offset="0.35" stop-color="#fcfdfe"/><stop offset="0.5" stop-color="#fff"/><stop offset="0.65" stop-color="#fcfdfe"/><stop offset="0.76" stop-color="#f3f7fc"/><stop offset="0.85" stop-color="#e3ecf8"/><stop offset="0.94" stop-color="#ccddf2"/><stop offset="1" stop-color="#b9d0ed"/></linearGradient></defs><g id="finished"><path class="cls-1" d="M137.87,146.15a14.88,14.88,0,0,1,1.22-7.9s.46-2.62-.55-4.25c0,0-4.76-5.72-3.61-8.07l1.19,1.08s-2.39-9.3-.82-7.92l1.37,1.93s1-13,3.35-8.81c0,0,1.9-7.54,2.67-4,0,0,3.34-7.6,3.64-3.68L149.1,101l.74,1.43s3.39-5,4.74-5.53l.23,1.45s3.16-1,3.51-2.82l1,2s4.09-5.41,4.3-4.71l.65,1.46s4.71-3,4.79-4.14a17.51,17.51,0,0,1-1,9.8,3.29,3.29,0,0,0,1-.54c.35-.32.23,3.74-1.81,6.21,0,0,3.36-2.72-.83,5.61,0,0,4.14-2.5-1.38,6.76,0,0,4.91-1-4,6.21,0,0,0,1.81,1.26,1,0,0,0,1.52-4.77,5.82,0,0,2.6-.36-2.51,5.11,0,0,.25,5.64-13.75,3.41,0,0-1.08,2.46-.56,7.3C140.67,146.89,139.46,147.72,137.87,146.15Z"/><path class="cls-2" d="M139.55,139.57a46,46,0,0,1,3.91-7.48c2.95-4.57,5.24-6.31,9.39-11.58,0,0,2.63-3.33,5.58-7.88a99.47,99.47,0,0,0,9.62-19.27"/><path class="cls-2" d="M146.49,107a24.74,24.74,0,0,0-.9,5.61,34.3,34.3,0,0,0,.09,4.31c.08,1.17.17,2.06.26,2.79.32,2.58.39,3.32.44,4a12,12,0,0,1-1.44,6.43"/><path class="cls-2" d="M151.77,104.18a32.82,32.82,0,0,0-1.06,4.65c-.19,1.28-.26,2.27-.35,3.49-.07,1-.1,1.69-.12,2.28,0,1.06-.11,2.45-.11,3.13a19.68,19.68,0,0,0,.72,5.36"/><path class="cls-2" d="M154.19,118.63a16.55,16.55,0,0,0,1.68-5.49c.19-1.57,0-2.14.24-5.41.08-1.23.15-2.22.35-3.49a32.72,32.72,0,0,1,1-4.65"/><path class="cls-2" d="M159.93,110.12a22.31,22.31,0,0,1,.13-5.21c.27-1.37.38-1.81.38-1.81a9.38,9.38,0,0,0,.28-1.36,5.16,5.16,0,0,0-.28-2,5.07,5.07,0,0,1,.6-3.44"/><path class="cls-2" d="M160.43,109.23A5,5,0,0,0,162,108a1.47,1.47,0,0,1,.31-.38c.27-.24.47-.27,1.09-.75a8.08,8.08,0,0,0,.63-.53,12.33,12.33,0,0,1,3-1.55"/><path class="cls-2" d="M156.43,115.66c1.09-1.28,1.86-1.48,2.38-1.43a2.31,2.31,0,0,0,1.19,0c.12,0,.39-.2.95-.47l.58-.31a9.68,9.68,0,0,0,.86-.58,10.34,10.34,0,0,1,3-1.18"/><path class="cls-2" d="M163.57,117.86a10,10,0,0,1-2.85,2.11,14,14,0,0,1-2.68,1c-1.95.54-4.27,1.21-7.19,2.09"/><path class="cls-2" d="M160.26,123.94A9.21,9.21,0,0,1,157,126a16.69,16.69,0,0,1-3.14.87c-3.09.65-4,.41-5.35.84a9.26,9.26,0,0,0-2,1.15c-.69.46-1.25.88-1.64,1.18"/><path class="cls-2" d="M141.1,136.92a4.64,4.64,0,0,1,3.39-3.39c1.51-.43,2.52-.13,5.94-.74a19.56,19.56,0,0,0,3.47-.84,9.5,9.5,0,0,0,3.54-2.2"/><path class="cls-2" d="M140.41,138.1a10.44,10.44,0,0,1,5.42-2c1.34-.08,2.37.16,4.8,0,1.24-.06,2.26-.18,2.94-.27"/><path class="cls-2" d="M140.41,138.1a12.87,12.87,0,0,0,1.82-6.53c0-1.93-.44-2.69-.7-6.75a34.49,34.49,0,0,1-.1-4.32,25.53,25.53,0,0,1,.9-5.61"/><path class="cls-2" d="M140.41,137.61a3.91,3.91,0,0,0,0-2.24c-.1-.31-.19-.49-.45-1.18-.12-.32-.26-.75-.42-1.34a20.48,20.48,0,0,1-.64-3.82c0-.56,0-1,0-1.38a15.39,15.39,0,0,0,0-2.5c-.06-.8-.51-2-2.29-3.35"/><path class="cls-1" d="M95.07,106.78A10,10,0,0,1,96.48,114s.41,2.43,2.19,3.31c0,0,7.73,2.51,7.21,5.05l-1.81-.33s6.21,6.68,3.85,6.28l-2.33-1s3.46,11.45-.8,9.06c0,0,.47,7.3-1.72,4.73,0,0-1.22,8-3,4.88l-2,4.29-1.39-.84s-2.23,5.86-3.64,7l-.8-1.12s-3.4,2.37-3.15,4.09l-1.9-1.26s-2.9,6.56-3.41,6.08l-1.29-.92s-4.51,4.86-4.21,5.83a11.71,11.71,0,0,1-2.36-8.75,5.17,5.17,0,0,0-1,.93c-.29.44-1.61-3-.09-6.13,0,0-3,3.94-1-5.13,0,0-4,4.13-.79-6.38,0,0-5.49,3.23,2.49-7.17,0,0-.63-1.55-1.88-.25,0,0-.55-1.28,3.57-7.24,0,0-3,1.57,1.14-5.53,0,0-2.33-4.64,15.11-9.58,0,0,.4-2.61-2-6.44A3.67,3.67,0,0,1,95.07,106.78Z"/><path class="cls-2" d="M95.46,113.15a39.46,39.46,0,0,1-1.94,8.22c-1.86,5.29-4,7.88-7,14.34,0,0-1.92,4.1-3.78,9.37a83.18,83.18,0,0,0-4.48,21"/><path class="cls-2" d="M99,144a17.33,17.33,0,0,0-1-5.17,23,23,0,0,0-1.67-3.59c-.51-.94-.94-1.65-1.31-2.22-1.32-2-1.67-2.62-2-3.13-.68-1.18-1.25-3.07-.61-6.12"/><path class="cls-2" d="M93.72,149a22.57,22.57,0,0,0-.42-4.44,26.88,26.88,0,0,0-.85-3.12c-.26-.84-.49-1.47-.68-2-.35-.9-.76-2.11-1-2.69a13.49,13.49,0,0,0-2.8-4.17"/><path class="cls-2" d="M85.62,138a12.2,12.2,0,0,0,0,5.45c.35,1.41.77,1.8,1.68,4.67a26.87,26.87,0,0,1,.84,3.12,22.71,22.71,0,0,1,.43,4.44"/><path class="cls-2" d="M81.87,147.93a14.47,14.47,0,0,1,1.73,4.46c.17,1.29.21,1.71.21,1.71a7.53,7.53,0,0,0,.14,1.29A3.72,3.72,0,0,0,85,156.92a3.52,3.52,0,0,1,.52,3.2"/><path class="cls-2" d="M81.59,148.93a5.94,5.94,0,0,0-1.36,1.83,1.85,1.85,0,0,1-.23.47c-.23.34-.46.46-1,1.17a8.28,8.28,0,0,0-.55.75,18.47,18.47,0,0,1-3,2.78"/><path class="cls-2" d="M84,141.55a4.2,4.2,0,0,1-2.31,2.36,4.43,4.43,0,0,0-1.44.56c-.12.08-.38.35-1,.86l-.58.54c-.45.46-.74.83-.81.91a16.41,16.41,0,0,1-3.13,2.46"/><path class="cls-2" d="M74.74,143.18A13.52,13.52,0,0,1,77.38,140a21.27,21.27,0,0,1,2.8-2.17c2.14-1.41,4.64-3.11,7.8-5.28"/><path class="cls-2" d="M76.48,136.44a13.07,13.07,0,0,1,3.09-3.36A31.5,31.5,0,0,1,83,130.82c3.44-2.06,4.6-2.28,6.06-3.31A13.67,13.67,0,0,0,91,125.58c.66-.73,1.17-1.35,1.52-1.79"/><path class="cls-2" d="M94.58,116.14a5.44,5.44,0,0,1-2.82,4.52c-1.63,1.09-2.94,1.33-6.79,3.51a33.32,33.32,0,0,0-3.82,2.41,13.64,13.64,0,0,0-3.42,3.58"/><path class="cls-2" d="M95,114.81a17,17,0,0,1-5.72,4.34c-1.56.72-2.87,1-5.73,2.3-1.45.65-2.61,1.25-3.39,1.66"/><path class="cls-2" d="M95,114.81a9.29,9.29,0,0,0,.19,6.4c.7,1.63,1.49,2.05,3.28,5.35a23,23,0,0,1,1.67,3.59,17.28,17.28,0,0,1,1,5.17"/><path class="cls-2" d="M95.15,115.22a2.6,2.6,0,0,0,.77,1.9c.22.22.4.33,1,.78a13.47,13.47,0,0,1,1,.92,14,14,0,0,1,2.13,2.91,8,8,0,0,1,.52,1.16,11,11,0,0,0,.9,2.11c.37.65,1.32,1.4,3.94,1.71"/><path class="cls-1" d="M102.82,112.06a14.77,14.77,0,0,1,1.22-7.9,7.27,7.27,0,0,0-.55-4.25s-4.76-5.72-3.62-8.07l1.2,1.09s-2.39-9.31-.83-7.93l1.37,1.93s1-13,3.36-8.81c0,0,1.9-7.54,2.67-4.05,0,0,3.34-7.6,3.64-3.68l2.77-3.49.73,1.43s3.4-5,4.75-5.53l.23,1.45s3.16-1,3.5-2.82l1,2.06s4.08-5.41,4.3-4.72l.64,1.47s4.72-3,4.8-4.15a17.51,17.51,0,0,1-1,9.8,3.42,3.42,0,0,0,1-.54c.35-.32.22,3.74-1.81,6.21,0,0,3.36-2.72-.83,5.61,0,0,4.14-2.5-1.39,6.76,0,0,4.92-1-4,6.21,0,0,0,1.81,1.27,1,0,0,0,1.52-4.78,5.82,0,0,2.61-.35-2.5,5.11,0,0,.24,5.65-13.75,3.41,0,0-1.09,2.47-.57,7.3C105.61,112.8,104.4,113.63,102.82,112.06Z"/><path class="cls-2" d="M104.5,105.48A45.76,45.76,0,0,1,108.4,98c3-4.57,5.25-6.31,9.4-11.57,0,0,2.62-3.34,5.58-7.89A99.17,99.17,0,0,0,133,59.27"/><path class="cls-2" d="M111.43,72.89a25.53,25.53,0,0,0-.9,5.61,34.28,34.28,0,0,0,.1,4.31c.08,1.17.17,2.06.26,2.79.32,2.58.39,3.33.44,4A12.07,12.07,0,0,1,109.89,96"/><path class="cls-2" d="M116.71,70.09a33.39,33.39,0,0,0-1,4.65c-.2,1.28-.27,2.27-.35,3.5-.07,1-.11,1.69-.12,2.27,0,1.06-.11,2.45-.12,3.13A19.78,19.78,0,0,0,115.8,89"/><path class="cls-2" d="M119.14,84.54a16.73,16.73,0,0,0,1.68-5.49c.18-1.57,0-2.14.23-5.41.09-1.23.16-2.22.36-3.49a31.68,31.68,0,0,1,1-4.65"/><path class="cls-2" d="M124.88,76a21.56,21.56,0,0,1,.13-5.2c.27-1.38.37-1.82.37-1.82a9.93,9.93,0,0,0,.29-1.36,5.4,5.4,0,0,0-.28-2,5.07,5.07,0,0,1,.6-3.44"/><path class="cls-2" d="M125.38,75.14a4.87,4.87,0,0,0,1.54-1.28,1.61,1.61,0,0,1,.3-.38c.27-.24.47-.27,1.1-.75a8.08,8.08,0,0,0,.63-.53,12.26,12.26,0,0,1,3-1.55"/><path class="cls-2" d="M121.37,81.57c1.09-1.27,1.87-1.48,2.38-1.42a2.48,2.48,0,0,0,1.2,0c.11,0,.38-.19.94-.47l.59-.31c.46-.28.78-.52.86-.58a10.06,10.06,0,0,1,3-1.18"/><path class="cls-2" d="M128.52,83.77a10.05,10.05,0,0,1-2.86,2.11,14,14,0,0,1-2.67,1c-2,.54-4.27,1.21-7.19,2.09"/><path class="cls-2" d="M125.21,89.85A9.37,9.37,0,0,1,122,92a17.14,17.14,0,0,1-3.13.86c-3.1.66-4,.41-5.35.84a9,9,0,0,0-2,1.16c-.7.45-1.25.87-1.64,1.17"/><path class="cls-2" d="M106,102.83a4.69,4.69,0,0,1,3.4-3.39c1.51-.42,2.51-.12,5.94-.73a18.93,18.93,0,0,0,3.47-.85,9.67,9.67,0,0,0,3.54-2.2"/><path class="cls-2" d="M105.35,104a10.59,10.59,0,0,1,5.43-2c1.33-.08,2.36.16,4.8,0a28,28,0,0,0,2.93-.27"/><path class="cls-2" d="M105.35,104a12.88,12.88,0,0,0,1.83-6.53c0-1.93-.44-2.69-.7-6.75a34.44,34.44,0,0,1-.1-4.32,25.53,25.53,0,0,1,.9-5.61"/><path class="cls-2" d="M105.36,103.52a4.09,4.09,0,0,0,0-2.24c-.1-.31-.19-.49-.45-1.18a11.71,11.71,0,0,1-.43-1.33,19.5,19.5,0,0,1-.63-3.82,11.16,11.16,0,0,1,0-1.39,15.23,15.23,0,0,0,0-2.49c-.06-.81-.51-2-2.29-3.36"/><path class="cls-3" d="M134,140.59a3.92,3.92,0,0,1-3.07.78,1.88,1.88,0,0,0-1.29,1.06s-.55,3.53-1.7,3.35l0-.82s-2.48,2.93-2.47,1.86l.26-1.07s-4.76,1.79-4-.17c0,0-3.15.36-2.18-.68,0,0-3.59-.38-2.34-1.24l-2-.83.27-.64a13.48,13.48,0,0,1-3.3-1.49l.43-.38s-1.27-1.49-2-1.33l.41-.89s-3.06-1.16-2.89-1.4l.32-.6s-2.44-1.93-2.84-1.77a4.54,4.54,0,0,1,3.65-1.25,3,3,0,0,0-.47-.41c-.21-.12,1.21-.79,2.67-.16,0,0-1.93-1.28,2.16-.58,0,0-2.08-1.72,2.73-.49,0,0-1.79-2.4,3.3,1,0,0,.63-.31,0-.85,0,0,.52-.27,3.41,1.46,0,0-.9-1.3,2.49.39,0,0,1.86-1.14,5.23,6.6a4.07,4.07,0,0,0,2.67-1A1.87,1.87,0,0,1,134,140.59Z"/><path class="cls-1" d="M134.33,140.33a3.43,3.43,0,0,1-2,1.76,1.86,1.86,0,0,0-.65,1.36s.58,3.18-.31,3.43l-.21-.7s-1,3.37-1.29,2.46l-.11-1s-3,3.21-3,1.29c0,0-2.2,1.43-1.78.21,0,0-2.72,1-2-.22l-1.69,0,0-.64a8.88,8.88,0,0,1-2.82-.08l.21-.47s-1.34-.8-1.83-.41l.06-.89s-2.56.1-2.5-.16l.06-.62s-2.3-.76-2.56-.48a4.11,4.11,0,0,1,2.32-2.36,2,2,0,0,0-.46-.17c-.18,0,.67-1.1,1.9-1.1,0,0-1.76-.38,1.42-1.26,0,0-2-.71,1.85-1.39,0,0-2-1.39,2.68-.36a.43.43,0,0,0-.26-.71s.31-.42,2.89,0c0,0-1-.78,1.92-.56,0,0,1-1.63,5.65,3.7a3.58,3.58,0,0,0,1.66-1.81A1.51,1.51,0,0,1,134.33,140.33Z"/><path class="cls-1" d="M63.4,95.17a10.29,10.29,0,0,0-5-2.88A5.36,5.36,0,0,1,56.19,90S54.85,84.32,53,84l.14,1.26S48.83,79.41,49,81l.54,1.76s-7.83-5.34-6.39-1.94c0,0-5.08-2.29-3.4-.19,0,0-5.7-1.4-3.58.61L33,81.41l.52,1.12s-4.23-.16-5.09.45l.74.82s-1.84,1.55-3,.91L27,86.28s-4.75.08-4.44.54l.57,1.08S19.45,89.48,18.78,89a12.35,12.35,0,0,0,6,3.9,2.13,2.13,0,0,1-.7.36c-.32.07,2.05,1.87,4.29,1.73,0,0-2.92.87,3.54,2.06,0,0-3.11,1.47,4.42,2.25,0,0-2.55,2.65,5.16.35,0,0,1,.82.07,1.27,0,0,.87.7,5.27-.33,0,0-1.26,1.48,3.93.77,0,0,3.13,2.77,7.53-7.12,0,0,1.85.45,4.4,3C62.69,97.28,63.65,96.89,63.4,95.17Z"/><path class="cls-2" d="M59,93.19a29.35,29.35,0,0,0-5.86-1c-3.81-.24-5.73.41-10.42.6,0,0-3,.12-6.77-.11A63,63,0,0,1,21,89.87"/><path class="cls-2" d="M37.52,82.52a17.11,17.11,0,0,1,3.57,2,24,24,0,0,1,2.43,2.06c.64.58,1.11,1.05,1.49,1.45,1.34,1.39,1.74,1.78,2.08,2.11a8.24,8.24,0,0,0,4.26,2"/><path class="cls-2" d="M33.79,84.57a22.35,22.35,0,0,1,3.08,1.48c.81.47,1.4.88,2.14,1.39.57.4,1,.72,1.35,1,.61.47,1.44,1.06,1.83,1.37A14.85,14.85,0,0,1,45,92.72"/><path class="cls-2" d="M41.05,92.78a11.11,11.11,0,0,1-3.82-1.48c-1-.6-1.22-1-3.18-2.35-.74-.51-1.33-.92-2.14-1.39a21.81,21.81,0,0,0-3.08-1.48"/><path class="cls-2" d="M33.87,92.48a16.66,16.66,0,0,0-3-2.33l-1.19-.6a7.52,7.52,0,0,1-.9-.44,4.07,4.07,0,0,1-1-1.1,3.55,3.55,0,0,0-2.21-1.2"/><path class="cls-2" d="M33.15,92.38a3.22,3.22,0,0,1-1.35.39,1,1,0,0,0-.34,0c-.25.06-.35.18-.88.35a4,4,0,0,1-.56.15,8.55,8.55,0,0,0-2.11,1.21"/><path class="cls-2" d="M38.45,92.82c-1.17.1-1.6.49-1.78.85a1.87,1.87,0,0,1-.46.77c-.07.06-.27.15-.66.38a3.66,3.66,0,0,1-.41.22,5.68,5.68,0,0,1-.68.28,7.1,7.1,0,0,0-1.89,1.35"/><path class="cls-2" d="M36.81,98.36a6.54,6.54,0,0,0,2.36-.83,9.62,9.62,0,0,0,1.67-1.22c1.11-1,2.43-2.14,4.12-3.59"/><path class="cls-2" d="M41.63,99.07A6,6,0,0,0,44.14,98a12.46,12.46,0,0,0,1.77-1.59c1.63-1.65,1.85-2.33,2.65-3a6.08,6.08,0,0,1,1.45-.7c.55-.23,1-.39,1.34-.5"/><path class="cls-2" d="M56.82,92.94a3,3,0,0,0-3.32.59c-.85.75-1.09,1.53-2.83,3.41a13.34,13.34,0,0,1-1.89,1.81A6.2,6.2,0,0,1,46.09,100"/><path class="cls-2" d="M57.77,93.05a7.31,7.31,0,0,0-3.35,2.5c-.58.81-.87,1.57-1.92,3.07-.53.75-1,1.34-1.34,1.73"/><path class="cls-2" d="M57.77,93.05a8.69,8.69,0,0,1-4.47-1.86c-1.1-.89-1.36-1.52-3.57-3.57a25.3,25.3,0,0,0-2.43-2.05,17.15,17.15,0,0,0-3.57-2"/><path class="cls-2" d="M57.49,92.82a2.8,2.8,0,0,1-1.29-1c-.14-.2-.21-.35-.49-.83a10.09,10.09,0,0,0-.6-.88,14.4,14.4,0,0,0-1.92-2.17,8,8,0,0,0-.78-.65A12,12,0,0,1,51,86.13a4.23,4.23,0,0,1-1-3"/><path class="cls-1" d="M77.79,100.5a13.2,13.2,0,0,1-1.36-7.12,6.42,6.42,0,0,0-1.77-3.44s-5.85-3.3-5.57-5.67l1.36.53s-4.9-7.13-3.13-6.47l1.77,1.19s-3.07-11.39.2-8.6c0,0-.67-7.05,1.07-4.34,0,0,.55-7.56,2-4.33l1.32-3.88,1.07,1s1.4-5.36,2.4-6.27l.64,1.17s2.42-1.88,2.16-3.56l1.46,1.42s1.87-6,2.27-5.43l1,1s3.13-4.14,2.87-5.11a15.58,15.58,0,0,1,2.13,8.66,3.05,3.05,0,0,0,.66-.77c.2-.39,1.34,3.1.34,5.88,0,0,2.06-3.42,1,5.05,0,0,2.8-3.49.87,6.2,0,0,3.93-2.45-1.54,6.6,0,0,.54,1.55,1.4.45,0,0,.47,1.3-2.33,6.53,0,0,2.13-1.16-.6,5.18,0,0,1.93,4.72-10.8,7.43,0,0-.19,2.46,1.74,6.4C80.42,100.21,79.63,101.31,77.79,100.5Z"/><path class="cls-2" d="M77.22,94.35a43,43,0,0,1,1.09-7.65c1.15-4.86,2.59-7.1,4.56-13,0,0,1.24-3.71,2.4-8.55a91.17,91.17,0,0,0,2.41-19.58"/><path class="cls-2" d="M73.26,64.33a22.34,22.34,0,0,0,.94,5.07A31.84,31.84,0,0,0,75.6,73c.42,1,.77,1.7,1.07,2.29,1.06,2.08,1.35,2.7,1.59,3.22A10.88,10.88,0,0,1,79,84.49"/><path class="cls-2" d="M77,60.21a28.91,28.91,0,0,0,.5,4.3c.23,1.15.47,2,.77,3.09.23.84.42,1.47.59,2,.3.91.65,2.11.85,2.7a17.74,17.74,0,0,0,2.26,4.32"/><path class="cls-2" d="M83.45,71.7a14.91,14.91,0,0,0-.23-5.23c-.32-1.39-.65-1.82-1.45-4.67-.29-1.08-.53-1.94-.76-3.09a29.16,29.16,0,0,1-.5-4.31"/><path class="cls-2" d="M85.8,62.57a19.51,19.51,0,0,1-1.48-4.48c-.18-1.26-.23-1.66-.23-1.67a11.09,11.09,0,0,0-.16-1.25,4.79,4.79,0,0,0-.85-1.59,4.52,4.52,0,0,1-.53-3.12"/><path class="cls-2" d="M86,61.64a4.63,4.63,0,0,0,.93-1.59,1.8,1.8,0,0,1,.15-.42c.16-.3.32-.39.72-1a5.07,5.07,0,0,0,.37-.66,11.8,11.8,0,0,1,2.14-2.31"/><path class="cls-2" d="M84.47,68.44c.55-1.45,1.15-1.88,1.61-2a2.23,2.23,0,0,0,1-.36c.08-.07.26-.3.66-.72.12-.12.25-.26.41-.45a6.71,6.71,0,0,0,.56-.78,9.92,9.92,0,0,1,2.22-2"/><path class="cls-2" d="M91.29,68a9.58,9.58,0,0,1-1.81,2.74,12.79,12.79,0,0,1-2,1.75c-1.52,1.11-3.31,2.45-5.56,4.16"/><path class="cls-2" d="M90.3,74.22a8.94,8.94,0,0,1-2.15,2.86,16.58,16.58,0,0,1-2.44,1.77c-2.46,1.57-3.3,1.66-4.35,2.48A8.55,8.55,0,0,0,80,83c-.46.62-.81,1.16-1.06,1.54"/><path class="cls-2" d="M77.75,91.58a4.37,4.37,0,0,1,1.89-4c1.17-.86,2.13-.94,4.89-2.59a18.17,18.17,0,0,0,2.73-1.86,9.14,9.14,0,0,0,2.38-3"/><path class="cls-2" d="M77.51,92.81a10,10,0,0,1,4.06-3.49c1.13-.51,2.09-.65,4.15-1.54,1-.46,1.89-.9,2.44-1.2"/><path class="cls-2" d="M77.51,92.81a11.56,11.56,0,0,0-.42-6.16c-.58-1.64-1.19-2.14-2.66-5.51A30.47,30.47,0,0,1,73,77.5a22.69,22.69,0,0,1-.93-5.07"/><path class="cls-2" d="M77.37,92.4a3.58,3.58,0,0,0-.66-1.92c-.18-.23-.31-.35-.75-.85-.2-.24-.45-.55-.77-1a18,18,0,0,1-1.71-3c-.2-.47-.34-.85-.44-1.17a13.47,13.47,0,0,0-.76-2.13c-.3-.66-1-1.5-3-2.1"/><path class="cls-1" d="M65.26,95.13s49.74-.74,91.1,77.09c0,0,.07,2.19-3.31,1.95,0,0-31.17-63.33-90.49-77.45C62.56,96.72,55.34,93.68,65.26,95.13Z"/><path class="cls-1" d="M77.32,98.6a12.76,12.76,0,0,0-6.43,3.48,6,6,0,0,1-3.79.73s-6.23-2.78-7.92-1l1.26.8s-8.63.5-7,1.56l2,.72s-10.83,4.8-6.61,5.74c0,0-5.94,4-2.73,3.71,0,0-5.58,5.38-2.14,4.51l-2.21,3.63,1.42.26s-3.33,4.66-3.42,6.09l1.32-.21s0,3.26-1.44,4.12l2,.31s-3.49,5.43-2.84,5.44l1.44.17S39,144,38.05,144.37a14.8,14.8,0,0,0,8.12-3.82,3.41,3.41,0,0,1-.19,1.06c-.18.42,3.26-.89,4.81-3.53,0,0-1.39,4,4.58-2.43,0,0-1,4.62,5.4-3.3,0,0,.53,4.91,4.21-5.57,0,0,1.55-.55,1.23.89,0,0,1.3-.45,3.66-6.2,0,0,.41,2.55,3.67-3.86,0,0,4.91-1.43-.9-13.92,0,0,1.81-1.75,6.09-2.68C78.73,101,79.11,99.63,77.32,98.6Z"/><path class="cls-2" d="M72.15,102.12A42.41,42.41,0,0,0,66.83,108c-3.09,4.12-3.94,6.79-7.3,12.24,0,0-2.12,3.45-5.2,7.56A92.4,92.4,0,0,1,40.5,142.52"/><path class="cls-2" d="M46.17,118.24a22.34,22.34,0,0,1,4.55-2.5,30.23,30.23,0,0,1,3.72-1.18c1-.27,1.81-.45,2.46-.58,2.3-.46,3-.61,3.52-.75a10.48,10.48,0,0,0,5.1-3.25"/><path class="cls-2" d="M45.24,124a28.71,28.71,0,0,1,3.69-2.37c1-.55,1.86-.91,2.89-1.36.81-.34,1.42-.59,1.92-.78.9-.34,2.07-.82,2.65-1a16.55,16.55,0,0,1,4.79-.9"/><path class="cls-2" d="M58.29,122.05a14.68,14.68,0,0,1-4.24,3.19c-1.29.64-1.83.63-4.56,1.82-1,.44-1.86.8-2.9,1.36a28.23,28.23,0,0,0-3.68,2.36"/><path class="cls-2" d="M52.6,129.94a18.77,18.77,0,0,0-4.42,1.66c-1.11.66-1.46.89-1.46.89a8.58,8.58,0,0,1-1.08.67,4.39,4.39,0,0,1-1.77.32,4.39,4.39,0,0,0-2.78,1.58"/><path class="cls-2" d="M52,130.68a5.12,5.12,0,0,1-.66,1.82,1.6,1.6,0,0,0-.24.4c-.14.33-.11.52-.34,1.25-.13.4-.26.69-.28.75a13.51,13.51,0,0,0-.48,3.3"/><path class="cls-2" d="M56.37,125c-.79,1.4-.75,2.19-.56,2.65a2.62,2.62,0,0,1,.37,1.12c0,.11-.07.42-.15,1,0,.18-.05.39-.1.64a9.33,9.33,0,0,1-.26,1,11.48,11.48,0,0,0-.18,3.16"/><path class="cls-2" d="M60.24,131.08a10.47,10.47,0,0,0,1-3.3,14.42,14.42,0,0,0,.13-2.82c-.08-2-.15-4.36-.21-7.37"/><path class="cls-2" d="M64.53,126.18a9.74,9.74,0,0,0,.9-3.66,19.3,19.3,0,0,0-.13-3.2c-.3-3.1-.76-3.87-.77-5.27a9.64,9.64,0,0,1,.44-2.19c.2-.78.4-1.43.55-1.88"/><path class="cls-2" d="M70.31,104.35a4.71,4.71,0,0,0-2,4.19c.06,1.54.6,2.4,1,5.8a21.1,21.1,0,0,1,.24,3.5,10,10,0,0,1-.9,4"/><path class="cls-2" d="M71.13,103.36a11.16,11.16,0,0,0-.21,5.68c.3,1.28.8,2.18,1.38,4.5.3,1.18.48,2.17.58,2.83"/><path class="cls-2" d="M71.13,103.36A11.38,11.38,0,0,1,66,107c-1.65.57-2.42.39-6,1.34a27.29,27.29,0,0,0-3.73,1.18,21.67,21.67,0,0,0-4.55,2.5"/><path class="cls-2" d="M70.71,103.5a3.24,3.24,0,0,1-1.91.69c-.29,0-.47,0-1.13-.07a12.59,12.59,0,0,0-1.27,0,17.11,17.11,0,0,0-3.45.53c-.49.14-.87.27-1.19.39a13.26,13.26,0,0,1-2.13.74c-.71.18-1.82.1-3.52-1.16"/><path class="cls-1" d="M59.31,92.5a5.77,5.77,0,0,0-2.41-2.25,2.69,2.69,0,0,1-.85-1.51s.3-3.06-.7-3.53l-.16.66s-1.45-3.62-1.67-2.78v1s-3.6-3.93-3.4-2c0,0-2.56-2-2-.63,0,0-3.09-1.62-2.23-.27L44,80.73l.09.65a11.39,11.39,0,0,0-3.08-.59l.27.53s-1.38.48-2,0l.15.91s-2.81-.72-2.72-.44l.13.64s-2.45.21-2.76-.13A6.7,6.7,0,0,0,37,85.19a1.42,1.42,0,0,1-.48.07c-.2,0,.85,1.27,2.2,1.55,0,0-1.89,0,1.69,1.61,0,0-2.12.24,2.18,1.83,0,0-2,.93,3,1,0,0,.46.58-.2.65,0,0,.38.49,3.17.67,0,0-1,.55,2.17,1,0,0,1.31,1.89,5.81-2.37a5.91,5.91,0,0,1,2,2.22S59.12,93.41,59.31,92.5Z"/><path class="cls-2" d="M57.07,90.79a20.05,20.05,0,0,0-3.27-1.43c-2.2-.73-3.46-.71-6.26-1.37,0,0-1.78-.41-4-1.14a41.67,41.67,0,0,1-8.26-3.8"/><path class="cls-2" d="M46.47,82a9.52,9.52,0,0,1,1.72,1.58,13.93,13.93,0,0,1,1,1.42c.26.4.45.71.6,1,.52.91.68,1.17.82,1.39a4.7,4.7,0,0,0,2.11,1.72"/><path class="cls-2" d="M43.87,82.44a12.32,12.32,0,0,1,1.54,1.23c.38.37.66.67,1,1s.46.53.61.71c.27.34.65.77.82,1a7.35,7.35,0,0,1,1.07,1.92"/><path class="cls-2" d="M46.58,87.72a6.62,6.62,0,0,1-2-1.35c-.45-.46-.53-.69-1.42-1.69-.34-.37-.61-.68-1-1a14.65,14.65,0,0,0-1.53-1.24"/><path class="cls-2" d="M42.4,86.42a8.41,8.41,0,0,0-1.34-1.65c-.44-.38-.59-.49-.59-.49a5.5,5.5,0,0,1-.44-.37,2,2,0,0,1-.39-.71,1.93,1.93,0,0,0-1.07-1"/><path class="cls-2" d="M42,86.26a2.37,2.37,0,0,1-.87,0,.79.79,0,0,0-.2,0c-.16,0-.24,0-.59,0-.19,0-.33,0-.35,0a6.29,6.29,0,0,0-1.48.27"/><path class="cls-2" d="M45,87.33c-.71-.14-1,0-1.22.14a1,1,0,0,1-.42.31s-.19,0-.46.09l-.28,0a3.74,3.74,0,0,1-.46,0,4.61,4.61,0,0,0-1.37.37"/><path class="cls-2" d="M43,89.85a4.93,4.93,0,0,0,1.56,0,6.1,6.1,0,0,0,1.22-.35c.84-.32,1.84-.68,3.12-1.14"/><path class="cls-2" d="M45.71,91a4.29,4.29,0,0,0,1.69-.14,9.29,9.29,0,0,0,1.35-.51c1.28-.57,1.54-.88,2.14-1.09a5.13,5.13,0,0,1,1-.12l.88,0"/><path class="cls-2" d="M55.85,90.33a2.13,2.13,0,0,0-2.07-.24c-.65.25-.94.6-2.32,1.27A9.47,9.47,0,0,1,50,92a4.39,4.39,0,0,1-1.82.18"/><path class="cls-2" d="M56.39,90.54a4.87,4.87,0,0,0-2.45.72c-.51.31-.82.65-1.73,1.23-.46.29-.85.51-1.12.65"/><path class="cls-2" d="M56.39,90.54a5.15,5.15,0,0,1-2.28-1.66c-.48-.62-.51-1-1.42-2.36a13.82,13.82,0,0,0-1-1.42,9.86,9.86,0,0,0-1.72-1.58"/><path class="cls-2" d="M56.27,90.38a1.51,1.51,0,0,1-.57-.72c0-.12-.05-.2-.13-.49a3.73,3.73,0,0,0-.18-.54,7.37,7.37,0,0,0-.71-1.4,4.32,4.32,0,0,0-.34-.45,6.34,6.34,0,0,1-.62-.81,1.89,1.89,0,0,1,0-1.66"/><path class="cls-1" d="M61.43,93.11a5.75,5.75,0,0,0-3.23-.66,2.74,2.74,0,0,1-1.51-.85S55.35,88.83,54.25,89l.2.65s-3.11-2.34-2.86-1.5l.49.84S47,87.45,48.14,89c0,0-3.21-.34-2,.48,0,0-3.48.24-2,.94l-1.82.6.42.51a11.41,11.41,0,0,0-2.94,1.11l.51.3s-.93,1.14-1.69,1l.61.7s-2.78.86-2.56,1l.45.47s-2,1.46-2.42,1.33a6.65,6.65,0,0,0,3.9,1,1.45,1.45,0,0,1-.38.31,3.31,3.31,0,0,0,2.69.18s-1.63,1,2.28.49c0,0-1.68,1.3,2.81.43,0,0-1.24,1.84,3.07-.7,0,0,.69.26.16.66,0,0,.58.22,3.06-1.07,0,0-.6,1,2.39-.27,0,0,2.1.93,3.72-5a5.91,5.91,0,0,1,2.87.84A1,1,0,0,0,61.43,93.11Z"/><path class="cls-2" d="M58.62,92.82a20.23,20.23,0,0,0-3.53.49c-2.26.52-3.32,1.19-6.06,2.09,0,0-1.73.57-4,1.1a41.64,41.64,0,0,1-9,1.06"/><path class="cls-2" d="M45,90.84a10.59,10.59,0,0,1,2.3.46,12.87,12.87,0,0,1,1.62.68c.43.2.75.37,1,.51.92.51,1.19.65,1.42.76a4.78,4.78,0,0,0,2.7.36"/><path class="cls-2" d="M43,92.57a11.87,11.87,0,0,1,2,.25c.52.11.91.23,1.39.37l.89.29,1.21.41A7.38,7.38,0,0,1,50.36,95"/><path class="cls-2" d="M48.08,95.67a6.68,6.68,0,0,1-2.39-.13c-.63-.15-.81-.31-2.1-.7-.48-.14-.87-.26-1.39-.37a11.87,11.87,0,0,0-2-.25"/><path class="cls-2" d="M43.83,96.74a8.49,8.49,0,0,0-2-.71l-.75-.12a3.71,3.71,0,0,1-.57-.08,2.08,2.08,0,0,1-.7-.4,2,2,0,0,0-1.42-.27"/><path class="cls-2" d="M43.4,96.81a2.17,2.17,0,0,1-.76.43l-.2.07c-.14.08-.18.15-.48.34a2.26,2.26,0,0,1-.31.17,6.32,6.32,0,0,0-1.12,1"/><path class="cls-2" d="M46.55,96.14c-.67.25-.89.53-1,.75a1.12,1.12,0,0,1-.2.49s-.14.12-.34.31l-.22.19a4.19,4.19,0,0,1-.37.26,4.66,4.66,0,0,0-1,1"/><path class="cls-2" d="M46.13,99.35a4.83,4.83,0,0,0,1.31-.85,6.26,6.26,0,0,0,.86-.93c.55-.71,1.21-1.54,2.06-2.6"/><path class="cls-2" d="M49,98.9a4.34,4.34,0,0,0,1.37-1,9.3,9.3,0,0,0,.88-1.14c.8-1.15.86-1.55,1.26-2a4.78,4.78,0,0,1,.79-.62c.3-.21.55-.38.73-.49"/><path class="cls-2" d="M57.34,93.06a2.07,2.07,0,0,0-1.88.88c-.43.54-.49,1-1.33,2.29a11.36,11.36,0,0,1-.93,1.28,4.47,4.47,0,0,1-1.47,1.1"/><path class="cls-2" d="M57.91,93a5.17,5.17,0,0,0-1.72,1.9c-.26.53-.35,1-.82,2-.24.49-.47.88-.62,1.14"/><path class="cls-2" d="M57.91,93a5,5,0,0,1-2.8-.22c-.74-.28-1-.57-2.45-1.27A11,11,0,0,0,51,90.79a9.53,9.53,0,0,0-2.29-.46"/><path class="cls-2" d="M57.73,92.88a1.53,1.53,0,0,1-.86-.31l-.37-.36c-.1-.09-.23-.21-.43-.36A7.58,7.58,0,0,0,54.73,91a3.19,3.19,0,0,0-.53-.21,6.32,6.32,0,0,1-1-.37C53,90.31,52.6,90,52.38,89"/><path class="cls-1" d="M67.59,97.51a10.05,10.05,0,0,1-5-2.3,4.89,4.89,0,0,0-2.9-.42s-4.62,2.17-6,.95l.92-.61s-6.56-.11-5.38-.91l1.52-.57s-8.4-3.13-5.23-3.92c0,0-4.66-2.7-2.21-2.57,0,0-4.44-3.68-1.8-3.16l-1.82-2.52,1.07-.24S38.08,78,38,77l1,.12s-.09-2.33-1.24-2.9l1.52-.28s-2.86-3.78-2.36-3.8L38,70s-1.18-3.77-1.9-4a11.9,11.9,0,0,1,6.31,2.5,2.45,2.45,0,0,0-.19-.75c-.15-.3,2.51.54,3.79,2.39,0,0-1.21-2.79,3.56,1.6,0,0-.93-3.27,4.22,2.2,0,0,.22-3.51,3.41,3.86,0,0,1.19.36.9-.67,0,0,1,.29,3,4.33,0,0,.22-1.83,2.93,2.65,0,0,3.78.89-.16,10a10.52,10.52,0,0,0,4.73,1.75S68.91,96.73,67.59,97.51Z"/><path class="cls-2" d="M63.53,95.15a31.51,31.51,0,0,1-4.25-4.05c-2.5-2.85-3.25-4.73-6-8.53,0,0-1.75-2.4-4.24-5.25A69.12,69.12,0,0,0,38,67.2"/><path class="cls-2" d="M43.21,84.37A17.73,17.73,0,0,0,46.76,86a22.83,22.83,0,0,0,2.87.74c.78.17,1.39.27,1.89.35,1.76.26,2.26.35,2.69.43a8.31,8.31,0,0,1,4,2.18"/><path class="cls-2" d="M42.29,80.26a22.06,22.06,0,0,0,2.89,1.59c.81.37,1.45.6,2.24.89.63.22,1.1.38,1.49.5.69.22,1.6.53,2.05.66a12.86,12.86,0,0,0,3.67.51"/><path class="cls-2" d="M52.26,81.31a11.32,11.32,0,0,0-3.33-2.16c-1-.42-1.41-.4-3.53-1.17-.8-.29-1.44-.52-2.25-.89a23.48,23.48,0,0,1-2.89-1.58"/><path class="cls-2" d="M47.65,75.83a14.46,14.46,0,0,1-3.42-1.06l-1.14-.59a7.08,7.08,0,0,0-.84-.45,3.72,3.72,0,0,0-1.36-.18,3.41,3.41,0,0,1-2.17-1"/><path class="cls-2" d="M47.15,75.32A3.64,3.64,0,0,0,46.57,74a1.31,1.31,0,0,1-.2-.27c-.11-.23-.09-.38-.3-.89a5.15,5.15,0,0,0-.24-.52A9.33,9.33,0,0,1,45.34,70"/><path class="cls-2" d="M50.7,79.24c-.66-1-.66-1.54-.53-1.88a1.76,1.76,0,0,0,.24-.8c0-.09-.07-.3-.15-.73,0-.13-.06-.27-.11-.45a5,5,0,0,0-.23-.69,7.63,7.63,0,0,1-.25-2.25"/><path class="cls-2" d="M53.4,74.81a7.35,7.35,0,0,1,.9,2.33,10.89,10.89,0,0,1,.21,2c0,1.43.05,3.12.12,5.27"/><path class="cls-2" d="M56.84,78.18a6.65,6.65,0,0,1,.82,2.59,12.47,12.47,0,0,1,0,2.29c-.12,2.22-.43,2.78-.39,3.79a6.71,6.71,0,0,0,.42,1.54c.18.56.36,1,.49,1.33"/><path class="cls-2" d="M62.05,93.61a3.37,3.37,0,0,1-1.64-2.94c0-1.1.36-1.73.56-4.17A14.13,14.13,0,0,0,61,84a7.17,7.17,0,0,0-.83-2.81"/><path class="cls-2" d="M62.71,94.29a7.59,7.59,0,0,1-.37-4.05c.18-.92.52-1.57.87-3.25.18-.85.28-1.56.34-2"/><path class="cls-2" d="M62.71,94.29a8.85,8.85,0,0,0-4-2.45c-1.28-.36-1.86-.21-4.59-.78a25.22,25.22,0,0,1-2.87-.74,17.66,17.66,0,0,1-3.55-1.66"/><path class="cls-2" d="M62.39,94.2a2.66,2.66,0,0,0-1.47-.44c-.22,0-.36,0-.86.09a8.47,8.47,0,0,1-1,0,13.42,13.42,0,0,1-2.64-.28,9.1,9.1,0,0,1-.92-.24,11.17,11.17,0,0,0-1.64-.47,3.3,3.3,0,0,0-2.62.93"/><path class="cls-3" d="M100.59,108a4.29,4.29,0,0,1-1.11-2.16s-.35-.73-.87-.89c0,0-2.09-.27-2.24-1.09l.46,0s-2.17-1.67-1.57-1.7l.65.15s-2-3.33-.77-2.87c0,0-.88-2.23-.09-1.58,0,0-.57-2.57.19-1.71l0-1.47.42.18a9.66,9.66,0,0,1,.12-2.41l.31.29s.55-1,.31-1.47l.58.26s0-2.22.17-2.11l.4.2s.56-1.8.38-2.08a4.91,4.91,0,0,1,1.49,2.56,1.52,1.52,0,0,0,.13-.35,2.58,2.58,0,0,1,.67,1.9s.29-1.42.79,1.52c0,0,.51-1.54.86,1.93,0,0,1-1.36.17,2.39,0,0,.31.44.47,0,0,0,.27.36-.08,2.48,0,0,.54-.68.32,1.79,0,0,1,1.29-2.57,4a4.5,4.5,0,0,0,1.15,1.87A.74.74,0,0,1,100.59,108Z"/><path class="cls-1" d="M100.1,108.12a3.57,3.57,0,0,1-1.25-1.61,1.61,1.61,0,0,0-.86-.61s-1.83.07-2.07-.59l.39-.07s-2.09-1.07-1.58-1.17l.57,0s-2.2-2.44-1.06-2.24c0,0-1.07-1.7-.3-1.28,0,0-.84-2-.08-1.42L93.68,98l.38.08a7.86,7.86,0,0,1-.24-2l.31.2s.33-.86.05-1.25l.54.14s-.32-1.82-.16-1.75l.37.11s.22-1.55,0-1.75a4.13,4.13,0,0,1,1.63,1.89,1.23,1.23,0,0,0,.06-.31c0-.13.72.59.84,1.46,0,0,.05-1.2.89,1.14,0,0,.22-1.33,1,1.45,0,0,.62-1.24.48,1.93,0,0,.33.32.39-.1,0,0,.28.26.29,2,0,0,.36-.63.52,1.42,0,0,1.07.91-1.62,3.59a3.78,3.78,0,0,0,1.24,1.37A.62.62,0,0,1,100.1,108.12Z"/><path class="cls-3" d="M99.75,113.59a4.3,4.3,0,0,1-2.43.11,1.87,1.87,0,0,0-1.16.42s-1.12,1.8-1.93,1.59l.18-.43s-2.43,1.29-2.2.73l.4-.53s-3.87.46-2.93-.49c0,0-2.4-.13-1.47-.57,0,0-2.58-.56-1.48-.89l-1.32-.63.33-.31a9.8,9.8,0,0,1-2.14-1.11l.39-.16s-.64-.9-1.21-.9l.48-.42s-2-.91-1.85-1l.35-.29s-1.41-1.25-1.74-1.21a4.93,4.93,0,0,1,3-.29,1.3,1.3,0,0,0-.27-.26,2.6,2.6,0,0,1,2,.18s-1.17-.86,1.71-.09c0,0-1.19-1.11,2.12,0,0,0-.84-1.44,2.24.83,0,0,.53-.1.16-.44,0,0,.44-.1,2.22,1.1,0,0-.4-.77,1.77.45,0,0,1.6-.41,2.54,4a4.36,4.36,0,0,0,2.18-.27A.74.74,0,0,1,99.75,113.59Z"/><path class="cls-1" d="M99.62,114.07a3.64,3.64,0,0,1-2,.46,1.62,1.62,0,0,0-.91.54s-.7,1.69-1.39,1.64l.1-.39s-1.84,1.46-1.73,1l.27-.51s-3.13,1-2.48,0c0,0-2,.27-1.28-.25,0,0-2.2-.08-1.33-.52l-1.17-.33.23-.32a7.8,7.8,0,0,1-1.9-.6l.31-.2s-.64-.66-1.11-.57l.34-.43s-1.78-.46-1.65-.58l.25-.29s-1.32-.84-1.58-.75a4.13,4.13,0,0,1,2.39-.7,1,1,0,0,0-.25-.18,2.09,2.09,0,0,1,1.67-.16s-1.07-.55,1.41-.34c0,0-1.12-.75,1.74-.31,0,0-.87-1.09,2,.36,0,0,.42-.17.07-.4,0,0,.35-.15,2,.58,0,0-.42-.59,1.51.11,0,0,1.27-.59,2.59,3a3.67,3.67,0,0,0,1.76-.56A.62.62,0,0,1,99.62,114.07Z"/><path class="cls-3" d="M133.51,140.73a4,4,0,0,1-.76-3.07,1.87,1.87,0,0,0-1.05-1.3s-3.53-.58-3.34-1.72l.82,0s-2.92-2.49-1.85-2.48l1.07.26s-1.77-4.76.19-4c0,0-.34-3.15.69-2.18,0,0,.4-3.59,1.25-2.33l.84-2,.64.27a13.67,13.67,0,0,1,1.51-3.29l.38.44s1.49-1.26,1.34-2l.88.42s1.19-3.05,1.42-2.88l.6.32s1.94-2.43,1.79-2.83a4.57,4.57,0,0,1,1.22,3.66,2.51,2.51,0,0,0,.41-.47c.13-.21.79,1.22.16,2.66,0,0,1.28-1.92.56,2.17,0,0,1.73-2.07.48,2.73,0,0,2.41-1.77-1,3.3,0,0,.31.63.85,0,0,0,.27.52-1.48,3.4,0,0,1.31-.88-.4,2.49,0,0,1.13,1.87-6.63,5.2a4.1,4.1,0,0,0,1,2.67A1.88,1.88,0,0,1,133.51,140.73Z"/><path class="cls-1" d="M133.77,141.09a3.43,3.43,0,0,1-1.75-2,1.86,1.86,0,0,0-1.35-.66s-3.18.56-3.44-.32l.71-.22s-3.36-1-2.45-1.29l1-.11s-3.2-3-1.27-3c0,0-1.42-2.2-.2-1.78,0,0-1-2.73.22-2.05V128l.64,0a9,9,0,0,1,.09-2.82l.48.21s.8-1.33.42-1.82l.89.06s-.1-2.55.17-2.49l.62.06s.76-2.3.49-2.55a4,4,0,0,1,2.34,2.32,1.69,1.69,0,0,0,.18-.45c0-.19,1.1.67,1.09,1.9,0,0,.39-1.76,1.25,1.43,0,0,.72-2,1.38,1.85,0,0,1.4-2,.35,2.68a.43.43,0,0,0,.71-.25s.42.31,0,2.89c0,0,.78-1,.54,1.93,0,0,1.63,1-3.73,5.62a3.57,3.57,0,0,0,1.81,1.67A1.52,1.52,0,0,1,133.77,141.09Z"/><path class="cls-1" d="M132.52,138.72a10,10,0,0,1,1.41,7.26s.4,2.43,2.18,3.32c0,0,7.74,2.5,7.22,5l-1.81-.33s6.2,6.68,3.84,6.28l-2.32-1s3.45,11.45-.81,9.06c0,0,.47,7.3-1.71,4.73,0,0-1.22,8-3,4.88l-2,4.29-1.39-.84s-2.23,5.86-3.64,7l-.8-1.12s-3.41,2.37-3.15,4.09l-1.9-1.25s-2.9,6.55-3.41,6.07l-1.29-.92s-4.51,4.86-4.21,5.83a11.71,11.71,0,0,1-2.36-8.75,4.86,4.86,0,0,0-1,.93c-.3.44-1.62-3-.09-6.13,0,0-3,3.94-1-5.13,0,0-4,4.13-.79-6.38,0,0-5.49,3.23,2.48-7.17,0,0-.62-1.55-1.87-.25,0,0-.55-1.28,3.57-7.24,0,0-3,1.57,1.14-5.53,0,0-2.34-4.64,15.11-9.58,0,0,.4-2.61-2-6.44A3.68,3.68,0,0,1,132.52,138.72Z"/><path class="cls-2" d="M132.91,145.09a39,39,0,0,1-1.95,8.22c-1.86,5.29-4,7.88-7,14.34,0,0-1.92,4.1-3.78,9.38A83,83,0,0,0,115.72,198"/><path class="cls-2" d="M136.44,176a17.33,17.33,0,0,0-1-5.17,23,23,0,0,0-1.68-3.59c-.51-.94-.94-1.65-1.31-2.22-1.31-2-1.66-2.62-2-3.13-.67-1.18-1.24-3.07-.61-6.12"/><path class="cls-2" d="M131.17,180.9a23.37,23.37,0,0,0-.42-4.44,29,29,0,0,0-.85-3.12c-.27-.84-.49-1.47-.68-2-.35-.91-.76-2.12-1-2.7a13.42,13.42,0,0,0-2.79-4.17"/><path class="cls-2" d="M123.06,169.9a12.16,12.16,0,0,0,0,5.45c.35,1.41.77,1.8,1.68,4.67a26.87,26.87,0,0,1,.84,3.12,22.71,22.71,0,0,1,.43,4.44"/><path class="cls-2" d="M119.32,179.87a14.6,14.6,0,0,1,1.72,4.46c.18,1.29.21,1.71.21,1.71a8.31,8.31,0,0,0,.15,1.29,3.71,3.71,0,0,0,1,1.53,3.51,3.51,0,0,1,.53,3.2"/><path class="cls-2" d="M119,180.87a5.94,5.94,0,0,0-1.36,1.83,1.85,1.85,0,0,1-.23.47c-.23.34-.46.46-1,1.17-.32.39-.52.69-.56.75a18.11,18.11,0,0,1-3,2.78"/><path class="cls-2" d="M121.48,173.49a4.2,4.2,0,0,1-2.31,2.36,4.35,4.35,0,0,0-1.44.56c-.12.08-.38.35-1,.86-.17.14-.35.32-.58.54a9.51,9.51,0,0,0-.81.91,16.41,16.41,0,0,1-3.13,2.46"/><path class="cls-2" d="M112.19,175.12a13.42,13.42,0,0,1,2.63-3.17,21.89,21.89,0,0,1,2.81-2.17c2.13-1.41,4.64-3.11,7.8-5.28"/><path class="cls-2" d="M113.93,168.38A12.7,12.7,0,0,1,117,165a30.55,30.55,0,0,1,3.41-2.26c3.44-2.06,4.59-2.28,6.06-3.31a13.2,13.2,0,0,0,1.91-1.93c.66-.73,1.17-1.35,1.52-1.79"/><path class="cls-2" d="M132,148.08a5.44,5.44,0,0,1-2.82,4.52c-1.64,1.09-2.94,1.33-6.79,3.52a32,32,0,0,0-3.82,2.4,13.47,13.47,0,0,0-3.42,3.58"/><path class="cls-2" d="M132.42,146.75a17,17,0,0,1-5.72,4.34c-1.56.72-2.87,1-5.73,2.3-1.45.65-2.62,1.25-3.39,1.66"/><path class="cls-2" d="M132.42,146.75a9.29,9.29,0,0,0,.19,6.4c.7,1.63,1.49,2,3.27,5.35a23,23,0,0,1,1.68,3.59,17,17,0,0,1,.95,5.17"/><path class="cls-2" d="M132.59,147.17a2.68,2.68,0,0,0,.78,1.9c.22.21.4.32,1,.77a11.84,11.84,0,0,1,1,.92,13.86,13.86,0,0,1,2.14,2.92,7.52,7.52,0,0,1,.52,1.15,11,11,0,0,0,.9,2.11c.37.65,1.31,1.4,3.94,1.71"/><g id="glass" class="cls-4"><rect id="glassbottom" class="cls-5" x="33.07" y="331.17" width="154.02" height="21.71"/><rect id="glass-2" data-name="glass" class="cls-6" x="33.07" y="165.37" width="154.02" height="165.8"/></g><g id="drink" class="cls-7"><path class="cls-8" d="M166,328.6H54.2a14.9,14.9,0,0,1-14.74-15.06V275.18s53-4.29,70.62-4.29,70.62,4.29,70.62,4.29v38.36A14.9,14.9,0,0,1,166,328.6Z"/><path class="cls-8" d="M180.7,289.9s-53-5.69-70.62-5.69-70.62,5.69-70.62,5.69V231s53-4.74,70.62-4.74S180.7,231,180.7,231Z"/><path class="cls-9" d="M180.7,236.46s-53-4.48-70.62-4.48-70.62,4.48-70.62,4.48V190.13H180.7Z"/></g><g id="ice" class="cls-10"><path class="cls-11" d="M156.44,324.47l-22.39-1.39c-12.06-.69-11.94-5.92-11.48-12.27l1.49-20.94c.45-6.35-1.52-13.23,13.12-10.74l22.39,1.4c6.79.42,11.93,5.92,11.48,12.27l-1.49,20.94C168,324.5,163.23,324.9,156.44,324.47Z"/><path class="cls-12" d="M90.52,277.6l18.18,12.3c5.52,3.74,11,5,2.76,16.1L98.31,323a12.89,12.89,0,0,1-17.22,2.58l-18.18-12.3c-10.85-7.58-6.75-10.94-2.76-16.1l13.16-17A12.89,12.89,0,0,1,90.52,277.6Z"/><path class="cls-13" d="M131.51,252l9.59,19c2.91,5.76.27,12.63-5.88,15.35l-20.29,9c-6.16,2.72-13.51.26-16.41-5.5l-9.59-19c-2.91-5.75-.28-12.62,5.88-15.34l20.29-9C127.35,239.23,127.35,245.42,131.51,252Z"/></g><circle class="cls-14" cx="160.78" cy="97.59" r="27.11"/><circle class="cls-15" cx="164.4" cy="93.47" r="23.45"/><g id="citrus"><path class="cls-16" d="M148.12,114.09a20.55,20.55,0,0,0,7.27,2.12A24.28,24.28,0,0,1,148.12,114.09Z"/><path class="cls-16" d="M179.94,104.11c-.11.2-.23.39-.35.58C179.71,104.5,179.83,104.31,179.94,104.11Z"/><path class="cls-16" d="M179.38,105l0,0Z"/><path class="cls-16" d="M181,80.66l-.36.15a24.91,24.91,0,0,1,1.35,3.09A27.73,27.73,0,0,0,181,80.66Z"/><path class="cls-16" d="M134.86,99.21h0l.06.15Z"/><path class="cls-17" d="M179.67,101.59c-5.92,11.73-20.55,16.48-32.68,10.63a24.49,24.49,0,0,1-9-7.35,28,28,0,0,0,10.11,9.22,24.28,24.28,0,0,0,7.27,2.12,25.65,25.65,0,0,0,12.17-2c5.74-2.32,9.46-5.56,11.79-9.13l0,0a3.87,3.87,0,0,0,.21-.34c.12-.19.24-.38.35-.58,4.24-7.31,3.11-15.71,2-20.21a24.91,24.91,0,0,0-1.35-3.09l-.77.3A23.05,23.05,0,0,1,179.67,101.59Z"/><path class="cls-18" d="M138,104.87a24.49,24.49,0,0,0,9,7.35c12.13,5.85,26.76,1.1,32.68-10.63a23.05,23.05,0,0,0,.15-20.48L138,97.94l-1.14.5,0,0-2,.79.06.16A33.61,33.61,0,0,0,138,104.87Zm41.22-23.35s1.32,2.71,1.77,9.5c.36,5.65-3.42,10.62-3.42,10.62L159.33,90.07Zm-2,21.35s-2,5.49-10.21,8.81a18.13,18.13,0,0,1-10.52,1l1.71-21.47ZM156.67,91.16l-2.54,22s-3.08-.41-9.3-4.06c-5.2-3-7.64-9.43-7.64-9.43Z"/><path class="cls-19" d="M138,97.94l-1.18.48,0,0Z"/><path class="cls-20" d="M144.83,109.09c6.22,3.65,9.3,4.06,9.3,4.06l2.54-22-19.48,8.5S139.63,106.05,144.83,109.09Z"/><path class="cls-20" d="M181,91c-.45-6.79-1.77-9.5-1.77-9.5l-19.9,8.55,18.25,11.57S181.36,96.67,181,91Z"/><path class="cls-20" d="M167,111.68c8.2-3.32,10.21-8.81,10.21-8.81l-19-11.64-1.71,21.47A18.13,18.13,0,0,0,167,111.68Z"/></g><circle class="cls-15" cx="143.6" cy="103.74" r="8.44"/><circle class="cls-15" cx="132.15" cy="143.44" r="4.12"/><path class="cls-21" d="M177.84,78.7a10.35,10.35,0,0,1,2.07,3.3l2.3,5c1.91,4.15,3.87,8.73,2.7,13.15a24.31,24.31,0,0,0-5.41-10.51,6.79,6.79,0,0,0-1.58-1.4,6.18,6.18,0,0,0-2.23-.7c-2.52-.39-5.1-.11-7.65-.23s-5.24-.72-7.07-2.51-2.36-5-.58-6.88C164.51,73.68,173.83,74.92,177.84,78.7Z"/><path class="cls-22" d="M40.08,191.64s0-15.2,0-20.41c0-17.54-12.87-7.13-9.09-24.35C33,137.5,51.74,135,51.56,141.06c.17-5.59,5.21-7.68,10.19-6,1.19.39,4.36-2.71,7-1.79,7.52,2.64,5.33,5.78,9,4.42,5.54-2.07,15,7.57,19.5,2.08,5.9-7.16,14.9-.42,16.44,3,1.12,2.51,4.71-3.9,8.43-4.25s7.08,4.23,8.87,4c11.77-1.32,11.75-3.26,18.49,3.24,1.6,1.55,8.71-4.78,13.2.88,2.56,3.22,1.46-1.19,6.18-3.45,5-2.38,14.88,3.45,16.64,11.55.75,3.43-.25,7.59-5.42,9.62v27.25Z"/><path class="cls-23" d="M39.51,201.13V178.72s-.14-13.45,11.46-7.59c-4.33-2.19,5.26-7.15,10.29-5.6,1.2.37,4.39-2.52,7-1.67,7.58,2.46,5.37,5.38,9,4.12,5.6-1.93,15.11,7,19.68,1.93,6-6.66,15-.39,16.6,2.81,1.13,2.34,4.75-3.63,8.51-3.95s7.94,5.47,8.95,3.74c2.77-4.74,4.14-12.74,17.06-3.75.88.62,2.72-8.41,10.22-2.15,3.86,3.22,5.87-2.23,10.39-5,8.71-5.23,17-4.14,13,5.91-1.17,3-1.1,14.51-1.13,25.27l.13,8.85s-16.44,4-22.83,2.62c-14.92-3.18-35.86-.23-42.68,1.36-17,4-32.09-2.19-47.47-2.92C60.65,202.41,39.51,201.13,39.51,201.13Z"/><circle class="cls-24" cx="181.1" cy="26.76" r="17.35"/><circle class="cls-25" cx="182.8" cy="23.69" r="15"/><g id="citrus-2" data-name="citrus"><path class="cls-16" d="M178.1,40.65a12.45,12.45,0,0,0,4.73-.68A14.88,14.88,0,0,1,178.1,40.65Z"/><path class="cls-16" d="M193.73,26.09c0,.15,0,.29,0,.44C193.7,26.38,193.72,26.24,193.73,26.09Z"/><path class="cls-16" d="M193.65,26.79v0Z"/><path class="cls-16" d="M188.09,11.69l-.17.19a15.11,15.11,0,0,1,1.6,1.5A18,18,0,0,0,188.09,11.69Z"/><path class="cls-16" d="M166.54,35.25h0l.07.07Z"/><path class="cls-17" d="M192.91,24.65a15.61,15.61,0,0,1-16,15.17,15.17,15.17,0,0,1-7.11-2,17.56,17.56,0,0,0,8.26,2.84,14.88,14.88,0,0,0,4.73-.68,15.86,15.86,0,0,0,6.46-4.48,16.15,16.15,0,0,0,4.36-8.67v0l0-.26c0-.15,0-.29,0-.44.5-5.54-2.38-10.3-4.21-12.71a15.11,15.11,0,0,0-1.6-1.5l-.35.39A15.71,15.71,0,0,1,192.91,24.65Z"/><path class="cls-18" d="M169.84,37.81a15.17,15.17,0,0,0,7.11,2,15.73,15.73,0,0,0,10.62-27.55L168,33.64l-.52.6h0l-.92,1,.07.07A21.53,21.53,0,0,0,169.84,37.81Zm17.49-25.13s1.48,1.27,3.54,5.24a12.3,12.3,0,0,1,.85,7.31l-13.55-2.06Zm4.5,13.4s.3,3.84-3.53,8a11.14,11.14,0,0,1-5.77,3.44l-4.71-13.39Zm-14.9-1.54,4.37,13.92s-1.88.58-6.42.06c-3.79-.44-6.89-3.63-6.89-3.63Z"/><path class="cls-19" d="M168,33.64l-.55.6h0Z"/><path class="cls-20" d="M174.88,38.52c4.54.52,6.42-.06,6.42-.06l-4.37-13.92L168,34.89S171.09,38.08,174.88,38.52Z"/><path class="cls-20" d="M190.87,17.92c-2.06-4-3.54-5.24-3.54-5.24l-9.16,10.49,13.55,2.06A12.3,12.3,0,0,0,190.87,17.92Z"/><path class="cls-20" d="M188.3,34.12c3.83-4.2,3.53-8,3.53-8l-14-1.91,4.71,13.39A11.14,11.14,0,0,0,188.3,34.12Z"/></g><circle class="cls-15" cx="171.2" cy="32.95" r="5.4"/><circle class="cls-15" cx="175.04" cy="40.46" r="2.63"/><path class="cls-21" d="M189.2,12.63a6.86,6.86,0,0,1,1.74,1.78l2.12,2.82c1.76,2.33,3.6,4.93,3.47,7.85a15.38,15.38,0,0,0-4.81-5.83,4.44,4.44,0,0,0-1.18-.67,4.08,4.08,0,0,0-1.48-.13,44,44,0,0,0-4.82.9,6.83,6.83,0,0,1-4.76-.61c-1.38-.87-2.16-2.83-1.3-4.22C180.18,11.31,186.17,10.81,189.2,12.63Z"/><path class="cls-26" d="M180.7,201.11V173.53c0-15.52,13.42.43,9.57-19.15-1.66-8.4-20-8.08-19.86-2.74-.17-4.95-7.91-8-12.93-6.5-1.2.35-5.91-3.13-8.56-2.32-7.58,2.34-2.5,11.71-6.16,10.52-5.6-1.84-15.1,6.7-19.68,1.83-6-6.34-15-.37-16.59,2.68-1.13,2.22-4.75-3.45-8.51-3.76s-7.15,3.74-9,3.56c-11.88-1.17-11.86-2.88-18.66,2.87-1.62,1.37-8.94-7.15-13.47-2.14-2.58,2.85-2.21,3.28-6.09-.13-9-7.89-18.32-2-17.71,7.12l6.39-.68v45.22S58.75,204.78,66,205c16.54.52,49.3-7.31,66-7.69C143.19,197.05,180.7,201.11,180.7,201.11Z"/><path class="cls-27" d="M39.71,201.79s.36-26.26.36-30.56c0-15.12-13.4,1.54-9.58-15.31,2.09-9.19,21-11.61,20.85-5.71.17-5.47,5.27-7.51,10.31-5.89,1.21.39,4.41-2.65,7.07-1.75,7.61,2.58,5.39,5.66,9,4.33,5.62-2,15.16,7.41,19.75,2,6-7,15.09-.41,16.64,3,1.13,2.46,4.77-3.81,8.54-4.16s7.17,4.14,9,3.94c11.92-1.29,11.9-3.18,18.72,3.18,1.62,1.51,8.81-4.68,13.36.86,2.59,3.15,1.48-1.17,6.26-3.38,5-2.33,15.06,3.38,16.85,11.3.75,3.37-.93,3.35-6.17,5.35l-.1,31s-19.11,14.27-37.42,10.14c-54.33-12.24-32-.31-76.23,1.73C55.22,212.37,39.71,201.79,39.71,201.79Z"/><g id="bubbles" class="cls-28"><circle class="cls-29" cx="101.83" cy="178.78" r="1.59"/><circle class="cls-29" cx="47.29" cy="185.66" r="2.22"/><circle class="cls-29" cx="63.95" cy="179.31" r="1.59"/><circle class="cls-29" cx="95.63" cy="172.88" r="1.59"/><circle class="cls-29" cx="48.01" cy="197.31" r="1.59"/><circle class="cls-29" cx="56.81" cy="168.08" r="1.59"/><circle class="cls-29" cx="56" cy="192.2" r="2.22"/><circle class="cls-29" cx="54.42" cy="177.69" r="1.59"/><circle class="cls-29" cx="110.23" cy="200.52" r="1.65"/><circle class="cls-29" cx="72.92" cy="188.63" r="2.3"/><circle class="cls-29" cx="61.9" cy="198.08" r="1.65"/><circle class="cls-29" cx="72.28" cy="171.29" r="1.65"/><circle class="cls-29" cx="78.33" cy="180.74" r="1.65"/><circle class="cls-29" cx="142.47" cy="174.48" r="1.65"/><circle class="cls-29" cx="140.42" cy="201.19" r="2.3"/><circle class="cls-29" cx="151.57" cy="198.31" r="1.65"/><circle class="cls-29" cx="123.12" cy="189.36" r="1.57"/><circle class="cls-29" cx="176.69" cy="196.13" r="2.18"/><circle class="cls-29" cx="160.33" cy="189.88" r="1.57"/><circle class="cls-29" cx="129.2" cy="178.19" r="1.57"/><circle class="cls-29" cx="168.14" cy="193.01" r="1.57"/><circle class="cls-29" cx="167.34" cy="174.48" r="1.57"/><circle class="cls-29" cx="165.77" cy="200.52" r="2.18"/><circle class="cls-29" cx="171.31" cy="182.5" r="1.57"/><circle class="cls-29" cx="159.36" cy="177.12" r="1.59"/><circle class="cls-29" cx="121.48" cy="176.6" r="1.59"/><circle class="cls-29" cx="153.17" cy="183.02" r="1.59"/><circle class="cls-29" cx="113.53" cy="173.41" r="1.59"/><circle class="cls-29" cx="114.35" cy="187.83" r="1.59"/><circle class="cls-29" cx="101.23" cy="199.24" r="1.74"/><circle class="cls-29" cx="111.95" cy="178.21" r="1.59"/><circle class="cls-29" cx="127.51" cy="199.24" r="1.59"/><circle class="cls-29" cx="102.97" cy="189.42" r="2.22"/><circle class="cls-29" cx="72.92" cy="195.92" r="1.59"/><circle class="cls-29" cx="133.52" cy="185.66" r="1.59"/><circle class="cls-29" cx="89.89" cy="194.32" r="1.59"/><circle class="cls-29" cx="82.26" cy="166.48" r="1.59"/><circle class="cls-29" cx="144.94" cy="192.2" r="2.22"/><circle class="cls-29" cx="88.29" cy="182.5" r="1.59"/></g><g id="bubbles-2" data-name="bubbles" class="cls-30"><circle class="cls-29" cx="122.89" cy="156.57" r="1.59"/><circle class="cls-29" cx="177.44" cy="163.46" r="2.22"/><circle class="cls-29" cx="160.78" cy="157.1" r="1.59"/><circle class="cls-29" cx="129.09" cy="150.68" r="1.59"/><circle class="cls-29" cx="176.71" cy="175.1" r="1.59"/><circle class="cls-29" cx="167.91" cy="145.87" r="1.59"/><circle class="cls-29" cx="168.73" cy="169.99" r="2.22"/><circle class="cls-29" cx="170.31" cy="155.48" r="1.59"/><circle class="cls-29" cx="114.49" cy="178.32" r="1.65"/><circle class="cls-29" cx="151.8" cy="166.42" r="2.3"/><circle class="cls-29" cx="162.83" cy="175.87" r="1.65"/><circle class="cls-29" cx="152.45" cy="149.08" r="1.65"/><circle class="cls-29" cx="146.39" cy="158.53" r="1.65"/><circle class="cls-29" cx="82.25" cy="152.27" r="1.65"/><circle class="cls-29" cx="84.31" cy="178.98" r="2.3"/><circle class="cls-29" cx="73.15" cy="176.1" r="1.65"/><circle class="cls-29" cx="101.61" cy="167.16" r="1.57"/><circle class="cls-29" cx="48.03" cy="173.92" r="2.18"/><circle class="cls-29" cx="64.39" cy="167.68" r="1.57"/><circle class="cls-29" cx="95.52" cy="155.98" r="1.57"/><circle class="cls-29" cx="56.59" cy="170.81" r="1.57"/><circle class="cls-29" cx="57.39" cy="152.27" r="1.57"/><circle class="cls-29" cx="58.95" cy="178.32" r="2.18"/><circle class="cls-29" cx="53.42" cy="160.29" r="1.57"/><circle class="cls-29" cx="65.36" cy="154.92" r="1.59"/><circle class="cls-29" cx="103.24" cy="154.39" r="1.59"/><circle class="cls-29" cx="71.56" cy="160.81" r="1.59"/><circle class="cls-29" cx="111.19" cy="151.2" r="1.59"/><circle class="cls-29" cx="110.38" cy="165.62" r="1.59"/><circle class="cls-29" cx="123.49" cy="177.04" r="1.74"/><circle class="cls-29" cx="112.77" cy="156.01" r="1.59"/><circle class="cls-29" cx="97.21" cy="177.04" r="1.59"/><circle class="cls-29" cx="121.75" cy="167.21" r="2.22"/><circle class="cls-29" cx="151.8" cy="173.71" r="1.59"/><circle class="cls-29" cx="91.21" cy="163.46" r="1.59"/><circle class="cls-29" cx="134.83" cy="172.12" r="1.59"/><circle class="cls-29" cx="142.46" cy="144.28" r="1.59"/><circle class="cls-29" cx="79.79" cy="169.99" r="2.22"/><circle class="cls-29" cx="136.43" cy="160.29" r="1.59"/></g><g id="bubbles-3" data-name="bubbles" class="cls-31"><circle class="cls-29" cx="111.97" cy="138.59" r="1.59"/><circle class="cls-29" cx="166.51" cy="145.47" r="2.22"/><circle class="cls-29" cx="149.85" cy="139.12" r="1.59"/><circle class="cls-29" cx="118.17" cy="132.7" r="1.59"/><circle class="cls-29" cx="165.79" cy="157.12" r="1.59"/><circle class="cls-29" cx="156.99" cy="127.89" r="1.59"/><circle class="cls-29" cx="157.8" cy="152.01" r="2.22"/><circle class="cls-29" cx="159.38" cy="137.5" r="1.59"/><circle class="cls-29" cx="103.57" cy="160.33" r="1.65"/><circle class="cls-29" cx="140.87" cy="148.44" r="2.3"/><circle class="cls-29" cx="151.9" cy="157.89" r="1.65"/><circle class="cls-29" cx="141.52" cy="131.1" r="1.65"/><circle class="cls-29" cx="135.47" cy="140.55" r="1.65"/><circle class="cls-29" cx="71.33" cy="134.29" r="1.65"/><circle class="cls-29" cx="73.38" cy="161" r="2.3"/><circle class="cls-29" cx="62.23" cy="158.12" r="1.65"/><circle class="cls-29" cx="90.68" cy="149.17" r="1.57"/><circle class="cls-29" cx="37.11" cy="155.94" r="2.18"/><circle class="cls-29" cx="53.47" cy="149.69" r="1.57"/><circle class="cls-29" cx="84.6" cy="138" r="1.57"/><circle class="cls-29" cx="45.66" cy="152.83" r="1.57"/><circle class="cls-29" cx="46.46" cy="134.29" r="1.57"/><circle class="cls-29" cx="48.03" cy="160.33" r="2.18"/><circle class="cls-29" cx="42.49" cy="142.31" r="1.57"/><circle class="cls-29" cx="54.44" cy="136.94" r="1.59"/><circle class="cls-29" cx="92.32" cy="136.41" r="1.59"/><circle class="cls-29" cx="60.63" cy="142.83" r="1.59"/><circle class="cls-29" cx="100.27" cy="133.22" r="1.59"/><circle class="cls-29" cx="99.45" cy="147.64" r="1.59"/><circle class="cls-29" cx="112.57" cy="159.06" r="1.74"/><circle class="cls-29" cx="101.85" cy="138.02" r="1.59"/><circle class="cls-29" cx="86.29" cy="159.06" r="1.59"/><circle class="cls-29" cx="110.83" cy="149.23" r="2.22"/><circle class="cls-29" cx="140.87" cy="155.73" r="1.59"/><circle class="cls-29" cx="80.28" cy="145.47" r="1.59"/><circle class="cls-29" cx="123.91" cy="154.13" r="1.59"/><circle class="cls-29" cx="131.54" cy="126.3" r="1.59"/><circle class="cls-29" cx="68.86" cy="152.01" r="2.22"/><circle class="cls-29" cx="125.51" cy="142.31" r="1.59"/></g><rect id="reflection" class="cls-32" x="53.56" y="165.92" width="2.42" height="186.15" transform="translate(109.53 517.99) rotate(180)"/><circle class="cls-24" cx="71.25" cy="50.54" r="17.35"/><circle class="cls-25" cx="74.47" cy="51.93" r="15"/><g id="citrus-3" data-name="citrus"><path class="cls-16" d="M57.14,48.92a12.21,12.21,0,0,0,1.14,4.65A14.49,14.49,0,0,1,57.14,48.92Z"/><path class="cls-16" d="M73.17,63h0Z"/><path class="cls-16" d="M72.47,63h0Z"/><path class="cls-16" d="M86.94,56l-.2-.15a16.1,16.1,0,0,1-1.34,1.74A18.2,18.2,0,0,0,86.94,56Z"/><path class="cls-16" d="M61.36,36.89h0l-.07.08Z"/><path class="cls-17" d="M74.53,62.07A15.59,15.59,0,0,1,57.84,47.7a15.17,15.17,0,0,1,1.3-7.27,17.35,17.35,0,0,0-2,8.49,14.49,14.49,0,0,0,1.14,4.65,15.88,15.88,0,0,0,5.1,6A16.16,16.16,0,0,0,72.43,63h.74c5.57-.06,10-3.39,12.23-5.45a16.1,16.1,0,0,0,1.34-1.74l-.43-.32A15.67,15.67,0,0,1,74.53,62.07Z"/><path class="cls-18" d="M59.14,40.43a15.17,15.17,0,0,0-1.3,7.27,15.73,15.73,0,0,0,28.47,7.83L63.11,38.2l-.65-.46v0l-1.1-.82-.07.08A22.14,22.14,0,0,0,59.14,40.43ZM85.88,55.34s-1.12,1.6-4.86,4A12.32,12.32,0,0,1,73.82,61l.72-13.69ZM73,61.15s-3.79.68-8.35-2.72a11.06,11.06,0,0,1-4-5.4L73.5,47Zm.06-15L59.63,51.89s-.77-1.81-.7-6.38c.06-3.81,2.93-7.21,2.93-7.21Z"/><path class="cls-19" d="M63.11,38.2l-.65-.49v0Z"/><path class="cls-20" d="M58.93,45.51c-.07,4.57.7,6.38.7,6.38l13.42-5.73L61.86,38.3S59,41.7,58.93,45.51Z"/><path class="cls-20" d="M81,59.38c3.74-2.44,4.86-4,4.86-4L74.54,47.26,73.82,61A12.32,12.32,0,0,0,81,59.38Z"/><path class="cls-20" d="M64.64,58.43C69.2,61.83,73,61.15,73,61.15L73.5,47,60.65,53A11.06,11.06,0,0,0,64.64,58.43Z"/></g><circle class="cls-15" cx="64.11" cy="41.3" r="5.4"/><circle class="cls-15" cx="57.01" cy="45.87" r="2.63"/><path class="cls-21" d="M86.11,57.19a6.35,6.35,0,0,1-1.6,1.91l-2.59,2.39c-2.14,2-4.54,4.07-7.46,4.24a15.45,15.45,0,0,0,5.32-5.37,4.14,4.14,0,0,0,.54-1.24,3.93,3.93,0,0,0,0-1.49,46,46,0,0,0-1.37-4.71,6.8,6.8,0,0,1,.13-4.79c.73-1.46,2.61-2.43,4.07-1.71C86.53,48.08,87.62,54,86.11,57.19Z"/></g></svg>