<svg xmlns="http://www.w3.org/2000/svg" viewBox="0 0 191.0572 292.4494"><defs><style>.cls-1{fill:#98bfe6;}.cls-2{fill:#c13a9b;}.cls-2,.cls-3{opacity:0.94;}.cls-3{fill:#f194c3;}.cls-4,.cls-5{fill:#442644;}.cls-5{stroke:#48314c;stroke-miterlimit:10;}.cls-6{opacity:0.19;}.cls-7{fill:#e7c7e0;}.cls-8{fill:#fddce8;}.cls-12,.cls-8{opacity:0.71;}.cls-9{opacity:0.68;}.cls-10{fill:#df0051;}.cls-11{fill:#fbef83;}.cls-13{fill:#fbf9df;}</style></defs><g id="finished"><g id="bramble"><rect id="glassbottom" class="cls-1" x="55.3773" y="278.4104" width="92.3381" height="14.0389"/><g id="stick"><path class="cls-1" d="M15.5712,29.1128a34.2042,34.2042,0,0,0,1.4235-8.1245,6.2524,6.2524,0,0,0-.4938-3.2067,5.1852,5.1852,0,0,0-.9644-1.38,13.2243,13.2243,0,0,0-1.2221-.8685l-.126.9632c.5568-1.2119,2.8591-1.9213,3.9824-2.1485-.0659.0134.34-.0116.3378-.0083-.02.0343-.2763-.0545-.39-.2-.4974-.6366-.0008-.9871-.5462-.277a14.2135,14.2135,0,0,1-3.7094,3.2264c-5.3866,3.2934-9.2059-2.878-10.5689-7.3817C2.6064,7.4358,1.58,3.56,4.6984,2.6047A2.6047,2.6047,0,0,1,7.1147,3.19c.2481.1809-.14-.1147.0344.0264.0752.061.1515.1212.2245.1849.163.1423.3262.2835.4843.4313A21.9325,21.9325,0,0,1,11.511,8.4179a102.88,102.88,0,0,1,8.1341,16.3164c3.2423,7.76,6.1037,15.6774,8.8513,23.6238,3.2452,9.3858,6.3074,18.8341,9.3181,28.2974,3.2483,10.21,6.4294,20.4411,9.6343,30.6648,3.1724,10.12,6.3637,20.2343,9.6716,30.3108,3.0412,9.2639,6.1733,18.5012,9.5575,27.6462,2.8333,7.6566,5.8236,15.2754,9.296,22.6679,2.4974,5.3169,5.2213,10.6711,8.9125,15.2739a25.1694,25.1694,0,0,0,2.0338,2.2628c1.1515,1.1253,2.9209-.6409,1.7678-1.7678-3.9778-3.8872-6.7593-9.2778-9.2811-14.3832a252.5016,252.5016,0,0,1-9.9845-23.8188c-3.7049-9.9521-7.1039-20.0169-10.4037-30.11-3.5844-10.9634-7.0386-21.9689-10.484-32.9766-3.4425-10.9988-6.87-22.0028-10.4014-32.9734-3.2009-9.9428-6.4764-19.8653-10.0267-29.69-2.8574-7.9069-5.8593-15.7948-9.4554-23.4-2.2891-4.8409-4.8107-10.0733-8.635-13.9186A9.6907,9.6907,0,0,0,7.4127.4421C4.4348-.961.9953,1.1614.21,4.194c-.72,2.7825.5551,6.3046,1.6635,8.8331A13.7382,13.7382,0,0,0,7.142,19.5766a7.71,7.71,0,0,0,8.1264-.4175,18.3664,18.3664,0,0,0,3.9977-3.4408c.6042-.7052,1.3219-1.648,1.0317-2.6427-.5957-2.0423-3.4007-1.0687-4.7132-.5073-1.6891.7224-5.4121,2.8673-2.8415,4.86.7676.595,1.4485.9534,1.7041,1.97a8.3524,8.3524,0,0,1-.0374,2.6894,30.0932,30.0932,0,0,1-1.2493,6.36c-.4859,1.5377,1.9269,2.1957,2.4107.6646Z"/></g><path id="glass" class="cls-2" d="M136.3621,279.77l-66.2859.6318c-34.3736,0-51.6952-22.44-56.9824-52.325-1.8874-10.6682-.9629-21.2847.5391-32.0076,0,0,12.392,18.1224,30.1485,8.08,31.8592-18.0194,65.0251-11.8066,81.2409,2.7877,27.8768,25.0891,63.9521-11.9612,63.9521-11.9612,1.7906,10.6973,2.8883,21.5976,1.3539,32.3305C186.0269,257.3941,171.01,279.77,136.3621,279.77Z"/><path id="drink" class="cls-3" d="M11.6633,212.66l8.563-84.377s20.5945-26.0347,80.3291,7.9705c30.1706,17.1752,78.627-9.4937,78.627-9.4937s6.5338,50.6931,9.7316,67.42c.8078,4.2256,2.1432,17.2754,2.1432,17.2754S175.099,242.8141,138.3,233.55c-19.2066-4.8352-22.1306,11.3227-48.1213,17.756C36.1788,264.6725,11.6633,212.66,11.6633,212.66Z"/><g id="brombær"><ellipse class="cls-4" cx="33.7437" cy="54.4484" rx="14.0539" ry="16.5672" transform="translate(-10.5436 8.1678) rotate(-11.9512)"/><circle class="cls-5" cx="36.5811" cy="47.0771" r="4.8008"/><circle class="cls-5" cx="25.8856" cy="34.2303" r="4.8008"/><circle class="cls-5" cx="32.7377" cy="37.4992" r="4.8008"/><circle class="cls-5" cx="22.3503" cy="41.0973" r="4.8008"/><circle class="cls-5" cx="37.9791" cy="41.3875" r="4.8008"/><circle class="cls-5" cx="22.1855" cy="49.2895" r="4.8008"/><circle class="cls-5" cx="29.9323" cy="46.0758" r="4.8008"/><circle class="cls-5" cx="22.233" cy="57.1116" r="4.8008"/><circle class="cls-5" cx="43.9199" cy="46.397" r="4.8008"/><circle class="cls-5" cx="29.3224" cy="55.6553" r="4.8008"/><circle class="cls-5" cx="36.5309" cy="51.8188" r="4.8008"/><circle class="cls-5" cx="48.4342" cy="54.1546" r="4.8008"/><circle class="cls-5" cx="23.2744" cy="64.4787" r="4.8008"/><circle class="cls-5" cx="31.6584" cy="63.484" r="4.8008"/><circle class="cls-5" cx="39.9315" cy="59.777" r="4.8008"/><circle class="cls-5" cx="50.7669" cy="60.9243" r="4.8008"/><circle class="cls-5" cx="26.0356" cy="71.95" r="4.8008"/><circle class="cls-5" cx="34.9472" cy="69.743" r="4.8008"/><circle class="cls-5" cx="43.0365" cy="66.0084" r="4.8008"/><g class="cls-6"><circle class="cls-7" cx="24.0884" cy="32.5525" r="1.9594"/><circle class="cls-7" cx="30.2648" cy="36.8916" r="1.9594"/><circle class="cls-7" cx="20.3285" cy="40.2926" r="1.9594"/><circle class="cls-7" cx="35.4066" cy="41.6636" r="1.9594"/><circle class="cls-7" cx="20.1676" cy="48.5099" r="1.9594"/><circle class="cls-7" cx="27.5585" cy="45.5719" r="1.9594"/><circle class="cls-7" cx="19.555" cy="56.8873" r="1.9594"/><circle class="cls-7" cx="41.5113" cy="46.5168" r="1.9594"/><circle class="cls-7" cx="27.3826" cy="55.2281" r="1.9594"/><circle class="cls-7" cx="34.3701" cy="50.9771" r="1.9594"/><circle class="cls-7" cx="46.5633" cy="53.5565" r="1.9594"/><circle class="cls-7" cx="20.709" cy="64.4606" r="1.9594"/><circle class="cls-7" cx="29.3127" cy="62.4363" r="1.9594"/><circle class="cls-7" cx="38.1486" cy="59.1054" r="1.9594"/><circle class="cls-7" cx="48.5491" cy="60.4287" r="1.9594"/><circle class="cls-7" cx="23.4676" cy="71.1622" r="1.9594"/><circle class="cls-7" cx="32.3863" cy="68.7357" r="1.9594"/><circle class="cls-7" cx="40.626" cy="65.4981" r="1.9594"/></g></g><path id="drink-2" data-name="drink" class="cls-8" d="M15.7952,171.9462l8.0855-83.6929A40.6452,40.6452,0,0,1,57.7245,66.5862C106.203,63.3306,99.189,95.3,130.4415,102.2751c30.3738,6.7787,43.0366-17.0319,43.0366-17.0319l11.7694,83.7691s-39.689-3.9937-78.8565,8.1276C52.351,193.8638,15.7952,171.9462,15.7952,171.9462Z"/><g id="lips" class="cls-9"><path class="cls-10" d="M80.1409,231.6453l1.0239.5331c-.8547,1.1691-2.6767.1022-3.8179-.513a.5475.5475,0,0,1-.2754-.6048l.1008-.4521a.5739.5739,0,0,0-.467-.7047,4.8268,4.8268,0,0,1-3.44-3.2965c-.007-.992.2984.3712-1.2335-.2752-.7341-.326-1.0693-.6619-1.111-1.0351a.5383.5383,0,0,0-.416-.4592c-.8182-.2011-3.2983-.3763.5634-2.7835.7052-.44-2.72,1.3231-2.6145.5086s-2.3124.95-.7252-.8474c2.8353-3.2113-.7392.2817-2.2761.1121-1.4-.1545-.9728-.2569-1.03-.2974-1.2507-.8909-1.1194-1.76-.5511-2.0916,4.4086-2.5708-.5768-.5207-.9563-.4987-1.2217.0706-2.4407-.01-2.6875-1.6673a2.1371,2.1371,0,0,1,.4118-1.0068c.6063-.4943,7.6066-5.1632,7.6066-5.1632-7.515,2.8292-8.6591,6.948-13.1032,4.464-3.0835-1.7235-1.0584-5.3912-1.2765-12.481.0915,2.9747-1.9848,12.8785-4.309,8.3255-3.2226-6.3127-.4868-.2856-.7392-.1456-.84.4657-1.5976-.2246-1.8311-1.0061-.1361-.4555-.11-4.3074-.5724-.029-.1562,1.4452-2.726.1318-3.43-1.11a.5559.5559,0,0,0-.6269-.2833,5.56,5.56,0,0,1-3.941-1.29.5572.5572,0,0,0-.5413-.1356c-.7018.1718-2.4956-.4463-2.24-.8532l-.5845.0986c-.3312-1.02-.5544-1.102-1.4756-.5574-.1111-.8192-.88-.2553-1.3388-.1464-.9064.4342-3.22-2.9991-.4906-1.557-.1889-1.5551,2.2711-2.25,3.5955-2.0491a.5546.5546,0,0,0,.6028-.4386c.1911-.8.5079-1.3276,1.4618-1.31a.5455.5455,0,0,0,.444-.2239c.466-.6393.929-.531,1.4855-.2226a.551.551,0,0,0,.8045-.3635c.1937-.9179.3182-2.0428,1.2635-1.78a.5686.5686,0,0,0,.6565-.2434l1.0829-1.8631c.2048-.3524.4025-.4518.6141-.4412.7837.04,2.2636-.1108,2.88.3727a.5462.5462,0,0,0,.7731-.1425,3.556,3.556,0,0,1,2.8777-1.53.5574.5574,0,0,1,.5549.736h0a.552.552,0,0,0,.8864.5927c3.955-3.4033,9.1247.0247,3.7647,3.5361l3.1249-3.222a.5608.5608,0,0,1,.8088.0078,1.6348,1.6348,0,0,1,.22,1.7447.5521.5521,0,0,0,.819.6368c.9394-.6055,1.0932-.0766.6864.9212a.5564.5564,0,0,0,.67.7567c.9422-.3549.7392.9069-.5419,3.2644.7248-1.442,3.989-3.1686,5.9958-3.7473,3.09-.8911-1.7873,5.1494,1.7246.8974,1.611-1.95,6.4794,4.8188,6.3635,5.98a.3871.3871,0,0,1-.0649.1568c-.3337.56-2.49,4.1317-3.4111,4.4877-1,.3863,3.9368-1.2552,3.6961-2.9088-.1928-1.3407,2.49.5591,2.1847,2.32a.554.554,0,0,0,.4591.6472c1.4217.2186.4605,1.5993.05,2.7882a.5239.5239,0,0,0,.3459.6614c.54.1965.0627.846-.344,1.4246a.554.554,0,0,0,.3691.8653l1.0815.169a.551.551,0,0,1,.4655.4854c.11,1.0409-1.2065,4.1878-2.5735,4.8571-1.2133.594,1.2779.0524,1.9847-.0289a.5483.5483,0,0,1,.6032.4414c.433,2.3752,1.4619,3.3819-.9711,4.85,1.7877-1.2745,3.7729,1.6716.0873,2l1.5609.0344a.5584.5584,0,0,1,.4548.2656C81.7842,230.4614,82.8539,230.6035,80.1409,231.6453Z"/><path class="cls-10" d="M75.722,234.0628c-.5962,4.4052-3.7556,1.6373-2.357-1.4791-1.17,2.8262-2.4954,8.516-6.6312,5.1118-3.3741,4.3881-5.5186,2.627-4.3444-2.333-2,7.81-3.7359,3.1448-8.8456,4.8738-3.5408-.388.9028-3.0817.16-5.2616-1.467,3.3985-3.8772,5.908-7.3192,2.4595a3.2153,3.2153,0,0,1-4.21-1.86c-3.8333.1551-3.916-3.3247-1.6929-5.7459-5.231,6.9548-6.2538-1.3081-3.008-5.461-1.5327.5973-.87,2.312-2.282,3.1541-1.8992.03-2.0485-2.5386-1.31-3.8932-2.757-2.8-3.7352-6.245,1.1041-7.3107-4.6709,3.3179-5.0275-2.52-1.7281-4.8809-.6934,1.5254-2.6749.0713-2.0543-1.2828.66-3.4909,8.2466-2.98,3.0414-.52,6.4017-.7733,4.3032,1.5837.3248,4.1758,1.5612-1.1374,7.7467-4.7889,6.5991-.452,5.975-1.8632,4.9968,2.9958.652,4.8246,1.5888-.5025,6.5533-3.6045,6.0842-.1,3.954-1.5241-1.8736,5.0455-2.287,6.5286,1.908-1.81,7.3892-9.1122,7.16-3.6151,1.6359-1.4112,1.8708-.8988,1.9328,1.1544,1.2244-.5056,1.66-1.1989,1.6506.6294,1.72-2.67,4.0249,3.93,4.2659,6.3339-.6274-6.2573,4.0778-5.93,3.4089-3.8883,3.0308-6.1519,6.9413,4.2784,6.5749,7.8983-.4731-5.74,1.5934-7.9276,2.9664-1.1488C73.8027,228.09,76.4683,232.079,75.722,234.0628Z"/></g><g id="sun"><ellipse class="cls-11" cx="138.6397" cy="59.777" rx="38.2789" ry="40.0891"/><g id="citrus" class="cls-12"><ellipse class="cls-13" cx="138.8618" cy="59.9463" rx="36.5437" ry="38.3753" transform="translate(-4.3137 11.1925) rotate(-4.5451)"/><path class="cls-11" d="M105.5221,68.0764s1.5373,10.1043,8.0391,16.2807c7.7979,7.4078,12.0775,9.0475,12.0775,9.0475l10.3957-31.0435Z"/><path class="cls-11" d="M127.8577,94.5453s9.2115,3.3088,17.7217,1.0425c12.2912-3.2732,13.1039-7.4016,13.1039-7.4016L138.1289,62.772Z"/><path class="cls-11" d="M114.7661,32.2552A41.5518,41.5518,0,0,0,105.5387,47.58c-3.9981,12.8722.6643,17.2649.6643,17.2649l29.295-4.711Z"/><path class="cls-11" d="M160.3574,87.1945s8.4407-6.4362,10.7572-15.58c2.7784-10.9669,2.0883-15.7864,2.0883-15.7864l-33.66,5.6132Z"/><path class="cls-11" d="M146.2557,25.3705s-8.9547-3.58-17.1861-.5942c-9.8723,3.5807-13.3236,6.7486-13.3236,6.7486L136.8,57.8856Z"/><path class="cls-11" d="M171.5473,52.48a28.8211,28.8211,0,0,0-5.9452-15.4554c-8.3763-10.9434-17.3557-11.62-17.3557-11.62l-9.2424,33.71Z"/></g></g></g></g></svg>