<svg xmlns="http://www.w3.org/2000/svg" xmlns:xlink="http://www.w3.org/1999/xlink" viewBox="0 0 272.6386 288.3163"><defs><style>.cls-1{fill:url(#linear-gradient);}.cls-2{fill:#b8c9e8;opacity:0.78;}.cls-3{fill:#f7ee75;}.cls-4{fill:#e5002b;}.cls-5{fill:#ff437b;}.cls-5,.cls-6{opacity:0.21;}.cls-6{fill:#ff9fc7;}.cls-7{fill:#bd2335;}.cls-15,.cls-8{fill:#fff98d;}.cls-9{fill:none;}.cls-10{fill:#ffde5b;}.cls-11{fill:#fbf9df;}.cls-12{fill:#fbef83;}.cls-13{fill:#fbf781;}.cls-14{opacity:0.66;fill:url(#linear-gradient-2);}.cls-15{opacity:0.39;}</style><linearGradient id="linear-gradient" x1="62.797" y1="274.4495" x2="221.692" y2="274.4495" gradientUnits="userSpaceOnUse"><stop offset="0.0087" stop-color="#b9d0ed"/><stop offset="0.0687" stop-color="#cedef2"/><stop offset="0.1517" stop-color="#e4edf8"/><stop offset="0.2432" stop-color="#f3f7fc"/><stop offset="0.3486" stop-color="#fcfdfe"/><stop offset="0.5" stop-color="#fff"/><stop offset="0.6478" stop-color="#fcfdfe"/><stop offset="0.7567" stop-color="#f3f7fc"/><stop offset="0.8531" stop-color="#e3ecf8"/><stop offset="0.9417" stop-color="#ccddf2"/><stop offset="1" stop-color="#b9d0ed"/></linearGradient><linearGradient id="linear-gradient-2" x1="21.9801" y1="166.316" x2="262.5089" y2="166.316" gradientUnits="userSpaceOnUse"><stop offset="0.0087" stop-color="#b9d0ed"/><stop offset="0.0185" stop-color="#bdd3ee" stop-opacity="0.9517"/><stop offset="0.0631" stop-color="#ccddf2" stop-opacity="0.7536"/><stop offset="0.1104" stop-color="#dae6f5" stop-opacity="0.5779"/><stop offset="0.1599" stop-color="#e5eef8" stop-opacity="0.43"/><stop offset="0.212" stop-color="#eff4fb" stop-opacity="0.3097"/><stop offset="0.2677" stop-color="#f6f9fd" stop-opacity="0.2166"/><stop offset="0.3287" stop-color="#fbfcfe" stop-opacity="0.1508"/><stop offset="0.399" stop-color="#fefeff" stop-opacity="0.112"/><stop offset="0.5" stop-color="#fff" stop-opacity="0.1"/><stop offset="0.5966" stop-color="#fefeff" stop-opacity="0.1126"/><stop offset="0.6678" stop-color="#fbfcfe" stop-opacity="0.1528"/><stop offset="0.7308" stop-color="#f6f9fd" stop-opacity="0.2209"/><stop offset="0.7891" stop-color="#eef4fb" stop-opacity="0.3169"/><stop offset="0.8442" stop-color="#e4edf8" stop-opacity="0.4412"/><stop offset="0.8968" stop-color="#d9e5f5" stop-opacity="0.5938"/><stop offset="0.9475" stop-color="#cbdcf2" stop-opacity="0.7749"/><stop offset="0.9955" stop-color="#bbd1ed" stop-opacity="0.9793"/><stop offset="1" stop-color="#b9d0ed"/></linearGradient></defs><g id="finished"><g id="whisky"><g id="glass"><rect id="glassbottom" class="cls-1" x="62.797" y="260.5828" width="158.8951" height="27.7336"/><path id="glass-2" data-name="glass" class="cls-2" d="M221.6919,260.5828H62.7971s-3.2126-79.1854-8.8557-120.9711C50.2067,111.9566,21.98,75.8024,21.98,75.8024l240.5288-3.7533s-23.8167,47.3268-30.5868,67.5626C218.7787,178.8971,221.6919,260.5828,221.6919,260.5828Z"/></g><g id="drink"><path class="cls-3" d="M199.893,254.8661H84.596c-8.3986,0-15.207-10.2573-15.207-22.91V173.6365s54.6416-6.5316,72.8555-6.5316S215.1,173.6365,215.1,173.6365v58.3193C215.1,244.6088,208.2916,254.8661,199.893,254.8661Z"/><path class="cls-4" d="M168.9,97.6937a20.8446,20.8446,0,1,1-29.709-29.2466c7.3693-7.4858,21.6436-10.0478,28.4152.4537.5285.8195,1.1224.7826,1.513,1.0675C178.1287,76.54,176.9766,89.49,168.9,97.6937Z"/><ellipse class="cls-5" cx="153.1328" cy="80.0506" rx="18.5505" ry="18.0347" transform="translate(-5.862 12.3866) rotate(-4.5451)"/><circle class="cls-6" cx="141.6726" cy="73.6309" r="5.6829"/><path class="cls-7" d="M178.2134,51.7849c-1.7118,8.4816-6.8517,15.7794-12.1629,18.312.9283-.4427,2.6561,1.385,2.6561,1.385s7.2064-9.5563,9.6341-17.366c2.9325-9.4332-4.5768-21.6277-2.0321-22.2663,2.948-.74-1.19-2.0035-4.2878-3.1365-1.9615-.7174,2.139,3.14,3.186,5.4707C177.2372,38.7044,179.1765,47.0133,178.2134,51.7849Z"/><circle class="cls-6" cx="146.2176" cy="69.7679" r="4.1844"/><path class="cls-8" d="M253.8716,72.58a33.7843,33.7843,0,0,0,8.6373-.5308c7.4588-1.9579,19.0638-9.5486-4.9921-14.3063-6.9269-1.37,5.6249-1.6171,3.5945-6.3221-1.67-3.87-45.37-2.7337-79.3682,30.9693-11.879,11.776-31.36,37.2668-53.4366-.973C65.0049-28.2314,103.7272,71.163,95.2088,61.4,56.2217,16.7152,17.6573-17.4161,11.428,28.8648,8.757,48.7086,27.5006,75.59,27.5006,75.59s23.11,29.6334,26.8164,38.8382c5.9488,14.7744,12.46,55.6663,14.5235,69.2962.4287,2.8313.66,19.7537.66,19.7537s42.1177-18.6039,76.2-11.9275c32.5608,6.3783,21.2729,18.0927,46.8636,11.4394,21.8659-5.6848,22.4638,5.2791,22.4638,5.2791s.3244-21,.5769-22.68c1.727-11.4914,8.9157-57.5249,15.4811-72.9983C235.3174,102.6186,253.8716,72.58,253.8716,72.58Z"/><g id="splash"><path class="cls-8" d="M184.65,66.073c6.8341-8.606,13.6806-1.1656,15.1842-4.1834,1.4042-2.8181.8407-7.5649-4.5836-6.6313C183.8854,57.2143,184.65,66.073,184.65,66.073Z"/><path class="cls-8" d="M80.7771,30.162s-10.3878-11.74-15.5-13.942C60.9805,14.3691,46.0856,8.4338,55.853,2.1657,66.224-4.49,73.77,5.793,77.381,11.5245,79.9335,15.5758,80.7771,30.162,80.7771,30.162Z"/><path class="cls-8" d="M178.8192,65.0739c2.9791-8.4606,9.5079-12.649,11.9152-15.9181C192.968,46.1224,197.3,34.81,187.4991,37.351S178.8192,65.0739,178.8192,65.0739Z"/><path class="cls-8" d="M17.6573,69.5367C9.4517,65.84-3.1363,68.29.7143,62.0115c4.9448-8.0627,12.2118.51,14.3067,3.0544A43.0554,43.0554,0,0,1,17.6573,69.5367Z"/><path class="cls-8" d="M220.656,51.9152c5.1093-5.1654,9.687-1.336,12.1181-6.2411,1.26-2.5425,2.536-6.9177-.9291-5.803C224.5847,42.2069,220.656,51.9152,220.656,51.9152Z"/><path class="cls-8" d="M117.5914,36.6093c-12.4549-22.0653-8.2531-27.0823-3.1536-24.5641,5.9862,2.9561,6.4213,10.3508,7.1269,8.4844,1.4576-3.8552,5.5338,3.9355,6.4054,12.1727,1.1748,11.1024-1.1047,24.4231-1.1047,24.4231S118.5178,38.2506,117.5914,36.6093Z"/></g><g id="citrus_big" data-name="citrus big"><g id="citrus"><path class="cls-9" d="M16.66,37.5674a24.6778,24.6778,0,0,0,.4222,8.7959A29.13,29.13,0,0,1,16.66,37.5674Z"/><path class="cls-9" d="M38.9807,68.8518q-.377-.079-.75-.1678Q38.6068,68.7746,38.9807,68.8518Z"/><path class="cls-9" d="M37.797,68.5794c-.0186-.0048-.0366-.0106-.055-.0153Z"/><path class="cls-9" d="M64.2824,61.1275l-.2895-.3453a26.881,26.881,0,0,1-2.7952,2.6531A30.794,30.794,0,0,0,64.2824,61.1275Z"/><path class="cls-9" d="M27.597,17.3643l-.0036-.0043s-.0481.0428-.1367.1253C27.5029,17.4442,27.5505,17.405,27.597,17.3643Z"/><path class="cls-10" d="M41.5541,67.6c-14.64-2.1014-25.0824-16.4215-23.3233-31.9847a29.0006,29.0006,0,0,1,4.5151-12.656A32.921,32.921,0,0,0,16.66,37.5674a29.13,29.13,0,0,0,.4222,8.7959A30.2827,30.2827,0,0,0,23.7,59.01c4.576,5.4549,9.3908,8.322,14.0416,9.5538.0184.0047.0364.0105.055.0153.1449.0379.2891.07.4337.1046q.373.0892.75.1678c9.3322,1.9149,17.8451-2.5009,22.217-5.4165a26.881,26.881,0,0,0,2.7952-2.6531l-.6094-.7269A25.3257,25.3257,0,0,1,41.5541,67.6Z"/><path class="cls-11" d="M22.7459,22.9589a29.0006,29.0006,0,0,0-4.5151,12.656C16.4717,51.1781,26.9139,65.4982,41.5541,67.6a25.3257,25.3257,0,0,0,21.8294-7.5443L30.1067,20.3583l-.9483-1.0672s.004-.02.0112-.0508l-1.5726-1.876c-.0465.0407-.0941.08-.14.121A37.9845,37.9845,0,0,0,22.7459,22.9589ZM62.7284,59.5531s-2.3883,2.4823-9.44,5.5242c-5.8795,2.5364-12.55.24-12.55.24l5.5857-24.4523ZM39.287,65.37s-6.5716-.1459-13.1162-7.9186a21.5992,21.5992,0,0,1-4.9538-11.21l23.4519-6.2Zm4.8957-27.03L19.8758,43.8275s-.6965-3.5416.8879-11.7729c1.3212-6.8631,7.2144-11.963,7.2144-11.963Z"/><path class="cls-12" d="M30.1067,20.3583,29.17,19.24c-.0072.0307-.0112.0508-.0112.0508Z"/><path class="cls-13" d="M20.7637,32.0546c-1.5844,8.2313-.8879,11.7729-.8879,11.7729L44.1827,38.34,27.9781,20.0916S22.0849,25.1915,20.7637,32.0546Z"/><path class="cls-13" d="M53.2889,65.0773c7.0512-3.0419,9.44-5.5242,9.44-5.5242L46.3249,40.8645,40.7392,65.3168S47.4094,67.6137,53.2889,65.0773Z"/><path class="cls-13" d="M26.1708,57.4515C32.7154,65.2242,39.287,65.37,39.287,65.37l5.3819-25.3289-23.4519,6.2A21.5992,21.5992,0,0,0,26.1708,57.4515Z"/></g><g id="citrus-2" data-name="citrus"><path class="cls-9" d="M209.4232,101.5217a24.6791,24.6791,0,0,0,8.78.6825A29.1289,29.1289,0,0,1,209.4232,101.5217Z"/><path class="cls-9" d="M243.2561,83.2929q-.1257.3642-.26.7231Q243.1327,83.6543,243.2561,83.2929Z"/><path class="cls-9" d="M242.8375,84.4332c-.007.0178-.015.035-.022.0527Z"/><path class="cls-9" d="M238.76,57.2232l-.3788.244a26.8968,26.8968,0,0,1,2.2824,3.1054A30.7864,30.7864,0,0,0,238.76,57.2232Z"/><path class="cls-9" d="M190.7484,88.141l-.0047.003s.0365.0531.1072.1513C190.816,88.2444,190.783,88.1922,190.7484,88.141Z"/><path class="cls-10" d="M242.3359,80.583c-3.9178,14.2619-19.4325,22.8291-34.6531,19.1355a29,29,0,0,1-11.9911-6.0642,32.92,32.92,0,0,0,13.7315,7.8674,29.1289,29.1289,0,0,0,8.78.6825,30.283,30.283,0,0,0,13.3761-4.9833c5.9849-3.8571,9.4323-8.2751,11.2366-12.735.007-.0177.015-.0349.022-.0527.0559-.1391.1056-.2781.1582-.4172q.1352-.359.26-.7231c3.0682-9.0191-.2472-18.0178-2.5924-22.72a26.8968,26.8968,0,0,0-2.2824-3.1054l-.7974.5136A25.326,25.326,0,0,1,242.3359,80.583Z"/><path class="cls-11" d="M195.6917,93.6543a29,29,0,0,0,11.9911,6.0642c15.2206,3.6936,30.7353-4.8736,34.6531-19.1355a25.326,25.326,0,0,0-4.752-22.6022l-43.5508,28.045-1.1776.8073s-.0194-.0064-.0489-.0174l-2.0582,1.3253c.0346.0512.0676.1034.1025.1543A37.98,37.98,0,0,0,195.6917,93.6543Zm41.3119-35.0864s2.1638,2.68,4.299,10.0569c1.78,6.1507-1.3336,12.4809-1.3336,12.4809l-23.5606-8.6031ZM239.84,82.5531s-.9675,6.5017-9.4984,12.0217a21.6,21.6,0,0,1-11.7423,3.5113l-3.2151-24.0436Zm-26.2045-8.2412,2.4012,24.8026s-3.601.2477-11.5691-2.3548c-6.6437-2.17-10.9657-8.6554-10.9657-8.6554Z"/><path class="cls-12" d="M194.0331,86.0258l-1.2265.79c.0295.011.0489.0174.0489.0174Z"/><path class="cls-13" d="M204.4677,96.76c7.9681,2.6025,11.5691,2.3548,11.5691,2.3548l-2.4012-24.8026L193.502,88.1043S197.824,94.59,204.4677,96.76Z"/><path class="cls-13" d="M241.3026,68.6248c-2.1352-7.3766-4.299-10.0569-4.299-10.0569L216.4084,72.5026l23.5606,8.6031S243.0829,74.7755,241.3026,68.6248Z"/><path class="cls-13" d="M230.3417,94.5748c8.5309-5.52,9.4984-12.0217,9.4984-12.0217l-24.4558-8.5106,3.2151,24.0436A21.6,21.6,0,0,0,230.3417,94.5748Z"/></g></g><path class="cls-3" d="M72.07,141.1269c-4.4791-8.2542-12.42-15.2191-5.1061-16.4734,3.4245-.5873,7.7123,3.0328,9.0107,13.9582.4664,3.9242,3.8246,18.7855,6.908,28.7385-.3963-4.3647.203-19.3477,3.8138-18.93,3.5913,2.7914,1.817,17.3838,7.2064,19.4281.4866-14.1137-4.1692-25.1738,3.8908-39.2987,3.4268,4.0009.7551,9.08-.8206,13.2809-1.3255,13.8982,3.9142,29.6742-1.02,42.284-2.32,5.9291-5.8129-23.0592-10.575-23.4258C90.8127,213.722,82.6138,160.5569,72.07,141.1269Z"/><path class="cls-3" d="M101.2511,143.3006c-2.1657,9.3748,1.8914,18.8244.4468,28.1269-.4607,4.58.1152,15.269,3.788,18.3363,4.9535-5.97-6.1091-29.8938,2.1474-30.8993,4.8843,5.2109,1.41,14.6123,4.13,20.9805,5.8746,3.5926,2.801-16.5117,1.7941-20.6124.3062-9.6554,10.2411-17.0432,7.8571-27.4251-4.5472,3.8887-9.9021,13.7422-12.8416,20.5364-.6219,1.4373-2.4228.9556-2.4481-.6667a53.1175,53.1175,0,0,1,1.5467-10.4741C110.4475,123.2057,103.9194,131.75,101.2511,143.3006Z"/><path class="cls-3" d="M117.3768,159.1932c-.5969,10.2805,6.1748,15.8228,3.8035,18.8535,3.3155-4.2376.8219-10.9436,2.7276-15.3549,3.1342-7.255,4.775-6.2255,6.0655-13.9863,2.33-14.01-5.3694-23.25-5.1755-1.9833C124.8358,150.8883,118.3418,155.1025,117.3768,159.1932Z"/><path class="cls-3" d="M132.6058,152.783c-2.3284,12.2357,5.2663,1.8919,10.2664,3.8774,2.9791,4.27-2.6617,8.3818-5.1413,10.8432-1.58,4.8354-13.5685,8.3467-9.3176,11.72,7.1967,6.4832,16.012-8.4924,20.5624-14.197.4548-2.5169,4.6622-10.6822-4.3125-12.34-1.8964-.35-6.0395.76-7.601-.0539-.96-.5-1.3548-2.77-.3623-3.0487C167.1792,141.0379,131.3943,133.1633,132.6058,152.783Z"/><path class="cls-3" d="M153.9245,160.624c2.55-5.4-5.3517-8.204.29-15.757,1.9013-2.5456,4.814-9.8391,7.0386-6.1946,1.9732,5.1088-8.4622,14.218-1.5041,19.234,2.9449,2.3938,3.4181-8.5748,6.65-11.0724,11.7866-7.9723.1139,9.4011-3.3678,11.8842,3.3292,3.9383,5.04-2.8568,9.9367,6.1227,4.0043,4.8483-3.8271,16.5355-7.8693,18.0581-2.1305.8025,2.2676-10.607,2.5179-16.1617.1658-3.677-10.6056-4.8893-11.2086.8942-1.3561,13.006-11.8189,25.0411-10.3053,14.0569C151.0458,171.9754,152.1786,172.1549,153.9245,160.624Z"/><path class="cls-3" d="M177.5664,150.0757c-2.0389-.2557-3.0435,1.2843-2.52,3.5955-.3367,2.3352-.78,5.2545,1.9083,5.3,3.7072,6.3166-1.4937,14.6554-3.2788,21.0456.7344,5.2507,11.4334,3.2639,14.2784.5741,2.4522-4.69,10.2139-7.4229,9.5373-13.473-4.1968-.4119-11.0307,12.5666-14.1725,8.43.0209-.7289,1.9986-5.2483.111-7.6823-2.0888-2.6934,8.023-3.6862,8.4792-4.6321,4.6135-9.55-4.145-.0228-7.88-.6968-3.2629,1.38-4.1629-6.7021-.7829-6.7633,2.5338-.8143,16.15-11.2029,8.4379-12.4469C186.7051,144.3279,183.2994,151.0826,177.5664,150.0757Z"/><path class="cls-3" d="M203.3644,150.3158c-.2562-3.207-2.2687-7.3572-5.1669-7.0853.9509,5.6833-6.987,9.202,1.374,17.849,1.3411,1.387,1.9687,3.586,2.5122,5.6174.756,2.8254-4.479,7.3275-4.7575,10.2782-.1935,2.0488,3.47,5.5094,3.2761,7.5582-.5207-4.9827,5.24-11.8646,5.0316-16.8807-.1134-2.7361-1.6018-5.85-.1257-7.9265,3.4326-1.9291,11.5348-6.5455,6.5807-11.9729-1.7644-2.1436-1.6459,5.5613-10.7287,9.6432C195.9017,151.6844,203.6627,151.8991,203.3644,150.3158Z"/></g><path id="glass-3" data-name="glass" class="cls-14" d="M221.6919,260.5828H62.7971s-3.2126-79.1854-8.8557-120.9711C50.2067,111.9566,21.98,75.8024,21.98,75.8024l240.5288-3.7533s-23.8167,47.3268-30.5868,67.5626C218.7787,178.8971,221.6919,260.5828,221.6919,260.5828Z"/><path class="cls-8" d="M194.5007,31.073c2.4126,1.4445,11.2435,1.91,8.7682,3.244-9.6683,5.2109-4.3482,23.5956,8.0412-2.4768,2.75-5.7882-15.0513-2.1123-11.244-8.8583,9.3674-10.2488,2.016-14.737-4.7651-4.4347C192.439,22.3025,191.2854,29.1479,194.5007,31.073Z"/><path class="cls-8" d="M238.6683,25.0228c-1.1137-1.7133,2.8978-17.886-4.6064-10.0079-3.8162,4.0063,3.99,11.0489.6907,17.6088-.99,1.9678,3.8741,4.4615,5.8216,4.712,7.2617-1.7793,19.6391-33.5473,5.8175-18.9363-1.0234,2.0477-2.6583,13.7827-4.7058,10.8868C240.9683,28.2713,239.3457,26.0649,238.6683,25.0228Z"/><path class="cls-8" d="M267.3979,13.2625c-.8941-4.2858-8.2478-9.71-11.3482-4.4589-2.6041,5.0475.53,9.7373-1.4739,14.7624-1.5334,3.8455-8.5244,9.3342-4.6819,14.1442,4.9286-6.4255,7.28-13.766,8.72-14.5595,1.12-.6173,1.82,3.0321,1.9,12.18,2.94,4.6663,9.8924-3.3983,4.9405-4.9248-1.823-1.5022-3.6231-9.6775-3.6231-9.6775S267.7475,18.0523,267.3979,13.2625Zm-2.592,1.9634c-1.7216,1.9239-5.1378,2.587-6.7612,1.9155-1.2425-.514-.7294-8.7413,1.3991-7.9521C261.2671,9.8653,266.3252,13.5282,264.8059,15.2259Z"/><path class="cls-8" d="M229.3225,19.9715c-.68-2.0366-4.2641-5.9485-5.9894-7.2267-2.5124-1.8627-9.1039,1.5042-11.1611,4.2108-3.8377,5.0486,6.9645,6.7868,6.3467,11.6689-.2,1.579-1.3219,2.8589-2.0533,4.2727a9.1939,9.1939,0,0,0-.8744,5.8043,4.4187,4.4187,0,0,0,2.3,3.4458c1.8811.782,3.9136-.58,5.4954-1.864,3.606-2.9284,7.438-6.2118,8.4153-10.7533C232.5732,25.9462,230.4826,23.449,229.3225,19.9715Zm-2.0795,7.4908c-.05,1.1553-.9935,5.3107-2.9764,7.1318s-2.5475,2.3983-3.514,1.161,2.5081-6.29,2.2413-8.1058c-.6313-4.2968-3.9367-2.5817-4.6679-6.9428s3.6559-2.6073,3.6559-2.6073C223.6828,18.5015,227.2934,26.3067,227.243,27.4623Z"/><path class="cls-15" d="M254.5545,72.58a33.7843,33.7843,0,0,0,8.6373-.5308c7.4588-1.9579,19.0638-9.5486-4.9921-14.3063-6.9268-1.37,5.6249-1.6171,3.5946-6.3221-1.67-3.87-39.2428,4.86-79.3682,30.9693-16.7961,10.929-36.2085,25.1437-53.2368.52-2.6086-3.7721-7.0672-9.4788-8.7988-13.0736C112.9548,54.3993,95.7494,27.9841,92.3334,30.162,88.4741,32.6225,98.75,64.6753,95.8917,61.4,56.9046,16.7152,18.34-17.4161,12.1109,28.8648,9.44,48.7086,28.1835,75.59,28.1835,75.59S51.2937,105.2236,55,114.4284c5.9489,14.7744,12.46,55.6663,14.5235,69.2962.4287,2.8313.66,19.7537.66,19.7537s42.1177-18.6039,76.2-11.9275c32.5608,6.3783,21.2729,18.0927,46.8636,11.4394,21.8659-5.6848,22.4639,5.2791,22.4639,5.2791s.3243-21,.5768-22.68c1.727-11.4914,8.9158-57.5249,15.4812-72.9983C236,102.6186,254.5545,72.58,254.5545,72.58Z"/></g></g></svg>