<svg xmlns="http://www.w3.org/2000/svg" xmlns:xlink="http://www.w3.org/1999/xlink" viewBox="0 0 272.6386 340.4418"><defs><style>.cls-1{fill:url(#linear-gradient);}.cls-2{fill:#b8c9e8;opacity:0.78;}.cls-3{fill:#f7ee75;}.cls-4{fill:#e5002b;}.cls-5{fill:#ff437b;}.cls-5,.cls-6{opacity:0.21;}.cls-6{fill:#ff9fc7;}.cls-7{fill:#bd2335;}.cls-15,.cls-8{fill:#fff98d;}.cls-9{fill:none;}.cls-10{fill:#ffde5b;}.cls-11{fill:#fbf9df;}.cls-12{fill:#fbef83;}.cls-13{fill:#fbf781;}.cls-14{opacity:0.66;fill:url(#linear-gradient-2);}.cls-15{opacity:0.39;}</style><linearGradient id="linear-gradient" x1="62.797" y1="326.575" x2="221.692" y2="326.575" gradientUnits="userSpaceOnUse"><stop offset="0.0087" stop-color="#b9d0ed"/><stop offset="0.0687" stop-color="#cedef2"/><stop offset="0.1517" stop-color="#e4edf8"/><stop offset="0.2432" stop-color="#f3f7fc"/><stop offset="0.3486" stop-color="#fcfdfe"/><stop offset="0.5" stop-color="#fff"/><stop offset="0.6478" stop-color="#fcfdfe"/><stop offset="0.7567" stop-color="#f3f7fc"/><stop offset="0.8531" stop-color="#e3ecf8"/><stop offset="0.9417" stop-color="#ccddf2"/><stop offset="1" stop-color="#b9d0ed"/></linearGradient><linearGradient id="linear-gradient-2" x1="21.9801" y1="218.4414" x2="262.5089" y2="218.4414" gradientUnits="userSpaceOnUse"><stop offset="0.0087" stop-color="#b9d0ed"/><stop offset="0.0185" stop-color="#bdd3ee" stop-opacity="0.9517"/><stop offset="0.0631" stop-color="#ccddf2" stop-opacity="0.7536"/><stop offset="0.1104" stop-color="#dae6f5" stop-opacity="0.5779"/><stop offset="0.1599" stop-color="#e5eef8" stop-opacity="0.43"/><stop offset="0.212" stop-color="#eff4fb" stop-opacity="0.3097"/><stop offset="0.2677" stop-color="#f6f9fd" stop-opacity="0.2166"/><stop offset="0.3287" stop-color="#fbfcfe" stop-opacity="0.1508"/><stop offset="0.399" stop-color="#fefeff" stop-opacity="0.112"/><stop offset="0.5" stop-color="#fff" stop-opacity="0.1"/><stop offset="0.5966" stop-color="#fefeff" stop-opacity="0.1126"/><stop offset="0.6678" stop-color="#fbfcfe" stop-opacity="0.1528"/><stop offset="0.7308" stop-color="#f6f9fd" stop-opacity="0.2209"/><stop offset="0.7891" stop-color="#eef4fb" stop-opacity="0.3169"/><stop offset="0.8442" stop-color="#e4edf8" stop-opacity="0.4412"/><stop offset="0.8968" stop-color="#d9e5f5" stop-opacity="0.5938"/><stop offset="0.9475" stop-color="#cbdcf2" stop-opacity="0.7749"/><stop offset="0.9955" stop-color="#bbd1ed" stop-opacity="0.9793"/><stop offset="1" stop-color="#b9d0ed"/></linearGradient></defs><g id="finished"><g id="whisky"><g id="glass"><rect id="glassbottom" class="cls-1" x="62.797" y="312.7082" width="158.8951" height="27.7336"/><path id="glass-2" data-name="glass" class="cls-2" d="M221.6919,312.7082H62.7971s-3.2126-79.1854-8.8557-120.971C50.2067,164.082,21.98,127.9278,21.98,127.9278l240.5288-3.7532s-23.8167,47.3268-30.5868,67.5626C218.7787,231.0226,221.6919,312.7082,221.6919,312.7082Z"/></g><g id="drink"><path class="cls-3" d="M199.893,306.9916H84.596c-8.3986,0-15.207-10.2573-15.207-22.91V225.762s54.6416-6.5316,72.8555-6.5316S215.1,225.762,215.1,225.762v58.3193C215.1,296.7343,208.2916,306.9916,199.893,306.9916Z"/><path class="cls-4" d="M168.9,149.8192a20.8446,20.8446,0,1,1-29.709-29.2466c7.3693-7.4858,21.6436-10.0478,28.4152.4536.5285.82,1.1224.7827,1.513,1.0676C178.1287,128.6655,176.9766,141.6153,168.9,149.8192Z"/><ellipse class="cls-5" cx="153.1328" cy="132.1761" rx="18.5505" ry="18.0347" transform="translate(-9.9926 12.5505) rotate(-4.5451)"/><circle class="cls-6" cx="141.6726" cy="125.7564" r="5.6829"/><path class="cls-7" d="M178.2134,103.91c-1.7118,8.4816-6.8517,15.7795-12.1629,18.3121.9283-.4427,2.6561,1.385,2.6561,1.385s7.2064-9.5563,9.6341-17.366c2.9325-9.4332-4.5768-21.6277-2.0321-22.2663,2.948-.74-1.19-2.0035-4.2878-3.1366-1.9615-.7174,2.139,3.14,3.186,5.4708C177.2372,90.83,179.1765,99.1388,178.2134,103.91Z"/><circle class="cls-6" cx="146.2176" cy="121.8934" r="4.1844"/><path class="cls-8" d="M253.8716,124.7054a33.7843,33.7843,0,0,0,8.6373-.5308c7.4588-1.9579,19.0638-9.5486-4.9921-14.3064-6.9269-1.37,5.6249-1.6171,3.5945-6.322-1.67-3.87-45.37-2.7337-79.3682,30.9692-11.879,11.7761-31.36,37.2669-53.4366-.9729-63.3016-109.6484-24.5793-10.2541-33.0977-20.0173C56.2217,68.8407,17.6573,34.7094,11.428,80.99c-2.671,19.8438,16.0726,46.7253,16.0726,46.7253s23.11,29.6334,26.8164,38.8383c5.9488,14.7744,12.46,55.6663,14.5235,69.2962.4287,2.8313.66,19.7537.66,19.7537s42.1177-18.6039,76.2-11.9275c32.5608,6.3783,21.2729,18.0926,46.8636,11.4394,21.8659-5.6848,22.4638,5.2791,22.4638,5.2791s.3244-21,.5769-22.68c1.727-11.4913,8.9157-57.5249,15.4811-72.9983C235.3174,154.7441,253.8716,124.7054,253.8716,124.7054Z"/><g id="splash"><path class="cls-8" d="M184.65,118.1985c6.8341-8.606,13.6806-1.1656,15.1842-4.1834,1.4042-2.8181.8407-7.5649-4.5836-6.6314C183.8854,109.34,184.65,118.1985,184.65,118.1985Z"/><path class="cls-8" d="M80.7771,82.2875s-10.3878-11.74-15.5-13.942c-4.2967-1.8509-19.1916-7.7862-9.4242-14.0544C66.224,47.6356,73.77,57.9185,77.381,63.65,79.9335,67.7013,80.7771,82.2875,80.7771,82.2875Z"/><path class="cls-8" d="M178.8192,117.1993c2.9791-8.46,9.5079-12.649,11.9152-15.9181,2.2336-3.0334,6.5655-14.346-3.2353-11.8047S178.8192,117.1993,178.8192,117.1993Z"/><path class="cls-8" d="M17.6573,121.6622c-8.2056-3.6973-20.7936-1.2465-16.943-7.5252,4.9448-8.0628,12.2118.51,14.3067,3.0544A43.0554,43.0554,0,0,1,17.6573,121.6622Z"/><path class="cls-8" d="M220.656,104.0407c5.1093-5.1655,9.687-1.336,12.1181-6.2411,1.26-2.5425,2.536-6.9177-.9291-5.803C224.5847,94.3323,220.656,104.0407,220.656,104.0407Z"/><path class="cls-8" d="M117.5914,88.7348c-12.4549-22.0653-8.2531-27.0823-3.1536-24.5641,5.9862,2.9561,6.4213,10.3508,7.1269,8.4843,1.4576-3.8551,5.5338,3.9356,6.4054,12.1728,1.1748,11.1024-1.1047,24.4231-1.1047,24.4231S118.5178,90.376,117.5914,88.7348Z"/></g><g id="citrus_big" data-name="citrus big"><g id="citrus"><path class="cls-9" d="M16.66,89.6929a24.6773,24.6773,0,0,0,.4222,8.7958A29.1291,29.1291,0,0,1,16.66,89.6929Z"/><path class="cls-9" d="M38.9807,120.9773q-.377-.0791-.75-.1678Q38.6068,120.9,38.9807,120.9773Z"/><path class="cls-9" d="M37.797,120.7048c-.0186-.0047-.0366-.0105-.055-.0152Z"/><path class="cls-9" d="M64.2824,113.2529l-.2895-.3453a26.882,26.882,0,0,1-2.7952,2.6532A30.8023,30.8023,0,0,0,64.2824,113.2529Z"/><path class="cls-9" d="M27.597,69.49l-.0036-.0042s-.0481.0428-.1367.1253C27.5029,69.57,27.5505,69.5305,27.597,69.49Z"/><path class="cls-10" d="M41.5541,119.7251c-14.64-2.1014-25.0824-16.4215-23.3233-31.9847a29.0006,29.0006,0,0,1,4.5151-12.656A32.921,32.921,0,0,0,16.66,89.6929a29.1291,29.1291,0,0,0,.4222,8.7958A30.2824,30.2824,0,0,0,23.7,111.1358c4.576,5.4549,9.3908,8.322,14.0416,9.5538.0184.0047.0364.0105.055.0152.1449.038.2891.07.4337.1047q.373.0893.75.1678c9.3322,1.9149,17.8451-2.5009,22.217-5.4165a26.882,26.882,0,0,0,2.7952-2.6532l-.6094-.7268A25.326,25.326,0,0,1,41.5541,119.7251Z"/><path class="cls-11" d="M22.7459,75.0844A29.0006,29.0006,0,0,0,18.2308,87.74c-1.7591,15.5632,8.6831,29.8833,23.3233,31.9847a25.326,25.326,0,0,0,21.8294-7.5443L30.1067,72.4837l-.9483-1.0672s.004-.02.0112-.0507L27.597,69.49c-.0465.0408-.0941.08-.14.1211A37.9783,37.9783,0,0,0,22.7459,75.0844Zm39.9825,36.5942s-2.3883,2.4823-9.44,5.5242c-5.8795,2.5364-12.55.24-12.55.24L46.3249,92.99Zm-23.4414,5.817s-6.5716-.1459-13.1162-7.9186a21.5992,21.5992,0,0,1-4.9538-11.21l23.4519-6.2Zm4.8957-27.03L19.8758,95.953s-.6965-3.5416.8879-11.7729c1.3212-6.8631,7.2144-11.9631,7.2144-11.9631Z"/><path class="cls-12" d="M30.1067,72.4837,29.17,71.3658c-.0072.0307-.0112.0507-.0112.0507Z"/><path class="cls-13" d="M20.7637,84.18c-1.5844,8.2313-.8879,11.7729-.8879,11.7729l24.3069-5.4875L27.9781,72.217S22.0849,77.317,20.7637,84.18Z"/><path class="cls-13" d="M53.2889,117.2028c7.0512-3.0419,9.44-5.5242,9.44-5.5242L46.3249,92.99l-5.5857,24.4524S47.4094,119.7392,53.2889,117.2028Z"/><path class="cls-13" d="M26.1708,109.577c6.5446,7.7727,13.1162,7.9186,13.1162,7.9186l5.3819-25.3289-23.4519,6.2A21.5992,21.5992,0,0,0,26.1708,109.577Z"/></g><g id="citrus-2" data-name="citrus"><path class="cls-9" d="M209.4232,153.6472a24.6769,24.6769,0,0,0,8.78.6824A29.1288,29.1288,0,0,1,209.4232,153.6472Z"/><path class="cls-9" d="M243.2561,135.4184q-.1257.3642-.26.7231Q243.1327,135.78,243.2561,135.4184Z"/><path class="cls-9" d="M242.8375,136.5587c-.007.0178-.015.035-.022.0526Z"/><path class="cls-9" d="M238.76,109.3487l-.3788.244a26.8882,26.8882,0,0,1,2.2824,3.1054A30.7864,30.7864,0,0,0,238.76,109.3487Z"/><path class="cls-9" d="M190.7484,140.2664l-.0047.0031s.0365.0531.1072.1513C190.816,140.37,190.783,140.3177,190.7484,140.2664Z"/><path class="cls-10" d="M242.3359,132.7085c-3.9178,14.2619-19.4325,22.8291-34.6531,19.1354a29,29,0,0,1-11.9911-6.0641,32.92,32.92,0,0,0,13.7315,7.8674,29.1288,29.1288,0,0,0,8.78.6824,30.2818,30.2818,0,0,0,13.3761-4.9833c5.9849-3.857,9.4323-8.275,11.2366-12.735.007-.0176.015-.0348.022-.0526.0559-.1391.1056-.2781.1582-.4172q.1352-.359.26-.7231c3.0682-9.0191-.2472-18.0178-2.5924-22.72a26.8882,26.8882,0,0,0-2.2824-3.1054l-.7974.5136A25.326,25.326,0,0,1,242.3359,132.7085Z"/><path class="cls-11" d="M195.6917,145.78a29,29,0,0,0,11.9911,6.0641c15.2206,3.6937,30.7353-4.8735,34.6531-19.1354a25.326,25.326,0,0,0-4.752-22.6022l-43.5508,28.045-1.1776.8073s-.0194-.0065-.0489-.0175l-2.0582,1.3253c.0346.0513.0676.1035.1025.1544A37.98,37.98,0,0,0,195.6917,145.78Zm41.3119-35.0864s2.1638,2.68,4.299,10.0569c1.78,6.1507-1.3336,12.4809-1.3336,12.4809l-23.5606-8.6031Zm2.8365,23.9852s-.9675,6.5017-9.4984,12.0216a21.5988,21.5988,0,0,1-11.7423,3.5113l-3.2151-24.0436Zm-26.2045-8.2413,2.4012,24.8027s-3.601.2477-11.5691-2.3549c-6.6437-2.17-10.9657-8.6553-10.9657-8.6553Z"/><path class="cls-12" d="M194.0331,138.1513l-1.2265.79c.0295.011.0489.0175.0489.0175Z"/><path class="cls-13" d="M204.4677,148.8851c7.9681,2.6026,11.5691,2.3549,11.5691,2.3549l-2.4012-24.8027L193.502,140.23S197.824,146.7151,204.4677,148.8851Z"/><path class="cls-13" d="M241.3026,120.75c-2.1352-7.3767-4.299-10.0569-4.299-10.0569l-20.5952,13.9347,23.5606,8.6031S243.0829,126.901,241.3026,120.75Z"/><path class="cls-13" d="M230.3417,146.7c8.5309-5.52,9.4984-12.0216,9.4984-12.0216l-24.4558-8.5107,3.2151,24.0436A21.5988,21.5988,0,0,0,230.3417,146.7Z"/></g></g><path class="cls-3" d="M72.07,193.2523c-4.4791-8.2541-12.42-15.219-5.1061-16.4733,3.4245-.5873,7.7123,3.0327,9.0107,13.9582.4664,3.9242,3.8246,18.7855,6.908,28.7385-.3963-4.3647.203-19.3477,3.8138-18.93,3.5913,2.7914,1.817,17.3839,7.2064,19.4282.4866-14.1137-4.1692-25.1739,3.8908-39.2987,3.4268,4.0009.7551,9.08-.8206,13.2809-1.3255,13.8982,3.9142,29.6742-1.02,42.284-2.32,5.9291-5.8129-23.0592-10.575-23.4258C90.8127,265.8474,82.6138,212.6824,72.07,193.2523Z"/><path class="cls-3" d="M101.2511,195.4261c-2.1657,9.3748,1.8914,18.8244.4468,28.1269-.4607,4.58.1152,15.269,3.788,18.3363,4.9535-5.97-6.1091-29.8938,2.1474-30.8993,4.8843,5.2108,1.41,14.6123,4.13,20.98,5.8746,3.5925,2.801-16.5117,1.7941-20.6124.3062-9.6554,10.2411-17.0433,7.8571-27.4251-4.5472,3.8887-9.9021,13.7422-12.8416,20.5363-.6219,1.4374-2.4228.9557-2.4481-.6666a53.1164,53.1164,0,0,1,1.5467-10.4741C110.4475,175.3312,103.9194,183.8754,101.2511,195.4261Z"/><path class="cls-3" d="M117.3768,211.3186c-.5969,10.2806,6.1748,15.8229,3.8035,18.8536,3.3155-4.2376.8219-10.9436,2.7276-15.3549,3.1342-7.255,4.775-6.2255,6.0655-13.9864,2.33-14.01-5.3694-23.25-5.1755-1.9832C124.8358,203.0138,118.3418,207.228,117.3768,211.3186Z"/><path class="cls-3" d="M132.6058,204.9084c-2.3284,12.2358,5.2663,1.892,10.2664,3.8774,2.9791,4.27-2.6617,8.3819-5.1413,10.8433-1.58,4.8353-13.5685,8.3467-9.3176,11.72,7.1967,6.4831,16.012-8.4924,20.5624-14.1971.4548-2.5169,4.6622-10.6821-4.3125-12.34-1.8964-.35-6.0395.76-7.601-.0539-.96-.5-1.3548-2.77-.3623-3.0487C167.1792,193.1633,131.3943,185.2888,132.6058,204.9084Z"/><path class="cls-3" d="M153.9245,212.7494c2.55-5.4-5.3517-8.204.29-15.7569,1.9013-2.5457,4.814-9.8391,7.0386-6.1946,1.9732,5.1088-8.4622,14.218-1.5041,19.234,2.9449,2.3937,3.4181-8.5749,6.65-11.0724,11.7866-7.9723.1139,9.4011-3.3678,11.8842,3.3292,3.9383,5.04-2.8568,9.9367,6.1226,4.0043,4.8483-3.8271,16.5356-7.8693,18.0582-2.1305.8025,2.2676-10.6071,2.5179-16.1617.1658-3.6771-10.6056-4.8893-11.2086.8942-1.3561,13.006-11.8189,25.041-10.3053,14.0569C151.0458,224.1009,152.1786,224.28,153.9245,212.7494Z"/><path class="cls-3" d="M177.5664,202.2012c-2.0389-.2557-3.0435,1.2843-2.52,3.5954-.3367,2.3353-.78,5.2545,1.9083,5.3,3.7072,6.3165-1.4937,14.6553-3.2788,21.0456.7344,5.2506,11.4334,3.2639,14.2784.5741,2.4522-4.69,10.2139-7.4229,9.5373-13.473-4.1968-.4119-11.0307,12.5666-14.1725,8.43.0209-.729,1.9986-5.2483.111-7.6823-2.0888-2.6934,8.023-3.6862,8.4792-4.6321,4.6135-9.55-4.145-.0229-7.88-.6968-3.2629,1.38-4.1629-6.7022-.7829-6.7633,2.5338-.8144,16.15-11.2029,8.4379-12.447C186.7051,196.4534,183.2994,203.2081,177.5664,202.2012Z"/><path class="cls-3" d="M203.3644,202.4412c-.2562-3.207-2.2687-7.3571-5.1669-7.0852.9509,5.6833-6.987,9.202,1.374,17.849,1.3411,1.387,1.9687,3.586,2.5122,5.6174.756,2.8254-4.479,7.3275-4.7575,10.2782-.1935,2.0488,3.47,5.5094,3.2761,7.5582-.5207-4.9828,5.24-11.8646,5.0316-16.8807-.1134-2.7362-1.6018-5.85-.1257-7.9265,3.4326-1.9292,11.5348-6.5455,6.5807-11.9729-1.7644-2.1436-1.6459,5.5613-10.7287,9.6432C195.9017,203.81,203.6627,204.0246,203.3644,202.4412Z"/></g><path id="glass-3" data-name="glass" class="cls-14" d="M221.6919,312.7082H62.7971s-3.2126-79.1854-8.8557-120.971C50.2067,164.082,21.98,127.9278,21.98,127.9278l240.5288-3.7532s-23.8167,47.3268-30.5868,67.5626C218.7787,231.0226,221.6919,312.7082,221.6919,312.7082Z"/><path class="cls-8" d="M194.5007,83.1985c2.4126,1.4445,11.2435,1.91,8.7682,3.2439-9.6683,5.211-4.3482,23.5957,8.0412-2.4767,2.75-5.7882-15.0513-2.1124-11.244-8.8583,9.3674-10.2488,2.016-14.737-4.7651-4.4347C192.439,74.428,191.2854,81.2734,194.5007,83.1985Z"/><path class="cls-8" d="M238.6683,77.1483c-1.1137-1.7133,2.8978-17.886-4.6064-10.008-3.8162,4.0064,3.99,11.049.6907,17.6089-.99,1.9678,3.8741,4.4615,5.8216,4.712,7.2617-1.7793,19.6391-33.5474,5.8175-18.9363-1.0234,2.0477-2.6583,13.7827-4.7058,10.8868C240.9683,80.3968,239.3457,78.19,238.6683,77.1483Z"/><path class="cls-8" d="M267.3979,65.388c-.8941-4.2858-8.2478-9.7106-11.3482-4.4589-2.6041,5.0475.53,9.7372-1.4739,14.7623-1.5334,3.8456-8.5244,9.3343-4.6819,14.1443,4.9286-6.4256,7.28-13.766,8.72-14.56,1.12-.6172,1.82,3.0322,1.9,12.18,2.94,4.6663,9.8924-3.3983,4.9405-4.9248-1.823-1.5022-3.6231-9.6775-3.6231-9.6775S267.7475,70.1777,267.3979,65.388Zm-2.592,1.9634c-1.7216,1.9238-5.1378,2.587-6.7612,1.9154-1.2425-.5139-.7294-8.7413,1.3991-7.9521C261.2671,61.9908,266.3252,65.6537,264.8059,67.3514Z"/><path class="cls-8" d="M229.3225,72.097c-.68-2.0366-4.2641-5.9486-5.9894-7.2268-2.5124-1.8626-9.1039,1.5043-11.1611,4.2109-3.8377,5.0485,6.9645,6.7867,6.3467,11.6689-.2,1.579-1.3219,2.8588-2.0533,4.2727a9.1939,9.1939,0,0,0-.8744,5.8043,4.4185,4.4185,0,0,0,2.3,3.4457c1.8811.7821,3.9136-.5795,5.4954-1.8639,3.606-2.9284,7.438-6.2118,8.4153-10.7533C232.5732,78.0716,230.4826,75.5745,229.3225,72.097Zm-2.0795,7.4907c-.05,1.1553-.9935,5.3107-2.9764,7.1319s-2.5475,2.3983-3.514,1.161,2.5081-6.29,2.2413-8.1059c-.6313-4.2968-3.9367-2.5816-4.6679-6.9427s3.6559-2.6073,3.6559-2.6073C223.6828,70.627,227.2934,78.4322,227.243,79.5877Z"/><path class="cls-15" d="M254.5545,124.7054a33.7843,33.7843,0,0,0,8.6373-.5308c7.4588-1.9579,19.0638-9.5486-4.9921-14.3064-6.9268-1.37,5.6249-1.6171,3.5946-6.322-1.67-3.87-39.2428,4.86-79.3682,30.9692-16.7961,10.929-36.2085,25.1438-53.2368.52-2.6086-3.7722-7.0672-9.4788-8.7988-13.0736C112.9548,106.5248,95.7494,80.11,92.3334,82.2875c-3.8593,2.46,6.4163,34.5133,3.5583,31.2377C56.9046,68.8407,18.34,34.7094,12.1109,80.99,9.44,100.8341,28.1835,127.7156,28.1835,127.7156S51.2937,157.349,55,166.5539C60.9488,181.3283,67.46,222.22,69.5234,235.85c.4287,2.8313.66,19.7537.66,19.7537s42.1177-18.6039,76.2-11.9275c32.5608,6.3783,21.2729,18.0926,46.8636,11.4394,21.8659-5.6848,22.4639,5.2791,22.4639,5.2791s.3243-21,.5768-22.68c1.727-11.4913,8.9158-57.5249,15.4812-72.9983C236,154.7441,254.5545,124.7054,254.5545,124.7054Z"/></g></g></svg>